<?xml version="1.0" encoding="UTF-8"?>
<svg id="Layer_1" data-name="Layer 1" xmlns="http://www.w3.org/2000/svg" xmlns:xlink="http://www.w3.org/1999/xlink" viewBox="0 0 140 40">
  <defs>
    <style>
      .cls-1 {
        fill: url(#linear-gradient);
      }

      .cls-1, .cls-2, .cls-3 {
        stroke-width: 0px;
      }

      .cls-3 {
        fill: #ff414c;
      }
    </style>
    <linearGradient id="linear-gradient" x1="35.215" y1="1249.219" x2="37.816" y2="1252.34" gradientTransform="translate(0 1275.476) scale(1 -1)" gradientUnits="userSpaceOnUse">
      <stop offset="0" stop-color="#ff414c"/>
      <stop offset="1" stop-color="#ff414c" stop-opacity="0"/>
    </linearGradient>
  </defs>
  <path class="cls-1" d="M37.155,23.023l3.515,6.16h-7.1l-3.552-6.16h7.137Z"/>
  <path class="cls-3" d="M40.668,29.184l3.546-6.16-7.098-12.324h-7.098l10.651,18.484Z"/>
  <path class="cls-3" d="M26.468,16.859h7.098l-7.096,12.324-3.552-6.16,3.549-6.163Z"/>
  <path class="cls-2" d="M61.732,16.599l-.177,1.904c-.759-1.478-2.505-2.28-4.378-2.28-3.518,0-5.871,2.53-5.871,6.413,0,3.858,2.126,6.664,5.846,6.664,2.025,0,3.518-.977,4.302-2.255l.202,1.929h2.885v-12.376h-2.809ZM61.403,22.786c0,2.23-1.392,3.758-3.543,3.758s-3.467-1.553-3.467-3.758,1.341-3.783,3.493-3.783,3.518,1.553,3.518,3.783Z"/>
  <path class="cls-2" d="M69.795,28.974v-3.332l1.822-1.879,3.265,5.211h3.543l-4.657-7.465,4.758-4.91h-3.872l-4.859,5.186v-11.084h-3.062v18.274h3.062Z"/>
  <path class="cls-2" d="M88.794,16.599l-.177,1.904c-.759-1.478-2.506-2.28-4.378-2.28-3.518,0-5.872,2.53-5.872,6.413,0,3.858,2.126,6.664,5.846,6.664,2.025,0,3.518-.977,4.302-2.255l.203,1.929h2.885v-12.376h-2.809ZM88.465,22.786c0,2.23-1.392,3.758-3.543,3.758s-3.467-1.553-3.467-3.758,1.341-3.783,3.492-3.783,3.518,1.553,3.518,3.783Z"/>
  <path class="cls-2" d="M93.165,25.216c0,2.43,1.974,4.083,5.087,4.083,3.088,0,5.239-1.553,5.239-4.058,0-1.904-1.063-2.856-3.163-3.332l-2.252-.526c-1.063-.251-1.62-.702-1.62-1.403,0-.927.709-1.478,1.924-1.478,1.19,0,1.898.676,1.924,1.729h2.936c-.026-2.405-1.924-4.008-4.733-4.008-2.885,0-4.96,1.453-4.96,3.883,0,1.979,1.088,3.031,3.341,3.532l2.252.526c1.114.251,1.443.701,1.443,1.328,0,.902-.785,1.478-2.227,1.478-1.417,0-2.228-.676-2.253-1.754h-2.936Z"/>
  <path class="cls-2" d="M108.299,28.974v-6.764c0-1.854,1.139-3.207,3.088-3.207,1.569,0,2.607,1.002,2.607,3.081v6.889h3.088v-7.616c0-3.207-1.62-5.136-4.707-5.136-1.797,0-3.265.777-4.05,1.979v-7.502h-3.113v18.274h3.088Z"/>
</svg>