<?xml version="1.0" encoding="UTF-8"?><svg id="Layer_1" xmlns="http://www.w3.org/2000/svg" viewBox="0 0 140 40"><defs><style>.cls-1{stroke-width:0px;}</style></defs><path class="cls-1" d="M23.432,23.036v-10.152c0-.048-.019-.095-.054-.129-.034-.034-.081-.053-.129-.053h-1.459c-.048,0-.095.019-.129.053-.034.034-.053.081-.053.129v11.793c0,.048.019.095.053.129s.081.053.129.053h7.538c.048,0,.095-.019.129-.053.034-.034.053-.081.053-.129v-1.459c0-.048-.019-.095-.053-.129-.034-.034-.081-.053-.129-.053h-5.897Z"/><path class="cls-1" d="M42.277,12.702h-8.754c-.101,0-.182.082-.182.182v1.459c0,.101.082.182.182.182h8.754c.101,0,.182-.082.182-.182v-1.459c0-.101-.082-.182-.182-.182Z"/><path class="cls-1" d="M42.277,23.036h-8.754c-.101,0-.182.082-.182.182v1.459c0,.101.082.182.182.182h8.754c.101,0,.182-.082.182-.182v-1.459c0-.101-.082-.182-.182-.182Z"/><path class="cls-1" d="M42.277,17.861h-8.754c-.101,0-.182.082-.182.182v1.459c0,.101.082.182.182.182h8.754c.101,0,.182-.082.182-.182v-1.459c0-.101-.082-.182-.182-.182Z"/><path class="cls-1" d="M106.462,12.702h-8.754c-.101,0-.182.082-.182.182v1.459c0,.101.082.182.182.182h8.754c.101,0,.182-.082.182-.182v-1.459c0-.101-.082-.182-.182-.182Z"/><path class="cls-1" d="M106.462,23.036h-8.754c-.101,0-.182.082-.182.182v1.459c0,.101.082.182.182.182h8.754c.101,0,.182-.082.182-.182v-1.459c0-.101-.082-.182-.182-.182Z"/><path class="cls-1" d="M106.462,17.861h-8.754c-.101,0-.182.082-.182.182v1.459c0,.101.082.182.182.182h8.754c.101,0,.182-.082.182-.182v-1.459c0-.101-.082-.182-.182-.182Z"/><path class="cls-1" d="M71.275,12.702h-1.459c-.101,0-.182.082-.182.182v11.793c0,.101.082.182.182.182h1.459c.101,0,.182-.082.182-.182v-11.793c0-.101-.082-.182-.182-.182Z"/><path class="cls-1" d="M67.627,17.871h-4.681v-4.985c0-.048-.019-.095-.053-.129-.034-.034-.081-.053-.129-.053h-1.459c-.048,0-.095.019-.129.053-.034.034-.053.081-.053.129v4.985h-1.641c-.048,0-.094.019-.128.053-.034.034-.054.079-.054.127v1.459c0,.048.019.095.053.129.034.034.081.053.129.053h1.641v4.985c0,.048.019.095.053.129.034.034.081.053.129.053h1.459c.048,0,.095-.019.129-.053.034-.034.053-.081.053-.129v-4.985h4.681c.048,0,.095-.019.129-.053.034-.034.054-.081.054-.129v-1.459c0-.048-.02-.094-.054-.127-.034-.034-.08-.053-.128-.053Z"/><path class="cls-1" d="M14.904,19.686h2.023c.047,0,.093-.018.127-.051.034-.033.054-.078.056-.125v-1.459c0-.048-.019-.095-.053-.129-.034-.034-.081-.053-.129-.053h-2.835l-2.233-5.023c-.019-.043-.05-.079-.089-.105s-.085-.04-.131-.04h-1.824c-.047,0-.093.014-.132.04-.039.026-.07.062-.089.105l-2.232,5.016h-2.835c-.024,0-.049.005-.071.014-.023.01-.043.024-.06.041-.017.018-.03.038-.039.061-.009.023-.013.047-.012.072v1.459c0,.048.019.095.053.129.034.034.081.053.129.053h2.023l-2.188,4.917c-.011.027-.015.057-.012.086.003.029.013.058.029.082.016.025.038.045.064.059.026.014.055.022.084.023h1.628c.047,0,.093-.014.133-.039.039-.026.071-.062.09-.105l4.35-9.77,4.35,9.77c.019.043.05.08.09.105.039.026.086.039.133.039h1.628c.03,0,.06-.008.087-.022.027-.014.049-.035.066-.061.017-.026.026-.055.029-.085.002-.03-.003-.061-.015-.088l-2.19-4.917Z"/><path class="cls-1" d="M56.293,15.393c-.338-.798-.903-1.479-1.625-1.957-.722-.479-1.569-.734-2.436-.735h-5.137c-.048,0-.095.019-.129.053-.034.034-.053.081-.053.129v1.459c0,.048.019.095.053.129.034.034.081.053.129.053h5.137c.345-.001.687.068,1.005.203.461.196.856.521,1.137.936.289.426.443.929.441,1.444,0,.345-.069.687-.203,1.005-.196.462-.522.857-.938,1.138-.426.288-.929.442-1.443.44h-5.137c-.048,0-.095.019-.129.053-.034.034-.053.081-.053.129v4.802c0,.048.019.095.053.129.034.034.081.053.129.053h1.459c.048,0,.095-.019.129-.053s.053-.081.053-.129v-3.161h3.496c1.169,0,2.29-.465,3.116-1.291.827-.826,1.291-1.947,1.291-3.116,0-.589-.118-1.173-.346-1.716Z"/><path class="cls-1" d="M120.076,19.573c.492-.728.754-1.586.753-2.464,0-.579-.114-1.152-.335-1.687-.221-.535-.546-1.021-.955-1.43-.409-.409-.895-.734-1.43-.955-.535-.221-1.108-.335-1.687-.335h-5.137c-.048,0-.095.019-.129.053-.034.034-.053.081-.053.129v1.459c0,.048.019.095.053.129.034.034.081.053.129.053h5.137c.345-.001.687.068,1.005.203.469.197.869.528,1.15.951.281.424.431.921.431,1.429,0,.345-.068.687-.202,1.005-.197.461-.522.856-.937,1.138-.426.288-.93.442-1.444.44h-5.139c-.048,0-.095.019-.129.053-.034.034-.053.081-.053.129v4.802c0,.048.019.095.053.129.034.034.081.053.129.053h1.459c.048,0,.095-.019.129-.053.034-.034.053-.081.053-.129v-3.161h3.496c.305,0,.61-.032.908-.095l1.483,3.33c.014.032.038.06.067.079.03.019.064.029.1.029h1.667c.03,0,.06-.008.087-.022.027-.014.049-.035.066-.061.017-.026.027-.055.029-.085.002-.03-.003-.061-.015-.088l-1.763-3.959c.399-.297.746-.659,1.026-1.071Z"/><path class="cls-1" d="M93.518,12.702h-8.754c-.048,0-.095.019-.129.053-.034.034-.053.081-.053.129v1.459c0,.048.019.095.053.129.034.034.081.053.129.053h6.225l-2.421,3.091c-.018.023-.029.051-.033.08s.002.059.014.085c.013.027.032.049.057.065.025.016.053.025.083.025h1.843c.055,0,.11-.013.16-.037.05-.024.093-.059.127-.103l2.796-3.577c.055-.063.086-.142.09-.225v-1.046c0-.024-.005-.049-.014-.071-.01-.023-.024-.043-.041-.06-.018-.017-.038-.03-.061-.039-.023-.009-.047-.013-.072-.012Z"/><path class="cls-1" d="M93.518,23.036h-6.855l2.423-3.086c.018-.023.029-.051.033-.08.003-.029-.002-.059-.014-.085-.013-.027-.033-.049-.057-.065-.025-.016-.053-.025-.083-.025h-1.848c-.056,0-.11.012-.16.037-.05.024-.094.06-.128.103l-2.777,3.544c-.05.064-.078.143-.078.225v1.074c0,.048.019.095.054.129.034.034.081.053.129.053h9.362c.048,0,.095-.019.129-.053.034-.034.053-.081.053-.129v-1.459c0-.024-.005-.048-.014-.07-.009-.022-.023-.042-.039-.059-.017-.017-.037-.03-.059-.04-.022-.009-.046-.014-.07-.014Z"/><path class="cls-1" d="M133.99,19.682c-.043,0-.085.016-.117.043-.033.028-.055.066-.062.109-.051.285-.128.564-.228.835-.271.756-.769,1.409-1.426,1.87-.648.441-1.416.673-2.201.664-.529.003-1.052-.099-1.541-.302-.713-.301-1.314-.818-1.718-1.478-.297-.488-.499-1.027-.596-1.589-.007-.042-.029-.081-.062-.109-.033-.028-.074-.043-.117-.043h-1.48c-.026,0-.052.005-.076.016-.024.011-.045.026-.062.046-.017.02-.03.043-.038.068-.007.025-.01.051-.006.077.071.485.193.962.365,1.421.391,1.098,1.115,2.047,2.072,2.713.957.666,2.097,1.017,3.263,1.003.77.003,1.534-.148,2.245-.444,1.062-.448,1.958-1.217,2.562-2.198.465-.762.767-1.612.888-2.496.003-.026.001-.052-.006-.077-.007-.025-.02-.048-.037-.068-.017-.02-.038-.035-.062-.046-.024-.011-.049-.016-.076-.016h-1.483Z"/><path class="cls-1" d="M125.917,17.858c.043,0,.085-.015.118-.043.033-.028.055-.066.062-.109.051-.29.128-.575.23-.851.272-.753.768-1.403,1.422-1.864.649-.441,1.417-.672,2.202-.664.528-.003,1.051.099,1.539.302.715.3,1.317.817,1.723,1.477.297.491.5,1.033.597,1.599.007.042.03.081.062.109.033.028.074.043.117.043h1.478c.026,0,.052-.006.076-.016.024-.011.045-.026.062-.046.017-.02.03-.043.038-.067.008-.025.01-.051.007-.077-.07-.489-.192-.968-.365-1.431-.403-1.104-1.136-2.057-2.099-2.731-.953-.651-2.082-.995-3.236-.986-.77-.003-1.532.147-2.243.443-1.062.448-1.958,1.218-2.56,2.201-.467.764-.77,1.618-.889,2.506-.003.026-.001.052.006.077.007.025.02.048.037.068.017.02.038.035.062.046.024.011.049.016.075.016h1.477Z"/></svg>