<?xml version="1.0" encoding="UTF-8"?><svg id="Layer_1" xmlns="http://www.w3.org/2000/svg" viewBox="0 0 140 40"><defs><style>.cls-1,.cls-2{fill:#fff;}.cls-3{fill:#2c374b;}.cls-4{fill:#24a2ee;}.cls-5{fill:#98bcdc;}.cls-5,.cls-2{fill-rule:evenodd;}</style></defs><polygon class="cls-3" points="13.625 8.649 3.694 14.325 3.694 25.675 13.625 31.351 23.463 25.675 23.463 14.325 13.625 8.649"/><path class="cls-2" d="m24.503,12.811c-.189-.189-8.891-5.202-9.932-5.77-.473-.189-1.23-.284-1.703-.095-.568.189-9.743,5.581-10.121,5.864-.189.189-.473.568-.568.757-.189.378-.189.568-.189,6.716v6.337l1.135.662c.662.378,1.23.662,1.23.662.095,0,8.418-13.337,8.418-13.432s-1.892-.095-2.554,0c-.662.189-1.324.473-1.703.851-.189.189-1.324,1.892-2.554,3.878-1.324,1.986-2.365,3.689-2.365,3.689,0,.095-.095-1.797-.095-4.351v-4.446l.284-.189c.378-.378,9.459-5.581,9.743-5.581.189,0,.378.095,2.459,1.324.757.473,2.648,1.513,4.256,2.459s3.027,1.797,3.121,1.892l.189.189v9.175l-4.54-6.905c-.189-.378-.378-.662-.568-.851h0l-.095-.095s-.284.378-1.324,2.081c-.095.189-.284.568-.378.757l-.189.284h0l.095.189.095.189c0,.095.095.095.095.189l.284.473c0,.095.095.189.189.284.095.189.284.473.378.662,0,0,0,.095.095.095l3.689,6.054-.473.284c-.284.095-.378.189-.473.189l-4.635-7.189.095-.095-.378.662v.095l-1.797,2.932h0l3.594,5.675c-.473.378-3.5,2.459-3.689,2.459s-4.162-2.743-4.162-2.838c0,0,1.23-2.081,2.743-4.635h0c1.324-2.176,2.838-4.729,3.878-6.621,1.324-2.176,1.797-3.121,1.703-3.121h-3.689l-4.067,6.716c-1.513,2.459-2.838,4.729-3.594,5.959h0c-.378.662-.568,1.04-.662,1.04l-.189.284,3.216,1.797c1.703,1.04,3.405,1.986,3.689,2.081.662.378,1.324.473,1.797.284.378-.095,9.743-5.486,10.121-5.864.189-.095.378-.473.568-.757l.284-.568v-11.918l-.189-.378c-.284,0-.473-.284-.568-.473Zm-.946,10.688h0Z"/><path class="cls-4" d="m23.746,23.689l-5.297-8.135-1.986,3.216,5.108,8.418,2.27-1.04-.095-2.459Z"/><path class="cls-4" d="m21.192,28.04l-5.297-8.04-2.27,3.594,4.256,6.81,2.743-1.135.568-1.23Z"/><path class="cls-5" d="m3.694,14.325l9.837-5.675,9.837,5.675v11.351l-9.837,5.675-7.189-4.162-.946,1.608,7.945,4.54c.189.095.378.095.568,0l11.161-6.432c.189-.095.284-.284.284-.473v-12.864c0-.189-.095-.378-.284-.473l-11.256-6.432c-.189-.095-.378-.095-.568,0L2.18,13.095c-.189.095-.284.284-.284.473v12.864c0,.189.095.378.284.473l2.27,1.324.946-1.608-1.608-.946v-11.351h-.095Z"/><path class="cls-1" d="m17.882,14.419l-3.784.095-8.702,14.283,3.027,1.797,9.459-16.175Z"/><path class="cls-1" d="m8.423,15.744c.851-1.419,3.405-1.419,4.54-1.23l-8.513,13.715c-.284-.189-1.04-.568-1.608-.946-.757-.378-.851-.473-.946-.851v-.757c1.797-2.743,5.675-8.513,6.527-9.932Z"/><g id="Trb2wX"><g><path d="m126.469,23.878v-6.716c0-.568.284-.851.946-.946,1.608-.189,1.986,0,2.648,1.608s1.419,3.121,2.176,4.919c.284-.473.473-.662.662-.946.662-1.419,1.23-2.932,1.892-4.351.473-1.04,1.986-1.608,2.932-1.04.189.189.378.568.378.851v6.621h-1.513v-5.864c-.095,0-.189-.095-.284-.095-.189.189-.378.378-.473.568-.662,1.419-1.324,2.838-1.892,4.256-.378.757-.757,1.23-1.703,1.23s-1.419-.378-1.703-1.23c-.568-1.324-1.135-2.648-1.797-3.878-.189-.284-.378-.662-.757-.946v5.959c-.473,0-.851,0-1.513,0Z"/><path d="m60.825,23.878c0-.378-.095-.568-.095-.851v-6.81c.473,0,.946-.095,1.324-.095h5.013c2.365,0,3.121,1.419,1.986,3.5,0,.095-.095.189-.095.189.189.473.473.851.568,1.324.284,1.986-.378,2.743-2.365,2.743h-6.337Zm1.608-1.419h4.635c.568,0,.851-.284.851-.851,0-.473-.095-.946-.662-1.04h-4.824c0,.662,0,1.23,0,1.892Zm0-3.027h4.635c.568,0,.851-.189.946-.851,0-.568-.189-.946-.757-.946h-4.824v1.797Z"/><path d="m104.052,21.419c.378.473.662.851.946,1.135.284.378.568.757.851,1.135q-1.513.378-2.365-.662c-.189-.189-.378-.473-.568-.662-.378-.662-.946-.946-1.797-.946-.757.095-1.608,0-2.459,0-.095.851-.095,1.608-.189,2.459h-1.513v-7.567c.473,0,.946-.095,1.419-.095h4.446c1.703,0,2.365.378,2.554,1.513.568,1.703.189,2.838-1.324,3.689Zm-5.297-1.23h4.256c.757,0,1.04-.473,1.04-1.135,0-.851-.189-1.324-.946-1.324-1.419-.095-2.838,0-4.351,0v2.459Z"/><path d="m47.961,21.513c0,.851-.095,1.513-.095,2.365-.473,0-.851,0-1.419.095v-7.756h6.243c1.608.095,2.176.757,2.176,2.27.095,1.23-.095,2.365-1.608,2.838.662.851,1.23,1.608,1.892,2.459-.946,0-1.797.378-2.27-.568-.757-1.703-2.176-2.081-3.878-1.797-.189,0-.568,0-1.04.095Zm0-1.419h4.351c.662,0,.946-.473.946-1.04s0-1.324-.757-1.419c-1.513-.095-3.027,0-4.635,0,.095.946.095,1.608.095,2.459Z"/><path d="m40.678,23.784c-.946.284-1.703.189-2.176-.851-.095-.284-.662-.568-.946-.568-1.324-.095-2.648-.095-3.878,0-.284,0-.851.189-.946.473-.378,1.135-1.23,1.23-2.365.946.473-.946.946-1.892,1.513-2.743.757-1.324,1.419-2.648,2.176-3.973.757-1.23,2.365-1.23,3.027,0,1.23,2.081,2.365,4.256,3.5,6.432.189,0,.095.189.095.284Zm-5.013-6.337c-.757,1.324-1.23,2.365-1.892,3.594h3.878c-.757-1.23-1.324-2.27-1.986-3.594Z"/><path d="m118.997,16.216h1.608c0,1.892.095,3.784,0,5.581-.095,1.23-.757,1.892-2.081,1.986-1.703.095-3.405.095-5.202,0-1.23-.095-1.892-.757-1.986-2.081-.095-1.797,0-3.594,0-5.486h1.513v4.919c.095.757.473,1.23,1.324,1.23h3.5c.946,0,1.23-.378,1.23-1.419.095-1.513.095-3.027.095-4.729Z"/><path d="m91.472,16.216v1.419h-3.689v6.148c-.568,0-.946,0-1.608.095v-6.148h-3.784c0-.568-.095-.946-.095-1.419,3.121-.095,6.054-.095,9.175-.095Z"/><path d="m76.81,23.784h-1.513v-7.567c.473,0,.946-.095,1.513-.095v7.662Z"/></g></g></svg>