<?xml version="1.0" encoding="UTF-8"?><svg id="Layer_1" xmlns="http://www.w3.org/2000/svg" viewBox="0 0 140 40"><defs><style>.cls-1{fill:#f7931a;}.cls-2{fill:#fff;}.cls-3{fill:#4d4d4d;}</style></defs><g><path id="Ellipse" class="cls-1" d="m26.704,20.694c-.397-8.134,6.249-14.829,14.383-14.383,6.943.347,12.647,6.001,12.994,12.994.397,8.134-6.249,14.829-14.383,14.383-6.943-.397-12.647-6.051-12.994-12.994Z"/><path class="cls-2" d="m42.526,10.825c-.794,2.133-1.637,4.414-2.629,6.696,0,0,0,.347.347.347h6.696s0,.149.149.347l-9.82,10.911c-.149-.149-.149-.347-.149-.496l3.472-7.34v-.645h-6.894v-.645l8.332-9.175h.496Z"/></g><g><path class="cls-3" d="m63.158,12.412c.546,0,1.042.099,1.438.298.397.198.744.446.992.794.248.347.446.744.595,1.19.149.446.198.942.198,1.488,0,.794-.149,1.537-.446,2.281-.298.694-.694,1.339-1.19,1.885-.496.546-1.141.942-1.835,1.24-.694.298-1.438.446-2.281.446h-.546c-.248,0-.546-.05-.893-.099-.347-.05-.694-.099-1.091-.198-.397-.099-.744-.198-1.091-.397l3.025-12.697,2.777-.397-1.091,4.464c.248-.099.446-.198.694-.248s.496-.05.744-.05h0Zm-2.281,7.439c.397,0,.794-.099,1.141-.298.347-.198.694-.446.942-.794s.446-.694.595-1.141c.149-.397.248-.843.248-1.29,0-.546-.099-.992-.298-1.29s-.546-.496-1.042-.496c-.149,0-.397.05-.645.099s-.496.198-.694.347l-1.141,4.761c.05,0,.149,0,.198.05.05,0,.099,0,.149.05h.198c.149,0,.248,0,.347,0h0Z"/><path class="cls-3" d="m69.208,21.785h-2.579l2.182-9.175h2.579l-2.182,9.175Zm1.24-10.316c-.347,0-.694-.099-.992-.298-.298-.198-.446-.546-.446-.992,0-.248.05-.496.149-.694.099-.198.248-.397.397-.546.149-.149.347-.298.546-.397.248-.099.496-.149.744-.149.347,0,.694.099.992.298s.446.546.446.992c0,.248-.05.496-.149.694-.099.198-.248.397-.397.546s-.347.298-.546.397c-.248.099-.496.149-.744.149h0Z"/><path class="cls-3" d="m73.672,10.279l2.728-.397-.645,2.728h2.877l-.546,2.133h-2.877l-.744,3.224c-.05.248-.099.496-.099.744s0,.446.099.595c.05.149.198.298.397.397.198.099.446.149.794.149.298,0,.546-.05.794-.099s.546-.099.794-.198l.198,1.984c-.347.149-.744.248-1.141.347s-.893.149-1.438.149c-.794,0-1.438-.099-1.885-.347s-.744-.546-.942-.992c-.198-.397-.248-.893-.248-1.438s.099-1.091.248-1.686l1.637-7.291h0Z"/><path class="cls-3" d="m78.483,18.115c0-.794.149-1.537.397-2.232s.645-1.29,1.091-1.835c.496-.546,1.042-.942,1.736-1.24s1.438-.446,2.281-.446c.546,0,.992.05,1.389.149s.794.248,1.141.397l-.893,2.033c-.248-.099-.496-.198-.744-.248-.248-.099-.546-.099-.893-.099-.843,0-1.537.298-2.033.893-.496.595-.744,1.389-.744,2.381,0,.595.149,1.091.397,1.438.248.347.744.546,1.389.546.347,0,.645-.05.992-.099.298-.05.595-.149.843-.248l.198,2.083c-.347.149-.694.248-1.091.347-.397.099-.843.149-1.438.149-.744,0-1.339-.099-1.835-.298s-.893-.496-1.24-.843-.546-.794-.694-1.24c-.149-.595-.248-1.091-.248-1.587h0Z"/><path class="cls-3" d="m89.989,22.033c-.595,0-1.141-.099-1.587-.298-.446-.198-.843-.446-1.141-.794-.298-.347-.496-.744-.694-1.19-.149-.446-.248-.992-.248-1.537,0-.694.099-1.389.347-2.083.248-.694.546-1.339.992-1.885.446-.546.992-.992,1.637-1.389.645-.347,1.389-.546,2.182-.546.595,0,1.141.099,1.587.298.446.198.843.446,1.141.794.298.347.496.744.694,1.19.149.446.248.992.248,1.537,0,.694-.099,1.389-.347,2.083-.198.694-.546,1.339-.992,1.885-.446.546-.992.992-1.637,1.389-.595.347-1.339.546-2.182.546h0Zm1.29-7.489c-.397,0-.744.099-.992.347-.298.198-.546.496-.744.843s-.347.694-.446,1.091c-.099.397-.149.794-.149,1.141,0,.595.099,1.042.298,1.339.198.347.546.496.992.496.397,0,.744-.099.992-.347.298-.198.546-.496.744-.843s.347-.694.446-1.091c.099-.397.149-.794.149-1.141,0-.595-.099-1.042-.298-1.339-.198-.347-.546-.496-.992-.496h0Z"/><path class="cls-3" d="m97.925,21.785h-2.579l2.182-9.175h2.579l-2.182,9.175Zm1.29-10.316c-.347,0-.694-.099-.992-.298-.298-.198-.446-.546-.446-.992,0-.248.05-.496.149-.694s.248-.397.397-.546c.149-.149.347-.298.546-.397.198-.099.446-.149.694-.149.347,0,.694.099.992.298s.446.546.446.992c0,.248-.05.496-.149.694-.099.198-.248.397-.397.546s-.347.298-.546.397c-.248.099-.446.149-.694.149Z"/><path class="cls-3" d="m101.992,13.007c.198-.05.397-.149.645-.198.248-.099.496-.149.794-.198.298-.05.645-.099.992-.149s.794-.05,1.24-.05c1.339,0,2.281.397,2.827,1.19.496.794.595,1.885.248,3.224l-1.19,4.96h-2.579l1.141-4.86c.05-.298.149-.595.149-.893.05-.298.05-.546,0-.744s-.149-.397-.298-.546c-.149-.149-.446-.198-.794-.198s-.694.05-1.042.099l-1.686,7.092h-2.579l2.133-8.729Z"/></g><g><path class="cls-3" d="m56.958,30.514c-.298,0-.546-.05-.694-.099-.198-.099-.298-.198-.397-.347s-.099-.298-.099-.496.05-.347.05-.546l.794-3.422.992-.149-.893,3.72c0,.099-.05.149-.05.198s0,.099.05.149.05.099.149.099c.05.05.149.05.248.05l-.149.843Z"/><path class="cls-3" d="m58.545,30.415h-.942l.794-3.373h.942l-.794,3.373Zm.446-3.769c-.149,0-.248-.05-.347-.099-.099-.099-.149-.198-.149-.347,0-.099,0-.198.05-.248.05-.099.099-.149.149-.198.05-.05.149-.099.198-.149.099-.05.149-.05.248-.05.149,0,.248.05.347.099.099.099.149.198.149.347,0,.099,0,.198-.05.248-.05.099-.099.149-.149.198-.05.05-.149.099-.198.149-.05,0-.149.05-.248.05Z"/><path class="cls-3" d="m62.315,30.018c-.05.298-.149.496-.248.744-.099.198-.248.397-.397.496-.149.149-.347.248-.546.298s-.496.099-.744.099-.496,0-.694-.05-.347-.099-.496-.198l.298-.744c.149.05.248.099.397.149s.298.05.546.05c.298,0,.496-.05.645-.198.149-.099.248-.298.298-.496l.05-.099c-.099.05-.198.099-.298.099-.099.05-.198.05-.298.05-.198,0-.397-.05-.546-.099-.149-.05-.248-.149-.347-.248s-.149-.248-.198-.397-.05-.298-.05-.496c0-.347.05-.595.198-.843.099-.248.298-.446.496-.645.198-.149.446-.298.694-.397s.546-.149.794-.149c.198,0,.397,0,.595.05.198.05.397.099.595.198l-.744,2.827Zm-.397-2.232c-.05,0-.149-.05-.248-.05-.149,0-.298.05-.446.099-.149.05-.248.149-.347.248s-.149.198-.198.347-.05.298-.05.446v.198c0,.05.05.149.05.198.05.05.099.099.149.099.05.05.149.05.248.05.05,0,.149,0,.248-.05.099,0,.198-.05.298-.149l.298-1.438Z"/><path class="cls-3" d="m65.34,26.993c.198,0,.347.05.496.099.149.05.248.149.347.248s.149.198.198.347v.397c0,.198,0,.347-.05.546l-.446,1.785h-.942l.446-1.785c0-.05.05-.149.05-.248v-.248c0-.099-.05-.198-.099-.298-.05-.099-.149-.099-.347-.099h-.198c-.05,0-.099,0-.198.05l-.645,2.629h-.942l1.141-4.86.992-.149-.397,1.637c.099,0,.149-.05.248-.05.198,0,.248,0,.347,0Z"/><path class="cls-3" d="m67.621,26.2l.992-.149-.248.992h1.091l-.198.794h-1.042l-.347,1.19v.248c0,.099,0,.149.05.198.05.05.099.099.149.149.05.05.149.05.298.05.099,0,.198,0,.298-.05.099,0,.198-.05.298-.099l.05.744c-.149.05-.248.099-.397.099-.149.05-.347.05-.546.05-.298,0-.546-.05-.694-.149s-.298-.198-.347-.347-.099-.347-.099-.546.05-.397.099-.645l.595-2.529Z"/><path class="cls-3" d="m70.151,27.191c.05,0,.149-.05.248-.05.099-.05.198-.05.298-.099.099,0,.248-.05.347-.05h.446c.496,0,.843.149,1.042.446.198.298.198.694.099,1.19l-.446,1.835h-.942l.446-1.785c.05-.099.05-.198.05-.347v-.298c0-.099-.05-.149-.099-.198-.05-.05-.149-.05-.298-.05s-.248,0-.397.05l-.595,2.579h-.992l.794-3.224Z"/><path class="cls-3" d="m73.97,30.415h-.942l.794-3.373h.942l-.794,3.373Zm.446-3.769c-.149,0-.248-.05-.347-.099-.099-.099-.149-.198-.149-.347,0-.099,0-.198.05-.248.05-.099.099-.149.149-.198.05-.05.149-.099.198-.149.099-.05.149-.05.248-.05.149,0,.248.05.347.099.099.099.149.198.149.347,0,.099,0,.198-.05.248-.05.099-.099.149-.149.198-.05.05-.149.099-.198.149-.05,0-.149.05-.248.05Z"/><path class="cls-3" d="m75.606,27.191c.05,0,.149-.05.248-.05.099-.05.198-.05.298-.099.099,0,.248-.05.347-.05h.446c.496,0,.843.149,1.042.446.198.298.198.694.099,1.19l-.446,1.835h-.942l.446-1.785c.05-.099.05-.198.05-.347v-.298c0-.099-.05-.149-.099-.198-.05-.05-.149-.05-.298-.05s-.248,0-.397.05l-.595,2.579h-.992l.794-3.224Z"/><path class="cls-3" d="m81.409,30.018c-.05.298-.149.496-.248.744-.099.198-.248.397-.397.496-.149.149-.347.248-.546.298s-.496.099-.744.099-.496,0-.694-.05-.347-.099-.496-.198l.298-.744c.149.05.248.099.397.149s.298.05.546.05c.298,0,.496-.05.645-.198.149-.099.248-.298.298-.496l.05-.099c-.099.05-.198.099-.298.099-.099.05-.198.05-.298.05-.198,0-.397-.05-.546-.099-.149-.05-.248-.149-.347-.248s-.149-.248-.198-.397-.05-.298-.05-.496c0-.347.05-.595.198-.843.099-.248.298-.446.496-.645.198-.149.446-.298.694-.397s.546-.149.794-.149c.198,0,.397,0,.595.05.198.05.397.099.595.198l-.744,2.827Zm-.446-2.232c-.05,0-.149-.05-.248-.05-.149,0-.298.05-.446.099-.149.05-.248.149-.347.248s-.149.198-.198.347-.05.298-.05.446v.198c0,.05.05.149.05.198.05.05.099.099.149.099.05.05.149.05.248.05.05,0,.149,0,.248-.05.099,0,.198-.05.298-.149l.298-1.438Z"/><path class="cls-3" d="m84.435,27.191c.05,0,.149-.05.248-.05.099-.05.198-.05.298-.099.099,0,.248-.05.347-.05h.446c.496,0,.843.149,1.042.446.198.298.198.694.099,1.19l-.446,1.835h-.942l.446-1.785c.05-.099.05-.198.05-.347v-.298c0-.099-.05-.149-.099-.198-.05-.05-.149-.05-.298-.05s-.248,0-.397.05l-.645,2.629h-.942l.794-3.273Z"/><path class="cls-3" d="m87.51,29.126c0-.298.05-.546.149-.794.099-.248.248-.496.397-.694.198-.198.397-.347.645-.496s.546-.198.843-.198c.149,0,.298,0,.397.05.149.05.248.099.347.198.099.099.149.198.248.298.05.099.099.248.099.397,0,.248-.05.446-.149.595s-.248.298-.446.397-.397.198-.694.248c-.248.05-.546.05-.843.05.05.198.099.298.198.397.099.099.248.099.496.099.149,0,.298,0,.397-.05.149,0,.298-.05.397-.099l.05.744c-.099.05-.298.099-.446.149-.198.05-.397.05-.595.05-.248,0-.496-.05-.694-.099-.198-.099-.347-.198-.446-.298-.099-.149-.198-.298-.248-.446-.05-.149-.099-.298-.099-.496Zm1.885-1.389c-.198,0-.397.099-.595.248-.149.149-.298.347-.347.645.248,0,.496-.05.645-.05.149-.05.298-.099.397-.149.099-.05.149-.099.198-.149s.05-.099.05-.198c0-.248-.099-.347-.347-.347Z"/><path class="cls-3" d="m91.676,26.2l.992-.149-.248.992h1.091l-.198.794h-1.042l-.298,1.19c-.05.099-.05.198-.05.298s0,.149.05.198c.05.05.099.099.149.149s.149.05.298.05c.099,0,.198,0,.298-.05.099,0,.198-.05.298-.099l.05.744c-.149.05-.248.099-.397.099-.149.05-.347.05-.546.05-.298,0-.546-.05-.694-.149-.149-.099-.298-.198-.347-.347-.05-.149-.099-.347-.099-.546s.05-.397.099-.645l.595-2.579Z"/><path class="cls-3" d="m96.139,28.431c-.099.198-.149.347-.298.546-.099.198-.198.347-.298.546-.099.198-.198.347-.298.496-.099.149-.198.298-.248.397h-.744c-.05-.198-.05-.397-.099-.645-.05-.248-.05-.496-.099-.794-.05-.298-.05-.595-.099-.942-.05-.347-.05-.645-.05-.992h.942v1.042c0,.198,0,.397.05.595,0,.198.05.397.05.595.099-.198.198-.347.298-.546.099-.198.198-.397.298-.595.099-.198.198-.397.248-.595.099-.198.149-.347.198-.546h.794v1.042c0,.397.05.794.099,1.24.099-.198.198-.397.298-.595.099-.198.198-.397.298-.595.099-.198.149-.397.248-.546.05-.198.149-.347.198-.496h.992c-.099.198-.198.446-.298.744-.099.248-.248.546-.397.843-.149.298-.347.595-.546.893-.198.298-.397.595-.645.893h-.744c-.05-.347-.099-.694-.099-.992-.05-.298-.05-.645-.05-.992Z"/><path class="cls-3" d="m100.305,30.514c-.248,0-.446-.05-.595-.099-.149-.05-.298-.149-.397-.298s-.198-.248-.248-.446c-.05-.149-.099-.347-.099-.546,0-.248.05-.496.149-.794.099-.248.198-.496.347-.694s.347-.397.595-.496c.248-.149.496-.198.794-.198.198,0,.397.05.595.099.149.05.298.149.397.298s.198.248.248.446c.05.149.099.347.099.546,0,.248-.05.496-.099.794-.099.248-.198.496-.347.694s-.347.397-.595.496c-.248.149-.496.198-.843.198Zm.496-2.728c-.149,0-.248.05-.397.099-.099.099-.198.198-.248.298-.05.149-.149.248-.149.397-.05.149-.05.298-.05.397,0,.198.05.397.099.496.05.099.198.198.397.198.149,0,.248-.05.397-.099.099-.099.198-.198.248-.298.05-.149.149-.248.149-.397.05-.149.05-.298.05-.397,0-.198-.05-.397-.099-.496-.099-.149-.248-.198-.397-.198Z"/><path class="cls-3" d="m105.067,27.886c-.099,0-.149-.05-.248-.05s-.198-.05-.347-.05h-.198c-.05,0-.149,0-.198.05l-.645,2.579h-.942l.794-3.224c.198-.05.397-.099.645-.149s.496-.099.794-.099c.099,0,.248,0,.347.05.149,0,.248.05.347.099l-.347.794Z"/><path class="cls-3" d="m106.604,28.283c.248-.198.496-.397.744-.645.248-.198.446-.397.595-.595h1.091c-.248.248-.496.546-.744.794s-.546.546-.893.794c.099.099.198.248.298.397.099.149.198.298.248.446.099.149.149.298.248.496.05.149.149.298.198.446h-1.091c-.05-.099-.099-.248-.149-.347-.05-.149-.099-.248-.198-.397-.05-.149-.149-.248-.198-.397-.099-.149-.149-.248-.248-.347l-.347,1.488h-.942l1.141-4.86.992-.149-.744,2.877Z"/></g></svg>