<?xml version="1.0" encoding="UTF-8"?><svg id="Layer_1" xmlns="http://www.w3.org/2000/svg" viewBox="0 0 140 40"><defs><style>.cls-1{fill:#fff;}.cls-2{fill:#ff0420;}</style></defs><g id="optimism-logo"><g id="text"><path id="Path_238" d="m52.085,13.042c.932-.024,1.855.187,2.685.612.74.392,1.347.994,1.746,1.73.42.796.631,1.687.612,2.587-.005.454-.049.908-.131,1.355-.166,1.031-.565,2.01-1.166,2.864-.58.821-1.35,1.49-2.244,1.95-.924.473-1.949.714-2.987.703-.94.024-1.871-.186-2.709-.612-.74-.388-1.348-.988-1.746-1.723-.416-.794-.624-1.681-.605-2.577.004-.465.047-.929.131-1.387.166-1.031.565-2.011,1.167-2.864.581-.822,1.354-1.489,2.252-1.942.929-.467,1.956-.705,2.995-.694Zm-.18,2.122c-.956-.013-1.88.343-2.579.996-.754.71-1.248,1.653-1.404,2.677-.05.302-.077.608-.082.914,0,.914.261,1.635.783,2.163.522.528,1.24.792,2.154.792.632.005,1.255-.149,1.812-.449.564-.308,1.046-.747,1.404-1.281.392-.583.648-1.247.751-1.942.057-.306.085-.618.082-.929,0-.914-.261-1.632-.783-2.154s-1.235-.783-2.137-.785Zm13.074.408c1.001,0,1.798.31,2.391.929s.89,1.479.89,2.579c-.002.377-.034.754-.098,1.126-.148.882-.476,1.724-.963,2.474-.432.668-1.02,1.22-1.715,1.608-.659.365-1.4.556-2.154.554-.661.031-1.314-.162-1.852-.547-.47-.358-.787-.879-.89-1.46l-1.093,6.202h-2.301l2.351-13.351h2.3l-.343,1.877c.332-.604.823-1.107,1.42-1.453.624-.363,1.335-.549,2.057-.539Zm-2.008,7.247c.68.01,1.339-.238,1.844-.694.546-.506.903-1.182,1.012-1.918.031-.205.047-.413.049-.62.035-.547-.157-1.084-.53-1.485-.396-.364-.923-.552-1.461-.521-.682-.005-1.342.248-1.844.71-.549.503-.907,1.181-1.012,1.918-.032.194-.048.391-.049.588-.031.549.167,1.086.547,1.484.388.368.91.563,1.444.539Zm9.173-1.241c-.025.129-.035.26-.033.392-.026.229.059.456.229.612.227.133.489.193.751.171h.898l-.359,1.976h-1.209c-.86,0-1.518-.174-1.975-.521s-.686-.919-.686-1.714c.002-.318.035-.635.098-.947l.686-3.917h-1.256l.343-1.942h1.257l.392-2.236h2.318l-.392,2.236h1.991l-.343,1.942h-2.008l-.702,3.948Zm5.092-8.259c-.008-.406.166-.795.473-1.061.329-.288.755-.44,1.191-.424.317-.018.628.084.873.286.211.188.327.46.317.743.01.403-.161.789-.465,1.053-.327.284-.75.433-1.183.416-.32.02-.637-.079-.89-.277-.211-.184-.328-.454-.317-.734h0Zm2.122,2.366l-1.6,9.043h-2.3l1.6-9.042h2.3Zm13.612-.131c.936,0,1.662.253,2.179.759s.775,1.232.775,2.179c.002.328-.026.656-.082.979l-.93,5.256h-2.301l.898-4.994c.032-.183.048-.369.049-.555.03-.444-.13-.88-.441-1.2-.338-.293-.777-.443-1.224-.416-.595-.017-1.174.19-1.624.579-.476.453-.784,1.054-.873,1.706l-.865,4.88h-2.301l.898-4.994c.032-.183.048-.369.049-.555.03-.444-.13-.88-.441-1.2-.338-.293-.777-.443-1.224-.416-.604-.014-1.19.202-1.64.604-.486.469-.794,1.092-.873,1.763v-.082l-.849,4.88h-2.318l1.6-9.042h2.301l-.295,1.697c.324-.564.795-1.029,1.363-1.347.576-.322,1.226-.488,1.885-.481.644-.025,1.279.157,1.812.521.49.366.828.901.947,1.502.382-.611.909-1.118,1.534-1.477.603-.357,1.291-.545,1.992-.546h0Zm5.729-2.237c-.008-.406.166-.795.473-1.061.329-.288.755-.44,1.191-.424.317-.018.628.084.873.286.211.188.327.46.317.743.01.403-.161.789-.465,1.053-.327.284-.75.433-1.183.416-.32.02-.637-.079-.89-.277-.211-.184-.328-.454-.317-.734h0Zm2.122,2.366l-1.6,9.043h-2.301l1.6-9.042h2.301Zm4.783-.114c1.219,0,2.146.275,2.783.824.644.564,1.02,1.373,1.036,2.228h-2.252c.008-.404-.166-.791-.473-1.053-.371-.277-.828-.413-1.289-.384-.356-.017-.707.081-1.004.277-.247.169-.392.452-.384.751-.003.311.18.594.465.718.463.218.947.388,1.444.506.523.148,1.038.325,1.541.53.394.167.746.421,1.028.743.3.361.455.821.433,1.289,0,.208-.022.416-.065.62-.135.669-.543,1.252-1.126,1.607-.62.408-1.447.612-2.481.612-1.186,0-2.136-.269-2.849-.807-.707-.527-1.117-1.362-1.102-2.244h2.252c-.045.407.133.806.465,1.045.42.284.922.422,1.428.392.356.024.71-.08.996-.295.223-.184.35-.461.343-.751.006-.226-.086-.443-.253-.596-.182-.166-.396-.294-.628-.375-.25-.092-.609-.204-1.077-.335-.51-.137-1.011-.304-1.502-.499-.378-.156-.714-.399-.979-.71-.284-.349-.429-.791-.408-1.24,0-.197.017-.393.049-.588.124-.68.531-1.275,1.119-1.639.626-.419,1.455-.628,2.489-.628h0Zm17.529-.016c.936,0,1.662.253,2.179.759.517.506.775,1.232.775,2.179.002.328-.026.656-.082.979l-.931,5.256h-2.301l.898-4.994c.032-.183.048-.369.049-.555.03-.444-.13-.88-.441-1.2-.338-.293-.777-.443-1.224-.416-.595-.017-1.174.19-1.624.579-.476.453-.784,1.054-.873,1.706l-.865,4.88h-2.301l.898-4.994c.032-.183.048-.369.049-.555.03-.444-.13-.88-.441-1.2-.338-.293-.777-.443-1.224-.416-.604-.014-1.19.202-1.64.604-.486.469-.794,1.092-.873,1.763v-.082l-.849,4.88h-2.318l1.599-9.042h2.301l-.295,1.697c.324-.564.795-1.029,1.363-1.347.576-.322,1.226-.488,1.885-.481.644-.025,1.279.157,1.812.521.49.366.828.901.947,1.502.382-.611.909-1.118,1.534-1.477.604-.357,1.292-.545,1.993-.546h0Z"/></g><g id="optimism-logo-circle"><circle id="Ellipse_11" class="cls-2" cx="27.74" cy="18.835" r="13.828"/><path id="Path_139" class="cls-1" d="m23.705,22.502c-.719.031-1.429-.173-2.023-.581-.521-.398-.812-1.026-.778-1.68.003-.188.021-.375.052-.56.09-.499.218-1.097.384-1.795.47-1.902,1.684-2.853,3.641-2.853.491-.008.978.084,1.432.27.403.158.75.432.996.788.248.367.375.802.363,1.245-.004.184-.021.368-.052.55-.104.616-.228,1.214-.373,1.795-.242.947-.66,1.656-1.255,2.127-.594.463-1.39.695-2.385.695Zm.145-1.494c.359.01.71-.112.986-.342.305-.276.512-.644.591-1.048.159-.65.28-1.217.363-1.701.028-.147.042-.296.041-.446,0-.629-.328-.944-.985-.944-.362-.009-.716.113-.996.342-.299.279-.503.646-.581,1.048-.125.463-.249,1.03-.373,1.701-.028.144-.042.289-.041.436,0,.636.332.954.996.954Z"/><path id="Path_140" class="cls-1" d="m28.249,22.398c-.067.004-.132-.023-.176-.073-.035-.056-.046-.123-.031-.187l1.432-6.743c.013-.074.053-.141.113-.187.056-.046.125-.071.197-.073h2.759c.65-.032,1.294.135,1.847.477.462.303.731.828.705,1.38,0,.182-.022.362-.062.54-.114.699-.489,1.329-1.048,1.764-.519.38-1.231.571-2.137.571h-1.4l-.477,2.272c-.013.074-.053.141-.113.187-.056.046-.125.071-.197.073h-1.411Zm3.672-3.963c.272.006.538-.078.757-.238.226-.166.381-.41.436-.685.019-.103.03-.207.031-.311.012-.171-.053-.338-.176-.457-.173-.128-.387-.187-.602-.166h-1.245l-.394,1.857h1.193Z"/></g></g></svg>