<?xml version="1.0" encoding="UTF-8"?>
<svg id="Layer_1" data-name="Layer 1" xmlns="http://www.w3.org/2000/svg" viewBox="0 0 140 40">
  <defs>
    <style>
      .cls-1 {
        fill: #000;
        stroke-width: 0px;
      }
    </style>
  </defs>
  <path class="cls-1" d="M17.386,33.521v1.895c-.711.005-1.385-.113-2.038-.343-2.546-.894-4.212-3.23-4.224-5.933-.007-1.614-.001-3.228-.001-4.842,0-2.071-1.237-3.496-3.289-3.79-.03-.004-.058-.02-.091-.032v-1.878c.234-.046.475-.078.708-.141,1.576-.426,2.665-1.842,2.671-3.478.006-1.423,0-2.846.001-4.269.002-3.054,2.034-5.491,5.046-6.016.539-.094,1.096-.079,1.678-.116v1.976c-.365,0-.725-.029-1.08.005-2.117.199-3.704,1.937-3.718,4.069-.009,1.349-.014,2.697.001,4.046.023,1.982-.717,3.589-2.311,4.791-.025.019-.05.039-.018.014.47.527.978,1.012,1.386,1.571.657.899.933,1.944.938,3.054.009,1.773-.028,3.548.021,5.32.057,2.079,1.805,3.864,3.888,4.053.137.012.274.029.43.046Z"/>
  <path class="cls-1" d="M38.556,6.529v-1.904c1.722-.12,3.269.278,4.58,1.403,1.401,1.201,2.118,2.731,2.117,4.585,0,1.402-.006,2.804.001,4.206.01,1.894,1.158,3.324,2.964,3.702.134.028.272.041.428.063v1.894c-.239.047-.48.08-.714.143-1.623.44-2.671,1.862-2.678,3.641-.006,1.667,0,3.335-.002,5.002-.002,3.283-2.795,6.109-6.085,6.157-.042,0-.085-.006-.156-.011v-1.869c.364-.064.744-.102,1.108-.201,1.927-.524,3.215-2.219,3.215-4.208,0-1.699-.024-3.399.01-5.098.035-1.807.796-3.272,2.237-4.377.042-.032.083-.065.146-.115-.208-.176-.413-.335-.602-.513-1.212-1.142-1.788-2.556-1.79-4.211-.002-1.412,0-2.825,0-4.237,0-2.224-1.799-4.035-4.026-4.054-.243-.002-.486,0-.753,0Z"/>
  <path class="cls-1" d="M63.612,15.238c1.606,0,3.183-.067,4.751.02,1.378.076,2.421.995,2.645,2.201.245,1.319-.129,2.611-1.459,3.338-.046.025-.089.054-.156.096.673,1.313,1.342,2.619,2.046,3.992-.602,0-1.126-.051-1.636.012-.702.086-1.087-.147-1.346-.826-.32-.839-.774-1.627-1.162-2.441-.072-.152-.151-.229-.332-.22-.328.016-.658.005-1.033.005v3.385h-2.318v-9.562ZM65.963,19.569c.645,0,1.284.059,1.907-.017.594-.073.917-.669.893-1.422-.019-.59-.414-1.112-.977-1.161-.597-.052-1.202-.012-1.822-.012v2.611Z"/>
  <path class="cls-1" d="M124.433,15.238c1.605,0,3.181-.065,4.749.02,1.341.073,2.371.958,2.627,2.108.271,1.214-.03,2.682-1.446,3.429-.046.024-.087.057-.152.101.674,1.313,1.344,2.619,2.048,3.989-.649,0-1.226-.046-1.792.013-.584.06-.891-.125-1.112-.683-.347-.875-.8-1.709-1.198-2.565-.081-.176-.173-.262-.379-.251-.316.018-.635.005-.995.005v3.399h-2.35v-9.563ZM126.807,16.955v2.636c.598,0,1.173.036,1.741-.01.634-.051,1.026-.591,1.033-1.316.007-.687-.399-1.251-1.014-1.3-.578-.047-1.163-.01-1.76-.01Z"/>
  <path class="cls-1" d="M99.101,15.221c1.297,0,2.571-.104,3.822.024,2.018.206,3.41,1.606,3.748,3.607.2,1.186.198,2.377-.329,3.495-.751,1.592-2.031,2.449-3.789,2.526-1.104.048-2.212.009-3.318.008-.04,0-.08-.015-.134-.026v-9.633ZM101.405,17.013c0,.173,0,.298,0,.424v4.872q0,.734.722.742c1.053.011,1.725-.459,1.997-1.467.282-1.043.276-2.103-.003-3.146-.225-.843-.881-1.377-1.682-1.421-.328-.018-.657-.003-1.035-.003Z"/>
  <path class="cls-1" d="M115.636,18.287h-2.222c-.02-.087-.038-.168-.058-.248-.189-.747-.633-1.151-1.357-1.235-.748-.086-1.37.249-1.71.909-.441.858-.462,1.782-.392,2.705.041.544.119,1.105.301,1.615.405,1.133,2.044,1.545,2.991.79.064-.051.119-.153.121-.233.012-.434.006-.868.006-1.344h-1.617v-1.582h3.928c0,.119,0,.233,0,.347.002,1.2.007,2.399.002,3.599,0,.075-.054.185-.116.22-.486.275-.957.598-1.476.788-1.013.37-2.074.447-3.142.266-1.571-.266-2.596-1.204-3.049-2.693-.484-1.591-.466-3.208.119-4.782.542-1.46,1.943-2.418,3.506-2.403.559.005,1.131.05,1.673.177,1.494.35,2.421,1.524,2.494,3.105Z"/>
  <path class="cls-1" d="M58.689,21.6c-.469.94-.945,1.828-1.354,2.746-.185.416-.414.549-.858.521-.677-.043-1.359-.011-2.089-.011.07-.131.121-.231.176-.328.818-1.439,1.632-2.879,2.459-4.313.11-.19.112-.328.001-.519-.801-1.387-1.588-2.782-2.379-4.175-.056-.099-.105-.202-.178-.344.876,0,1.712-.006,2.547.009.079.001.186.119.228.208.411.849.811,1.703,1.215,2.556.053.113.111.223.189.378.075-.131.135-.224.185-.323.431-.863.866-1.725,1.286-2.593.086-.178.188-.243.387-.24.786.012,1.573.005,2.415.005-.067.129-.115.228-.169.323-.785,1.384-1.565,2.771-2.364,4.147-.137.236-.124.406.007.633.814,1.404,1.613,2.817,2.416,4.227.057.099.109.201.189.35-.683,0-1.33-.043-1.967.013-.546.048-.835-.123-1.048-.636-.324-.782-.739-1.526-1.115-2.286-.051-.103-.106-.204-.181-.347Z"/>
  <path class="cls-1" d="M98.283,23.042v1.79h-6.64v-9.634h6.676v1.75h-4.293v2.041h3.564v1.756h-3.619v2.297h4.312Z"/>
  <path class="cls-1" d="M123.583,24.84h-6.604v-9.648h6.652v1.755h-4.286v2.042h3.596v1.752h-3.654v2.3h4.295v1.799Z"/>
  <path class="cls-1" d="M72.407,15.176c.106,0,.199,0,.292,0,1.266,0,2.532-.019,3.797.006,1.071.021,2.029.368,2.763,1.181,1.571,1.739.728,4.445-1.579,5.036-.509.13-1.048.154-1.576.189-.454.03-.911.006-1.408.006v3.208h-2.289v-9.626ZM74.722,16.956v2.799c.549,0,1.068.004,1.588-.001.669-.007,1.205-.46,1.264-1.062.088-.885-.311-1.572-1-1.726-.021-.005-.042-.01-.063-.01-.592,0-1.184,0-1.789,0Z"/>
  <path class="cls-1" d="M38.038,12.308c-.65.611-1.243,1.168-1.836,1.724-1.342,1.256-2.688,2.508-4.027,3.768-2.177,2.048-5.621,2.102-7.837.078-1.946-1.777-3.854-3.595-5.778-5.395-.038-.036-.071-.078-.138-.153.121-.009.209-.021.297-.021.745-.001,1.49-.013,2.235.008.17.005.374.084.498.198,1.407,1.295,2.804,2.602,4.2,3.91,1.485,1.391,3.605,1.386,5.096-.005,1.414-1.32,2.834-2.633,4.259-3.94.103-.095.273-.162.414-.164.846-.015,1.693-.007,2.617-.007Z"/>
  <path class="cls-1" d="M38.044,27.723c-.954,0-1.834.006-2.715-.008-.107-.002-.23-.092-.316-.173-1.405-1.313-2.811-2.624-4.205-3.949-1.5-1.427-3.632-1.445-5.14-.033-1.426,1.336-2.855,2.67-4.288,3.999-.085.079-.214.155-.324.157-.872.013-1.744.007-2.616.007-.025-.028-.051-.056-.076-.084.113-.085.234-.159.337-.255,1.849-1.724,3.698-3.449,5.542-5.178,2.223-2.085,5.608-2.129,7.842-.072,1.938,1.784,3.853,3.595,5.777,5.394.046.043.086.092.181.195Z"/>
  <path class="cls-1" d="M90.725,23.05v1.784h-6.374v-9.638h2.284c.006.128.017.261.017.393.001,2.356.008,4.713-.008,7.069-.002.334.098.404.412.399,1.085-.019,2.17-.007,3.254-.007.126,0,.251,0,.414,0Z"/>
</svg>