<?xml version="1.0" encoding="UTF-8"?><svg id="Layer_1" xmlns="http://www.w3.org/2000/svg" viewBox="0 0 140 40"><defs><style>.cls-1{fill:#1869fd;}</style></defs><path class="cls-1" d="m26.78,6.539c.667-.351,1.682-.351,2.349,0l6.808,3.577c.402.211.623.526.662.85h.006v17.982c-.009.354-.232.706-.668.936l-6.808,3.577c-.667.351-1.682.351-2.349,0l-6.808-3.577c-.435-.229-.644-.583-.654-.936-.001-.035-.001-.064,0-.088V11.082c0-.02,0-.039,0-.058v-.057h.003c.03-.328.241-.635.651-.85l6.808-3.577Zm8.754,14.46l-6.404,3.366c-.667.351-1.682.351-2.349,0l-6.39-3.358v7.907l6.39,3.34c.361.192.735.379,1.102.403l.073.002c.381.001.752-.191,1.128-.374l6.451-3.4v-7.886Zm-17.323,7.559c0,.689.08,1.142.24,1.461.133.264.331.466.694.712l.021.014c.08.053.167.109.274.175l.126.077.387.232-.555.912-.433-.26-.073-.044c-.125-.077-.229-.143-.326-.208-1.034-.694-1.42-1.45-1.427-3.023v-.048s1.071,0,1.071,0Zm9.208-12.379c-.05.017-.096.036-.138.059l-6.808,3.577c-.007.004-.014.008-.02.011l-.006.003.011.006.015.008,6.808,3.577c.042.022.089.042.138.059v-7.301Zm1.072,0v7.301c.05-.017.096-.036.138-.059l6.808-3.577c.007-.004.014-.008.02-.011l.006-.003-.011-.006-.015-.008-6.807-3.578c-.042-.022-.089-.042-.139-.059Zm7.043-3.937l-6.107,3.209,6.107,3.209v-6.418Zm-15.144.008v6.403l6.093-3.202-6.093-3.202Zm8.239-4.768c-.354-.186-.995-.186-1.348,0l-6.808,3.577c-.007.004-.014.008-.02.011l-.006.003.011.006.015.008,6.808,3.577c.354.186.995.186,1.348,0l6.808-3.577c.007-.004.014-.008.02-.011l.006-.003-.011-.006-.015-.008-6.807-3.577Zm7.911.392l.433.26.073.044c.125.077.229.143.326.208,1.034.694,1.42,1.45,1.427,3.023v.048s-1.071,0-1.071,0c0-.689-.08-1.142-.24-1.461-.133-.264-.331-.466-.694-.712l-.021-.014c-.08-.053-.167-.109-.274-.175l-.126-.077-.387-.232.554-.912Z"/><path class="cls-1" d="m49.683,28.199v-10.028h2.781v-1.836h-2.781v-1.318c0-1.491.652-2.236,1.956-2.236.377,0,.778.063,1.202.188v-1.954c-.519-.157-1.092-.235-1.72-.235-1.21,0-2.149.345-2.816,1.036s-1.002,1.695-1.002,3.013v1.506h-2.286v1.836h2.286v10.028h2.38Zm9.663.165c.911,0,1.709-.188,2.392-.565.683-.377,1.198-.918,1.544-1.624v2.025h2.357v-11.864h-2.357v1.93c-.362-.706-.88-1.252-1.556-1.636-.676-.384-1.469-.577-2.38-.577-1.021,0-1.933.259-2.734.777-.801.518-1.426,1.248-1.874,2.189s-.672,2.025-.672,3.249.22,2.295.66,3.213c.44.918,1.057,1.628,1.85,2.13.793.502,1.716.753,2.769.753Zm.566-1.883c-1.084,0-1.929-.369-2.533-1.106-.605-.737-.908-1.773-.908-3.107,0-1.35.303-2.405.908-3.166.605-.761,1.441-1.142,2.51-1.142,1.084,0,1.921.369,2.51,1.106.589.737.884,1.789.884,3.154,0,1.35-.295,2.397-.884,3.143-.589.745-1.418,1.118-2.486,1.118Zm11.572,1.719v-6.756c0-1.051.302-1.891.907-2.519.605-.628,1.41-.942,2.416-.942.88,0,1.52.235,1.921.706.401.471.601,1.224.601,2.26v7.25h2.38v-7.391c0-3.17-1.422-4.755-4.266-4.755-.911,0-1.724.2-2.439.6-.715.4-1.261.977-1.638,1.73l-.212-2.048h-2.215c.126.989.188,2.103.188,3.343v8.522h2.357Zm16.191.165c.66,0,1.249-.086,1.768-.259v-1.93c-.424.125-.841.188-1.249.188-.629,0-1.119-.169-1.473-.506-.353-.337-.53-.914-.53-1.73v-5.956h3.276v-1.836h-3.276v-3.79l-2.38.824v2.966h-2.31v1.836h2.31v6.144c0,1.318.338,2.323,1.013,3.013.676.691,1.626,1.036,2.852,1.036Zm9.097,0c1.147,0,2.16-.251,3.04-.753s1.559-1.216,2.039-2.142c.479-.926.719-2.009.719-3.249s-.24-2.327-.719-3.26c-.479-.934-1.159-1.652-2.039-2.154-.88-.502-1.893-.753-3.04-.753-1.163,0-2.184.251-3.064.753s-1.559,1.22-2.039,2.154c-.479.934-.719,2.021-.719,3.26s.24,2.323.719,3.249c.479.926,1.159,1.64,2.039,2.142.88.502,1.901.753,3.064.753Zm-.024-1.883c-1.084,0-1.921-.361-2.51-1.083-.589-.722-.884-1.781-.884-3.178,0-1.365.299-2.417.896-3.154s1.438-1.106,2.522-1.106c1.068,0,1.897.369,2.486,1.106.589.737.884,1.789.884,3.154,0,1.397-.291,2.456-.872,3.178s-1.422,1.083-2.522,1.083Zm10.959,1.719v-6.709c0-1.083.267-1.938.801-2.566s1.257-.942,2.168-.942c.786,0,1.355.235,1.708.706.354.471.53,1.216.53,2.236v7.274h2.38v-6.709c0-1.083.263-1.938.79-2.566.526-.628,1.245-.942,2.156-.942.786,0,1.355.235,1.708.706.354.471.53,1.216.53,2.236v7.274h2.38v-7.391c0-3.17-1.32-4.755-3.959-4.755-.88,0-1.669.204-2.369.612-.699.408-1.229.965-1.591,1.671-.566-1.522-1.768-2.283-3.606-2.283-.864,0-1.618.196-2.263.588-.644.392-1.139.949-1.485,1.671l-.212-1.977h-2.215c.126.989.188,2.103.188,3.343v8.522h2.357Z"/></svg>