<?xml version="1.0" encoding="UTF-8"?><svg id="Layer_1" xmlns="http://www.w3.org/2000/svg" viewBox="0 0 140 40"><defs><style>.cls-1{fill-rule:evenodd;}</style></defs><g id="Layer_1-2"><path class="cls-1" d="m48.543,11.107h-17.674v17.787h17.674v-6.21h-2.934c-1.011,2.267-3.285,3.842-5.89,3.842-3.592,0-6.498-2.953-6.498-6.538s2.906-6.513,6.498-6.513c2.655,0,4.929,1.628,5.94,3.946h2.881l.003-6.313h0Zm17.113,11.577c-1.037,2.264-3.288,3.842-5.915,3.842-3.488,0-6.347-2.8-6.473-6.285h15.322v-9.134h-17.674v17.787h17.674v-6.21h-2.934Zm.229-4.631h-12.338c.783-2.925,3.388-4.581,6.194-4.581s5.233,1.553,6.144,4.581Zm40.868,1.935c0,3.614-2.884,6.538-6.473,6.538-3.567,0-6.473-2.953-6.473-6.538s2.884-6.513,6.473-6.513,6.473,2.9,6.473,6.513Zm2.377-8.881h-17.674v17.787h17.674V11.107Zm-22.816,11.577h2.934v6.21h-18.306V11.107h2.984v8.881c0,3.971,2.934,6.513,6.423,6.513,2.702,0,5.079-1.475,5.965-3.817h0Z"/></g></svg>