<?xml version="1.0" encoding="UTF-8"?><svg id="Layer_1" xmlns="http://www.w3.org/2000/svg" viewBox="0 0 140 40"><defs><style>.cls-1{fill:#3b3b3b;}.cls-2{opacity:.8;}.cls-2,.cls-3,.cls-4{isolation:isolate;}.cls-3{opacity:.45;}.cls-4{opacity:.6;}</style></defs><path class="cls-1" d="m45.611,22.128c0,.198-.167.365-.376.365h-6.916c.177,1.711,1.46,3.276,3.276,3.276,1.241,0,2.159-.469,2.848-1.46.073-.104.177-.177.303-.177.198,0,.344.146.344.344,0,.073-.021.125-.052.177-.699,1.21-2.086,1.805-3.442,1.805-2.326,0-3.995-2.086-3.995-4.308s1.659-4.308,3.995-4.308,4.006,2.065,4.016,4.287h0Zm-.741-.323c-.146-1.711-1.46-3.276-3.276-3.276s-3.098,1.565-3.276,3.276h6.551Zm9.138-3.797c.198,0,.344.177.344.344,0,.198-.146.344-.344.344h-1.857v7.292c0,.177-.146.344-.344.344s-.344-.177-.344-.344v-7.292h-1.784c-.198,0-.344-.146-.344-.344,0-.177.146-.344.344-.344h1.784v-2.66c0-.177.136-.344.313-.365.219-.021.386.136.386.344v2.681h1.846Zm11.329,3.526v4.413c0,.198-.177.344-.344.344-.198,0-.344-.146-.344-.344v-4.413c0-1.492-.845-2.973-2.504-2.973-2.128,0-3.046,1.857-2.921,3.766,0,.052.021.271.021.303v3.307c0,.177-.136.344-.313.365-.219.021-.386-.136-.386-.344v-14.51c0-.177.146-.344.344-.344s.344.177.344.344v8.199c.595-1.064,1.659-1.784,2.9-1.784,2.045,0,3.202,1.784,3.202,3.672Zm12.424.595c0,.198-.167.365-.376.365h-6.916c.177,1.711,1.46,3.276,3.276,3.276,1.241,0,2.159-.469,2.848-1.46.073-.104.177-.177.303-.177.198,0,.344.146.344.344,0,.073-.021.125-.052.177-.699,1.21-2.086,1.805-3.442,1.805-2.326,0-3.995-2.086-3.995-4.308s1.659-4.308,3.995-4.308c2.316,0,3.995,2.065,4.016,4.287h0Zm-.751-.323c-.146-1.711-1.46-3.276-3.276-3.276-1.805,0-3.098,1.565-3.276,3.276h6.551Zm9.242-3.474c0,.219-.125.344-.323.376-2.034.303-2.952,1.961-2.952,3.891v3.307c0,.177-.136.344-.313.365-.219.021-.386-.136-.386-.344v-7.542c0-.177.136-.344.313-.365.219-.021.386.136.386.344v1.533c.574-.97,1.711-1.888,2.9-1.888.177,0,.376.125.376.323h0Zm11.381,3.797c0,.198-.167.365-.376.365h-6.916c.177,1.711,1.46,3.276,3.276,3.276,1.241,0,2.159-.469,2.848-1.46.073-.104.177-.177.303-.177.198,0,.344.146.344.344,0,.073-.021.125-.052.177-.699,1.21-2.086,1.805-3.442,1.805-2.326,0-3.995-2.086-3.995-4.308s1.659-4.308,3.995-4.308,4.006,2.065,4.016,4.287h0Zm-.741-.323c-.146-1.711-1.46-3.276-3.276-3.276s-3.098,1.565-3.276,3.276h6.551Zm11.923-3.39v7.573c0,.198-.177.344-.344.344-.198,0-.344-.146-.344-.344v-1.44c-.574,1.137-1.586,1.961-2.879,1.961-2.055,0-3.192-1.784-3.192-3.672v-4.433c0-.177.146-.344.344-.344s.344.177.344.344v4.433c0,1.492.845,2.973,2.504,2.973,2.326,0,2.879-2.18,2.879-4.59v-2.827c0-.209.219-.417.469-.323.125.063.219.198.219.344h0Zm17.515,3.088v4.433c0,.198-.177.344-.344.344-.198,0-.344-.146-.344-.344v-4.433c0-1.492-.845-2.952-2.504-2.952-2.086,0-2.879,2.232-2.879,3.964v3.422c0,.198-.177.344-.344.344-.198,0-.344-.146-.344-.344v-4.433c0-1.492-.845-2.952-2.504-2.952-2.107,0-2.973,1.659-2.9,3.87,0,.052.021.146,0,.177v3.328c0,.177-.136.344-.313.365-.219.021-.386-.136-.386-.344v-7.563c0-.177.136-.344.313-.365.219-.021.386.136.386.344v1.262c.595-1.064,1.659-1.763,2.9-1.763,1.408,0,2.504.897,2.952,2.201.574-1.294,1.69-2.201,3.119-2.201,2.034,0,3.192,1.763,3.192,3.641h0Z"/><path class="cls-4" d="m22.328,25.383l8.669-5.122-8.669-3.933-8.658,3.933,8.658,5.122Z"/><path class="cls-3" d="m22.328,16.328V5.886l-8.658,14.375,8.658,5.122v-9.055Z"/><path class="cls-2" d="m22.328,25.383l8.669-5.122-8.669-14.375v19.497Z"/><path class="cls-3" d="m22.328,27.02l-8.658-5.111,8.658,12.205v-7.093Z"/><path class="cls-2" d="m30.996,21.909l-8.669,5.111v7.093l8.669-12.205Z"/></svg>