<?xml version="1.0" encoding="UTF-8"?><svg id="Layer_1" xmlns="http://www.w3.org/2000/svg" xmlns:xlink="http://www.w3.org/1999/xlink" viewBox="0 0 140 40"><defs><style>.cls-1{fill:url(#linear-gradient);}.cls-2{fill:url(#linear-gradient-3);}.cls-3{fill:url(#linear-gradient-2);}.cls-4{fill-rule:evenodd;}</style><linearGradient id="linear-gradient" x1="36.909" y1="772.492" x2="21.56" y2="801.893" gradientTransform="translate(0 -766)" gradientUnits="userSpaceOnUse"><stop offset="0" stop-color="#00ffa3"/><stop offset="1" stop-color="#dc1fff"/></linearGradient><linearGradient id="linear-gradient-2" x1="30.198" y1="768.989" x2="14.848" y2="798.389" xlink:href="#linear-gradient"/><linearGradient id="linear-gradient-3" x1="33.532" y1="770.729" x2="18.183" y2="800.13" xlink:href="#linear-gradient"/></defs><path d="m51.23,21.038h4.393c.618,0,1.118.506,1.118,1.124,0,.623-.501,1.124-1.118,1.124h-5.299c-.085,0-.165.032-.224.085l-1.598,1.379c-.245.213-.096.612.224.612h6.63s.005,0,.005-.005.005-.005.005-.005c.085.005.165.011.25.011,1.757,0,3.185-1.433,3.185-3.201,0-1.677-1.283-3.057-2.924-3.19,0,0-.005,0-.005-.005s0-.005-.005-.005h-4.729c-.618,0-1.118-.506-1.118-1.124,0-.623.501-1.124,1.118-1.124h5.288c.085,0,.17-.032.234-.091l1.486-1.379c.234-.218.08-.607-.234-.607h-6.769c-1.757,0-3.185,1.433-3.185,3.201s1.427,3.201,3.185,3.201h.085Z"/><path d="m76.802,14.632c-.192,0-.346.154-.346.351v10.033c0,.192.154.351.346.351h8.041c.096,0,.186-.043.256-.112l1.006-1.081c.208-.224.053-.591-.256-.591h-7.019c-.192,0-.346-.154-.346-.351v-8.254c0-.192-.154-.351-.346-.351h-1.337v.005Z"/><path class="cls-4" d="m63.926,14.632h0q0,.005,0,0c-1.028.048-1.853.873-1.901,1.901h0v6.747h0v.085c0,1.07.841,1.944,1.901,1.986h7.296c1.054-.048,1.901-.921,1.901-1.986v-.085h0v-6.742h0c-.043-1.028-.868-1.859-1.896-1.901h-7.301v-.005Zm1.363,1.906h0q-.005,0,0,0c-.644.027-1.161.549-1.188,1.198h0v4.244h0v.053c0,.671.527,1.225,1.188,1.251h4.575c.66-.027,1.188-.58,1.188-1.251v-.053h0v-4.244h0c-.027-.65-.543-1.166-1.188-1.198h-4.575Z"/><path class="cls-4" d="m97.795,25.017c0,.192.154.351.346.351h1.363c.192,0,.346-.154.346-.351v-8.302h0v-.085c0-1.07-.836-1.944-1.88-1.986h-7.088c-1.086,0-1.965.889-1.965,1.992v.085h0v8.302c0,.192.154.351.346.351h1.363c.192,0,.346-.154.346-.351v-3.456c0-.192.154-.351.346-.351h6.145c.192,0,.346.154.346.351v3.451h-.016Zm-6.832-5.714v-1.725c0-.671.538-1.214,1.198-1.214h4.441c.66,0,1.198.543,1.198,1.214v1.725c0,.192-.154.351-.346.351h-6.145c-.192,0-.346-.154-.346-.351Z"/><path class="cls-4" d="m126.579,25.368c-.192,0-.346-.154-.346-.351v-3.456c0-.192-.154-.351-.346-.351h-6.215c-.192,0-.346.154-.346.351v3.456c0,.192-.154.351-.346.351h-1.374c-.192,0-.346-.154-.346-.351v-8.302h0v-.085c0-1.097.889-1.992,1.986-1.992h7.163c1.054.048,1.901.921,1.901,1.986v.085h0v8.302c0,.192-.154.351-.346.351h-1.385v.005Zm-7.253-7.791v1.725c0,.192.154.351.346.351h6.215c.192,0,.346-.154.346-.351v-1.725c0-.671-.543-1.214-1.209-1.214h-4.489c-.671,0-1.209.543-1.209,1.214Z"/><path d="m104.984,14.632c.101,0,.197.043.261.122l6.114,7.29c.208.245.607.096.607-.229v-6.832c0-.192.154-.351.346-.351h1.363c.192,0,.346.154.346.351v10.033c0,.192-.154.351-.346.351h-1.693c-.005,0-.011-.005-.011-.011s0-.005-.005-.011l-6.22-7.237c-.208-.245-.607-.091-.607.229v6.683c0,.192-.154.351-.346.351h-1.374c-.192,0-.346-.154-.346-.351v-10.038c0-.192.154-.351.346-.351h1.566Z"/><path class="cls-1" d="m16.206,25.733c.168-.168.398-.266.643-.266h22.179c.405,0,.608.489.321.776l-4.381,4.381c-.168.168-.398.266-.643.266H12.146c-.405,0-.608-.489-.321-.776l4.381-4.381Z"/><path class="cls-3" d="m16.206,9.375c.175-.168.405-.266.643-.266h22.179c.405,0,.608.489.321.776l-4.381,4.381c-.168.168-.398.266-.643.266H12.146c-.405,0-.608-.489-.321-.776l4.381-4.381Z"/><path class="cls-2" d="m34.968,17.502c-.168-.168-.398-.266-.643-.266H12.146c-.405,0-.608.489-.321.776l4.381,4.381c.168.168.398.266.643.266h22.179c.405,0,.608-.489.321-.776l-4.381-4.381Z"/></svg>