<?xml version="1.0" encoding="UTF-8"?>
<svg id="Layer_1" data-name="Layer 1" xmlns="http://www.w3.org/2000/svg" viewBox="0 0 140 40">
  <path d="m53.59,22.21c.06.82.4,1.47.98,1.97.59.5,1.35.74,2.3.74.83,0,1.49-.18,2-.55.51-.36.77-.87.77-1.51,0-.46-.14-.83-.42-1.09-.28-.27-.65-.48-1.14-.63-.49-.14-1.15-.3-2.02-.46-.88-.16-1.63-.36-2.26-.63-.63-.26-1.14-.65-1.53-1.17-.4-.53-.59-1.23-.59-2.09,0-.8.2-1.5.61-2.12.41-.63.97-1.11,1.71-1.45.73-.34,1.57-.52,2.52-.52s1.84.18,2.6.56c.77.36,1.37.87,1.8,1.53.43.65.68,1.38.71,2.22h-2.2c-.08-.72-.38-1.29-.91-1.72-.54-.43-1.2-.65-2.02-.65s-1.42.17-1.89.52c-.47.35-.7.85-.7,1.47,0,.44.14.81.42,1.07s.65.46,1.11.6c.46.13,1.14.27,2,.43.88.16,1.63.36,2.27.64.64.26,1.15.65,1.56,1.17.4.52.6,1.2.6,2.05s-.22,1.55-.64,2.2c-.42.65-1.02,1.15-1.79,1.51-.77.36-1.63.55-2.6.55-1.07,0-2.02-.2-2.83-.6-.82-.39-1.46-.95-1.92-1.66-.46-.7-.69-1.51-.7-2.42l2.17.04Zm10.67-3.74h-1.72v-1.88h1.72v-2.84h2.12v2.83h2.39v1.88h-2.39v5.29c0,.39.08.68.23.85.15.17.42.25.79.25h1.6v1.89h-2.02c-.94,0-1.63-.22-2.07-.68-.43-.44-.65-1.15-.65-2.09v-5.5Zm15.3-1.88v10.14h-1.84l-.23-1.55c-.34.51-.79.9-1.34,1.21-.55.3-1.17.46-1.9.46-.91,0-1.71-.21-2.43-.63-.71-.42-1.26-1.02-1.67-1.8-.4-.78-.6-1.71-.6-2.76s.2-1.94.61-2.72c.41-.78.97-1.39,1.67-1.82.71-.43,1.52-.64,2.4-.64.74,0,1.38.14,1.92.43.55.29.98.68,1.32,1.17l.26-1.49h1.84Zm-2.87,7.52c.54-.63.79-1.42.79-2.41s-.27-1.82-.79-2.45c-.54-.64-1.23-.95-2.09-.95s-1.57.31-2.09.94c-.54.63-.79,1.43-.79,2.42s.27,1.82.79,2.45c.54.63,1.23.94,2.09.94s1.57-.31,2.09-.94Zm12.6,1.73c-.8.66-1.83,1-3.09,1-.98,0-1.85-.21-2.6-.64-.75-.43-1.33-1.04-1.74-1.84-.41-.8-.61-1.71-.61-2.74s.2-1.93.63-2.71c.41-.78,1-1.38,1.76-1.81.75-.43,1.63-.64,2.63-.64,1.24,0,2.26.34,3.05,1,.79.66,1.28,1.58,1.48,2.72h-2.16c-.14-.59-.42-1.04-.86-1.38-.42-.34-.94-.52-1.57-.52-.84,0-1.52.31-2.03.93-.51.63-.77,1.42-.77,2.41s.26,1.82.77,2.45c.51.63,1.19.94,2.03.94.65,0,1.19-.17,1.61-.52.42-.35.7-.82.83-1.42h2.13c-.19,1.19-.7,2.1-1.49,2.76Zm3.18-12.98h2.09v8.68l4.55-4.95h2.43l-3.7,4.08,3.94,6.06h-2.49l-2.95-4.5-1.76,1.9v2.59h-2.09v-13.87h-.01Zm11.69,10.52c.04.53.28.96.73,1.3.45.34,1.02.51,1.74.51.64,0,1.15-.12,1.54-.36.4-.25.59-.57.59-.98,0-.34-.09-.6-.27-.77s-.42-.3-.73-.36c-.31-.08-.78-.14-1.4-.22-.87-.1-1.58-.25-2.15-.43-.56-.18-1.02-.46-1.35-.85-.34-.39-.51-.91-.51-1.58,0-.63.17-1.17.51-1.66.34-.48.82-.86,1.42-1.12.6-.26,1.29-.39,2.04-.39,1.25,0,2.27.29,3.05.85.78.57,1.2,1.37,1.28,2.4h-2.04c-.05-.46-.28-.85-.68-1.13-.4-.3-.91-.44-1.52-.44s-1.1.12-1.48.35c-.37.23-.56.56-.56.96,0,.3.09.53.28.68.19.16.42.26.7.31.28.07.74.13,1.38.21.86.09,1.57.23,2.16.43.59.2,1.05.5,1.39.91.34.42.52.98.52,1.69,0,.64-.18,1.19-.55,1.67-.36.48-.86.85-1.49,1.11-.64.26-1.34.39-2.13.39-1.33,0-2.41-.31-3.23-.93-.82-.61-1.25-1.46-1.28-2.54h2.04Z"/>
  <path d="m39.93,22.84l3.28,5.11h-2.45l-3.85-6.01-3.85,6.01h-2.43l3.28-5.1h-4.7v-1.94h15.42v1.92h-4.7Z"/>
  <path d="m44.63,17.1v1.94h0s-15.42.01-15.42.01v-1.95h4.61l-3.24-5.05h2.45l3.88,6.09,3.9-6.09h2.45l-3.24,5.05h4.61Z"/>
</svg>