<?xml version="1.0" encoding="UTF-8"?><svg id="Layer_1" xmlns="http://www.w3.org/2000/svg" viewBox="0 0 140 40"><defs><style>.cls-1{fill:#24f6dc;}.cls-1,.cls-2,.cls-3{stroke-width:0px;}.cls-2{fill:#010101;}.cls-3{fill:#020202;}</style></defs><g id="zqGSgn"><path class="cls-2" d="M15.412,13.21c.058-.006.116-.018.175-.018,1.008-.001,2.017.003,3.025-.005.152-.001.217.048.274.185,1.388,3.295,2.782,6.588,4.174,9.881.022.052.045.104.081.189.082-.187.155-.347.223-.508,1.342-3.178,2.686-6.356,4.023-9.537.068-.163.151-.212.326-.211.956.01,1.913.008,2.869.001.143,0,.184.033.184.18-.004,4.334-.004,8.668,0,13.002,0,.152-.033.2-.192.197-.586-.01-1.172-.012-1.757,0-.184.004-.231-.046-.231-.23.006-3.579.004-7.159.004-10.738v-.254c-.085.053-.093.129-.12.191-1.536,3.609-3.073,7.217-4.601,10.83-.081.192-.172.266-.382.255-.362-.019-.727-.016-1.089,0-.164.007-.225-.059-.282-.198-1.503-3.607-3.01-7.211-4.518-10.816-.03-.072-.042-.155-.13-.227v.271c0,3.543,0,7.085,0,10.628q0,.286-.297.286c-.586.001-1.171.004-1.757.006v-13.358Z"/><path class="cls-3" d="M64.619,9.127c-.003.015-.006.03-.009.044-.749,0-1.498,0-2.247,0-.004-.015-.008-.03-.012-.044.756,0,1.513,0,2.269,0Z"/><path class="cls-3" d="M86.093,20.959c-1.571,0-3.143.003-4.714-.005-.187,0-.23.042-.217.23.135,1.865,1.605,3.405,3.474,3.614,1.21.135,2.346-.067,3.353-.794.272-.196.51-.43.696-.71.062-.093.129-.121.236-.12.608.005,1.216.008,1.823-.002.181-.003.192.058.144.205-.292.896-.857,1.594-1.585,2.169-1.066.842-2.308,1.209-3.646,1.279-1.696.088-3.252-.315-4.57-1.422-1.495-1.255-2.193-2.894-2.156-4.825.041-2.175.924-3.94,2.783-5.132,3.048-1.954,8.112-.937,9.158,3.849.106.485.154.977.176,1.472.007.16-.045.193-.197.193-1.586-.005-3.172-.003-4.759-.003ZM88.65,19.122c-.257-.809-.655-1.501-1.314-2.022-.779-.616-1.682-.785-2.65-.739-1.599.076-2.821,1.002-3.297,2.51q-.079.25.176.25c2.281,0,4.562,0,6.843,0,.073,0,.147,0,.242,0Z"/><path class="cls-2" d="M101.29,23.234c.75,0,1.476,0,2.203,0,.055,0,.11-.013.148.061.41.783,1.113,1.188,1.923,1.422,1.128.326,2.265.325,3.395-.012.206-.061.399-.155.581-.271.509-.325.748-.778.682-1.387-.062-.574-.377-.943-.902-1.157-.466-.19-.958-.243-1.452-.294-.98-.101-1.969-.117-2.938-.312-.815-.164-1.58-.448-2.212-1.012-1.381-1.233-1.331-3.531.104-4.7.721-.587,1.57-.877,2.476-1.007,1.444-.207,2.87-.132,4.248.379,1.24.46,2.18,1.261,2.71,2.496.105.244.101.246-.163.246-.638,0-1.275-.001-1.913.001-.1,0-.179-.011-.253-.095-.724-.833-1.681-1.179-2.747-1.27-.682-.058-1.363-.037-2.026.168-.292.09-.567.214-.805.41-.654.539-.607,1.475.1,1.945.438.291.941.377,1.45.446,1.101.149,2.214.198,3.308.398.474.087.933.226,1.372.428,1.197.55,1.77,1.507,1.866,2.792.136,1.821-.917,2.854-2.082,3.322-2.247.901-4.502.872-6.685-.217-1.085-.541-1.878-1.401-2.324-2.549-.019-.048-.034-.097-.049-.147-.006-.02-.009-.042-.017-.084Z"/><path class="cls-2" d="M42.404,24.589c-.575.94-1.346,1.613-2.366,1.981-2.189.788-5.423-.069-6.339-3.373-.147-.53-.214-1.072-.215-1.621-.003-2.189,0-4.378-.005-6.567,0-.16.03-.214.203-.211.608.012,1.216.011,1.823,0,.167-.003.206.039.206.205-.006,2.034-.005,4.067-.004,6.101,0,.557.067,1.104.254,1.634.554,1.573,1.934,2.242,3.443,2.079,1.825-.197,2.94-1.628,3.009-3.292.051-1.233.022-2.469.025-3.704.003-.939.005-1.878-.004-2.817-.002-.171.047-.208.211-.205.593.01,1.186.009,1.779,0,.143-.002.184.034.184.181-.004,3.801-.004,7.602,0,11.403,0,.145-.037.186-.184.184-.6-.008-1.201-.008-1.801,0-.147.002-.189-.039-.187-.184.008-.518.004-1.035.002-1.553,0-.071.019-.145-.035-.241Z"/><path class="cls-3" d="M53.674,20.177c0-1.221-.004-2.226.004-3.232.001-.163-.034-.209-.204-.207-.741.011-1.483,0-2.224.008-.156.002-.2-.042-.197-.197.01-.517.01-1.035,0-1.553-.003-.153.036-.199.194-.197.749.009,1.497,0,2.246.007.144.001.186-.035.184-.182-.007-.858,0-1.716-.007-2.573-.001-.156.04-.196.195-.194.6.009,1.201.008,1.801,0,.147-.002.185.042.184.186-.007.836.002,1.671-.008,2.507-.002.191.033.26.247.258,1.423-.011,2.847.001,4.27-.013.236-.002.275.069.268.28-.016.488-.013.976,0,1.464.004.168-.043.208-.209.207-1.453-.007-2.906,0-4.359-.008-.177,0-.216.048-.216.219.007,1.73.005,3.461.004,5.191,0,.416.025.829.156,1.226.262.794.891,1.079,1.654,1.152.917.087,1.837.028,2.756.035.175.001.219.049.22.218.004.54.023,1.079.044,1.619.004.118-.014.172-.151.169-1.134-.023-2.268.04-3.401-.042-.452-.033-.894-.126-1.318-.289-1.314-.503-1.939-1.518-2.083-2.86-.122-1.135-.017-2.276-.049-3.199Z"/><path class="cls-1" d="M121.317,16.301c.221.117.421.225.623.329,1.498.778,2.994,1.559,4.495,2.331.161.083.194.149.101.313-.242.424-.473.854-.69,1.29-.077.155-.153.153-.293.097-1.532-.613-3.068-1.218-4.6-1.832-.198-.079-.375-.083-.576-.002-1.532.614-3.068,1.217-4.6,1.831-.155.062-.229.05-.308-.107-.218-.436-.449-.867-.69-1.291-.09-.158-.056-.217.097-.295,1.645-.848,3.286-1.703,4.928-2.557.059-.031.116-.064.203-.113-.189-.101-.359-.194-.53-.283-1.531-.795-3.06-1.592-4.594-2.381-.165-.085-.187-.152-.096-.312.241-.424.471-.855.689-1.291.077-.154.152-.152.293-.096,1.525.61,3.054,1.212,4.579,1.823.214.086.404.088.619.002,1.525-.612,3.054-1.213,4.579-1.823.15-.06.227-.055.307.105.213.43.44.855.68,1.271.101.176.06.241-.109.328-1.645.847-3.286,1.702-4.928,2.556-.052.027-.101.059-.177.105Z"/><path class="cls-2" d="M66.062,14.802c.762,0,1.531.003,2.301-.003.137-.001.147.096.184.178.825,1.811,1.651,3.623,2.476,5.434.489,1.074.978,2.147,1.467,3.221.024.052.049.104.074.159.084-.029.085-.104.11-.159,1.291-2.871,2.582-5.742,3.865-8.617.075-.169.163-.22.343-.218.667.011,1.334.004,1.999.004.034.082-.023.134-.048.189-1.774,3.867-3.551,7.732-5.323,11.599-.068.147-.143.204-.311.199-.459-.014-.919-.009-1.379-.002-.124.002-.198-.025-.256-.149-1.823-3.901-3.651-7.8-5.477-11.699-.018-.037-.057-.073-.026-.137Z"/><path class="cls-2" d="M95.399,16.9c.154-.295.284-.531.454-.742.681-.842,1.602-1.231,2.642-1.393.729-.114,1.464-.072,2.197-.082.099-.001.145.017.144.131-.005.636-.007,1.272.001,1.907.002.139-.069.13-.163.131-.726.006-1.453-.026-2.178.04-.451.041-.896.109-1.327.251-1.111.367-1.699,1.129-1.764,2.293-.014.243-.021.488-.021.731-.002,2.055-.003,4.11.003,6.166,0,.177-.032.24-.226.236-.585-.014-1.171-.009-1.756-.002-.135.001-.191-.021-.191-.177.005-3.807.005-7.615,0-11.422,0-.142.042-.17.174-.168.6.007,1.201.008,1.801,0,.154-.002.2.037.198.194-.01.547-.004,1.094-.003,1.641,0,.069.007.137.014.266Z"/><path class="cls-2" d="M49.67,18.869c0,2.477-.004,4.954.007,7.431.001.234-.068.274-.28.268-.541-.015-1.082-.015-1.623,0-.214.006-.283-.035-.282-.27.009-4.008.006-8.015.006-12.023,0-.961.003-1.923-.003-2.884-.001-.151.034-.203.194-.2.585.009,1.171.012,1.757,0,.182-.004.231.037.23.226-.007,2.484-.005,4.969-.005,7.453Z"/><path class="cls-2" d="M64.574,20.69c0,1.885-.002,3.771.003,5.656,0,.164-.028.227-.212.222-.593-.014-1.186-.009-1.779-.002-.141.002-.189-.031-.189-.181.004-3.8.004-7.601,0-11.401,0-.143.034-.188.183-.185.593.009,1.186.01,1.779,0,.169-.003.219.035.219.213-.007,1.893-.005,3.786-.005,5.678Z"/><path class="cls-2" d="M62.362,9.172c.749,0,1.498,0,2.247,0,.006.472.014.943.016,1.415.003.583-.005,1.167.005,1.75.003.159-.047.195-.199.193-.636-.008-1.273-.003-1.91-.004-.086,0-.175.025-.174-.122.009-1.077.011-2.155.015-3.232Z"/></g></svg>