<?xml version="1.0" encoding="UTF-8"?><svg id="Layer_1" xmlns="http://www.w3.org/2000/svg" viewBox="0 0 140 40"><defs><style>.cls-1{fill:#fff;}.cls-2{fill:#21abe3;}</style></defs><circle class="cls-1" cx="45.733" cy="20.001" r="11.497"/><g id="Layer_2"><g id="Layer_1-2"><g id="helium"><g id="Layer_2-2"><g id="Layer_1-2-2"><path class="cls-2" d="m45.733,5.52c-7.997,0-14.48,6.483-14.48,14.48s6.483,14.48,14.48,14.48,14.48-6.483,14.48-14.48h0c0-7.997-6.482-14.479-14.479-14.48h0Zm5.973,11.895c1.426,3.301-.094,7.132-3.395,8.558-1.541.666-3.279.71-4.852.125-.099-.037-.198-.076-.295-.119-.004.021-.008.043-.012.063-.328,1.584-1.878,2.602-3.462,2.274-1.584-.328-2.602-1.878-2.274-3.462.239-1.153,1.145-2.051,2.301-2.279.012-.002.024-.004.037-.007-.038-.088-.075-.176-.107-.266h0c-1.271-3.364.426-7.121,3.79-8.392,1.483-.56,3.119-.56,4.602,0,.064.024.128.05.191.076.002-.011.004-.021.007-.032.328-1.584,1.877-2.602,3.461-2.275,1.584.328,2.602,1.877,2.275,3.461-.236,1.14-1.124,2.032-2.263,2.272h0Z"/><path class="cls-2" d="m51.102,12.435c-1.097,0-2.013.839-2.107,1.933-.006.06-.008.121-.008.182v.022c.002.265.054.528.154.773-.073.659-.63,1.157-1.293,1.157-.082,0-.163-.008-.244-.023-.173-.092-.353-.171-.538-.237h0c-2.076-.737-4.355.35-5.09,2.425-.374,1.054-.287,2.216.237,3.203.015.08.022.162.022.244,0,.718-.581,1.301-1.299,1.302h-.002c-.027,0-.053,0-.079-.003h0c-.11-.032-.223-.053-.338-.065-.078-.009-.156-.013-.234-.013-.045,0-.091.002-.136.005-1.166.075-2.05,1.08-1.975,2.246.075,1.166,1.08,2.05,2.246,1.975,1.061-.068,1.907-.914,1.975-1.975.003-.045.005-.09.005-.136,0-.006,0-.013,0-.019v-.002c-.001-.265-.054-.527-.154-.773h0c.079-.714.722-1.229,1.436-1.15.091.01.181.03.268.059.085.043.171.083.26.119,2.033.844,4.365-.121,5.209-2.154.485-1.169.386-2.498-.266-3.582,0-.021-.002-.042-.002-.063,0-.718.581-1.301,1.299-1.302h.002c.027,0,.054,0,.08.002.11.032.223.054.337.066.149.016.299.017.448.002,1.162-.118,2.009-1.156,1.891-2.318-.11-1.08-1.019-1.902-2.105-1.902h0Zm-5.369,10.005c-1.348,0-2.44-1.093-2.44-2.44s1.093-2.44,2.44-2.44,2.44,1.093,2.44,2.44-1.093,2.44-2.44,2.44h0Z"/><path class="cls-2" d="m64.036,13.736s-.326.163-.326.407v11.388s.081.407.326.407h1.058c.176.004.322-.136.326-.311v-5.057s.569-1.302,1.952-1.302c.949-.02,1.759.684,1.871,1.627v4.637s0,.407.244.407h1.139c.14-.048.237-.177.244-.326v-4.962s-.285-2.969-3.051-2.969c-1.627,0-2.44.976-2.44.976v-4.555s-.057-.366-.286-.366h-1.056Z"/><path class="cls-2" d="m76.129,17.705c-2.337,0-4.019,1.851-4.019,4.199s1.918,4.202,4.05,4.202,3.088-1.322,3.088-1.322l-.872-1.101c-.606.56-1.403.867-2.229.859-2.298,0-2.361-2.34-2.361-2.34h5.539c.261,0,.46-.182.46-.675,0-1.983-1.32-3.821-3.656-3.821Zm-2.316,3.306s.339-1.911,2.201-1.911,2.022,1.911,2.022,1.911h-4.223Z"/><path class="cls-2" d="m81.006,14.067v11.464s.104.367.353.367h1.052s.287-.069.287-.287v-11.544s-.114-.346-.391-.346h-1.025c-.166.03-.285.178-.277.346Z"/><path class="cls-2" d="m85.904,17.889h-1.025c-.166.03-.284.178-.277.346v7.297s.104.367.353.367h1.052s.287-.069.287-.287v-7.376s-.114-.346-.391-.346Z"/><circle class="cls-2" cx="85.402" cy="14.932" r="1.09"/><path class="cls-2" d="m94.492,17.889h-1.025c-.166.03-.284.178-.277.346v4.604c0,.786-.862,1.71-1.849,1.71s-1.703-.675-1.703-1.63v-4.683s-.114-.346-.391-.346h-1.025c-.166.03-.284.178-.277.346v4.604c0,1.246.585,3.233,3.091,3.233,1.696,0,2.437-1.129,2.437-1.129,0,0,.249.955.526.955h.596c.17-.045.288-.198.287-.374v-7.29s-.115-.346-.392-.346Z"/><path class="cls-2" d="m108.743,20.328c-.074-1.589-1.629-2.618-2.92-2.618-1.324,0-2.165.665-2.799,1.272,0,0-.893-1.272-2.513-1.272-.954.022-1.861.42-2.523,1.108-.143-.397-.303-.929-.474-.929h-.609c-.166.03-.284.178-.277.346v7.297s.103.367.353.367h1.052s.287-.069.287-.287v-4.469c0-.761.616-1.918,1.89-1.918,1.551,0,1.665,1.547,1.672,1.891v4.416s.104.367.353.367h1.052s.287-.069.287-.287v-5.039c0-.364.602-1.345,1.963-1.345s1.516,1.474,1.516,1.474v4.831s.103.367.353.367h1.052s.287-.069.287-.287v-5.269s-.002-.006-.004-.015Z"/></g></g></g></g></g></svg>