<?xml version="1.0" encoding="UTF-8"?><svg id="Layer_1" xmlns="http://www.w3.org/2000/svg" xmlns:xlink="http://www.w3.org/1999/xlink" viewBox="0 0 140 40"><defs><style>.cls-1{clip-path:url(#clippath);}.cls-2{fill:none;}.cls-2,.cls-3,.cls-4{stroke-width:0px;}.cls-3{fill:#390a66;}.cls-4{fill:#ff1256;}</style><clipPath id="clippath"><rect class="cls-2" x="36.779" y="1.857" width="66.441" height="36.287"/></clipPath></defs><g class="cls-1"><path class="cls-3" d="M63.778,16.715c1.527,0,2.706.614,3.643,1.747.174.22.124.518-.124.689l-1.133,1.083c-.22.196-.444.074-.614-.074-.394-.444-1.009-.788-1.697-.788-1.328,0-2.411,1.133-2.411,2.511s1.058,2.511,2.386,2.511c1.058,0,1.527-.518,1.967-.934.174-.174.419-.22.614-.074l1.058.909c.245.196.344.444.174.689-.838,1.303-2.141,2.067-3.888,2.067-2.781,0-5.217-2.216-5.217-5.17s2.486-5.17,5.241-5.17v.006Z"/><path class="cls-3" d="M68.96,10.276c0-.245.22-.469.469-.469h2.092c.245,0,.469.22.469.469v7.249c.493-.369,1.452-.813,2.61-.813,3.125,0,4.407,2.411,4.407,4.897v4.726c0,.245-.22.469-.469.469h-1.992c-.27,0-.469-.22-.469-.469v-4.751c0-1.353-.763-2.216-1.946-2.216s-1.896.739-2.141,1.747v5.217c0,.27-.149.469-.518.469h-2.042c-.245,0-.469-.22-.469-.469V10.276Z"/><path class="cls-3" d="M90.978,11.474c0-.934.739-1.697,1.673-1.697s1.722.763,1.722,1.697-.763,1.697-1.722,1.697-1.673-.763-1.673-1.697ZM91.198,17.426c0-.27.22-.469.469-.469h2.042c.245,0,.469.196.469.469v8.91c0,.245-.22.469-.469.469h-2.042c-.245,0-.469-.22-.469-.469v-8.91Z"/><path class="cls-3" d="M86.044,10.276c0-.245.22-.469.469-.469h2.067c.245,0,.469.22.469.469v16.059c0,.245-.22.469-.469.469h-2.067c-.245,0-.469-.22-.469-.469V10.276Z"/><path class="cls-3" d="M80.734,14.102c0-.934.739-1.697,1.673-1.697s1.722.763,1.722,1.697-.763,1.697-1.722,1.697-1.673-.763-1.673-1.697ZM80.954,17.429c0-.27.22-.469.469-.469h2.042c.245,0,.469.196.469.469v8.91c0,.245-.22.469-.469.469h-2.042c-.245,0-.469-.22-.469-.469v-8.91Z"/><path class="cls-3" d="M95.546,26.09l3.494-6.449v-.05h-2.805c-.245,0-.444-.22-.444-.469v-1.697c0-.27.196-.469.444-.469h6.498c.369,0,.614.344.419.664l-3.569,6.498v.074h2.66c.27,0,.469.196.469.469v1.673c0,.245-.196.469-.469.469h-6.228c-.245,0-.469-.22-.469-.469v-.245Z"/><path class="cls-4" d="M37.586,10.422l5.182-3.199c.456-.258.456-.791.127-1.117l-4.329-4.186c-.084-.084-.223-.084-.307,0l-.41.413c-.524.528-.521,1.378.006,1.902l1.691,1.561c.289.286.233.763-.112.978l-2.02,1.238c-.63.388-.825,1.216-.434,1.846l.304.493c.062.102.199.133.301.071Z"/><path class="cls-4" d="M42.589,27.583c.425-1.84-.078-3.774-1.35-5.173l-3.274-3.712c-1.822-2.067-1.372-5.269.95-6.753l5.356-3.423c.344-.22.798-.18,1.099.096,1.958,1.806,8.776,8.317,8.472,15.042,0,0,.009,10.443-10.275,14.35-1.511.574-3.041-.807-2.644-2.374,1.421-5.629,1.67-8.056,1.67-8.056l-.003.003ZM43.929,11.505c-.819.518-2.405,1.524-3.758,2.383-.906.574-1.089,1.819-.388,2.632l3.423,3.957c1.961,2.157,2.74,5.136,2.082,7.979l-.574,2.517c-.248,1.092,1.04,1.856,1.89,1.123,3.606-3.113,8.661-10.595-1.884-20.513-.214-.202-.54-.233-.791-.074v-.003Z"/></g></svg>