<?xml version="1.0" encoding="UTF-8"?><svg id="Layer_1" xmlns="http://www.w3.org/2000/svg" viewBox="0 0 140 40"><defs><style>.cls-1{fill:#002d74;}</style></defs><path d="m31.068,5.754l-12.341,7.126v14.246l12.341,7.121,12.331-7.121v-14.246l-12.331-7.126Zm8.678,19.261l-8.678,5.01-8.682-5.01v-10.029l8.682-5.01,8.678,5.01v10.029Z"/><path class="cls-1" d="m36.822,23.329l-5.76,3.324-5.764-3.324v-6.653l5.764-3.329,5.76,3.329-2.397,1.385-3.362-1.944-3.362,1.944v3.878l3.362,1.944,3.362-1.944,2.397,1.39Z"/><path class="cls-1" d="m52.53,21.079v-.038c-.008-.755.134-1.504.419-2.203s.707-1.334,1.241-1.868c.534-.534,1.169-.956,1.868-1.241.699-.285,1.448-.428,2.203-.419.828-.029,1.651.128,2.411.458.759.331,1.435.827,1.978,1.452l-1.581,1.686c-.769-.793-1.581-1.375-2.827-1.375-1.829,0-3.181,1.581-3.181,3.496v.043c0,1.953,1.352,3.51,3.281,3.51.546-.011,1.083-.136,1.577-.369.494-.233.933-.568,1.288-.982l1.519,1.5c-.754.901-1.767,1.55-2.901,1.859-1.134.309-2.336.263-3.443-.131-1.107-.394-2.067-1.118-2.751-2.074-.684-.956-1.058-2.099-1.073-3.274l-.029-.029Z"/><path class="cls-1" d="m64.985,15.53h2.536v2.474c.688-1.643,1.953-2.765,3.888-2.684v2.665h-.143c-2.206,0-3.744,1.433-3.744,4.341v4.179h-2.536v-10.975Z"/><path class="cls-1" d="m72.617,21.079v-.038c.038-1.524.668-2.973,1.757-4.039,1.089-1.066,2.551-1.666,4.075-1.672,1.524-.006,2.991.583,4.087,1.642,1.097,1.058,1.738,2.503,1.787,4.026v.043c0,.766-.153,1.524-.45,2.229-.298.705-.734,1.344-1.282,1.878-.549.534-1.198.953-1.911,1.232-.714.279-1.475.412-2.24.392-.759.019-1.514-.114-2.22-.392-.707-.278-1.35-.694-1.893-1.225-.543-.531-.973-1.165-1.267-1.865-.293-.7-.444-1.452-.441-2.211Zm9.189,0v-.038c.019-.455-.053-.91-.213-1.337-.16-.427-.405-.817-.719-1.147-.314-.33-.692-.594-1.11-.775-.418-.181-.869-.276-1.324-.28-2.02,0-3.31,1.581-3.31,3.496v.043c-.017.452.056.902.216,1.325.16.423.403.809.714,1.136.311.327.686.589,1.1.769.414.18.861.276,1.312.28,2.044,0,3.334-1.581,3.334-3.472Z"/><path class="cls-1" d="m86.859,15.53h2.526v1.686c.358-.588.863-1.074,1.465-1.409.602-.335,1.28-.508,1.969-.502,2.474,0,3.907,1.662,3.907,4.198v7.006h-2.517v-6.242c0-1.705-.85-2.679-2.35-2.679s-2.474,1.022-2.474,2.722v6.209h-2.536l.01-10.989Z"/><path class="cls-1" d="m99.171,21.079v-.038c.038-1.524.668-2.973,1.757-4.039,1.089-1.066,2.551-1.666,4.075-1.672,1.524-.006,2.991.583,4.087,1.642,1.097,1.058,1.738,2.503,1.787,4.026v.043c0,.766-.153,1.524-.45,2.229-.298.705-.734,1.344-1.282,1.878-.548.534-1.198.953-1.911,1.232-.714.279-1.475.412-2.24.392-.759.019-1.514-.114-2.22-.392-.707-.278-1.35-.694-1.893-1.225-.543-.531-.973-1.165-1.267-1.865-.293-.7-.444-1.452-.441-2.211Zm9.189,0v-.038c.019-.455-.053-.91-.213-1.337-.16-.427-.405-.817-.719-1.147-.314-.33-.692-.594-1.11-.775-.418-.181-.869-.276-1.324-.28-2.02,0-3.31,1.581-3.31,3.496v.043c-.017.452.056.902.216,1.325.16.423.403.809.714,1.136.312.327.686.589,1.1.769.414.18.861.276,1.312.28,2.03,0,3.334-1.581,3.334-3.472Z"/><path class="cls-1" d="m112.538,25.072l1.122-1.705c1.026.819,2.285,1.293,3.596,1.352,1.084,0,1.705-.478,1.705-1.184v-.043c0-.85-1.161-1.141-2.45-1.538-1.624-.478-3.434-1.122-3.434-3.2v-.043c0-2.101,1.729-3.367,3.911-3.367,1.434.027,2.832.459,4.031,1.246l-.998,1.786c-.924-.609-1.991-.966-3.095-1.036-.955,0-1.538.478-1.538,1.079v.043c0,.812,1.184,1.141,2.474,1.557,1.6.501,3.41,1.227,3.41,3.205v.038c0,2.311-1.791,3.453-4.079,3.453-1.692-.012-3.331-.59-4.656-1.643Z"/></svg>