<?xml version="1.0" encoding="UTF-8"?><svg id="Layer_1" xmlns="http://www.w3.org/2000/svg" viewBox="0 0 140 40"><defs><style>.cls-1{fill:#fff;}.cls-2{fill:#0ac18e;}.cls-3{fill:#4d4d4d;}</style></defs><g><path class="cls-3" d="m40.557,26.393c-.627,0-1.257-.018-1.876-.06-.653-.044-1.304-.135-1.944-.271v-11.11c.526-.101,1.111-.169,1.741-.221.627-.052,1.212-.075,1.756-.075.731,0,1.4.052,2.011.161.611.101,1.137.281,1.579.533.442.255.788.585,1.036,1.002s.375.926.375,1.527c0,.916-.442,1.637-1.324,2.165.731.271,1.223.653,1.486,1.121.263.476.398,1.01.398,1.603,0,1.205-.442,2.105-1.317,2.709-.89.619-2.186.916-3.921.916Zm-1.306-7.103h1.257c.799,0,1.358-.101,1.707-.304.338-.203.51-.533.51-.984,0-.466-.177-.788-.526-.976-.356-.187-.874-.281-1.553-.281-.221,0-.458,0-.713.008s-.476.018-.679.042c-.003,0-.003,2.495-.003,2.495h0Zm0,1.97v2.961c.187.026.39.042.611.052s.466.018.731.018c.773,0,1.392-.109,1.868-.33s.713-.627.713-1.223c0-.526-.195-.908-.593-1.129-.398-.229-.968-.338-1.707-.338h-1.621v-.01h-.003Z"/><path class="cls-3" d="m49.469,15.038c0,.45-.143.807-.442,1.069-.289.263-.637.39-1.036.39-.382.005-.752-.133-1.036-.39-.289-.263-.442-.611-.442-1.069,0-.45.143-.807.442-1.069.284-.255.653-.395,1.036-.39.382-.005.752.133,1.036.39.297.263.442.619.442,1.069Zm-.237,11.212h-2.461v-8.701h2.461v8.701Z"/><path class="cls-3" d="m50.556,15.384l2.461-.398v2.563h2.961v2.053h-2.961v3.055c0,.518.094.934.271,1.238s.552.466,1.103.466c.273-.003.546-.026.814-.075.263-.047.52-.114.773-.203l.349,1.918c-.323.13-.656.237-.994.315-.364.086-.807.135-1.34.135-.671,0-1.231-.094-1.673-.271s-.799-.432-1.062-.765c-.263-.323-.45-.721-.552-1.179-.109-.505-.164-1.02-.161-1.535v-7.316h.01Z"/><path class="cls-3" d="m56.33,21.902c-.005-.604.099-1.205.304-1.774.193-.539.492-1.033.882-1.452.382-.416.856-.739,1.408-.984.552-.247,1.179-.364,1.884-.364.466,0,.89.042,1.272.127.385.083.76.203,1.121.356l-.51,1.97c-.25-.091-.505-.169-.765-.229-.304-.07-.614-.104-.926-.101-.731,0-1.272.229-1.629.679s-.533,1.043-.533,1.782c0,.781.169,1.392.5,1.816.338.432.926.645,1.756.645.323,0,.643-.029.96-.086.323-.049.64-.138.942-.263l.349,2.019c-.349.141-.708.245-1.077.315-.471.091-.947.138-1.426.135-.799,0-1.478-.12-2.053-.356-.578-.237-1.043-.559-1.418-.968s-.637-.89-.807-1.444c-.156-.596-.234-1.207-.234-1.824Z"/><path class="cls-3" d="m71.824,21.886c0,.687-.101,1.306-.297,1.876s-.484,1.051-.856,1.452c-.38.403-.84.721-1.35.934-.528.221-1.111.33-1.756.33-.637,0-1.223-.109-1.748-.33-.513-.211-.971-.531-1.35-.934-.375-.398-.671-.89-.874-1.452-.213-.57-.315-1.197-.315-1.876,0-.687.109-1.306.323-1.868.213-.559.51-1.043.89-1.434.385-.398.846-.716,1.358-.926.526-.221,1.095-.33,1.715-.33.627,0,1.205.109,1.73.33s.976.526,1.35.926c.385.414.684.9.874,1.434.198.562.307,1.181.307,1.868Zm-2.511,0c0-.765-.154-1.358-.458-1.79s-.739-.653-1.298-.653-1.002.221-1.306.653-.466,1.036-.466,1.79c0,.765.154,1.366.466,1.808.304.45.747.671,1.306.671s.994-.221,1.298-.671.458-1.054.458-1.808Z"/><path class="cls-3" d="m75.511,15.038c0,.45-.143.807-.442,1.069-.289.263-.637.39-1.036.39-.382.005-.752-.133-1.036-.39-.289-.263-.442-.611-.442-1.069,0-.45.143-.807.442-1.069.284-.255.653-.395,1.036-.39.382-.005.752.133,1.036.39.297.263.442.619.442,1.069Zm-.229,11.212h-2.461v-8.701h2.461v8.701Z"/><path class="cls-3" d="m76.682,17.846c.416-.12.96-.237,1.621-.338.687-.107,1.382-.161,2.079-.161.739,0,1.35.094,1.842.289s.882.466,1.163.814c.289.356.492.773.611,1.257s.177,1.028.177,1.621v4.915h-2.461v-4.618c0-.799-.101-1.358-.315-1.689s-.604-.492-1.171-.492c-.177,0-.364.008-.559.026s-.375.034-.526.06v6.713h-2.461v-8.396h0Z"/><path class="cls-2" d="m90.906,26.479c-1.868,0-3.284-.518-4.259-1.553s-1.46-2.503-1.46-4.413c0-.95.154-1.79.45-2.537s.705-1.374,1.223-1.884c.526-.515,1.158-.913,1.85-1.163.713-.263,1.493-.398,2.334-.398.484,0,.926.034,1.324.109.354.057.703.141,1.043.247.255.078.505.174.747.289.195.101.338.177.432.229l-.747,2.079c-.393-.203-.804-.362-1.231-.476-.466-.135-1.002-.195-1.595-.195-.395,0-.788.068-1.163.195-.38.135-.723.354-1.01.637-.289.289-.526.671-.705,1.129-.177.466-.263,1.028-.263,1.689-.003.497.055.994.169,1.478.12.458.304.848.559,1.179.271.341.619.611,1.017.788.416.195.926.289,1.519.289.338,0,.674-.021,1.01-.068.271-.036.536-.088.799-.161.208-.052.414-.12.611-.203.177-.075.338-.154.476-.213l.713,2.071c-.364.221-.874.416-1.535.593-.674.177-1.444.263-2.31.263Z"/><path class="cls-2" d="m98.613,17.32c.731,0,1.332.086,1.816.247s.874.398,1.163.713c.297.317.507.703.619,1.121.12.442.177.934.177,1.467v5.126c-.356.075-.84.169-1.467.271s-1.392.161-2.282.161c-.559,0-1.069-.052-1.527-.154-.458-.101-.848-.263-1.179-.484-.328-.224-.591-.526-.765-.882-.177-.364-.263-.807-.263-1.34,0-.51.101-.934.304-1.291.193-.346.474-.635.814-.84.338-.213.731-.364,1.171-.458.453-.096.913-.143,1.374-.143.323,0,.604.018.848.042.247.026.45.06.604.109v-.229c0-.416-.127-.755-.382-1.01s-.695-.382-1.324-.382c-.414,0-.827.031-1.238.094-.408.06-.765.143-1.062.255l-.315-1.985c.143-.042.323-.094.533-.143.213-.052.45-.094.705-.135s.518-.068.799-.101c.299-.01.588-.029.877-.029Zm.195,7.205c.247,0,.476-.008.695-.018.177-.003.351-.021.526-.052v-1.868c-.101-.026-.247-.042-.45-.068-.18-.023-.362-.034-.544-.034-.219.003-.437.016-.653.042-.203.026-.382.075-.533.161-.148.07-.273.18-.364.315-.091.148-.138.317-.135.492,0,.382.127.653.39.799.263.164.619.232,1.069.232Z"/><path class="cls-2" d="m106.216,24.483c.45,0,.773-.042.96-.135.187-.086.281-.263.281-.51,0-.195-.12-.375-.364-.518-.247-.154-.611-.315-1.111-.5-.382-.143-.739-.289-1.051-.45-.315-.154-.585-.338-.799-.552-.224-.219-.395-.481-.51-.773-.12-.297-.177-.653-.177-1.077,0-.814.304-1.46.908-1.936s1.434-.713,2.495-.713c.51,0,1.017.049,1.519.143.484.094.874.195,1.155.304l-.432,1.918c-.307-.107-.617-.195-.934-.263-.372-.081-.749-.122-1.129-.12-.773,0-1.155.213-1.155.645-.003.091.016.18.052.263.044.088.112.167.195.221.13.088.265.164.408.229.211.104.429.193.653.271.544.203.984.398,1.34.593s.627.408.833.627c.195.216.343.468.432.747.086.271.127.593.127.96,0,.856-.323,1.512-.968,1.944-.645.442-1.553.661-2.732.661-.773,0-1.418-.068-1.925-.195-.51-.135-.866-.247-1.069-.33l.416-2.003c.419.164.851.294,1.291.39.422.107.856.159,1.291.159Z"/><path class="cls-2" d="m110.826,26.25v-12.434l2.461-.398v4.168c.208-.065.422-.12.637-.161.247-.049.502-.075.755-.075.705,0,1.291.094,1.756.289s.84.466,1.121.814c.281.356.476.773.593,1.257.12.484.169,1.028.169,1.621v4.915h-2.461v-4.621c0-.799-.101-1.358-.304-1.689s-.585-.492-1.129-.492c-.208-.003-.416.018-.619.06-.195.042-.364.075-.518.127v6.611h-2.461v.008h0Z"/></g><g><circle class="cls-2" cx="28.172" cy="20.091" r="6.492"/><path id="symbol" class="cls-1" d="m30.191,17.918c-.325-.739-1.072-.892-1.988-.742l-.294-1.137-.695.18.289,1.137c-.182.047-.369.086-.554.138l-.291-1.129-.695.18.294,1.14c-.148.042-1.397.364-1.397.364l.193.742s.51-.143.505-.13c.281-.073.414.068.479.2l.807,3.122c.01.091-.005.247-.2.297.01.005-.505.13-.505.13l.075.864s1.236-.317,1.4-.356l.299,1.153.692-.18-.297-1.16c.193-.044.375-.091.557-.138l.297,1.155.695-.18-.297-1.15c1.067-.26,1.821-.931,1.665-1.962-.099-.619-.775-1.129-1.34-1.186.346-.315.523-.762.307-1.35h0Zm-.333,2.716c.138,1.02-1.278,1.145-1.748,1.267l-.408-1.525c.474-.122,1.925-.64,2.157.258Zm-.853-2.074c.146.905-1.064,1.012-1.457,1.114l-.372-1.384c.393-.101,1.533-.57,1.829.271Z"/></g></svg>