<?xml version="1.0" encoding="UTF-8"?>
<svg id="Layer_1" data-name="Layer 1" xmlns="http://www.w3.org/2000/svg" viewBox="0 0 140 40">
  <defs>
    <style>
      .cls-1 {
        fill-rule: evenodd;
        stroke-width: 0px;
      }
    </style>
  </defs>
  <g id="Symbols">
    <g id="Group-3">
      <path id="Fill-1" class="cls-1" d="M61.945,17.146h5.188c.458,0,.827-.402.771-.871-.047-.393-.395-.682-.791-.682h-6.449c-.427,0-.776.349-.776.776v7.764c0,.427.349.776.776.776h6.47c.458,0,.827-.402.771-.871-.047-.393-.395-.682-.791-.682h-5.167c-.279,0-.506-.226-.506-.506v-1.318c0-.279.226-.506.506-.506h3.894c.458,0,.827-.402.771-.871-.047-.393-.395-.682-.791-.682h-3.873c-.279,0-.506-.226-.506-.506v-1.318c0-.279.226-.506.506-.506M53.018,17.146c.867,0,1.592.311,2.187.919.142.142.336.22.556.22.427,0,.776-.349.776-.776,0-.22-.104-.427-.324-.621-.919-.867-1.993-1.294-3.196-1.294-1.281,0-2.381.453-3.3,1.372-.906.906-1.359,2.006-1.359,3.287s.453,2.381,1.359,3.3c.919.906,2.019,1.359,3.3,1.359s2.381-.453,3.287-1.359c.31-.311.31-.802,0-1.1-.298-.31-.789-.31-1.1,0-.608.608-1.333.906-2.187.906s-1.592-.298-2.2-.906c-.608-.608-.906-1.346-.906-2.2s.297-1.579.906-2.187c.608-.608,1.346-.919,2.2-.919M78.318,23.357h-5.166c-.28,0-.507-.227-.507-.507v-6.461c0-.396-.289-.744-.682-.791-.469-.056-.871.313-.871.771v7.764c0,.427.349.776.776.776h6.47c.458,0,.827-.402.771-.871-.047-.393-.395-.682-.791-.682M110.988,15.593h-7.743c-.458,0-.827.402-.771.871.047.393.395.682.791.682h2.579c.279,0,.506.226.506.506v6.482c0,.458.402.827.871.771.393-.047.682-.395.682-.791v-6.461c0-.279.226-.506.506-.506h2.6c.458,0,.827-.402.771-.871-.047-.393-.395-.682-.791-.682M115.09,15.593c-.427,0-.776.349-.776.776v7.764c0,.427.349.776.776.776s.776-.349.776-.776v-7.764c0-.427-.349-.776-.776-.776M99.556,20.161c-.712-.453-1.669-.686-2.873-.686-1.592,0-2.394-.388-2.394-1.165s.802-1.164,2.394-1.164c.88,0,1.721.168,2.523.492.466.142.789-.026.97-.479.155-.401-.052-.789-.479-.983-.893-.388-1.889-.582-3.015-.582-1.178,0-2.122.246-2.86.725-.725.479-1.087,1.152-1.087,1.993,0,.893.362,1.579,1.074,2.032.712.453,1.669.686,2.873.686,1.592,0,2.394.388,2.394,1.165s-.802,1.165-2.394,1.165h-.388c-.802,0-1.643-.168-2.51-.492-.401-.142-.815.039-.983.466-.155.401.078.867.479,1.009.893.375,1.889.569,3.015.569h.388c1.178,0,2.122-.246,2.847-.725.738-.479,1.1-1.152,1.1-1.993,0-.893-.362-1.579-1.074-2.032M83.695,17.146h5.189c.458,0,.827-.402.771-.871-.047-.393-.395-.682-.791-.682h-6.449c-.427,0-.776.349-.776.776v7.764c0,.427.349.776.776.776h6.47c.458,0,.827-.402.771-.871-.047-.393-.395-.682-.791-.682h-5.169c-.279,0-.504-.226-.504-.504v-1.32c0-.279.226-.505.504-.505h3.895c.458,0,.827-.402.771-.871-.047-.393-.395-.682-.791-.682h-3.875c-.279,0-.504-.226-.504-.504v-1.32c0-.279.226-.504.504-.504M39.893,20.41c-.003.093-.13.118-.166.032-.016-.037-.032-.074-.048-.112-.03-.068-.022-.147.023-.207.009-.012.028-.037.05-.066.06-.079.147-.067.147.02,0,.115-.003.214-.006.332M39.225,18.586c-.103.185-.367.194-.481.015-.018-.028-.036-.055-.054-.083-.412-.632-.886-1.253-1.415-1.856-.13-.148-.024-.38.173-.381h.005c1.237,0,1.885.305,2.083.678.165.312.115.858-.312,1.626M38.949,25.053c-.066.169-.136.336-.209.503-.011.023-.022.046-.034.069-.455.876-1.219,1.566-2.24,2.046-.229.108-.48-.102-.411-.346.339-1.213.595-2.528.762-3.907.031-.257.158-.493.354-.663.42-.363.812-.726,1.172-1.086l.004-.004c.177-.177.48-.101.552.139.356,1.184.376,2.287.05,3.249M36.175,29.432c-.104.111-.21.221-.318.329-.188.188-.381.37-.578.545-.124.111-.312-.028-.242-.179.02-.043.04-.086.06-.13.083-.182.163-.369.24-.56.018-.045.057-.078.104-.091.196-.05.387-.104.572-.164.151-.048.269.134.16.25M34.137,28.337c-.412.06-.845.098-1.298.114-1.106.039-2.275-.057-3.476-.278-.146-.027-.175-.225-.042-.292.262-.133.524-.268.786-.407,1.838-.974,3.553-2.039,5.054-3.131.113-.082.268.015.245.152-.208,1.251-.496,2.429-.858,3.498-.062.182-.22.316-.41.343M33.713,30.004c-.985,1.938-2.199,3.026-3.375,3.004-1.279-.023-2.554-1.354-3.498-3.653v-.003c-.061-.146.008-.313.152-.376.01-.004.02-.009.03-.013.062-.027.132-.032.197-.013,1.766.496,3.506.754,5.137.754.177,0,.353-.003.528-.009.204-.007.405-.019.603-.035.183-.014.31.179.227.343M27.877,33.69c-.586.075-1.18.114-1.781.114-2.683,0-5.249-.76-7.453-2.179-.152-.098-.087-.333.093-.341.037-.002.072-.004.103-.006.56-.036,1.174-.118,1.839-.247,1.415-.272,2.988-.739,4.635-1.368.148-.056.313.017.373.163,0,0,0,.002.001.003.638,1.554,1.424,2.728,2.306,3.475.146.124.073.361-.116.386M19.895,24.018c1.216-.99,2.641-1.979,4.205-2.914.034,2,.253,3.919.641,5.653-.58-.247-1.158-.52-1.731-.817-1.11-.577-2.154-1.223-3.115-1.922M16.112,29.376c-.29-.547.085-1.816,1.99-3.743h0c.199-.202.18-.532-.042-.707-.076-.06-.152-.121-.227-.181-.19-.153-.464-.139-.637.033-.038.038-.066.066-.074.075-.952.978-1.619,1.882-1.992,2.696-.106.231-.426.256-.565.044-1.478-2.234-2.272-4.853-2.272-7.593,0-.98.102-1.944.3-2.881.03-.142.23-.151.272-.012.286.946.753,1.923,1.397,2.912.867,1.332,2.01,2.611,3.365,3.786.462.401.951.788,1.46,1.162,1.033.758,2.155,1.457,3.349,2.077.529.275,1.045.537,1.572.775.294.132.628.143.928.025.249-.097.5-.199.752-.304.274-.114.423-.413.35-.701-.009-.036-.016-.065-.02-.082-.416-1.749-.647-3.718-.674-5.781h0c0-.024,0-.049,0-.074-.001-.113,0-.226-.003-.339,0-.036,0-.097,0-.133,0-.014,0-.029,0-.043,0,0,0,0,0,0,0-.129.002-.258.004-.388.006-.354.019-.705.037-1.053,0,0,0,0,0,0,.128-2.489.55-4.827,1.222-6.795.062-.182-.035-.38-.217-.442-.177-.061-.355-.119-.532-.174-.179-.056-.37.04-.431.218-.728,2.136-1.177,4.671-1.297,7.353-.015.34-.2.65-.493.824-1.589.941-3.047,1.939-4.308,2.945-.263.21-.638.202-.892-.019-1.263-1.095-2.326-2.285-3.13-3.519-1.579-2.425-1.955-4.71-1.056-6.432.002-.004.005-.008.007-.012.115-.19.234-.377.358-.562,1.032-1.366,2.953-2.158,5.5-2.247.161-.006.323-.009.487-.009,1.563,0,3.239.258,4.945.75h0c.037.01.075.022.112.033.029.009.058.017.086.025t0,0c.394.118.789.248,1.185.39t0,0c.009.003.018.007.028.01.103.037.206.075.309.114.032.012.065.024.097.037.031.012.062.023.093.035h0c.833.323,1.665.698,2.487,1.125,1.591.826,3.047,1.795,4.314,2.858-2.418.554-5.229,1.623-8.055,3.063-.13.067-.216.198-.224.344-.01.175-.023.527-.032.807-.006.176.18.292.336.21h.002c2.798-1.47,5.591-2.568,7.989-3.149.448-.108.738-.539.675-.996-.044-.319-.094-.633-.149-.942-.069-.388-.281-.734-.594-.973-1.123-.856-2.361-1.64-3.686-2.329-.893-.464-1.799-.871-2.707-1.217-.194-.074-.277-.304-.176-.485.935-1.674,2.048-2.611,3.132-2.611.011,0,.022,0,.034,0,1.279.023,2.554,1.354,3.498,3.653.478,1.164.848,2.505,1.101,3.964-.001-.001-.003-.002-.004-.004.108.622.195,1.265.26,1.925-.006.004-.012.007-.017.01.008.008.016.015.023.023.107,1.107.152,2.26.131,3.436-.013.744-.053,1.478-.117,2.196-1.711,1.382-3.826,2.758-6.15,3.99-.764.405-1.528.782-2.284,1.129-.012.005-.023.011-.035.016-.058.026-.116.053-.174.079,0,0,0,0-.001,0-.627.284-1.248.546-1.858.785,0,0,0,0,0,0-.035.014-.069.027-.103.04-.043.017-.086.033-.129.05-.102.039-.205.078-.306.116-.028.01-.056.021-.084.032-.124.046-.246.09-.369.134-.015.005-.031.011-.046.017,0,0,0,0,0,0-1.308.466-2.555.818-3.691,1.037-2.745.528-4.037.123-4.331-.432M18.083,8.758c2.323-1.664,5.099-2.561,8.013-2.561.769,0,1.528.063,2.272.186.199.033.266.287.107.412-.721.565-1.391,1.401-1.984,2.486-.145.265-.452.394-.742.312-1.964-.553-3.896-.813-5.682-.75-.659.023-1.282.09-1.868.198-.165.03-.254-.185-.118-.282M37.031,18.818c-.004-.158.199-.226.291-.097.113.158.221.317.326.477.138.212.267.424.387.634.075.131.057.295-.045.406-.161.177-.336.36-.526.55-.069.069-.14.138-.212.208-.089.086-.239.021-.234-.104.009-.226.015-.454.019-.682.008-.468.006-.932-.005-1.392M35.6,9.989c.087.082.173.166.257.251,1.33,1.33,2.355,2.884,3.04,4.577.069.171-.076.349-.257.317-.396-.071-.843-.103-1.336-.095-.342.006-.64-.234-.7-.571-.268-1.505-.656-2.895-1.155-4.108-.028-.069-.057-.138-.086-.205-.063-.148.12-.276.237-.165M40.82,16.87c-.595-2.826-1.993-5.422-4.083-7.511-2.842-2.842-6.621-4.408-10.641-4.408s-7.799,1.565-10.641,4.408c-.691.691-1.306,1.438-1.842,2.23-.159.212-.302.436-.429.671-1.393,2.314-2.136,4.97-2.136,7.74,0,4.02,1.565,7.799,4.408,10.641,2.842,2.842,6.622,4.408,10.641,4.408s7.799-1.566,10.641-4.408c1.342-1.341,2.398-2.892,3.14-4.577.091-.187.17-.378.238-.573.676-1.726,1.03-3.581,1.03-5.491,0-1.051-.108-2.085-.317-3.091-.003-.013-.005-.026-.008-.039M125.117,21.416h-2.847c-.268,0-.435-.29-.301-.521l1.428-2.465c.134-.231.468-.231.602,0l1.419,2.465c.133.232-.034.521-.301.521M128.862,23.758l-4.49-7.79c-.323-.505-1.022-.505-1.346,0l-4.49,7.79c-.054.098-.081.195-.089.308-.028.44.313.833.754.843.307.007.547-.148.732-.478l.694-1.207c.091-.158.259-.255.441-.255h5.247c.182,0,.351.097.441.255l.694,1.207c.175.313.412.469.697.478.436.014.804-.34.804-.776,0-.116-.026-.233-.091-.375"/>
    </g>
  </g>
</svg>