<?xml version="1.0" encoding="UTF-8"?><svg id="Layer_1" xmlns="http://www.w3.org/2000/svg" viewBox="0 0 140 40"><defs><style>.cls-1{fill:#e84142;fill-rule:evenodd;}</style></defs><g id="Layer_1_0"><g id="Avalanche_Logo.cdr"><path d="m40.952,15.559h1.373l3.849,8.94h-1.822l-.831-2.046h-3.877l-.803,2.046h-1.784l3.886-8.94h.009Zm2.018,5.53h0l-1.373-3.634-1.401,3.634h2.775Z"/><polygon points="47.883 15.559 49.714 15.559 52.152 22.313 54.665 15.559 56.384 15.559 52.769 24.499 51.396 24.499 47.883 15.559"/><path d="m62.064,15.559h1.373l3.849,8.94h-1.822l-.831-2.046h-3.877l-.803,2.046h-1.775l3.886-8.94Zm2.018,5.53h0l-1.373-3.634-1.401,3.634h2.775Z"/><polygon points="70.808 15.559 72.396 15.559 72.396 23.06 76.198 23.06 76.198 24.499 70.808 24.499 70.808 15.559"/><path d="m82.766,15.559h1.373l3.849,8.94h-1.822l-.831-2.046h-3.877l-.803,2.046h-1.775l3.886-8.94Zm2.018,5.53h0l-1.373-3.634-1.401,3.634h2.775Z"/><polygon points="91.51 15.559 93.621 15.559 97.946 22.201 97.974 22.201 97.974 15.559 99.562 15.559 99.562 24.499 97.544 24.499 93.126 17.642 93.098 17.642 93.098 24.499 91.51 24.499 91.51 15.559"/><path d="m110.212,17.651c-.327-.355-.645-.589-.962-.71-.299-.121-.607-.177-.925-.177-.467,0-.887.084-1.261.252-.374.159-.691.383-.962.682-.271.29-.476.626-.635,1.009-.14.383-.215.803-.215,1.252,0,.476.075.925.215,1.327.149.402.364.757.635,1.046.271.299.589.523.962.691.383.168.803.252,1.261.252.364,0,.71-.084,1.046-.252.346-.177.663-.458.962-.831l1.308.934c-.402.551-.897.962-1.476,1.214s-1.196.383-1.859.383c-.691,0-1.327-.112-1.906-.327-.57-.224-1.065-.542-1.485-.944-.411-.411-.738-.906-.972-1.476s-.355-1.205-.355-1.906c0-.719.121-1.364.355-1.943.234-.589.561-1.093.972-1.504.42-.411.916-.729,1.485-.944.579-.224,1.214-.336,1.906-.336.607,0,1.168.112,1.682.327.523.215,1.009.57,1.448,1.084l-1.233.906.009-.009Z"/><polygon points="115.247 15.559 116.835 15.559 116.835 19.118 121.011 19.118 121.011 15.559 122.609 15.559 122.609 24.499 121.011 24.499 121.011 20.557 116.835 20.557 116.835 24.499 115.247 24.499 115.247 15.559"/><polygon points="127.13 15.559 133.043 15.559 133.043 16.997 128.718 16.997 128.718 19.193 132.819 19.193 132.819 20.631 128.718 20.631 128.718 23.06 133.277 23.06 133.277 24.499 127.13 24.499 127.13 15.559"/><path class="cls-1" d="m32.357,20.034c0,7.081-5.736,12.817-12.817,12.817s-12.817-5.736-12.817-12.817,5.736-12.817,12.817-12.817,12.817,5.736,12.817,12.817Zm-16.451,5.101h-2.485c-.523,0-.785,0-.934-.103-.168-.112-.271-.29-.29-.495-.009-.187.121-.411.374-.869l6.147-10.827c.262-.458.392-.691.561-.775.177-.093.392-.093.57,0,.168.084.299.318.561.775l1.261,2.205.009.009c.28.495.43.747.486,1.009.065.29.065.589,0,.878-.065.262-.206.514-.495,1.018l-3.223,5.708-.009.019c-.28.495-.43.747-.626.944-.215.206-.476.355-.766.448-.262.075-.551.075-1.14.075v-.019Zm6.278,0h3.569c.523,0,.794,0,.944-.103.168-.112.28-.299.29-.495.009-.177-.121-.402-.364-.822-.009-.019-.019-.028-.028-.047l-1.784-3.055-.019-.037c-.252-.42-.374-.635-.542-.719-.177-.093-.392-.093-.57,0-.168.084-.299.308-.561.757l-1.775,3.055-.009.009c-.262.448-.392.673-.383.859.009.206.112.383.29.495.159.103.42.103.944.103Z"/></g></g></svg>