<?xml version="1.0" encoding="UTF-8"?>
<svg id="Layer_1" data-name="Layer 1" xmlns="http://www.w3.org/2000/svg" viewBox="0 0 140 40">
  <defs>
    <style>
      .cls-1 {
        fill: #2f2e42;
      }

      .cls-2 {
        fill: #496ddb;
      }
    </style>
  </defs>
  <g>
    <path class="cls-2" d="m14.606,18.613c-.134-.512-.451-.841-.976-.988-.439-.122-.89-.171-1.341-.195-.512.012-1.037.049-1.537.195-.524.146-.841.476-.976.988-.073.28-.098.573-.11.854-.024.268-.024.305.159.305h4.61q.317,0,.28-.317c-.012-.268-.049-.561-.11-.841Z"/>
    <path class="cls-2" d="m14.521,21.65h-4.597q-.317,0-.28.317c.012.28.037.573.11.854.134.512.451.841.976.988.439.122.89.171,1.341.195.512-.012,1.037-.049,1.537-.195.524-.146.841-.476.976-.988.073-.28.098-.573.11-.854.024-.268.024-.305-.171-.317Z"/>
    <path class="cls-2" d="m12.167,9.833c-6,0-10.878,4.878-10.878,10.878s4.878,10.878,10.878,10.878,10.878-4.878,10.878-10.878-4.866-10.878-10.878-10.878Zm4.585,8.427c.049.317.085.634.122.963v.561h1.683c.134,0,.256,0,.378.024.293.049.476.22.488.5v.817c-.012.28-.195.451-.488.5-.122.024-.244.024-.378.024h-1.707v.549c-.037.329-.073.646-.122.963s-.134.598-.244.841h2.158c.256,0,.5.024.671.268.256.402.122.939-.28,1.195-.049.037-.11.073-.171.085-.451.146-.915.171-1.39.195-1.939.037-3.927.049-5.268.049-1.585,0-3.707-.024-5.317-.061-.476-.012-.939-.037-1.378-.195-.073-.012-.122-.037-.171-.085-.402-.256-.537-.78-.28-1.195.159-.244.402-.268.659-.268h2.134c-.098-.244-.183-.524-.232-.829-.049-.317-.085-.634-.122-.963v-.561h-1.707c-.134,0-.256,0-.378-.024-.293-.049-.476-.22-.488-.5v-.817c.012-.28.195-.451.488-.5.122-.024.244-.024.378-.024h1.707v-.549c.037-.329.073-.646.122-.963s.134-.598.244-.841h-2.158c-.256,0-.5-.024-.671-.268-.256-.402-.122-.939.28-1.195.049-.037.11-.073.171-.085.451-.146.915-.171,1.378-.195,1.939-.037,3.927-.049,5.268-.049,1.585,0,3.719.024,5.317.061.476.012.939.037,1.378.195.073.012.122.037.171.085.402.256.537.78.28,1.195-.159.244-.402.268-.659.268h-2.134c.134.244.207.512.268.829Z"/>
  </g>
  <g>
    <path class="cls-1" d="m36.569,25.845c-.22,0-.463-.024-.732-.061s-.524-.122-.768-.256c-.244-.134-.451-.341-.598-.61-.159-.268-.232-.634-.232-1.11v-5.536c0-.402.061-.744.195-1.024.122-.268.293-.488.512-.646.22-.159.451-.268.707-.329.256-.061.512-.098.768-.098.634,0,1.207.012,1.719.024.512.012.976.037,1.402.049.427.012.817.037,1.183.061v1.341h-3.817c-.305,0-.549.073-.732.22-.183.146-.268.378-.268.695v1.707l4.195.085v1.268l-4.183.098v1.646c0,.256.049.463.146.598.098.134.22.232.366.28s.305.073.476.073h3.829v1.341c-.402.037-.841.061-1.317.085s-.951.037-1.439.049c-.5.024-.963.037-1.415.049Z"/>
    <path class="cls-1" d="m51.703,25.772v-7.585c0-.378.061-.707.183-.963.122-.256.28-.463.488-.622.195-.146.427-.256.671-.329.256-.061.5-.098.744-.098.378.012.793.012,1.268.024.476,0,.963.012,1.488.037.512.012,1.012.049,1.5.085v1.073h-3.902c-.341,0-.598.085-.78.256-.183.171-.268.427-.268.756v2.219l4.341.073v1.012l-4.341.073v3.963h-1.39v.024Z"/>
    <path class="cls-1" d="m68.8,25.772v-9.585h1.39v9.585h-1.39Z"/>
    <path class="cls-1" d="m81.714,25.772v-9.573h.89l5.244,7.792v-7.792h1.085v9.573h-.89l-5.244-7.792v7.792h-1.085Z"/>
    <path class="cls-1" d="m100.153,25.772v-9.573h1.098v9.573h-1.098Z"/>
    <path class="cls-1" d="m115.018,25.772v-8.866h-3.207v-.671h7.219v.671h-3.207v8.878h-.805v-.012Z"/>
    <path class="cls-1" d="m132.433,25.772v-3.317l-3.28-6.219h.585l2.976,5.683,2.963-5.683h.585l-3.28,6.219v3.317h-.549Z"/>
  </g>
</svg>