<?xml version="1.0" encoding="utf-8"?>
<!-- Generator: Adobe Illustrator 27.1.1, SVG Export Plug-In . SVG Version: 6.00 Build 0)  -->
<svg version="1.1" id="Layer_1" xmlns="http://www.w3.org/2000/svg" xmlns:xlink="http://www.w3.org/1999/xlink" x="0px" y="0px"
	 viewBox="0 0 140 40" style="enable-background:new 0 0 140 40;" xml:space="preserve">
<style type="text/css">
	.st0{fill:#F3BA2F;}
</style>
<g>
	<path id="Shape" class="st0" d="M46.4,9h4.9c1.2,0,2.2,0.3,2.8,0.9c0.6,0.5,0.8,1.2,0.8,1.8l0,0c0,0.3,0,0.6-0.1,0.8
		c-0.2,0.4-0.4,0.8-0.8,1.2c-0.2,0.2-0.3,0.3-0.5,0.3c0.6,0.2,1.1,0.5,1.5,0.9c0.3,0.4,0.5,0.9,0.5,1.7l0,0c0,0.4-0.1,0.9-0.3,1.2
		c-0.2,0.3-0.5,0.7-0.8,0.9c-0.4,0.3-0.8,0.4-1.2,0.6c-0.5,0.2-1.1,0.2-1.7,0.2h-5.1L46.4,9L46.4,9L46.4,9z M50.9,13.3
		c0.4,0,0.8-0.1,1.2-0.3c0.3-0.2,0.5-0.5,0.5-0.8l0,0c0-0.3-0.2-0.7-0.4-0.8c-0.3-0.3-0.8-0.3-1.2-0.3h-2.3v2.2L50.9,13.3L50.9,13.3
		L50.9,13.3z M51.5,17.6c0.4,0,0.8-0.1,1.2-0.3c0.3-0.2,0.5-0.5,0.4-0.9l0,0c0-0.3-0.2-0.7-0.4-0.8c-0.3-0.2-0.8-0.3-1.3-0.3h-2.8
		v2.3H51.5z"/>
	<polygon id="Path" class="st0" points="58.5,9 60.8,9 60.8,19.7 58.5,19.7 	"/>
	<polygon id="Path_1_" class="st0" points="64.4,9 66.6,9 71.5,15.6 71.5,9 73.9,9 73.9,19.7 71.9,19.7 66.6,12.9 66.6,19.7 
		64.4,19.7"/>
	<path id="Shape_1_" class="st0" d="M81,8.9h2.2l4.6,10.7h-2.4l-1-2.4h-4.5l-1,2.4h-2.4L81,8.9z M83.4,15.3L82,11.8l-1.4,3.5H83.4z"
		/>
	<polygon id="Path_2_" class="st0" points="90.2,9 92.3,9 97.3,15.6 97.3,9 99.7,9 99.7,19.7 97.7,19.7 92.5,12.9 92.5,19.7 
		90.2,19.7"/>
	<path id="Path_3_" class="st0" d="M108.2,19.8c-0.8,0-1.5-0.2-2.2-0.4c-1.3-0.6-2.3-1.6-2.9-2.9c-0.3-0.7-0.4-1.4-0.4-2.2l0,0
		c0-1.4,0.6-2.8,1.6-3.9c0.5-0.5,1.1-0.9,1.7-1.2c0.8-0.3,1.5-0.4,2.2-0.4c0.4,0,0.9,0,1.3,0.1c0.4,0.1,0.8,0.2,1.1,0.3
		c0.3,0.2,0.7,0.3,0.9,0.5c0.3,0.2,0.6,0.4,0.8,0.7l-1.4,1.7c-0.4-0.3-0.8-0.7-1.2-0.9c-0.4-0.2-0.9-0.3-1.4-0.3
		c-0.4,0-0.8,0.1-1.2,0.3c-0.4,0.2-0.8,0.4-1,0.8c-0.2,0.3-0.5,0.7-0.7,1.1c-0.2,0.4-0.3,0.8-0.3,1.2l0,0c0,0.4,0.1,0.9,0.3,1.3
		c0.2,0.4,0.3,0.8,0.7,1.1c0.6,0.7,1.4,1,2.2,1c0.5,0,1.1-0.1,1.6-0.3c0.4-0.3,0.9-0.6,1.2-0.9l1.5,1.5c-0.3,0.3-0.6,0.6-0.8,0.8
		c-0.3,0.3-0.7,0.4-1,0.6c-0.3,0.2-0.8,0.3-1.2,0.4C109.1,19.8,108.6,19.8,108.2,19.8L108.2,19.8z"/>
	<polygon id="Path_4_" class="st0" points="115.3,9 123.3,9 123.3,11.1 117.6,11.1 117.6,13.3 122.6,13.3 122.6,15.3 117.6,15.3 
		117.6,17.6 123.4,17.6 123.4,19.7 115.3,19.7"/>
	<path id="Path_5_" class="st0" d="M49.4,30.1c-0.6,0-1.2-0.1-1.7-0.3c-0.5-0.2-1-0.5-1.5-0.9l0.8-0.9c0.3,0.3,0.7,0.5,1.1,0.8
		c0.4,0.2,0.8,0.3,1.2,0.3c0.3,0,0.7-0.1,1-0.3c0.3-0.2,0.3-0.4,0.3-0.7l0,0c0-0.1,0-0.3-0.1-0.3c-0.1-0.1-0.2-0.3-0.3-0.3
		c-0.2-0.1-0.3-0.2-0.5-0.3c-0.3-0.1-0.6-0.2-0.8-0.3c-0.3-0.1-0.8-0.2-1.1-0.3c-0.3-0.1-0.6-0.3-0.8-0.4c-0.2-0.2-0.3-0.3-0.5-0.6
		c-0.2-0.3-0.2-0.7-0.2-0.9l0,0c0-0.3,0.1-0.6,0.2-0.9c0.1-0.3,0.3-0.5,0.5-0.7c0.3-0.2,0.5-0.3,0.8-0.4c0.3-0.1,0.7-0.2,1-0.2
		c0.5,0,1,0.1,1.5,0.3c0.4,0.2,0.8,0.4,1.2,0.7l-0.7,1c-0.3-0.3-0.7-0.4-1-0.6c-0.3-0.2-0.7-0.2-1-0.2c-0.3,0-0.7,0.1-0.9,0.3
		c-0.2,0.2-0.3,0.4-0.3,0.7l0,0c0,0.2,0,0.3,0.1,0.4c0.1,0.1,0.2,0.3,0.3,0.3c0.2,0.1,0.3,0.2,0.6,0.3c0.3,0.1,0.5,0.2,0.9,0.3
		c0.3,0.1,0.7,0.2,1.1,0.3c0.3,0.1,0.5,0.3,0.8,0.4c0.2,0.2,0.3,0.4,0.4,0.6c0.1,0.3,0.2,0.5,0.2,0.8l0,0c0,0.3-0.1,0.7-0.2,0.9
		c-0.2,0.3-0.3,0.5-0.6,0.8c-0.3,0.2-0.5,0.3-0.8,0.4C50.1,30.1,49.7,30.1,49.4,30.1z"/>
	<polygon id="Path_6_" class="st0" points="53.6,22.6 55,22.6 57.2,26.1 59.6,22.6 61,22.6 61,30.1 59.6,30.1 59.6,24.7 57.3,28.1 
		57.2,28.1 54.9,24.7 54.9,30.1 53.6,30.1"/>
	<path id="Shape_2_" class="st0" d="M65.5,22.5h1.2L70,30h-1.4l-0.8-1.8h-3.5L63.6,30h-1.3L65.5,22.5z M67.4,27.1l-1.3-3l-1.2,3
		H67.4z"/>
	<path id="Shape_3_" class="st0" d="M71.3,22.6h3.3c0.4,0,0.8,0.1,1.2,0.2c0.3,0.1,0.7,0.3,0.9,0.6c0.2,0.2,0.3,0.4,0.5,0.8
		c0.1,0.3,0.2,0.6,0.2,0.9l0,0c0,0.3-0.1,0.6-0.2,0.8c-0.1,0.3-0.3,0.4-0.3,0.7c-0.2,0.2-0.3,0.3-0.6,0.5c-0.3,0.2-0.5,0.3-0.8,0.3
		l2,2.8H76l-1.8-2.6h-1.7v2.6h-1.3L71.3,22.6z M74.5,26.2c0.4,0,0.8-0.1,1.1-0.3S76,25.3,76,25l0,0c0-0.3-0.2-0.7-0.4-0.9
		c-0.3-0.3-0.8-0.3-1.2-0.3h-1.9v2.5H74.5z"/>
	<polygon id="Path_7_" class="st0" points="80.9,23.7 78.4,23.7 78.4,22.6 84.5,22.6 84.5,23.7 82.1,23.7 82.1,30.1 80.8,30.1"/>
	<path id="Path_8_" class="st0" d="M92.6,30.1c-0.5,0-1-0.1-1.5-0.3c-0.9-0.4-1.7-1.1-2-2c-0.2-0.5-0.3-1-0.3-1.5l0,0
		c0-0.5,0.1-1,0.3-1.5c0.3-0.9,1.1-1.7,2-2.1c0.5-0.2,1-0.3,1.6-0.3c0.3,0,0.7,0,0.9,0.1c0.3,0.1,0.5,0.2,0.8,0.3
		c0.3,0.1,0.4,0.3,0.7,0.3c0.2,0.2,0.4,0.3,0.6,0.5l-0.8,1c-0.3-0.3-0.6-0.5-0.9-0.7c-0.3-0.2-0.8-0.3-1.2-0.3c-0.3,0-0.7,0.1-1,0.2
		c-0.3,0.2-0.6,0.3-0.8,0.6c-0.3,0.3-0.4,0.5-0.5,0.8c-0.1,0.3-0.2,0.7-0.2,1l0,0c0,0.3,0.1,0.7,0.2,1s0.3,0.6,0.5,0.8
		c0.3,0.3,0.5,0.4,0.8,0.6c0.3,0.2,0.7,0.3,1,0.2c0.4,0,0.8-0.1,1.2-0.3c0.3-0.2,0.7-0.4,1-0.8l0.8,0.8c-0.2,0.2-0.4,0.4-0.6,0.6
		c-0.3,0.2-0.4,0.3-0.7,0.4c-0.3,0.1-0.5,0.3-0.8,0.3C93.3,30.1,92.9,30.1,92.6,30.1L92.6,30.1z"/>
	<polygon id="Path_9_" class="st0" points="97,22.6 98.3,22.6 98.3,25.7 101.8,25.7 101.8,22.6 103.2,22.6 103.2,30.1 101.8,30.1 
		101.8,26.9 98.3,26.9 98.3,30.1 97,30.1"/>
	<path id="Shape_4_" class="st0" d="M107.7,22.5h1.2l3.2,7.5h-1.4l-0.8-1.8h-3.5l-0.8,1.8h-1.3L107.7,22.5z M109.6,27.1l-1.2-3
		l-1.2,3H109.6z"/>
	<polygon id="Path_10_" class="st0" points="113.6,22.6 114.9,22.6 114.9,30.1 113.6,30.1"/>
	<polygon id="Path_11_" class="st0" points="116.9,22.6 118.1,22.6 122.1,27.7 122.1,22.6 123.4,22.6 123.4,30.1 122.3,30.1 
		118.2,24.7 118.2,30.1 116.9,30.1"/>
	<path id="binancedex" class="st0" d="M31.8,29.6v3.2l-2.8,1.7l-2.8-1.7v-3.2l2.8,1.7L31.8,29.6z M16.6,18.3l2.8,1.7v5.6l4.7,2.8
		v3.2l-7.5-4.4V18.3z M41.2,18.3v8.9l-7.6,4.4v-3.2l4.7-2.8V20L41.2,18.3z M33.7,13.9l2.8,1.7l0,0v3.2l-4.7,2.8v5.7L29,29l-2.7-1.7
		v-5.7l-4.9-2.8v-3.2l2.8-1.7l4.7,2.8L33.7,13.9z M21.4,21.2l2.8,1.7v3.2l-2.8-1.7V21.2z M36.5,21.2v3.2l-2.8,1.7v-3.2L36.5,21.2z
		 M19.4,11.1l2.8,1.7l-2.8,1.7v3.2L16.6,16v-3.2L19.4,11.1z M38.5,11.1l2.8,1.7V16l-2.8,1.7v-3.2l-2.8-1.7L38.5,11.1z M28.9,11.1
		l2.8,1.7l-2.8,1.7l-2.8-1.7L28.9,11.1z M28.9,5.5l7.6,4.4l-2.8,1.7L29,8.8l-4.8,2.8l-2.8-1.7L28.9,5.5z"/>
</g>
</svg>
