<?xml version="1.0" encoding="UTF-8"?><svg id="Layer_1" xmlns="http://www.w3.org/2000/svg" viewBox="0 0 140 40"><defs><style>.cls-1{fill:#e6007a;}</style></defs><path d="m51.496,12.671c-1.144,0-2.246.144-2.695.265-.653.184-.816.47-.939,1.062l-2.592,11.963c-.041.244-.081.449-.081.653,0,.593.388.979,1.021.979.695,0,.981-.449,1.123-1.144l.735-3.409c.51.061,1.184.123,2.144.123,4.227,0,6.859-2.286,6.859-5.736,0-3.022-2.104-4.757-5.573-4.757Zm-1.388,8.533c-.653,0-1.164-.021-1.633-.081l1.367-6.349c.428-.061,1.062-.144,1.715-.144,2.246,0,3.39,1.062,3.39,2.818-.001,2.246-1.635,3.757-4.84,3.757h0Z"/><path d="m118.005,23.653c-.347,0-.572.204-1,.674-.756.776-1.225,1.204-1.816,1.204-.53,0-.816-.428-.816-1.123,0-.388.081-.858.184-1.367l.756-3.552h2.267c.714,0,1.144-.409,1.144-1.144,0-.409-.265-.714-.877-.714h-2.126l.367-1.653c.041-.244.081-.47.081-.674,0-.572-.388-.981-1.021-.981-.674,0-.979.449-1.123,1.144l-.47,2.164h-.96c-.735,0-1.163.409-1.163,1.144,0,.409.286.714.898.714h.837l-.756,3.511c-.081.388-.184,1.021-.184,1.674,0,1.653.858,2.858,2.695,2.858,1.062,0,2-.53,2.715-1.164.695-.612,1.204-1.367,1.204-1.858,0-.468-.367-.856-.837-.856Z"/><path d="m71.052,13.876c0-.593-.409-.981-1.041-.981-.674,0-.979.449-1.123,1.144l-2.551,11.86c-.061.244-.102.449-.102.653,0,.593.409.979,1.021.979.695,0,1-.449,1.144-1.144l2.551-11.859c.041-.246.102-.449.102-.653Z"/><path d="m107.491,17.427c-3.267,0-5.492,3.246-5.492,6.329,0,.058.001.116.003.172-.513.778-1.167,1.584-1.616,1.584-.326,0-.449-.307-.449-.776,0-.572.163-1.532.347-2.369l1.695-7.84c.041-.244.081-.449.081-.653,0-.593-.388-.981-1.021-.981-.695,0-.979.449-1.123,1.144l-.918,4.246c-.49-.51-1.206-.858-2.287-.858-2.169,0-4.351,1.67-5.201,4.231-.936,2.421-1.773,3.853-2.434,3.853-.244,0-.388-.204-.388-.551,0-1.021.572-3.511.816-4.715.081-.449.123-.633.123-.898,0-.898-1.49-1.96-3.43-1.96-2.243,0-4.274,1.421-5.292,3.53-1.513,2.672-2.901,4.594-3.588,4.594-.307,0-.409-.388-.49-.756l-.508-2.813,3.123-2.551c.286-.244.653-.593.653-1.041,0-.551-.367-.918-.918-.918-.409,0-.756.244-1.102.53l-4.695,3.878,1.572-7.308c.041-.244.102-.449.102-.653,0-.593-.409-.981-1.041-.981-.674,0-.979.449-1.123,1.144l-2.551,11.86c-.061.244-.102.449-.102.653,0,.593.409.979,1.021.979.695,0,1-.449,1.144-1.144l.327-1.53,1.918-1.551.47,2.367c.184.939.674,1.858,1.939,1.858s2.25-1.15,3.243-2.704c.301,1.628,1.459,2.704,3.067,2.704s2.715-.96,3.43-2.246v.041c0,1.327.674,2.204,1.858,2.204,1.071,0,1.96-.646,2.754-2.018.45,1.196,1.458,2.018,2.859,2.018,1.653,0,2.837-1,3.592-2.388v.123c0,1.47.735,2.267,1.939,2.267,1.064,0,1.967-.618,2.739-1.622.587,1.004,1.638,1.622,3.059,1.622,3.267,0,5.492-3.246,5.492-6.349-.001-2.185-1.329-3.757-3.595-3.757Zm-20.352,4.145c-.593,2.551-1.858,4.001-3.287,4.001-.96,0-1.49-.735-1.49-1.837,0-2.164,1.572-4.492,3.674-4.492.633,0,1.123.184,1.551.449l-.447,1.878Zm11.37-1.081c-.653,3.001-2.144,5.083-3.776,5.083-.898,0-1.43-.695-1.43-1.837,0-2.184,1.511-4.45,3.532-4.45.776,0,1.367.265,1.797.612l-.123.593Zm7.329,5.083c-1.184,0-1.674-.858-1.674-1.939,0-1.981,1.367-4.246,3.083-4.246,1.184,0,1.674.858,1.674,1.939,0,2-1.367,4.246-3.083,4.246Z"/><path d="m62.152,17.427c-3.267,0-5.492,3.246-5.492,6.329,0,2.204,1.327,3.776,3.592,3.776,3.267,0,5.492-3.246,5.492-6.349,0-2.184-1.327-3.755-3.592-3.755Zm-1.653,8.146c-1.184,0-1.674-.858-1.674-1.939,0-1.981,1.367-4.246,3.083-4.246,1.184,0,1.674.858,1.674,1.939-.001,2-1.369,4.246-3.083,4.246Z"/><ellipse class="cls-1" cx="30.981" cy="11.745" rx="3.767" ry="2.191"/><ellipse class="cls-1" cx="30.981" cy="28.255" rx="3.767" ry="2.191"/><ellipse class="cls-1" cx="23.833" cy="15.873" rx="3.767" ry="2.192" transform="translate(-1.83 28.576) rotate(-59.999)"/><ellipse class="cls-1" cx="38.13" cy="24.127" rx="3.767" ry="2.191" transform="translate(-1.83 45.084) rotate(-59.999)"/><ellipse class="cls-1" cx="23.833" cy="24.127" rx="2.192" ry="3.767" transform="translate(-8.871 15.149) rotate(-30.001)"/><ellipse class="cls-1" cx="38.131" cy="15.874" rx="2.191" ry="3.767" transform="translate(-2.828 21.192) rotate(-30.001)"/></svg>