<?xml version="1.0" encoding="UTF-8"?><svg id="Layer_1" xmlns="http://www.w3.org/2000/svg" viewBox="0 0 140 40"><defs><style>.cls-1{fill:#f7931a;}.cls-2{fill:#fff;}.cls-3{fill:#4d4d4d;}</style></defs><path class="cls-1" d="m43.172,22.024c-1.226,4.919-6.208,7.912-11.127,6.685-4.917-1.226-7.911-6.208-6.684-11.127,1.226-4.919,6.207-7.913,11.125-6.687,4.919,1.226,7.912,6.209,6.686,11.128h0Z"/><path class="cls-2" d="m38.315,18.495c.183-1.222-.747-1.878-2.019-2.317l.413-1.655-1.007-.251-.402,1.611c-.265-.066-.537-.128-.807-.19l.405-1.622-1.007-.251-.413,1.654c-.219-.05-.434-.099-.643-.151v-.005s-1.388-.347-1.388-.347l-.268,1.076s.747.171.732.182c.408.102.482.372.469.586l-.47,1.885c.028.007.065.018.105.034-.034-.008-.069-.018-.106-.026l-.659,2.641c-.05.124-.176.31-.462.239.01.015-.732-.183-.732-.183l-.5,1.153,1.311.327c.244.061.483.125.718.185l-.417,1.674,1.006.251.413-1.656c.275.075.542.143.803.208l-.411,1.648,1.007.251.417-1.671c1.718.325,3.009.194,3.553-1.36.438-1.251-.022-1.973-.926-2.443.658-.152,1.154-.585,1.286-1.479h0Zm-2.302,3.227c-.311,1.251-2.418.575-3.1.405l.553-2.218c.683.17,2.873.508,2.547,1.812h0Zm.312-3.246c-.284,1.138-2.037.56-2.606.418l.502-2.011c.569.142,2.4.406,2.104,1.593Z"/><path class="cls-3" d="m51.992,16.177c.745,0,1.388.133,1.928.395.543.265.991.621,1.351,1.069.355.45.619.977.789,1.58.169.605.254,1.256.254,1.952,0,1.07-.196,2.08-.592,3.033-.396.954-.932,1.781-1.615,2.487-.682.705-1.488,1.261-2.417,1.671-.928.411-1.936.616-3.019.616-.14,0-.386-.004-.734-.011s-.747-.043-1.195-.104c-.45-.063-.927-.156-1.43-.28-.503-.122-.98-.294-1.43-.511l4.02-16.892,3.601-.558-1.439,5.994c.308-.139.619-.246.928-.325.31-.077.643-.117.999-.117h0Zm-3.02,9.948c.542,0,1.053-.133,1.533-.395.481-.262.897-.616,1.245-1.057.348-.443.623-.942.824-1.499s.302-1.139.302-1.744c0-.743-.124-1.323-.372-1.742-.248-.417-.706-.627-1.371-.627-.218,0-.499.042-.847.116-.349.079-.662.243-.943.489l-1.533,6.366c.092.016.174.032.244.046.068.016.144.027.219.035.079.009.17.013.28.013s.247,0,.417,0h0Z"/><path class="cls-3" d="m60.048,28.658h-3.439l2.904-12.222h3.463l-2.928,12.222Zm1.674-13.711c-.48,0-.915-.143-1.301-.429-.389-.285-.582-.723-.582-1.313,0-.325.066-.629.197-.917.133-.287.306-.534.524-.744.217-.208.469-.375.755-.5.287-.123.593-.185.919-.185.48,0,.913.143,1.3.429.386.288.58.726.58,1.313,0,.326-.066.632-.198.919-.131.287-.305.534-.522.744-.215.209-.469.374-.755.499-.288.125-.592.185-.917.185h0Z"/><path class="cls-3" d="m65.99,13.391l3.602-.558-.885,3.602h3.858l-.697,2.834h-3.835l-1.021,4.275c-.094.356-.147.689-.162.998-.017.311.022.578.115.802.092.225.259.399.5.522.24.125.583.188,1.034.188.371,0,.732-.035,1.082-.105.347-.069.699-.165,1.056-.29l.257,2.65c-.465.17-.968.317-1.51.44-.543.125-1.186.185-1.929.185-1.068,0-1.897-.159-2.487-.475-.589-.318-1.006-.753-1.255-1.303-.246-.548-.356-1.18-.325-1.892.032-.714.139-1.464.325-2.254l2.278-9.619h0Z"/><path class="cls-3" d="m72.414,23.777c0-1.053.17-2.045.511-2.975.34-.93.83-1.744,1.465-2.442.633-.695,1.405-1.245,2.313-1.649.904-.402,1.916-.604,3.031-.604.698,0,1.322.066,1.87.198.551.133,1.049.306,1.5.522l-1.186,2.697c-.31-.126-.631-.236-.964-.337-.333-.102-.739-.152-1.22-.152-1.148,0-2.055.396-2.731,1.184-.673.789-1.012,1.852-1.012,3.184,0,.79.17,1.429.512,1.917.34.489.969.732,1.882.732.45,0,.885-.047,1.301-.139.419-.093.79-.21,1.116-.348l.257,2.765c-.435.169-.915.321-1.441.454-.527.129-1.155.196-1.883.196-.961,0-1.774-.141-2.44-.417-.666-.281-1.216-.654-1.649-1.127-.436-.474-.748-1.027-.942-1.663-.193-.635-.292-1.301-.292-1.997h0Z"/><path class="cls-3" d="m87.692,28.982c-.821,0-1.534-.125-2.139-.373-.603-.248-1.103-.595-1.498-1.046-.396-.448-.692-.979-.895-1.591-.203-.612-.3-1.289-.3-2.031,0-.931.149-1.862.452-2.79.301-.93.747-1.766,1.337-2.509.586-.744,1.309-1.352,2.16-1.826.85-.471,1.828-.708,2.926-.708.806,0,1.515.125,2.128.373.61.247,1.113.597,1.51,1.046.393.45.692.979.893,1.592.202.611.302,1.29.302,2.033,0,.928-.147,1.859-.44,2.79-.293.926-.728,1.764-1.301,2.509-.573.743-1.289,1.351-2.149,1.823-.859.472-1.855.709-2.986.709h0Zm1.719-9.945c-.51,0-.961.148-1.346.44-.387.296-.713.668-.975,1.116-.265.45-.462.942-.594,1.476-.132.535-.196,1.041-.196,1.522,0,.776.125,1.379.371,1.814.249.432.697.65,1.348.65.512,0,.96-.147,1.348-.442.385-.294.711-.666.975-1.115.263-.448.462-.941.594-1.476.13-.533.196-1.042.196-1.522,0-.774-.125-1.379-.373-1.813-.248-.432-.698-.65-1.348-.65h0Z"/><path class="cls-3" d="m98.317,28.658h-3.442l2.904-12.222h3.464l-2.927,12.222Zm1.671-13.711c-.48,0-.915-.143-1.3-.429-.387-.285-.582-.723-.582-1.313,0-.325.067-.629.198-.917.131-.287.306-.534.523-.744.216-.208.47-.375.755-.5.286-.123.592-.185.916-.185.481,0,.915.143,1.302.429.387.288.582.726.582,1.313,0,.326-.069.632-.199.919s-.305.534-.521.744c-.218.209-.469.374-.755.499-.288.125-.593.185-.92.185Z"/><path class="cls-3" d="m103.722,16.992c.261-.076.553-.168.87-.268.318-.1.674-.193,1.071-.277.393-.086.836-.156,1.324-.211.487-.055,1.043-.082,1.66-.082,1.814,0,3.064.528,3.755,1.581.69,1.053.809,2.495.362,4.322l-1.582,6.599h-3.462l1.533-6.46c.094-.403.167-.793.221-1.174.055-.378.052-.71-.012-.998-.061-.285-.205-.518-.429-.698-.227-.178-.57-.267-1.035-.267-.448,0-.905.048-1.37.141l-2.254,9.456h-3.463l2.813-11.664Z"/></svg>