<?xml version="1.0" encoding="UTF-8"?>
<svg id="Layer_1" data-name="Layer 1" xmlns="http://www.w3.org/2000/svg" viewBox="0 0 140 40">
  <defs>
    <style>
      .cls-1 {
        fill: #00ff8f;
      }

      .cls-2 {
        fill: #00fd8f;
      }
    </style>
  </defs>
  <g id="_4cNETV" data-name="4cNETV">
    <g>
      <path class="cls-1" d="m44.742,6.093c.081-.007.161-.015.242-.022.019.007.038.014.058.02.156.075.312.075.468,0,.04,0,.079.001.119.002,0,9.27,0,18.541,0,27.811-.137.033-.273.03-.41.002-.08-.084-.158-.093-.234.005v.018c-.159-.021-.319-.021-.479,0v-.018c-.075-.097-.153-.089-.233-.006-.126.034-.254.017-.381.017-6.445.001-12.89.001-19.336,0-.087,0-.177.017-.261-.022,0-1.459,0-2.918-.002-4.377,0-.114.034-.237-.05-.34-.023-.024-.046-.047-.069-.071-.105-.081-.227-.047-.342-.047-1.354-.002-2.708-.002-4.063-.002,0-.04-.001-.08-.002-.12.075-.095.046-.208.047-.313.002-.904.001-1.807.001-2.711,0-4.842,0-9.684.002-14.525,0-.132-.041-.275.055-.401.115-.037.233-.022.35-.023,1.208-.001,2.416,0,3.624-.002.113,0,.239.039.333-.067l.019.006c.152-.081.094-.225.094-.343.004-1.335.002-2.671.004-4.006,0-.124-.033-.256.056-.371.125-.084.267-.049.4-.049,6.539-.002,13.079-.001,19.618-.003.124,0,.256.036.372-.045Zm-15.385,4.819c-.086.103-.052.225-.052.34-.002,1.334,0,2.668-.003,4.001,0,.114.033.236-.052.349-.108.042-.226.025-.342.026-1.304.001-2.609,0-3.913.002-.115,0-.236-.03-.344.041-.074.034-.089.1-.087.17.005.165-.021.331.016.495-.024.275-.034.551.003.826-.031.313-.031.627,0,.94-.03.315-.034.63,0,.946-.031.313-.031.627,0,.94-.03.315-.034.63,0,.946-.031.313-.031.627,0,.94-.03.315-.034.63,0,.946-.031.313-.031.627,0,.94-.029.118-.027.236-.003.355-.018.076-.049.157.067.185.253.065.513-.014.766.043.075.09.178.066.273.066,1.057.001,2.113.001,3.17,0,.095,0,.199.024.274-.066.037-.019.074-.018.112-.002.075.125.064.264.064.402,0,1.306,0,2.612.001,3.919,0,.115-.032.237.045.343.01.078.054.122.133.133.086.068.188.045.284.045,3.581,0,7.162,0,10.743,0,.096,0,.198.022.284-.045.081-.025.097-.088.093-.162-.009-.166-.017-.332-.026-.498.035-.315.03-.63,0-.945.029-.313.031-.627,0-.94.035-.315.03-.63,0-.946.03-.333.03-.667,0-1,.03-.105.049-.209-.045-.319-.047,0-.104,0-.162,0-3.548-.002-7.096-.004-10.644-.005-.176,0-.352.012-.528.019-.021-.017-.041-.034-.062-.05.052-.161.091-.329.048-.492-.059-.224-.04-.448-.049-.673-.014-.334.102-.661.058-.995-.071-.537-.069-1.071-.004-1.609.026-.22-.005-.447-.035-.672-.041-.308-.042-.625.014-.938.05-.281.045-.567.002-.849-.052-.342-.058-.684,0-1.024.022-.128.045-.258.018-.379-.051-.232.004-.464-.027-.694-.012-.089.023-.151.093-.2.115-.034.234-.019.351-.019,3.261,0,6.521-.002,9.782.001.303,0,.608-.036.91.032.084.019.151-.028.213-.078.03-.015.062-.029.064-.07.029-.119.031-.237.001-.356.035-.315.03-.63,0-.945.029-.313.031-.627,0-.94.035-.315.03-.63,0-.946.029-.313.031-.627,0-.94.033-.193.028-.385.004-.582-.158-.058-.306-.034-.45-.034-3.558-.002-7.116-.002-10.674-.002-.107,0-.216-.012-.321.024-.021,0-.043,0-.064.001Zm.235,13.362l.022-.011-.022-.011v.022Z"/>
      <path class="cls-2" d="m24.179,10.904c-.094.106-.22.067-.333.067-1.208.003-2.416.001-3.624.002-.117,0-.235-.015-.35.023-.096.126-.055.268-.055.401-.002,4.842-.002,9.684-.002,14.525,0,.904,0,1.807-.001,2.711,0,.105.028.218-.047.313-.004-.579-.011-1.158-.011-1.738,0-5.333.002-10.666.002-16,0-.098-.002-.196-.003-.295.074-.036.153-.026.231-.026,1.339-.001,2.679-.002,4.018,0,.058,0,.116.011.174.017Z"/>
      <path class="cls-2" d="m24.243,29.185c.083.103.049.226.05.34.002,1.459.002,2.918.002,4.377-.021,0-.041-.002-.062-.002,0-1.484,0-2.968.002-4.452,0-.088.006-.175.009-.263Z"/>
      <path class="cls-2" d="m19.77,29.065c1.354,0,2.708,0,4.063.002.115,0,.237-.033.342.047-.891.003-1.783.007-2.674.01-.5.001-.999.003-1.499-.003-.077,0-.177.05-.232-.056Z"/>
      <path class="cls-2" d="m45.629,33.904c0-9.27,0-18.541,0-27.811.016-.008.033-.011.051-.009.003.118.008.235.008.353,0,5.608,0,11.216,0,16.825,0,3.546,0,7.091,0,10.637-.02.002-.039.004-.059.006Z"/>
      <path class="cls-2" d="m44.984,33.911c.076-.098.154-.089.234-.005-.078.028-.156.026-.234.005Z"/>
      <path class="cls-2" d="m45.51,6.091c-.156.075-.312.075-.468,0,.156-.018.312-.016.468,0Z"/>
      <path class="cls-2" d="m44.742,6.093c-.116.081-.248.045-.372.045-6.539.002-13.079.001-19.618.003-.134,0-.275-.035-.4.049-.089.114-.055.247-.056.371-.002,1.335,0,2.671-.004,4.006,0,.118.058.262-.094.343.004-.018.007-.036.009-.055.047-.093.025-.193.025-.29,0-1.404,0-2.808,0-4.212,0-.077.006-.155.01-.228.106-.076.217-.043.321-.043,6.53-.002,13.06-.001,19.59-.002.118,0,.235-.006.353-.01.079.007.157.015.236.022Z"/>
      <path class="cls-2" d="m120.244,20.344c-.01.195-.02.389-.03.584-.031.08-.028.165-.026.248-.004.004-.013.01-.012.013.002.011.007.022.011.033-.012.09-.025.18-.037.27-.021.027-.026.058-.016.09-.003.038-.007.077-.01.115-.018.016-.022.034-.007.055-.012.04-.024.079-.036.119-.003.022-.006.044-.009.066-.017.13-.081.251-.076.386-.032.023-.04.057-.043.093-.02.015-.022.032-.008.052,0,0,.01-.006.01-.006-.007.03-.013.06-.02.09-.034.021-.046.052-.037.09-.01.015-.015.032-.017.049-.054.029-.054.077-.047.129-.011.028-.023.055-.034.083-.031.028-.043.061-.03.102-.066.164-.133.328-.199.492-.03.021-.045.049-.042.086-.017.04-.034.08-.051.12-.014.014-.028.028-.042.042-.057.028-.079.074-.075.135-.158.235-.316.469-.474.704-.237.234-.474.468-.711.701-.035.005-.058.024-.07.057-.136.1-.272.199-.408.299-.038.018-.077.035-.115.053-.034-.002-.06.011-.076.041-.014.004-.027.012-.037.023-.035-.004-.062.008-.08.038-.014.005-.026.013-.036.024-.035-.003-.062.009-.078.042-.015.003-.028.01-.038.02-.034-.005-.062.005-.081.036-.015.003-.028.01-.038.02-.035-.005-.062.007-.08.037-.031.011-.061.022-.092.032-.036-.008-.062.005-.075.04-.073.026-.146.052-.219.078-.034-.009-.062-.002-.083.029-.015.002-.028.009-.04.018-.052-.007-.101-.004-.134.045l-.627.146c-.031-.012-.06-.009-.086.012-.05.011-.099.023-.149.034-.022-.02-.041-.016-.059.006h-.002c-.07-.014-.138-.017-.202.022-.554.058-1.108.054-1.662.002-.063-.038-.13-.048-.201-.025-.071-.012-.141-.024-.212-.035-.026-.023-.055-.027-.086-.015-.02-.002-.04-.004-.059-.007-.095-.052-.195-.078-.303-.067-.117-.036-.234-.071-.35-.107-.05-.039-.102-.072-.17-.058-.047-.017-.095-.034-.142-.051-.023-.036-.056-.044-.095-.035-.206-.101-.412-.203-.618-.304-.013-.03-.036-.045-.069-.045l-.006.007c-.01-.035-.036-.046-.07-.045-.03-.04-.071-.055-.119-.058-.394-.315-.777-.64-1.115-1.016-.106-.152-.212-.305-.318-.457-.002-.062-.03-.108-.087-.135h0c.002-.035-.012-.06-.043-.076-.004-.014-.011-.026-.022-.035.002-.036-.013-.062-.046-.076-.014-.042-.032-.081-.073-.104-.124-.294-.248-.588-.372-.882-.01-.038-.02-.075-.03-.113.007-.056.009-.111-.041-.151-.01-.029-.019-.058-.029-.088.021-.055.009-.102-.036-.141-.011-.05-.021-.101-.032-.151-.003-.022-.007-.044-.01-.065l-.033-.112c.019-.043.011-.083-.018-.119-.043-.353-.086-.706-.13-1.06-.001-.136-.002-.273-.003-.409-.001-.023-.002-.046-.004-.069.001-.116.022-.232-.014-.346.007-.039.014-.079.021-.118.002-.021.004-.042.005-.063,0-.038.002-.076.003-.114.002-.04.005-.08.007-.121.001-.021.002-.042.003-.063.027-.038.025-.077.006-.116.016-.103.048-.205.035-.311l.002-.022c.02-.023.022-.048.009-.075.008-.067.017-.134.025-.201.045-.044.045-.098.035-.155h.006c.005-.006.014-.011.014-.016,0-.013-.005-.026-.007-.039.014-.059.027-.119.041-.178.002-.02.004-.039.006-.059.015-.055.031-.11.046-.166.044-.146.089-.291.133-.437,0,0,.016-.017.016-.017l-.007-.022c.068-.175.135-.35.203-.525.014-.005.021-.015.023-.03.027-.006.036-.021.023-.047.116-.21.232-.42.348-.63.035-.011.049-.036.048-.072.022-.037.043-.073.065-.11.266-.363.578-.686.902-.997.034-.021.067-.042.101-.063.034,0,.058-.016.066-.05l.003-.002c.078-.014.133-.057.169-.126.095-.062.19-.124.285-.186.061.004.108-.02.139-.073l.451-.233c.034.005.059-.008.073-.04.017.004.032,0,.044-.014.22-.076.441-.152.661-.228l.019.009.017-.014c.082-.02.164-.04.245-.06.021-.003.042-.007.063-.01.041-.012.082-.024.123-.035.053.019.103.02.149-.018.106-.017.211-.033.317-.05.018.017.034.014.048-.005h.006c.021-.001.042-.002.063-.003.622-.015,1.245-.04,1.864.065.172.029.344.063.516.095.026.03.056.042.093.023.03.008.061.017.091.025.023.029.052.038.088.031.091.027.183.053.274.08.033.045.079.057.131.052.072.031.143.062.215.093.099.062.194.133.317.143.025.015.05.03.075.044.01.024.027.031.052.022.033.019.066.037.099.056.014.033.038.048.074.046.01.011.022.018.037.022.014.033.04.047.075.045h0c.025.057.068.09.133.09.013.013.028.021.045.025.033.076.095.113.174.125.043.057.098.097.167.116.342.335.662.688.948,1.073.121.209.241.419.362.628-.003.036.011.062.045.076.002.015.006.029.014.042-.013.07.021.121.068.166.1.296.2.592.3.889-.012.067.012.123.052.174.022.119.044.237.067.356-.015.069.006.128.047.182.003.038.006.076.01.114-.003.009-.01.019-.008.027.006.017.016.032.024.048,0,0,.012.004.012.004.008.073.015.147.023.22-.004.005-.012.011-.011.015.003.012.009.023.014.035.015.253.029.506.044.759-.02.029-.018.056.004.083.003.056.007.111.01.167Zm-4.724,3.708h.004c.036.006.061-.009.077-.042.125-.023.229-.091.337-.153.057-.006.092-.045.128-.082.036-.004.061-.023.074-.057.324-.222.567-.509.705-.88l-.002-.015v.015c.034-.016.045-.042.036-.078.058-.076.084-.166.11-.255l.02-.015s-.012-.022-.012-.022c.009-.033.018-.066.027-.1.03-.021.037-.049.027-.083.006-.019.009-.038.008-.057.044-.052.063-.112.049-.18.017-.173.033-.347.05-.52.031-.08.03-.162.011-.245.003-.477.01-.955.006-1.432-.003-.311.029-.622-.024-.932-.014-.115-.027-.23-.041-.345,0-.038-.002-.076-.003-.114.018-.084-.015-.156-.054-.227-.002-.036-.01-.07-.044-.091.005-.017,0-.03-.015-.039-.033-.243-.146-.452-.28-.652,0-.039-.019-.063-.055-.075-.003-.015-.01-.027-.023-.036-.005-.067-.048-.102-.104-.127-.022-.018-.043-.035-.065-.053-.016-.022-.031-.044-.047-.067-.004-.038-.025-.058-.062-.062-.081-.096-.169-.185-.283-.242-.013-.035-.037-.051-.074-.048-.055-.041-.088-.114-.166-.124-.029-.053-.076-.062-.13-.05-.153-.038-.291-.129-.454-.132-.017-.033-.042-.046-.079-.037-.018-.009-.037-.01-.057-.005-.041-.007-.082-.013-.122-.02-.309-.097-.624-.035-.936-.032-.022.002-.043.004-.065.007-.077.015-.155.03-.232.045-.07-.012-.136-.01-.185.052-.412.093-.766.289-1.051.604-.12.086-.214.197-.29.323l-.018.005s.006.018.006.018c-.035.048-.071.095-.106.143l-.022.012v.025c-.104.184-.208.368-.222.586-.066.116-.087.241-.082.372-.029.029-.033.063-.022.1-.015.137-.075.27-.032.411-.032.316-.035.632.002.948-.042.293-.023.586-.01.88-.033.375-.008.747.038,1.119-.009.032-.004.061.022.084.008.03.016.06.023.09-.004.007-.012.015-.011.02.004.015.012.028.018.042.046.209.089.418.222.594.219.543.601.928,1.133,1.169.03.044.074.06.126.06l.021.015s.024-.008.024-.008c.075.024.15.049.224.073.072.065.16.055.246.053.079.011.158.023.237.034.022.001.044.003.066.004.136,0,.271.001.407.002.041.016.082.016.123,0,.077-.01.154-.019.231-.029.064.035.121.011.177-.023h.002c.052.016.101.012.142-.028.09-.023.186-.023.268-.074.025.013.043.006.056-.018Z"/>
      <path class="cls-1" d="m98.265,14.283c.207-.012.387-.085.529-.239h0c.066-.018.09-.067.097-.13.102-.157.152-.329.159-.515.028-.04.027-.084.02-.129.005-.877.009-1.755.016-2.632.001-.145-.026-.292.02-.435.012-.006.023-.015.031-.026.389-.044.78-.017,1.17-.017.478,0,.956-.022,1.434.014.011.014.024.024.04.03.057.114.01.24.044.357-.023.314-.023.627,0,.941-.023.315-.023.63,0,.945-.023.314-.023.627,0,.941-.026.294-.016.588-.006.882-.017.038-.002.054.037.054.155.037.313.017.469.017,1.316.002,2.632,0,3.948.001.106,0,.214-.012.347.03.008.733.015,1.466.023,2.198-.057.161-.196.101-.301.101-1.379.004-2.758.002-4.137.003-.117,0-.234.011-.35.017-.042.002-.054.023-.037.061-.001.135-.023.27.01.404-.023.316-.033.633.006.949-.039.312-.029.624-.005.937-.023.317-.035.633.005.949-.039.312-.028.625-.005.938-.024.317-.034.634.005.95-.038.312-.029.624-.005.936-.035.333-.01.668-.015,1.002-.013.04.006.055.043.056l-.004.018c.096.072.208.046.313.046,1.323.002,2.647.002,3.97,0,.106,0,.217.024.315-.04.04,0,.08.001.121.002.011.017.025.029.043.038.009.021.017.041.026.062-.018.707-.018,1.414.001,2.12-.042.139-.159.088-.247.089-.577.003-1.155.003-1.732-.002-1.017-.008-2.035.025-3.052-.023-.015-.022-.032-.024-.05-.004-.071-.01-.142-.02-.213-.03-.024-.027-.053-.032-.086-.02-.07-.013-.139-.026-.209-.039-.04-.037-.087-.048-.14-.034-.043-.016-.087-.032-.13-.048-.05-.037-.102-.068-.169-.059-.03-.011-.06-.023-.091-.034-.019-.032-.047-.043-.083-.034-.013-.007-.027-.011-.041-.013-.014-.044-.045-.062-.091-.058-.093-.055-.185-.11-.278-.165-.37-.314-.66-.691-.888-1.117-.088-.249-.172-.498-.231-.756.013-.04.017-.079-.013-.114-.01-.225-.028-.45-.028-.675,0-1.558.003-3.116.005-4.674,0-.47.001-.941-.002-1.411,0-.097.044-.237-.143-.216-.158-.029-.316-.045-.474.004-.82-.004-1.64-.006-2.459-.013-.124-.001-.254.032-.371-.044.012-.002.024-.002.036-.003-.005-.018-.01-.036-.016-.053-.02-.139-.018-.278-.003-.417.069-.254.069-.508,0-.761-.018-.237-.015-.475,0-.712.069-.096.033-.207.042-.311.037-.009.075-.026.112-.026.73,0,1.46.004,2.19.006.1.056.198.059.293-.01l-.005-.017c.021-.002.043-.004.064-.006.045.003.088,0,.122-.036Z"/>
      <path class="cls-2" d="m101.781,10.204c-.016-.007-.029-.017-.04-.03.031-.013.043-.001.04.03Z"/>
      <path class="cls-2" d="m99.137,10.177c-.008.011-.018.019-.031.026l.005-.026h.026Z"/>
      <path class="cls-2" d="m44.272,33.906c.08-.084.158-.091.234.006-.079.021-.157.023-.234-.006Z"/>
      <path class="cls-2" d="m29.422,24.29c-.021.001-.041.003-.062.004.001-2.066.003-4.133.003-6.199,0-.803-.001-1.606-.002-2.409.088.003.176.007.264.007,3.547,0,7.095,0,10.642,0,.176,0,.352.006.529.009-.062.05-.129.097-.213.078-.301-.068-.607-.031-.91-.032-3.261-.003-6.521-.002-9.782-.001-.117,0-.235-.016-.351.019-.071.049-.105.111-.093.2.031.23-.024.462.027.694.027.121.003.252-.018.379-.058.34-.053.682,0,1.024.043.282.048.568-.002.849-.056.313-.054.629-.014.938.03.226.061.452.035.672-.064.538-.066,1.072.004,1.609.044.334-.072.661-.058.995.01.225-.01.449.049.673.043.163.004.331-.048.492Z"/>
      <path class="cls-2" d="m29.483,29.137c.078-.004.156-.012.235-.012,3.624,0,7.248,0,10.872,0,.068,0,.137.008.205.012-.086.067-.188.045-.284.045-3.581,0-7.162,0-10.743,0-.096,0-.198.022-.284-.045Z"/>
      <path class="cls-2" d="m29.369,15.508c-.001.061-.003.122-.004.183-1.328-.003-2.655-.005-3.983-.009-.244,0-.487-.008-.731-.012.108-.07.229-.041.344-.041,1.304-.002,2.609,0,3.913-.002.116,0,.234.017.342-.026.085-.113.052-.235.052-.349.002-1.334,0-2.668.003-4.001,0-.114-.034-.237.052-.34.005.02.011.04.016.061,0,.117,0,.235,0,.352-.018.413-.016.827,0,1.24,0,.215,0,.431,0,.646-.018.413-.016.827,0,1.24,0,.215,0,.431,0,.646-.026.137-.008.274-.004.412Z"/>
      <path class="cls-2" d="m29.24,24.341c0-.014.003-.028.008-.041.041.018.082.024.117-.013.003.513.005,1.025.008,1.538,0,.196,0,.391,0,.587-.018.433-.017.866,0,1.299,0,.196,0,.391,0,.587l-.023.706c-.077-.106-.045-.228-.045-.343-.002-1.306-.002-2.612-.001-3.919,0-.137.011-.276-.064-.402Z"/>
      <path class="cls-2" d="m25.412,24.343c.087-.006.174-.018.261-.018,1.065-.001,2.129-.001,3.194,0,.087,0,.174.012.261.019-.075.089-.178.066-.274.066-1.057.001-2.113.001-3.17,0-.095,0-.199.023-.273-.066Z"/>
      <polygon class="cls-2" points="29.592 24.274 29.593 24.252 29.614 24.263 29.592 24.274"/>
      <path class="cls-2" d="m102.739,23.872c1.218.016,2.435.016,3.653,0,.02.008.039.017.059.025-.099.064-.209.04-.315.04-1.323.001-2.647.002-3.97,0-.106,0-.217.026-.313-.046.021-.006.041-.013.062-.019.058,0,.117,0,.175,0,.217.022.433.021.65,0Z"/>
      <path class="cls-2" d="m95.446,16.156c-.022-.254-.02-.508,0-.761.068.254.069.508,0,.761Z"/>
      <path class="cls-2" d="m95.447,14.683c-.008-.078-.016-.155-.025-.233.009-.037.019-.075.028-.112.014.01.027.021.039.034-.009.104.027.215-.042.311Z"/>
      <path class="cls-2" d="m97.79,14.351c.097-.024.195-.02.293-.01-.096.069-.194.066-.293.01Z"/>
      <path class="cls-2" d="m106.571,23.899c.016-.009.033-.013.052-.011.003.017,0,.033-.009.049-.018-.008-.032-.021-.043-.038Z"/>
      <path class="cls-2" d="m95.464,16.627c-.005-.018-.01-.036-.016-.053.005.018.01.036.016.053Z"/>
      <path class="cls-2" d="m72.443,14.437c.118-.036.236-.073.354-.109.021-.004.042-.008.063-.012.04-.013.081-.026.121-.039,0,0,.024.009.024.009l.02-.017h.006c.022-.005.043-.009.065-.013.137-.03.275-.06.412-.09.022.017.042.012.059-.008.138-.004.274-.018.406-.058.041.022.08.023.119-.005.02-.001.04-.002.06-.003.021-.001.042-.002.062-.003.45-.013.901-.023,1.351-.003.021,0,.042.002.064.003.021.001.043.002.064.004.035.026.071.027.108.003.07.01.141.019.211.029.063.042.131.046.203.028.078.016.156.031.233.047.021.003.042.006.064.009l.2.047c.027.029.057.036.093.016.206.07.411.139.617.209.062.05.129.083.211.083.029.013.058.027.086.04.025.035.06.048.102.044.332.175.623.411.925.63.274.293.532.597.718.957,0,0,0-.004,0-.004.029.052.058.105.087.157.011.022.022.045.032.067-.004.039.009.069.043.089.059.202.117.404.176.605-.003.008-.01.017-.008.023.005.015.015.028.022.042.003.021.006.041.01.062-.01.034-.004.063.024.086.01.051.02.102.031.153.002.038.005.076.007.114-.009.083-.003.163.037.238,0,.036-.002.072-.003.108-.003.008-.011.017-.01.024.003.017.01.033.016.05,0,.216,0,.431,0,.647,0,1.687,0,3.374.003,5.061,0,.076-.055.177.059.228.039.001.078.002.116.003.373.02.746.018,1.119.001.045.014.091.026.12.068-.023.648-.021,1.296.002,1.944-.009.057-.018.114-.032.197h-1.972c-.059-.028-.121-.026-.183-.012-.019-.007-.038-.009-.058-.007-.019-.022-.04-.027-.064-.007-.048-.011-.097-.022-.145-.033-.025-.023-.054-.027-.086-.017-.225-.049-.424-.161-.636-.245-.027-.049-.074-.07-.124-.087-.008-.019-.022-.029-.042-.029-.16-.167-.313-.34-.437-.536l.009-.008h-.013c-.196-.323-.245-.7-.34-1.051-.088.013-.113.039-.125.08-.177.576-.518,1.044-.953,1.45l.004-.002c-.036.006-.062.026-.077.06-.064.023-.115.064-.158.115-.039.004-.067.024-.083.06l-.018-.005-.016.008c-.038-.004-.062.012-.075.048-.131.065-.262.129-.394.194-.035-.012-.063-.002-.084.029-.031.011-.061.021-.092.032-.037-.019-.066-.01-.088.024-.108.034-.216.068-.325.102-.038.003-.075.005-.113.008-.066-.011-.122.016-.178.046,0,0,0,.006,0,.006-.039,0-.078.002-.117.002-.024.004-.048.008-.072.012-.037.01-.074.02-.111.03-.059-.016-.117-.007-.174.011-.098-.012-.196-.015-.294.007-.099,0-.197,0-.296,0-.079-.019-.158-.02-.237-.005v-.006c-.039-.026-.078-.027-.117-.004l.004.007c-.09-.026-.18-.047-.274-.034h-.007c-.039-.034-.087-.032-.134-.03-.021-.018-.043-.022-.067-.007-.017-.01-.034-.009-.051.001-.031-.012-.062-.025-.094-.037-.025-.02-.054-.024-.084-.013-.11-.03-.219-.059-.329-.089-.021-.029-.05-.036-.084-.028-.234-.095-.469-.189-.691-.312-.013-.034-.038-.049-.073-.048-.01-.011-.021-.019-.036-.023-.014-.032-.039-.047-.073-.048-.034-.024-.068-.048-.103-.072-.011-.033-.034-.05-.069-.052-.064-.05-.112-.121-.195-.147-.023-.073-.084-.106-.147-.136-.012-.016-.023-.033-.035-.049-.017-.057-.052-.098-.108-.121-.02-.06-.052-.11-.113-.135.004-.015,0-.028-.011-.039,0-.035-.018-.055-.049-.066l-.007.004c-.006-.06-.04-.105-.085-.142v-.007c-.016-.058-.037-.113-.094-.144-.002-.047-.019-.088-.057-.119-.023-.143-.083-.271-.156-.395-.008-.045-.016-.09-.024-.134.012-.033.006-.062-.021-.086-.012-.05-.025-.1-.037-.15.003-.008.01-.018.008-.025-.004-.016-.013-.032-.02-.047,0,0-.009-.007-.009-.007-.01-.071-.021-.142-.031-.213.004-.006.013-.014.012-.019-.003-.014-.011-.027-.017-.041-.003-.04-.005-.079-.008-.119-.001-.021-.003-.043-.004-.064-.01-.158.014-.317-.03-.473.007-.037.014-.073.021-.11.033-.059.03-.121.016-.183.001-.021.002-.041.004-.062.024-.039.032-.078.01-.121.001-.037.003-.074.004-.112.026-.02.033-.043.012-.071.03-.029.035-.064.027-.103.006-.04.013-.08.019-.121.017-.001.026-.011.025-.028.025-.025.032-.055.021-.089v-.002c.006-.019.011-.038.016-.057.04-.051.044-.112.047-.173.117-.217.234-.434.352-.651.047-.052.094-.103.14-.155.033-.012.049-.036.052-.071.018-.019.037-.037.055-.056.036-.007.055-.029.058-.065.019-.018.039-.036.058-.054.035-.002.057-.02.063-.054l.002-.002c.073-.02.131-.059.162-.132h0c.037,0,.059-.017.069-.052.022-.015.044-.031.066-.046.034-.003.057-.021.069-.053.035-.023.07-.046.105-.069.051,0,.092-.019.121-.062.168-.082.336-.164.504-.246.041.012.075.004.101-.032.028-.012.056-.023.085-.035.066.01.12-.016.166-.061.063-.018.126-.036.188-.054.021-.004.041-.007.062-.011l.121-.041.025.008.022-.016c.198-.04.396-.08.594-.12.021-.002.042-.005.062-.007.312-.034.624-.068.936-.102.041.027.081.022.12-.006.079-.002.158-.004.237-.006.787.02,1.574.025,2.361-.003.037,0,.074-.001.112-.002.081,0,.072-.052.061-.105.013-.333.016-.666-.004-.999.012-.044.008-.087-.015-.127-.044-.34-.106-.675-.321-.957.003-.018-.004-.031-.021-.038.004-.036-.016-.054-.048-.062-.002-.03-.013-.054-.045-.062-.011-.041-.036-.068-.076-.08.001-.02-.008-.031-.028-.033-.014-.048-.042-.084-.092-.1-.052-.042-.104-.083-.157-.125v-.017s-.016.007-.016.007c-.13-.11-.288-.158-.446-.209-.024-.026-.053-.032-.086-.021h-.003c-.015-.021-.032-.026-.053-.01-.038-.013-.076-.026-.114-.039-.021-.003-.043-.007-.064-.01l-.269-.038c-.065-.038-.133-.035-.203-.018-.156,0-.312,0-.468-.001-.108-.019-.216-.03-.319.025-.09.011-.18.023-.27.034-.022.003-.043.007-.065.01-.038.011-.076.022-.114.033-.04-.021-.075-.011-.107.017-.406.101-.771.279-1.076.571-.036.003-.062.02-.073.056h-.004c-.313.202-.507.524-.769.786-.175-.144-.328-.279-.49-.402-.136-.104-.233-.26-.412-.305-.058-.146-.202-.205-.307-.305-.041-.079-.093-.145-.188-.162l-.006-.003c-.024-.038-.047-.076-.1-.076-.045-.075-.146-.118-.131-.228l.369-.517c.034-.009.054-.031.06-.066.035-.036.069-.073.104-.109,0,0,.023-.002.023-.002l.008-.022c.012-.001.02-.008.025-.019.026,0,.038-.012.037-.037.017-.011.029-.025.035-.044.033-.008.056-.027.065-.061.019-.018.038-.035.057-.053.032,0,.055-.014.063-.047l-.006-.011c.036-.005.058-.027.069-.061l-.004.005c.073-.023.13-.066.172-.131.018.002.033-.004.045-.016.058-.013.109-.035.133-.095.034,0,.058-.016.072-.048.034-.023.069-.046.103-.069.035,0,.061-.014.075-.046.014-.004.025-.012.035-.023.036.002.061-.013.074-.047.015-.003.029-.009.041-.018.035.004.058-.01.07-.043h0c.051.001.09-.018.114-.065.036-.018.073-.037.109-.055.023.015.038.006.047-.018l.009-.002c.036.008.061-.004.077-.037.016-.002.03-.007.044-.016.062.005.109-.027.155-.062.015-.014.03-.028.045-.042,0,0,.02.001.02.001l.016-.013c.019-.004.038-.007.058-.011Zm1.537,6.683c-.033-.009-.063-.004-.088.021-.03.009-.06.017-.09.026-.02-.017-.037-.013-.051.008-.267.057-.509.169-.721.342-.036.004-.057.025-.063.06-.038.039-.076.078-.114.117-.076.036-.113.097-.121.179-.013.009-.022.021-.026.037-.027.022-.036.05-.029.083-.005.026-.01.051-.015.077-.034.026-.043.061-.035.101-.033.063-.073.124-.024.197-.088.265-.025.536-.032.803.002.021.004.042.006.063.01.039.021.079.031.118-.018.039-.01.073.021.102.018.044.035.087.053.131-.006.036.005.065.037.084.041.095.092.182.185.235.02.049.055.083.104.103.015.036.042.055.08.06.199.173.436.259.692.304.019.031.047.04.081.029.194.022.386.071.583.059.081.026.161.023.242-.002.178.014.35-.033.525-.054.033.012.063.006.087-.021.354-.082.7-.182.982-.43.038-.001.063-.02.075-.057h.004c.26-.171.441-.399.512-.706.094-.123.109-.272.11-.415.006-.547.002-1.095,0-1.642,0-.025-.022-.05-.042-.092-.378,0-.759-.004-1.139,0-.488.006-.977-.027-1.465.029-.037.005-.075.011-.112.016-.065-.02-.123.001-.18.028-.021.002-.042.004-.062.006Z"/>
      <path class="cls-2" d="m56.838,20.934c.022-.061.014-.12-.009-.178.005-.512.015-1.025.055-1.536.031-.058.053-.118.027-.185.005-.036.01-.072.014-.109.006-.039.013-.078.019-.116.02-.022.026-.045.009-.071.014-.054.027-.107.041-.161.002-.021.004-.042.006-.063.011-.051.021-.102.032-.153.027-.022.034-.051.026-.084v-.005c.023-.015.026-.033.01-.055l-.011.007c.009-.036.018-.071.028-.107l.013.002c.025-.021.031-.046.019-.076.013-.048.027-.097.04-.145.024-.026.03-.056.022-.089.025-.072.05-.144.076-.216.03-.018.041-.045.035-.08.062-.157.153-.301.188-.468.086-.149.172-.299.258-.448.032-.015.048-.04.045-.076.011-.01.019-.023.023-.037.031-.013.047-.036.046-.07.027-.045.055-.09.082-.135.244-.31.504-.607.78-.89.157-.117.314-.234.471-.351.034,0,.06-.013.071-.048l.106-.069c.033.002.058-.011.07-.044h.002c.05,0,.088-.02.112-.066l-.005-.006c.081-.009.147-.046.199-.109.016.003.028-.002.036-.016.035.004.06-.009.073-.043l-.003.003c.137-.031.26-.094.377-.17h.016s.009-.013.009-.013c.065.004.125-.009.177-.049.038.006.074,0,.104-.026,0,0,.011-.01.011-.01.059-.02.119-.04.178-.06.137-.036.275-.073.412-.109.059.009.115.002.168-.028.064.022.121.001.177-.027.027-.006.054-.012.081-.018.035-.009.07-.018.104-.028.099.01.198.005.294-.021.349,0,.699,0,1.048-.001.282,0,.561.039.84.074.016.019.033.023.053.006.221.055.442.11.663.166.051.035.104.065.169.058.056.026.108.066.176.057.011.014.025.021.042.023.017.032.044.04.078.033.132.066.264.132.396.199.012.034.036.051.073.047.05.031.1.061.15.092.01.03.03.046.062.045l.007.007c.011.032.033.047.067.046.034.024.068.048.102.071.01.033.032.052.067.055.009.015.022.025.039.03.003.027.018.039.044.036.062.059.116.127.198.16.28.297.555.599.785.938.002.05.019.091.068.112.084.155.168.31.251.466.008.042.015.084.023.126-.032.024-.063.047-.095.071-.461.235-.917.477-1.359.745-.036,0-.063.015-.081.046-.014,0-.026.005-.036.015-.037-.002-.064.013-.081.046-.014,0-.026.006-.036.017-.036-.002-.063.013-.078.046-.091.047-.181.094-.272.141-.052-.001-.091.021-.12.063-.041-.005-.081-.01-.122-.014-.067-.195-.164-.374-.292-.536l.008-.013-.016-.002c-.013-.016-.026-.031-.039-.047-.005-.035-.022-.06-.057-.073l-.127-.159c-.005-.036-.025-.057-.061-.062-.016-.021-.033-.042-.049-.062-.009-.048-.043-.066-.086-.073-.068-.056-.137-.112-.205-.167-.012-.035-.037-.049-.072-.05-.034-.024-.068-.047-.103-.071-.014-.034-.041-.047-.077-.042-.012-.01-.025-.016-.04-.019-.016-.033-.043-.045-.079-.04-.137-.085-.292-.121-.448-.154-.043-.036-.09-.04-.142-.023-.135-.03-.271-.053-.41-.051-.14-.025-.279-.028-.418.006-.14-.012-.272.036-.408.05-.052-.014-.1-.01-.136.036-.373.068-.711.211-.993.472-.135.062-.217.178-.302.291-.035.011-.053.036-.056.072-.148.165-.245.358-.318.565-.05.061-.088.126-.078.21v.003c-.02.015-.025.033-.009.054-.055.132-.097.268-.096.414-.023.057-.03.116-.015.176-.025.078-.043.157-.015.239-.048.315-.036.63-.005.945-.032.311-.034.623.002.934-.037.119-.033.239-.003.359-.032.101-.032.2.014.297-.025.117.008.232.017.347-.019.086.013.162.05.236.009.024.017.048.026.072.012.036.024.072.036.108-.008.052,0,.099.048.13-.004.016-.001.032.008.046-.007.034,0,.063.03.085.02.055.023.118.078.155.01.099.073.17.131.244l-.01.005h.013c.022.033.043.065.065.097-.01.048,0,.081.056.086.007.019.019.033.037.042.004.035.023.057.057.064.007.034.027.054.06.063.047.07.109.122.18.166.036.074.099.111.176.127.108.08.218.156.352.186.055.044.12.063.188.075.019.004.038.007.057.011l.024.014h.028c.049.062.116.054.184.046l.174.05c.022.003.044.006.065.009.31.029.62.081.932.016.026.023.05.022.074-.003.056-.005.111-.01.167-.015.022-.003.044-.007.066-.01.115-.039.246-.022.35-.1.032.008.06,0,.082-.025h.006c.287-.078.527-.238.742-.439.037-.003.057-.024.066-.059.077-.077.155-.154.232-.232.035-.008.056-.029.059-.066.049-.053.105-.1.118-.177.094-.069.155-.163.201-.269.081-.039.102-.112.11-.192.044-.035.045-.111.127-.123.118.019.199.135.322.165.003.02.015.027.034.022l.01.007c.013.032.038.042.071.039.029.033.064.054.108.059.012.035.035.051.072.047.011.014.025.018.042.014.048.064.108.108.19.116h-.001c.132.121.295.194.448.282l.008.019.019-.006c.037.02.074.04.11.059.012.031.033.049.068.047.199.119.397.237.596.356.015.038.03.077.045.115-.017.042-.034.083-.051.125v.002c-.045.025-.067.063-.065.114-.078.097-.154.196-.185.32-.036.018-.057.046-.063.087l.005-.007c-.036.011-.052.036-.054.072-.04.017-.06.05-.069.091-.303.351-.619.69-.984.978-.058.015-.108.041-.13.101h-.001c-.032.003-.057.016-.067.05-.015.004-.027.012-.038.023-.104.022-.183.083-.251.161-.03.018-.061.037-.091.055-.094-.008-.158.046-.22.105-.014.003-.024.012-.029.026-.052-.002-.1.007-.13.057-.114.041-.228.083-.342.124-.037-.019-.066-.01-.088.024-.029.01-.057.021-.086.031-.021-.018-.039-.014-.053.009l-.005.007c-.037-.005-.071.002-.095.034-.028.006-.057.012-.085.018-.154.012-.305.033-.447.098-.067.007-.134.014-.201.022-.057-.012-.111-.012-.157.032-.008-.011-.016-.012-.026-.003-.08-.024-.155,0-.23.022-.196-.007-.392-.009-.588.015-.04,0-.08,0-.12,0-.196-.023-.392-.024-.589-.014-.075-.021-.15-.044-.229-.028l-.025.004c-.03-.03-.068-.033-.107-.031-.016-.019-.033-.021-.053-.005l.006.009c-.067-.02-.134-.037-.204-.023-.225-.066-.45-.132-.684-.159l-.02-.012-.024.002c-.018-.032-.049-.043-.083-.047-.015-.021-.033-.025-.054-.01l.007.011c-.1-.04-.2-.081-.3-.121-.047-.049-.104-.072-.172-.066-.011-.01-.024-.016-.039-.018-.019-.03-.047-.04-.081-.036-.192-.1-.385-.201-.577-.301-.42-.297-.819-.62-1.165-1.003-.128-.174-.256-.348-.385-.521.001-.034-.011-.06-.045-.072l.003.003c-.032-.115-.089-.216-.174-.3v-.002c-.063-.132-.127-.264-.19-.396-.034-.149-.08-.294-.174-.419-.007-.099-.055-.184-.093-.273-.01-.044-.021-.088-.031-.132-.004-.021-.008-.042-.012-.063-.012-.038-.025-.076-.037-.113.003-.007.011-.015.009-.02-.005-.013-.013-.025-.02-.037h0c-.004-.023-.009-.044-.013-.066-.017-.077-.033-.153-.05-.23.012-.032.008-.061-.016-.086,0-.018-.009-.029-.025-.036-.006-.058-.011-.116-.017-.174.015-.052.012-.102-.022-.147-.009-.048-.018-.097-.027-.145.004-.007.013-.014.012-.019-.003-.015-.01-.028-.016-.043-.003-.059-.005-.117-.008-.176-.002-.021-.003-.042-.005-.064,0-.06.006-.121-.035-.173Z"/>
      <path class="cls-2" d="m92.777,15.57c.012.016.024.032.036.047.016.06.033.119.095.151.004.02.014.035.031.046.012.079.051.143.112.194.026.051.051.101.077.152-.005.032.006.057.035.073l.012-.004c-.005.018-.002.035.009.05-.008.033.001.061.029.082.035.089.069.177.104.266-.017.069.011.125.053.177.021.079.041.158.062.237-.019.087.012.163.056.235.002.02.004.04.006.06l.008.063c.033.274.067.548.1.822.002.079.003.157.005.236-.006.117-.016.234-.016.351-.001,1.742-.003,3.485,0,5.227,0,.655.011,1.31.017,1.966-.009.057-.018.114-.029.181-.038.009-.075.024-.112.024-.869.001-1.739,0-2.608,0-.068,0-.137.004-.201-.028,0-2.436.001-4.873,0-7.309,0-.077-.014-.155-.022-.232.022-.141-.032-.275-.04-.414.019-.139-.025-.262-.09-.381-.08-.304-.198-.588-.433-.81-.146-.225-.373-.343-.605-.453-.049-.039-.101-.07-.167-.059-.142-.061-.294-.081-.446-.1-.045-.033-.093-.034-.144-.017-.156-.001-.312-.002-.468-.003-.062-.017-.122-.017-.181.012-.116.017-.232.034-.347.051-.036-.011-.064,0-.08.034-.033.006-.066.012-.099.019-.034-.01-.063-.004-.085.025-.278.093-.539.214-.748.427-.036.008-.062.027-.07.064h-.003c-.334.279-.522.628-.511,1.072-.039.294-.028.589-.005.884-.028.354-.028.708,0,1.061-.028.275-.026.55,0,.825-.028.354-.028.708,0,1.061-.028.275-.026.55,0,.825-.028.354-.028.708,0,1.061-.028.275-.026.55,0,.825-.028.354-.028.707,0,1.061-.044.151.017.315-.064.482h-2.865c-.063-.187.003-.368-.047-.537.029-.316.033-.632-.002-.948.037-.313.03-.626.002-.938.029-.317.032-.633-.002-.95.035-.313.032-.625.002-.938.029-.315.033-.631-.002-.946.037-.313.03-.627.002-.94.029-.315.033-.631-.002-.946.037-.313.03-.627.002-.94.029-.316.032-.632-.002-.948.035-.313.032-.625.002-.938.029-.316.032-.632-.002-.948.056-.308-.012-.622.041-.931.872,0,1.743.001,2.615.004.106,0,.217-.023.311.053-.013.293-.017.586.012.879-.056.577-.034.982.087,1.166.126-.308.276-.578.443-.838.024-.002.035-.015.033-.039.011-.018.021-.035.032-.053.054-.028.092-.066.09-.132.048-.055.097-.11.145-.164.042-.007.067-.029.067-.074.063-.062.139-.114.177-.199.036-.01.061-.031.07-.068l-.006.008c.047-.011.083-.034.098-.082l.004-.004c.088-.041.166-.094.222-.175.092-.044.184-.087.257-.162.068,0,.118-.04.172-.072.035.003.061-.011.075-.044.015,0,.03-.005.043-.012.036.008.065-.002.087-.031.148-.047.297-.093.445-.14.02-.003.039-.006.059-.009.448-.079.899-.086,1.351-.069.021.002.043.003.064.005.04.002.081.005.121.007l.02.013.021-.01c.062.013.124.027.186.04l.065.01h.011s.013.014.013.014l.014-.011.195.052c.015.023.034.028.058.011.032.007.063.015.095.022.02.031.049.039.084.032.195.082.39.164.585.246h0c.025.046.066.064.117.067l-.005-.003c.044.066.108.099.184.113h-.002c.009.03.026.053.063.052.022.037.052.063.095.07.015.034.041.054.078.059.078.114.192.189.291.281l-.002.017h.018c.034.037.067.074.101.112.005.036.025.057.062.061.021.017.042.035.063.052-.004.021.003.038.02.051.008.061.041.103.098.125Z"/>
    </g>
  </g>
</svg>