<?xml version="1.0" encoding="UTF-8"?><svg id="Layer_1" xmlns="http://www.w3.org/2000/svg" viewBox="0 0 140 40"><defs><style>.cls-1{fill:#0033ad;}</style></defs><g id="Layer_2"><g id="Layer_1-2"><path class="cls-1" d="m15.462,18.953c-.057,1.001.707,1.859,1.708,1.918h.099c1.001-.001,1.812-.814,1.811-1.815s-.814-1.812-1.815-1.811c-.96.001-1.753.75-1.808,1.709h.005Z"/><path class="cls-1" d="m8.702,18.494c-.323-.018-.599.229-.617.552-.018.323.229.599.552.617.323.018.599-.228.617-.551.019-.322-.227-.599-.549-.618,0,0-.002,0-.003,0Z"/><path class="cls-1" d="m15.347,8.432c.288-.148.402-.501.254-.79-.148-.288-.501-.402-.79-.254-.286.147-.4.496-.257.784.146.29.499.407.789.262.001,0,.003-.001.004-.002Z"/><path class="cls-1" d="m17.187,11.639c.446-.225.626-.77.401-1.216-.225-.446-.77-.626-1.216-.401-.446.225-.626.769-.401,1.216.225.447.769.626,1.216.402,0,0,0,0,0,0Z"/><path class="cls-1" d="m10.996,13.846c.344.226.807.131,1.033-.213.226-.344.131-.807-.213-1.033-.344-.226-.807-.131-1.033.213,0,0,0,0,0,0-.226.344-.13.806.214,1.032Z"/><path class="cls-1" d="m12.099,18.164c-.499-.028-.927.354-.955.853-.028.499.354.927.853.955.499.028.926-.353.955-.852.028-.499-.354-.927-.853-.956Z"/><path class="cls-1" d="m11.095,24.252c-.368.186-.515.635-.329,1.002.186.368.635.515,1.002.329.367-.186.515-.634.33-1.002-.186-.368-.634-.516-1.002-.33,0,0,0,0,0,0Z"/><path class="cls-1" d="m14.615,16.293c.492.323,1.153.185,1.476-.307.323-.492.185-1.153-.307-1.476-.492-.323-1.153-.185-1.476.307-.323.492-.186,1.152.305,1.475,0,0,.001,0,.002.001Z"/><path class="cls-1" d="m25.782,11.568c.419.274.981.155,1.254-.264.274-.419.155-.981-.264-1.254-.419-.273-.98-.155-1.254.263-.274.418-.157.98.261,1.254,0,0,.002.001.002.002Z"/><path class="cls-1" d="m27.64,8.37c.271.178.634.102.812-.169.178-.271.102-.634-.169-.812s-.634-.102-.812.169c0,0,0,0,0,0-.177.271-.101.634.169.811Z"/><path class="cls-1" d="m25.924,17.228c-1-.057-1.857.707-1.914,1.706-.057,1,.707,1.857,1.706,1.914h.105c1.001,0,1.813-.813,1.812-1.814,0-.445-.164-.875-.461-1.207-.319-.359-.768-.576-1.248-.6Z"/><path class="cls-1" d="m17.782,16.167c.307.613.935,1,1.621.998,1.002,0,1.814-.812,1.814-1.814,0-.285-.067-.566-.196-.82-.309-.61-.937-.994-1.621-.991-1.002.002-1.813.815-1.811,1.817,0,.281.066.558.192.809Z"/><path class="cls-1" d="m31.998,13.844c.368-.186.516-.634.33-1.002-.186-.368-.634-.516-1.002-.33-.367.185-.515.633-.33,1.001.186.368.634.516,1.003.331Z"/><path class="cls-1" d="m27.401,14.421c-.526.265-.737.906-.473,1.432.265.526.906.737,1.432.473.526-.265.737-.906.473-1.432-.264-.526-.904-.738-1.43-.473,0,0-.001,0-.002,0Z"/><path class="cls-1" d="m21.478,8.097c.411.023.764-.291.787-.702s-.291-.764-.702-.787c-.411-.023-.764.291-.787.702,0,0,0,0,0,0-.023.411.291.763.702.787Z"/><path class="cls-1" d="m21.47,12.791c.588.033,1.091-.417,1.124-1.005.033-.588-.417-1.091-1.005-1.124-.587-.033-1.09.416-1.124,1.003-.033.588.416,1.092,1.005,1.125Z"/><path class="cls-1" d="m15.695,23.673c.526-.265.737-.906.472-1.432-.265-.526-.906-.737-1.432-.472-.526.265-.737.906-.472,1.432,0,0,0,0,0,0,.265.525.906.737,1.432.472Z"/><path class="cls-1" d="m22.159,14.347c-.549.837-.315,1.961.523,2.51.837.549,1.961.315,2.51-.523.549-.837.315-1.961-.523-2.51-.295-.193-.639-.296-.991-.297-.612,0-1.183.308-1.519.819Z"/><path class="cls-1" d="m25.311,21.928c-.451-.894-1.541-1.253-2.435-.802-.894.451-1.253,1.541-.802,2.435.308.611.934.997,1.619.997.284-.002.563-.07.816-.198.891-.451,1.25-1.538.802-2.431Z"/><path class="cls-1" d="m28.479,21.802c-.492-.323-1.153-.186-1.476.306-.323.492-.186,1.153.306,1.476.492.323,1.153.186,1.476-.306.322-.492.185-1.152-.306-1.476Z"/><path class="cls-1" d="m31.951,19.078c.028-.499-.354-.927-.853-.955-.499-.028-.927.354-.955.853-.028.499.353.926.852.955.499.028.927-.354.956-.853Z"/><path class="cls-1" d="m34.459,18.433c-.323-.019-.601.228-.619.552-.019.323.228.601.552.619.323.019.601-.228.619-.552,0,0,0,0,0,0,.018-.323-.229-.6-.552-.619Z"/><path class="cls-1" d="m32.097,24.249c-.345-.226-.807-.129-1.033.215-.226.345-.129.807.215,1.033.344.226.807.129,1.032-.215.226-.344.13-.807-.214-1.033,0,0,0,0,0,0Z"/><path class="cls-1" d="m15.454,29.724c-.271-.178-.634-.102-.812.169-.178.271-.102.634.169.812.271.178.634.102.812-.168.178-.271.103-.634-.168-.812,0,0,0,0,0,0Z"/><path class="cls-1" d="m27.746,29.663c-.289.146-.406.498-.26.788.146.289.498.406.788.26.289-.146.406-.498.26-.788,0,0,0,0,0,0-.145-.289-.497-.406-.786-.26,0,0-.001,0-.002,0Z"/><path class="cls-1" d="m20.934,23.744c.549-.837.315-1.961-.523-2.51s-1.961-.315-2.51.523-.315,1.961.523,2.51c.295.193.64.296.992.297.612.002,1.184-.306,1.518-.819Z"/><path class="cls-1" d="m17.312,26.527c-.418-.274-.98-.156-1.253.262s-.156.98.262,1.253c.418.274.979.157,1.253-.261.274-.419.157-.98-.262-1.254Z"/><path class="cls-1" d="m21.539,29.998c-.411-.023-.764.291-.787.702s.291.764.702.787c.411.023.763-.291.787-.702.024-.411-.291-.764-.702-.788,0,0,0,0,0,0Z"/><path class="cls-1" d="m21.547,25.304c-.588-.036-1.093.412-1.129.999-.036.588.412,1.093.999,1.129.588.036,1.093-.412,1.129-.999,0-.001,0-.003,0-.004.034-.586-.413-1.089-1-1.124Z"/><path class="cls-1" d="m25.907,26.455c-.446.227-.625.772-.398,1.219.227.446.772.625,1.219.398.446-.227.625-.772.398-1.219,0,0,0-.001,0-.002-.226-.445-.771-.623-1.216-.397,0,0-.001,0-.002,0Z"/><path class="cls-1" d="m45.912,14.764c1.755,0,2.985.965,2.985,2.756h2.299c0-3.142-2.317-4.656-5.319-4.656-3.687,0-5.829,2.002-5.829,6.233,0,4.336,2.142,6.232,5.829,6.232,3.037,0,5.319-1.474,5.319-4.618h-2.212c0,1.755-1.212,2.721-3.071,2.721-2.441,0-3.566-1.352-3.566-4.161v-.351c.002-2.754,1.142-4.158,3.565-4.158Z"/><path class="cls-1" d="m57.276,13.078l-4.688,12.045h2.318l.965-2.616h5.509l.991,2.616h2.423l-4.691-12.045h-2.827Zm-.702,7.529l1.229-3.302c.246-.649.685-2.054.773-2.299h.087c.088.246.527,1.667.773,2.299l1.228,3.301h-4.09Z"/><path class="cls-1" d="m77.331,16.729c0-2.229-1.282-3.652-3.933-3.652h-6.356v12.045h2.248v-4.656h3.739l2.279,4.656h2.458l-2.576-5.004c1.422-.562,2.142-1.755,2.142-3.389Zm-4.109,1.844h-3.932v-3.581h3.932c1.212,0,1.844.65,1.844,1.738,0,1.142-.685,1.844-1.844,1.844Z"/><path class="cls-1" d="m85.214,13.078h-4.813v12.045h4.811c3.634,0,5.845-1.896,5.845-6.022s-2.209-6.022-5.843-6.022Zm3.547,6.198c-.018,2.634-1.264,3.933-3.547,3.933h-2.563v-8.217h2.563c2.279,0,3.547,1.3,3.547,3.933v.351Z"/><path class="cls-1" d="m96.946,13.078l-4.69,12.045h2.317l.966-2.616h5.513l.983,2.616h2.423l-4.688-12.045h-2.824Zm-.702,7.529l1.227-3.302c.246-.649.685-2.054.773-2.299h.089c.087.246.527,1.667.773,2.299l1.228,3.301h-4.09Z"/><path class="cls-1" d="m114.732,20.241c0,.228.035.842.035.948l-.087.035c-.053-.069-.404-.685-.594-.965l-5.232-7.181h-2.145v12.045h2.16v-7.216c0-.297-.036-.878-.036-.966l.088-.053c.053.07.316.58.594.984l5.267,7.251h2.106v-12.045h-2.159v7.164h.002Z"/><path class="cls-1" d="m125.842,12.868c-3.774,0-6.057,2.001-6.057,6.232s2.279,6.232,6.057,6.232,6.075-2.001,6.075-6.232-2.3-6.232-6.075-6.232Zm3.774,6.426c0,2.756-1.317,4.143-3.774,4.143-2.44,0-3.757-1.387-3.757-4.143v-.369c0-2.757,1.334-4.161,3.757-4.161,2.441,0,3.774,1.404,3.774,4.161v.369Z"/></g></g></svg>