<?xml version="1.0" encoding="UTF-8"?><svg id="Layer_1" xmlns="http://www.w3.org/2000/svg" xmlns:xlink="http://www.w3.org/1999/xlink" viewBox="0 0 140 40"><defs><style>.cls-1{fill:url(#linear-gradient);}.cls-1,.cls-2,.cls-3{stroke-width:0px;}.cls-2{fill:url(#linear-gradient-2);}.cls-3{fill:#3e3854;}</style><linearGradient id="linear-gradient" x1="22.89" y1="17.75" x2="43.486" y2="17.75" gradientUnits="userSpaceOnUse"><stop offset="0" stop-color="#6bdbf4"/><stop offset="1" stop-color="#78eac5"/></linearGradient><linearGradient id="linear-gradient-2" x1="30.123" y1="32.885" x2="47.464" y2="17.271" gradientUnits="userSpaceOnUse"><stop offset="0" stop-color="#a197f5"/><stop offset="1" stop-color="#60bfff"/></linearGradient></defs><path class="cls-1" d="M39.533,11.91c-1.045-.591-2.134-.935-3.268-1.04-3.242-.302-6.056.654-8.25,3.108-1.875,2.098-2.658,4.578-2.321,7.395.16,1.339.603,2.571,1.29,3.726.387.651.37.705-.175,1.25-.274.273-.543.551-.823.817-.381.362-.739.343-1.004-.088-1.038-1.69-1.766-3.485-2.005-5.481-.67-5.589,2.677-10.747,7.659-12.633,4.341-1.643,8.406-.98,12.108,1.819.988.747.969.784.084,1.667-1.402,1.397-2.804,2.794-4.206,4.191-.581.579-.629.583-1.381.143-2.305-1.349-5.204-.286-6.007,2.2-.262.811-.232,1.624-.022,2.431.083.321.016.548-.214.767-.353.336-.687.692-1.039,1.029-.412.394-.786.328-1.023-.203-.801-1.794-.848-3.62-.066-5.42,1.137-2.618,3.639-4.177,6.489-4.097.621.017,1.233.135,1.824.332.188.063.348.092.507-.068.602-.607,1.209-1.209,1.846-1.844Z"/><path class="cls-2" d="M47.103,20.207c-.053,5.924-4.308,10.905-10.075,11.896-3.609.62-6.888-.274-9.778-2.541-.066-.052-.132-.103-.2-.154-.549-.411-.572-.681-.075-1.18,1.507-1.513,3.019-3.022,4.529-4.531.441-.44.653-.469,1.193-.143,1.199.724,2.457.865,3.763.35,1.844-.727,2.878-2.692,2.393-4.629-.148-.59-.05-.989.425-1.351.291-.223.52-.525.794-.774.385-.349.762-.292.976.175.519,1.135.706,2.308.561,3.572-.115.994-.392,1.896-.897,2.742-1.599,2.677-4.848,3.863-7.71,2.957-.334-.106-.55-.078-.791.185-.443.483-.913.942-1.391,1.391-.261.245-.303.356.08.539,3.593,1.711,7.891.957,10.732-1.918,1.962-1.985,2.86-4.395,2.731-7.169-.073-1.568-.549-3.036-1.39-4.367-.286-.453-.255-.798.135-1.151.324-.293.611-.627.936-.919.369-.332.704-.28.963.13,1.331,2.103,2.092,4.381,2.096,6.888Z"/><path class="cls-3" d="M72.795,20.184c0-1.866-.002-3.732,0-5.598,0-.723.099-.821.813-.822,1.53-.001,3.06-.016,4.59.005,2.469.034,4.241,1.965,4.018,4.412-.127,1.396-.92,2.398-2.125,3.05-.397.215-.374.365-.185.702.697,1.244,1.367,2.503,2.04,3.761.33.618.15.909-.552.921q-1.502.026-2.177-1.318c-.535-1.064-1.079-2.123-1.596-3.196-.134-.279-.284-.403-.605-.387-.553.028-1.11.024-1.664.001-.306-.012-.403.076-.398.392.018,1.261.01,2.522.006,3.782-.002.588-.129.712-.707.726q-1.46.034-1.46-1.439c0-1.664,0-3.329,0-4.993ZM75.001,17.813c0,.555.014,1.11-.006,1.664-.01.286.083.376.37.371.857-.017,1.715.001,2.572-.008,1.2-.013,2.117-.891,2.134-2.029.016-1.066-.887-1.96-2.058-1.996-.89-.027-1.782.003-2.673-.012-.267-.004-.351.086-.344.346.015.554.005,1.109.005,1.664Z"/><path class="cls-3" d="M108.902,20.185c0-1.866-.002-3.731,0-5.597,0-.706.119-.824.816-.824,2.185-.001,4.371-.001,6.556,0,.699,0,.828.129.835.81.011,1.156-.029,1.197-1.17,1.197-1.462,0-2.925.011-4.387-.008-.355-.005-.502.053-.484.457.037.822.025,1.647.004,2.47-.008.319.07.428.41.423,1.311-.021,2.622-.01,3.933-.008.671.001.801.13.806.785q.01,1.221-1.238,1.221c-1.16,0-2.32.009-3.48-.006-.304-.004-.446.044-.435.402.028.907.024,1.815.002,2.722-.008.33.089.422.418.418,1.597-.017,3.194-.009,4.791-.007.696.001.823.13.828.82.001.168,0,.336,0,.504-.002.426-.192.655-.641.654-2.303-.004-4.606.002-6.909-.005-.53-.002-.654-.159-.655-.783-.003-1.882-.001-3.765-.001-5.647Z"/><path class="cls-3" d="M84.711,20.134c.151-2.711,1.388-4.794,3.917-5.938,2.475-1.119,4.845-.798,6.987.919.493.395.502.621.078,1.068q-.84.888-1.869.231c-1.604-1.025-3.543-.973-5.002.134-1.514,1.148-2.145,3.177-1.56,5.012.57,1.787,2.154,3.021,4.001,3.091,1.046.04,1.975-.307,2.818-.918.68-.493.691-.475,1.305.099.72.674,1.012.859-.121,1.675-2.196,1.582-4.56,1.746-6.938.537-2.354-1.197-3.512-3.227-3.617-5.91Z"/><path class="cls-3" d="M59.356,26.798c-3.875-.011-6.787-2.605-7.096-5.878-.326-3.446,1.946-6.562,5.303-7.212,2.061-.399,3.933.057,5.562,1.413.475.396.486.623.057,1.075q-.835.879-1.828.237c-1.597-1.033-3.551-.997-5.005.093-1.506,1.128-2.159,3.133-1.613,4.952.547,1.822,2.118,3.082,3.99,3.172,1.045.05,1.978-.286,2.823-.895.72-.519.707-.491,1.347.084.938.843.683,1.041-.102,1.651-1.156.898-2.48,1.307-3.438,1.31Z"/><path class="cls-3" d="M99.052,20.16c0-1.864-.001-3.728,0-5.592,0-.706.092-.798.772-.805q1.404-.013,1.404,1.39c0,2.989.008,5.979-.009,8.968-.002.415.103.542.528.533,1.31-.028,2.62-.013,3.93-.009.652.002.759.115.764.766q.009,1.204-1.183,1.204c-1.814,0-3.628.002-5.442-.001-.666-.001-.763-.099-.764-.761-.003-1.898,0-3.795,0-5.693Z"/><path class="cls-3" d="M68.725,20.239c0,1.864.002,3.727,0,5.591,0,.685-.101.779-.796.785q-1.378.012-1.379-1.363c0-3.543,0-7.086,0-10.628,0-.781.081-.859.873-.86q1.302-.003,1.302,1.287c0,1.729,0,3.459,0,5.188Z"/></svg>