<?xml version="1.0" encoding="UTF-8"?><svg id="Layer_1" xmlns="http://www.w3.org/2000/svg" viewBox="0 0 140 40"><defs><style>.cls-1{fill-rule:evenodd;}</style></defs><g id="wordmark_light"><g id="text"><path id="Fill_3" class="cls-1" d="m29.877,24.263l-1.415-1.433c-.537.501-1.081.899-1.63,1.191-.549.292-1.206.439-1.97.439-.597,0-1.149-.116-1.657-.349-.507-.233-.946-.552-1.317-.958-.37-.406-.657-.881-.86-1.424-.203-.543-.304-1.126-.304-1.746s.101-1.2.304-1.738c.203-.537.49-1.006.86-1.406.37-.4.809-.716,1.317-.949.508-.233,1.06-.349,1.657-.349.716,0,1.355.143,1.916.43.561.286,1.093.663,1.594,1.128l1.415-1.63c-.298-.287-.615-.549-.949-.788-.334-.239-.698-.445-1.093-.618-.394-.173-.827-.307-1.299-.403-.472-.096-.994-.144-1.567-.144-.955,0-1.827.17-2.615.511-.788.34-1.469.806-2.042,1.397-.573.591-1.018,1.281-1.334,2.069-.317.788-.475,1.63-.475,2.526,0,.907.161,1.755.484,2.543.322.788.767,1.471,1.334,2.051.567.579,1.239,1.036,2.015,1.37.776.334,1.624.501,2.544.501.585,0,1.12-.051,1.603-.152.484-.102.928-.251,1.334-.448.406-.197.785-.43,1.138-.699.352-.269.689-.576,1.012-.922Z"/><path id="Fill_4" class="cls-1" d="m58.299,17.066c0-.417.178-.772.535-1.063.356-.292.855-.438,1.496-.438.57,0,1.134.11,1.692.331.558.22,1.122.539,1.692.956l1.176-1.662c-.641-.512-1.327-.902-2.057-1.17-.731-.268-1.553-.402-2.467-.402-.618,0-1.188.086-1.707.259-.523.173-.968.42-1.339.741-.371.322-.662.706-.876,1.153-.211.447-.318.944-.318,1.492,0,.584.092,1.078.276,1.483.184.405.454.751.805,1.036.35.286.787.524,1.303.715.52.191,1.111.363,1.779.518.582.143,1.054.28,1.419.411.362.131.647.271.858.42.208.149.35.313.428.491.077.179.116.381.116.608,0,.489-.199.876-.597,1.162-.398.286-.935.429-1.612.429-.784,0-1.485-.14-2.102-.42-.618-.28-1.229-.682-1.835-1.206l-1.318,1.573c.748.679,1.562,1.182,2.441,1.51.879.328,1.799.491,2.761.491.653,0,1.253-.083,1.799-.25.543-.167,1.012-.411,1.398-.733.389-.322.692-.715.911-1.179.217-.465.327-.995.327-1.591,0-.524-.086-.98-.258-1.367-.172-.387-.428-.726-.76-1.019-.333-.292-.754-.539-1.259-.742-.504-.202-1.087-.387-1.74-.554-.597-.143-1.087-.28-1.476-.411-.386-.131-.689-.274-.912-.429-.22-.155-.371-.322-.454-.5-.083-.179-.125-.393-.125-.643Z"/><path id="Fill_5" class="cls-1" d="m82.686,17.243v8.936h2.177v-12.461h-2.338l-3.8,5.892-3.8-5.892h-2.337v12.461h2.177v-8.901l3.907,5.839h.072l3.943-5.875Z"/><path id="Fill_6" class="cls-1" d="m103.15,20.018c0,.609-.104,1.185-.313,1.729-.208.543-.497,1.015-.867,1.415-.369.4-.813.716-1.332.949-.519.233-1.088.349-1.707.349s-1.192-.119-1.716-.358c-.524-.239-.975-.561-1.35-.967-.375-.406-.668-.881-.876-1.424-.208-.543-.313-1.119-.313-1.728s.104-1.185.313-1.729c.209-.543.498-1.015.867-1.415.37-.4.814-.716,1.332-.949.518-.233,1.088-.349,1.707-.349s1.192.119,1.716.358c.524.239.974.561,1.35.967.376.406.668.881.876,1.424.209.543.313,1.12.313,1.729Zm2.306-.036c0-.884-.161-1.72-.483-2.508-.322-.788-.769-1.475-1.341-2.06-.572-.585-1.258-1.048-2.056-1.388-.798-.34-1.68-.511-2.646-.511s-1.847.173-2.646.52-1.49.815-2.074,1.406c-.584.591-1.037,1.281-1.359,2.069-.322.788-.483,1.624-.483,2.508s.161,1.719.483,2.507c.322.788.769,1.475,1.341,2.06.572.585,1.257,1.048,2.056,1.388.798.34,1.68.51,2.646.51s1.848-.173,2.646-.519c.799-.346,1.49-.815,2.074-1.406.584-.591,1.037-1.281,1.358-2.069.322-.788.483-1.624.483-2.507Z"/><path id="Fill_7" class="cls-1" d="m114.603,17.066c0-.417.178-.772.534-1.063.356-.292.855-.438,1.497-.438.57,0,1.134.11,1.692.331.558.22,1.122.539,1.692.956l1.176-1.662c-.642-.512-1.327-.902-2.058-1.17-.73-.268-1.553-.402-2.467-.402-.618,0-1.188.086-1.707.259-.523.173-.968.42-1.339.741-.371.322-.662.706-.876,1.153-.211.447-.317.944-.317,1.492,0,.584.092,1.078.276,1.483.184.405.454.751.804,1.036.35.286.787.524,1.304.715.519.191,1.11.363,1.778.518.582.143,1.054.28,1.419.411.362.131.647.271.858.42.208.149.35.313.428.491.078.179.116.381.116.608,0,.489-.199.876-.597,1.162-.398.286-.935.429-1.612.429-.784,0-1.485-.14-2.102-.42-.618-.28-1.229-.682-1.835-1.206l-1.318,1.573c.748.679,1.562,1.182,2.441,1.51.879.328,1.799.491,2.761.491.653,0,1.253-.083,1.799-.25.543-.167,1.012-.411,1.398-.733.389-.322.692-.715.912-1.179.217-.465.326-.995.326-1.591,0-.524-.087-.98-.258-1.367-.172-.387-.428-.726-.761-1.019-.332-.292-.754-.539-1.258-.742-.505-.202-1.087-.387-1.74-.554-.597-.143-1.087-.28-1.476-.411-.386-.131-.689-.274-.912-.429-.22-.155-.371-.322-.454-.5-.083-.179-.125-.393-.125-.643Z"/><path id="Fill_8" class="cls-1" d="m44.808,16.213l-5.964,5.956c-.077-.149-.146-.304-.208-.465-.208-.541-.312-1.115-.312-1.722s.104-1.181.312-1.722c.208-.541.497-1.011.867-1.41.369-.398.813-.714,1.331-.946.518-.232,1.087-.348,1.706-.348s1.191.119,1.715.357c.195.088.379.188.553.299Zm-.526,7.882c-.518.232-1.087.348-1.706.348s-1.191-.119-1.715-.357c-.195-.089-.379-.188-.553-.3l5.964-5.956c.077.149.146.304.209.465.208.541.312,1.115.312,1.722s-.104,1.181-.312,1.722c-.209.541-.497,1.011-.867,1.409-.369.398-.813.714-1.331.946Zm.902,1.847c.798-.345,1.489-.812,2.073-1.401.584-.589,1.036-1.276,1.358-2.061.322-.785.483-1.618.483-2.498s-.161-1.713-.483-2.498c-.191-.466-.425-.896-.704-1.29l3.879-3.874-1.541-1.539-3.891,3.886c-.349-.238-.729-.443-1.137-.617-.798-.339-1.68-.509-2.644-.509s-1.846.173-2.645.518c-.798.345-1.489.812-2.073,1.401-.584.589-1.036,1.276-1.358,2.061-.322.785-.482,1.618-.482,2.498s.161,1.713.482,2.498c.191.466.426.896.704,1.291l-3.879,3.873,1.541,1.539,3.891-3.885c.349.238.729.444,1.137.617.798.339,1.679.509,2.644.509s1.846-.173,2.645-.517Z"/></g></g></svg>