<?xml version="1.0" encoding="UTF-8"?>
<svg id="Layer_1" data-name="Layer 1" xmlns="http://www.w3.org/2000/svg" viewBox="0 0 140 40">
  <defs>
    <style>
      .cls-1, .cls-2, .cls-3, .cls-4, .cls-5, .cls-6, .cls-7, .cls-8, .cls-9, .cls-10, .cls-11, .cls-12, .cls-13, .cls-14, .cls-15, .cls-16, .cls-17, .cls-18, .cls-19, .cls-20, .cls-21, .cls-22, .cls-23, .cls-24, .cls-25, .cls-26, .cls-27, .cls-28, .cls-29, .cls-30, .cls-31, .cls-32, .cls-33, .cls-34, .cls-35, .cls-36, .cls-37, .cls-38, .cls-39, .cls-40, .cls-41, .cls-42, .cls-43, .cls-44, .cls-45, .cls-46, .cls-47, .cls-48, .cls-49, .cls-50, .cls-51, .cls-52, .cls-53, .cls-54, .cls-55, .cls-56, .cls-57, .cls-58, .cls-59, .cls-60, .cls-61, .cls-62, .cls-63 {
        stroke-width: 0px;
      }

      .cls-2 {
        fill: #f3ebdb;
      }

      .cls-3 {
        fill: #f3e19d;
      }

      .cls-4 {
        fill: #f8f3e4;
      }

      .cls-5 {
        fill: #7a6a2a;
      }

      .cls-6 {
        fill: #543e26;
      }

      .cls-7 {
        fill: #6e6342;
      }

      .cls-8 {
        fill: #39331f;
      }

      .cls-9 {
        fill: #252211;
      }

      .cls-10 {
        fill: #242110;
      }

      .cls-11 {
        fill: #c4a859;
      }

      .cls-12 {
        fill: #c79c3b;
      }

      .cls-13 {
        fill: #dfc068;
      }

      .cls-14 {
        fill: #d2b257;
      }

      .cls-15 {
        fill: #d2a83e;
      }

      .cls-16 {
        fill: #d2b159;
      }

      .cls-17 {
        fill: #d2ba6b;
      }

      .cls-18 {
        fill: #cba94c;
      }

      .cls-19 {
        fill: #cca847;
      }

      .cls-20 {
        fill: #dfc57c;
      }

      .cls-21 {
        fill: #d8c173;
      }

      .cls-22 {
        fill: #d7d7d5;
      }

      .cls-23 {
        fill: #ac8132;
      }

      .cls-24 {
        fill: #dfddd9;
      }

      .cls-25 {
        fill: #e0cd81;
      }

      .cls-26 {
        fill: #d6d6d5;
      }

      .cls-27 {
        fill: #dcdad7;
      }

      .cls-28 {
        fill: #dcba5a;
      }

      .cls-29 {
        fill: #dfc677;
      }

      .cls-30 {
        fill: #dfcd88;
      }

      .cls-31 {
        fill: #d7c27c;
      }

      .cls-32 {
        fill: #c0993a;
      }

      .cls-33 {
        fill: #a78f33;
      }

      .cls-34 {
        fill: #a78e32;
      }

      .cls-35 {
        fill: #bfa64c;
      }

      .cls-36 {
        fill: #ceb052;
      }

      .cls-37 {
        fill: #cdbd83;
      }

      .cls-38 {
        fill: #b89844;
      }

      .cls-39 {
        fill: #c1a956;
      }

      .cls-40 {
        fill: #927d49;
      }

      .cls-41 {
        fill: #b59544;
      }

      .cls-42 {
        fill: #8c6228;
      }

      .cls-43 {
        fill: #a17c34;
      }

      .cls-44 {
        fill: #c2a44d;
      }

      .cls-45 {
        fill: #938357;
      }

      .cls-46 {
        fill: #b58634;
      }

      .cls-47 {
        fill: #ba9f33;
      }

      .cls-48 {
        fill: #ba9040;
      }

      .cls-49 {
        fill: #988430;
      }

      .cls-50 {
        fill: #927238;
      }

      .cls-51 {
        fill: #ebcc73;
      }

      .cls-52 {
        fill: #eed88b;
      }

      .cls-53 {
        fill: #e5cb7a;
      }

      .cls-54 {
        fill: #e6ded7;
      }

      .cls-55 {
        fill: #e6bd62;
      }

      .cls-56 {
        fill: #e5c66b;
      }

      .cls-57 {
        fill: #ecd592;
      }

      .cls-58 {
        fill: #fcfcf4;
      }

      .cls-59 {
        fill: #f5f2e6;
      }

      .cls-60 {
        fill: #f5edb6;
      }

      .cls-61 {
        fill: #e7e3db;
      }

      .cls-62 {
        fill: #f4ecb4;
      }

      .cls-63 {
        fill: #f4efc8;
      }
    </style>
  </defs>
  <path class="cls-49" d="M25.185,6.711c2.826-.271,5.746.386,8.165,1.867,2.294,1.377,4.15,3.462,5.256,5.892,1.168,2.544,1.481,5.454.928,8.197-.542,2.743-2.002,5.298-4.067,7.185-2.075,1.908-4.766,3.128-7.571,3.431-1.804.167-3.66.031-5.391-.521-2.972-.907-5.59-2.909-7.268-5.517-1.418-2.179-2.169-4.776-2.138-7.362.01-2.962,1.064-5.902,2.92-8.207,2.221-2.805,5.6-4.641,9.166-4.964Z"/>
  <path class="cls-5" d="M26.187,7.066c2.378-.042,4.766.563,6.81,1.773,2.211,1.293,4.025,3.264,5.12,5.569,1.189,2.409,1.533,5.204,1.074,7.852-.605,3.546-2.784,6.768-5.829,8.676-2.106,1.356-4.62,2.054-7.122,1.992-2.44-.021-4.87-.782-6.903-2.127-2.086-1.377-3.775-3.358-4.755-5.652-1.137-2.576-1.377-5.537-.688-8.28.678-2.774,2.325-5.277,4.568-7.039,2.179-1.742,4.943-2.711,7.727-2.763Z"/>
  <path class="cls-47" d="M21.264,8.442c2.232-1.012,4.766-1.335,7.175-.949,2.524.396,4.912,1.585,6.757,3.347,2.252,2.138,3.671,5.12,3.89,8.228.282,3.535-1.012,7.154-3.483,9.698-.031-.74-.042-1.47-.063-2.211-.01-.542-.125-1.085-.177-1.627.01-.188.031-.375.042-.563.031-.511-.24-.991-.177-1.502.063-.73-.313-1.387-.501-2.065-.188-.48-.177-1.001-.355-1.481-.136-1.846-.845-3.712-2.252-4.964.042-.063.136-.198.177-.261.052.125.115.24.177.355.323-.365.375-.876.469-1.335.177-.824.052-1.679-.083-2.492-.104-.417-.198-.907-.542-1.199-.375-.219-1.022-.229-1.241.209-.01.021-.021.073-.031.104-.167.282-.386.532-.678.699-.501.313-.782.897-1.314,1.168-.334.115-.678-.073-1.022-.042-.647.063-1.304.104-1.929.282-.594-.094-1.189-.188-1.773-.302,0-.042.01-.125.01-.167-.271-.261-.511-.563-.615-.928-.177-.688-.605-1.356-1.241-1.689-.094-.031-.177-.073-.271-.104-.052.063-.115.125-.167.188-.021.052-.063.146-.083.188-.146.323-.115.678-.125,1.012-.01.876-.104,1.773-.469,2.586-.594,0-1.189-.01-1.794,0-.115.271-.073.563-.083.845-.959.886-1.345,2.2-1.523,3.452,0,.094,0,.198.01.292,0,.042,0,.115.01.156-.417.553-.501,1.283-.605,1.95.156-.01.313-.021.459-.021-.146.01-.282.031-.428.042-.031.156-.052.302-.063.459.136-.052.282-.104.417-.156h.073c-.167.063-.323.146-.49.229,0,.094.01.292.01.386l.563-.282-.073.073c-.156.104-.365.156-.49.302,0,.355.052.699.104,1.043.125.793.396,1.554.803,2.242-.01.501-.125,1.012-.417,1.429.083.156.219.302.229.49-.052.313-.302.574-.25.907.063.803-.229,1.575-.574,2.284-1.815-1.888-3.014-4.349-3.379-6.945-.344-2.419.021-4.943,1.064-7.154,1.283-2.732,3.566-4.985,6.319-6.205Z"/>
  <path class="cls-12" d="M22.057,8.817c.052-.063.104-.125.167-.188.094.031.177.063.271.104.156.48.386.959.344,1.47-.021.344-.094.72.083,1.032.073.188.261.282.407.386-.094.073-.188.146-.282.209-.407.156-.73.459-1.022.761h-.355c.636-.772.918-1.783.918-2.763,0-.396-.313-.699-.532-1.012Z"/>
  <path class="cls-46" d="M22.495,8.734c.636.334,1.064,1.001,1.241,1.689.094.365.344.667.615.928,0,.042-.01.125-.01.167-.334-.115-.74-.177-1.012.104-.156-.104-.334-.198-.407-.386-.177-.323-.094-.688-.083-1.032.042-.511-.198-.991-.344-1.47Z"/>
  <path class="cls-13" d="M22.057,8.817c.229.302.542.605.532,1.012,0,.991-.282,2.002-.918,2.763h-.177c.282-.428.553-.886.584-1.397.052-.73-.177-1.46-.094-2.19.01-.042.052-.136.073-.188Z"/>
  <path class="cls-33" d="M21.848,10.027c.01-.344-.021-.699.125-1.012-.073.73.146,1.46.094,2.19-.031.521-.302.98-.584,1.397h-.115c.375-.803.469-1.7.48-2.576Z"/>
  <path class="cls-43" d="M31.077,9.62c.219-.438.866-.438,1.241-.209.355.292.438.772.542,1.199.136.824.271,1.669.083,2.492-.094.459-.146.97-.469,1.335-.063-.115-.125-.229-.177-.355-.063-.177-.115-.365-.177-.553.229-.501.334-1.053.396-1.596.052-.49-.271-.886-.594-1.21-.156-.438-.501-.772-.845-1.105Z"/>
  <path class="cls-38" d="M31.046,9.725c.01-.021.021-.073.031-.104.334.334.688.667.855,1.116-.01.136-.042.282-.177.323-.396.198-.834.344-1.126.699-.198.25-.584.396-.615.74l.167.125c-.042.052-.115.156-.156.209l.156.156c.209-.219.532-.24.803-.334-.042.104-.083.209-.125.323.115-.021.229-.052.355-.073-.146.167-.302.313-.48.459-.021-.01-.063-.031-.073-.042-.209-.104-.407-.24-.647-.25-.01-.031-.031-.104-.042-.136-.136-.01-.261-.031-.386-.073.031-.083.104-.261.136-.344-.073.031-.219.104-.292.136.198-.323.386-.647.574-.97.01-.021.042-.073.052-.094.261-.49.657-.897.918-1.387.094-.156.083-.323.073-.48h0Z"/>
  <path class="cls-18" d="M31.046,9.725c.01.156.01.323-.073.469-.261.49-.657.897-.918,1.387,0-.407.052-.834.323-1.158.282-.167.511-.417.667-.699Z"/>
  <path class="cls-23" d="M29.054,11.591c.542-.271.813-.866,1.314-1.168-.271.323-.323.751-.323,1.158-.01.021-.042.073-.052.094.01-.156,0-.313-.031-.469-.25.521-.532,1.043-.918,1.491-.219-.063-.459-.083-.688-.083.125-.24.292-.469.469-.678-.897-.209-1.815-.01-2.722-.094.626-.177,1.283-.209,1.929-.282.344-.042.688.136,1.022.031h0Z"/>
  <path class="cls-50" d="M31.932,10.736c.323.323.647.72.594,1.21-.063.542-.177,1.095-.396,1.596-.167.136-.334.261-.511.396-.083-.063-.167-.115-.24-.177l-.042-.031c.261-.563.678-1.085.709-1.731-.501.021-.991.104-1.47.25-.198.052-.292.229-.396.386l-.167-.125c.031-.355.417-.49.615-.74.292-.355.73-.501,1.126-.699.136-.052.167-.198.177-.334h0Z"/>
  <path class="cls-42" d="M29.972,11.205c.021.156.042.313.031.469-.188.323-.386.647-.574.97.073-.031.219-.104.292-.136-.031.083-.104.261-.136.344-.177-.063-.344-.115-.521-.167.375-.448.657-.959.907-1.481Z"/>
  <path class="cls-15" d="M23.319,11.633c.271-.282.678-.219,1.012-.104.584.115,1.189.209,1.773.302.907.083,1.825-.115,2.722.094-.177.209-.334.438-.469.678-1.46,0-2.93.01-4.39,0-.063-.209-.073-.469-.261-.605-.198-.136-.448-.136-.678-.156.115-.063.198-.136.292-.209Z"/>
  <path class="cls-28" d="M22.015,12.603c.302-.302.626-.605,1.022-.761.229.021.48.021.678.156.188.136.198.396.261.605h-1.961Z"/>
  <path class="cls-6" d="M30.577,12.248c.469-.156.97-.229,1.47-.25-.031.636-.448,1.168-.709,1.731-.198-.136-.396-.261-.605-.375.167-.136.334-.292.48-.459-.115.021-.229.052-.355.073.042-.104.083-.209.125-.323-.271.094-.594.115-.803.334l-.156-.156c.042-.052.115-.156.156-.209.104-.136.198-.313.396-.365h0Z"/>
  <path class="cls-2" d="M19.585,12.613c.594-.01,1.189,0,1.794,0h2.607c1.46.01,2.93,0,4.39,0,.229,0,.459.021.688.083.177.042.344.104.521.167.125.042.25.063.386.073.01.031.031.104.042.136.24.01.438.146.647.25-.136.344-.407.605-.667.866.219.125.448.25.647.407.261-.271.501-.553.74-.834.083.063.167.115.24.177.177.125.344.271.501.417,1.397,1.251,2.117,3.118,2.252,4.964.021.24.021.48.031.73-.01.959-.094,1.929-.344,2.857-.177.647-.417,1.272-.761,1.846-.24.365-.49.72-.803,1.032-.198.209-.407.407-.636.584l-.313-.156c-.177.094-.344.25-.553.261-.282.021-.553.146-.834.198.271-.407.834-.72.74-1.283-.156.01-.302.01-.459.021.052-.198.104-.396.146-.594-.052-.031-.156-.104-.198-.136.177-.188.344-.386.511-.584-.344.083-.657.25-.991.386.626-.918,1.189-1.888,1.648-2.899.261-.626.615-1.251.626-1.95.021-.448-.261-.834-.271-1.272-.042-.511-.042-1.095-.459-1.46-.73.146-1.47.01-2.2-.073-.198-.031-.396.01-.584.042-.031-.042-.073-.083-.104-.115-.229-.229-.469-.469-.772-.574-.282-.042-.574-.01-.866-.01l-.042-.01c-.313-.136-.647-.313-1.001-.25-.302.031-.48.302-.709.448-.24.156-.49.313-.678.542.24.417.688.647,1.137.761-.01.271-.042.542-.063.813-.282.094-.542.229-.782.407-.125-.282-.188-.574-.313-.855-.136-.177-.313-.302-.48-.448-.042.115-.073.24-.115.355-.083.042-.167.083-.25.136-.01-.209-.021-.417-.052-.615-.083-.365-.344-.657-.49-1.012.021-.355.136-.699.136-1.053-.177.073-.355.136-.532.219-.24.094-.355.344-.553.48-.198.083-.417.125-.626.177l.031-.073c.188-.167.24-.407.282-.636-.115.052-.229.115-.355.167-.146-.209.073-.344.209-.48-.188-.177-.448-.313-.709-.219-.438.156-.636.636-.678,1.074-.177,0-.355.01-.542.01.073-.125.136-.261.209-.386-.083-.198-.292-.271-.48-.334.01-.49,0-.98,0-1.47,0-.146.01-.282.01-.428.021-.313-.021-.615.094-.876h0Z"/>
  <path class="cls-27" d="M30.65,13.312c.021.01.063.031.073.042.209.115.407.229.605.375l.042.031c-.24.282-.48.574-.74.834-.209-.156-.428-.282-.647-.407.261-.271.532-.521.667-.876h0Z"/>
  <path class="cls-34" d="M17.98,16.91c.177-1.251.563-2.565,1.523-3.452,0,.146,0,.282-.01.428-.636.667-1.001,1.554-1.178,2.451-.063.302-.209.584-.334.866.01-.094,0-.188,0-.292Z"/>
  <path class="cls-41" d="M31.62,13.927c.167-.136.344-.261.511-.396.063.188.115.365.177.553-.042.063-.136.198-.177.261-.167-.146-.334-.282-.511-.417Z"/>
  <path class="cls-51" d="M18.324,16.336c.177-.897.542-1.783,1.178-2.451,0,.49.01.98,0,1.47-.302.261-.438.678-.824.834-.052.271-.156.521-.313.74-.115.146-.24.282-.355.428,0-.042,0-.115-.01-.156.125-.282.261-.563.323-.866Z"/>
  <path class="cls-22" d="M20.983,15.001c.261-.094.521.042.709.219-.125.136-.355.271-.209.48.115-.063.229-.115.355-.167-.042.229-.104.469-.282.636-.24-.031-.48-.042-.72-.01.01-.146.021-.292.063-.428.115-.115.271-.167.407-.24-.083-.083-.156-.198-.261-.25-.261.073-.521.271-.563.553.01.125.031.261.042.386-.042,0-.125-.01-.177-.01h-.052l.01-.094c.042-.438.24-.918.678-1.074Z"/>
  <path class="cls-54" d="M31.849,15.179c.219-.073.448-.146.667-.209.167.334.115.709-.063,1.032h.25c.01.282.01.688-.323.772-.188-.407-.626-.647-.74-1.095.021-.188.125-.344.209-.501h0Z"/>
  <path class="cls-59" d="M20.472,15.783c.042-.282.302-.48.563-.553.115.052.177.167.261.25-.136.073-.292.125-.407.24-.031.136-.042.282-.063.428-.073.01-.229.021-.313.021-.021-.136-.042-.261-.042-.386Z"/>
  <path class="cls-4" d="M22.704,15.575c.177-.083.355-.146.532-.219-.01.355-.115.699-.136,1.053.136.344.407.636.49,1.012.042.209.042.407.052.615.083-.042.167-.094.25-.136.042-.115.073-.24.115-.355.167.146.344.271.48.448.125.282.188.584.313.855.24-.167.501-.313.782-.407l.063-.813v-.115c-.156-.136-.417-.219-.438-.459-.021-.302.177-.574.386-.772.063.01.125.031.188.042.115-.01.177-.083.167-.209.156-.01.313,0,.469.01-.156.219-.365.428-.647.469,0,.146,0,.292.01.448-.01.146-.021.302-.031.448v1.158c0,1.762-.01,3.514,0,5.266.01.031.021.104.031.136.793-.052,1.689.198,2.378-.323.959-.688,1.356-1.898,1.46-3.035.115-1.335-.125-2.774-.959-3.858.188-.031.386-.063.584-.042.73.083,1.47.229,2.2.073.428.365.417.949.459,1.46.01.438.302.824.271,1.272-.01.699-.365,1.324-.626,1.95-.459,1.012-1.022,1.981-1.648,2.899.334-.125.647-.302.991-.386-.167.198-.334.396-.511.584.052.031.146.104.198.136-.052.198-.094.396-.146.594.156-.01.302-.01.459-.021.094.563-.469.876-.74,1.283.282-.052.553-.177.834-.198.209,0,.375-.156.553-.261l.313.156c-1.105.834-2.492,1.293-3.879,1.262-1.21,0-2.409.01-3.619,0h-3.045c-.511,0-1.022.021-1.533,0-.177.01-.25-.188-.25-.334-.021-.407,0-.813-.01-1.22,0-.459.01-.928,0-1.387,0-.198.031-.407.073-.594.647-.063,1.293.021,1.94-.031v-1.168c.042.146.083.292.136.438.302-.052.647-.136.876.136.542-.48,1.335-.459,1.971-.72.136-.365.469-.657.428-1.074-.021-.01-.083-.021-.104-.021-.678-.209-1.304.219-1.961.271-.438-.042-.855-.25-1.137-.594.021-.094.052-.198.073-.292-.063-.052-.125-.104-.198-.156-.01-.198-.01-.386,0-.584.063-.229.209-.407.428-.511.063-.344.125-.688.188-1.043-.177-.229-.428-.386-.688-.49v-1.929c0-.021.01-.073.01-.094.209-.052.428-.083.626-.177.177-.104.292-.355.532-.448h0Z"/>
  <path class="cls-63" d="M18.678,16.19c.386-.156.521-.574.824-.834,0,.229.01.459.01.688.063.01.188.021.25.031.177,0,.355,0,.542-.01l-.01.094c-.25,0-.49-.01-.74-.01-.031.136-.052.282-.063.417-.48.188-.772.626-1.158.928,0-.188.01-.386.021-.574.167-.219.271-.469.323-.73Z"/>
  <path class="cls-58" d="M19.502,15.356c.188.063.386.136.48.334-.073.125-.136.261-.209.386-.063-.01-.188-.021-.25-.031-.01-.229-.021-.459-.021-.688Z"/>
  <path class="cls-22" d="M25.165,16.326c.24-.146.417-.417.709-.448.355-.063.688.115,1.001.25-.156,0-.313,0-.469-.01s-.313-.021-.469-.01c-.125.01-.188.073-.167.209-.063-.01-.125-.021-.188-.042-.219.198-.407.459-.386.772.021.24.271.323.438.459v.115c-.459-.115-.897-.344-1.137-.761.177-.219.428-.375.667-.532Z"/>
  <path class="cls-56" d="M19.554,16.148c.25,0,.49.01.74.01h.052c.094.198.229.365.428.48.063.042.115.094.177.146-.188.292-.469.532-.615.855-.136.052-.271.115-.407.167-.031-.021-.083-.052-.115-.073.031-.052.083-.146.115-.188-.104-.021-.209-.052-.313-.073-.052-.292-.094-.594-.115-.897,0-.146.021-.292.052-.428Z"/>
  <path class="cls-10" d="M20.347,16.159c.042,0,.125,0,.177.01-.021.365.396.323.647.292-.115-.104-.219-.209-.334-.313.24-.021.48-.021.72.01l-.031.073c0,.021-.01.063-.01.094-.271.052-.459.344-.751.313-.188-.104-.323-.282-.417-.48Z"/>
  <path class="cls-45" d="M20.514,16.169c.073-.01.229-.021.313-.021.115.104.229.209.334.313-.24.031-.667.073-.647-.292Z"/>
  <path class="cls-37" d="M25.769,16.326c-.01-.136.042-.198.167-.209.01.125-.052.198-.167.209Z"/>
  <path class="cls-9" d="M26.416,16.117c.156.01.313,0,.469.01l.042.01c.209.136.407.271.574.448-.188.417-.532.761-.959.939-.25.073-.521.052-.793.063v-.104c.198,0,.396-.01.594-.021-.219-.094-.428-.219-.563-.428-.01-.146-.01-.292-.01-.448.282-.042.49-.24.647-.469Z"/>
  <path class="cls-14" d="M26.917,16.138c.282,0,.574-.042.866.01.313.104.553.344.772.574-.292.302-.48.678-.73,1.012-.25.344-.688.396-1.043.594-.323.177-.667.292-1.032.323v-1.053c.261-.01.532.01.793-.063.428-.177.761-.521.959-.939-.177-.188-.375-.323-.584-.459h0Z"/>
  <path class="cls-55" d="M20.764,16.639c.292.031.469-.261.751-.313,0,.396.01.803,0,1.199-.219.052-.448.167-.678.083-.167-.063-.344-.052-.511.031.136-.334.417-.563.615-.855-.052-.052-.115-.104-.177-.146Z"/>
  <path class="cls-62" d="M18.334,17.494c.396-.302.678-.751,1.158-.928.01.302.052.594.115.897.104.021.209.052.313.073-.031.052-.083.146-.115.188-.313.229-.709.407-.866.793-.177.469-.156.98-.219,1.47-.115-.115-.282-.209-.271-.386-.021-.365.073-.73.094-1.095-.167.25-.271.532-.375.813-.042.177-.25.219-.386.302-.136.052-.282.104-.417.156.021-.156.042-.302.063-.459.146-.01.282-.031.428-.042-.156.01-.313.01-.459.021.104-.667.188-1.397.605-1.95.125-.146.25-.282.355-.428-.01.198-.01.386-.021.574Z"/>
  <path class="cls-30" d="M28.554,16.722c.031.042.073.073.104.115.834,1.085,1.074,2.524.959,3.858-.146.073-.292.156-.428.24-.229.156-.355.428-.594.584-.407.198-.918.156-1.283.448-.209.229-.344.521-.584.73.125.136.271.25.386.396.063.104.042.25.104.355.115.094.25.167.375.24-.334.052-.657.042-.991-.01-.302-.063-.584.115-.855.219-.01-1.762,0-3.514,0-5.266.365-.031.709-.146,1.032-.323.344-.188.793-.25,1.043-.594.25-.313.438-.688.73-.991h0ZM25.78,17.035c.136.209.344.323.563.428-.198.01-.396.021-.594.021.01-.146.021-.292.031-.448Z"/>
  <path class="cls-20" d="M20.336,17.64c.167-.073.344-.094.511-.031.229.083.459-.031.678-.083v.699c-.438-.156-.886-.271-1.356-.25-.083-.052-.156-.115-.24-.167.136-.052.271-.115.407-.167Z"/>
  <path class="cls-3" d="M18.939,18.516c.156-.386.553-.563.866-.793.031.021.083.052.115.073.083.052.156.115.24.167-.417.01-.824.282-.876.72-.073.553-.261,1.095-.313,1.648-.052.407.313.667.428,1.012.031.188.052.386.094.574-.052.24-.104.49-.146.74-.083,0-.167,0-.24.01-.083.198-.188.396-.25.605.073.396.209.793.302,1.189-.021.042-.052.136-.073.177-.198-.219-.313-.521-.574-.667-.063-.115-.136-.219-.209-.334-.407-.688-.678-1.46-.803-2.242.042-.229.083-.469.125-.699.167.334.146.74.375,1.043.156-.042.302-.073.459-.104l.073.094c.156-.229.313-.48.344-.772-.104.146-.198.292-.292.448-.125-.198-.282-.396-.355-.626-.042-.261-.031-.532-.052-.793l-.282.063.073-.073c.083-.094.167-.188.25-.292-.115-.01-.229-.031-.344-.042h-.073c.136-.083.344-.125.386-.302.104-.282.209-.563.375-.813-.021.365-.115.73-.094,1.095-.01.177.156.271.271.386.042-.501.031-1.012.198-1.491Z"/>
  <path class="cls-9" d="M19.283,18.693c.052-.438.459-.709.876-.72.469-.021.918.094,1.356.25v1.324c-.136.136-.271.271-.396.417-.219.188-.511.261-.782.334-.01.063-.042.177-.052.24s-.042.198-.063.261c-.396-.365-.626-.855-.876-1.304-.146-.25-.094-.542-.063-.803Z"/>
  <path class="cls-24" d="M21.515,18.245c.271.104.511.261.688.49-.063.344-.115.688-.188,1.043-.209.104-.365.282-.428.511.01-.271-.031-.553-.083-.813.01-.417.021-.824.01-1.231h0Z"/>
  <path class="cls-26" d="M15.31,18.359c.292-.042.584-.01.876-.021l-.125.167c.448-.031.918,0,1.356.125-.396-.083-.803-.146-1.22-.115-.156.021-.282-.052-.407-.125-.156-.01-.386.146-.48-.031Z"/>
  <path class="cls-7" d="M18.97,20.341c.052-.563.24-1.095.313-1.648-.031.261-.083.553.063.803.261.459.49.949.876,1.304.01-.063.042-.198.063-.261.146.01.282.01.428.021.198.167.417.313.594.501.188-.355-.073-.709-.042-1.074-.031-.01-.104-.021-.146-.031.136-.136.261-.282.396-.417v1.867c-.699-.219-1.45-.469-2.19-.24.688.313,1.46.334,2.19.532v.615c-.334.146-.636.355-.97.532-.344-.229-.584-.563-.928-.793l-.125-.125c-.052-.188-.063-.386-.094-.574-.115-.344-.48-.615-.428-1.012h0Z"/>
  <path class="cls-35" d="M16.175,19.704c.355-.198.751-.282,1.137-.355-.042.083-.115.136-.209.156-.302.083-.605.198-.928.198Z"/>
  <path class="cls-49" d="M34.362,19.308c.177.48.167,1.001.355,1.481.188.678.563,1.335.501,2.065-.094-.156-.177-.313-.177-.501,0-.396-.209-.73-.302-1.105-.115-.407-.229-.813-.355-1.22,0-.229,0-.48-.021-.72h0Z"/>
  <path class="cls-61" d="M21.515,19.465c.052.271.094.542.083.813-.01.198-.01.386,0,.584.063.052.125.104.198.156-.021.094-.052.188-.073.292-.031.146-.042.292-.042.438.991.355,2.242.594,3.139-.115.021.01.083.021.104.021.042.417-.282.709-.428,1.074-.647.261-1.439.24-1.971.72-.229-.271-.574-.188-.876-.136-.052-.146-.094-.292-.136-.438-.01-.188-.01-.375-.01-.563v-2.774l.01-.073Z"/>
  <path class="cls-60" d="M17.854,19.631c.115.01.229.021.344.042-.083.094-.167.198-.25.292l-.563.282c0-.094-.01-.292-.01-.386.156-.083.323-.167.48-.229h0Z"/>
  <path class="cls-62" d="M17.886,20.038l.282-.063c.021.261.01.532.052.793.073.229.229.417.355.626-.042.073-.083.156-.125.24-.156.031-.313.063-.459.104-.229-.302-.209-.709-.375-1.043-.042.229-.083.459-.125.699-.052-.344-.094-.699-.104-1.043.136-.156.334-.209.501-.313Z"/>
  <path class="cls-8" d="M20.336,20.299c.282-.073.563-.146.782-.334.031.01.104.021.146.031-.031.365.229.72.042,1.074-.177-.198-.386-.344-.594-.501-.146-.01-.292-.021-.428-.021.01-.073.042-.198.052-.25h0Z"/>
  <path class="cls-19" d="M34.394,20.038c.125.407.24.813.355,1.22.094.365.302.709.302,1.105-.01.188.083.344.177.501-.073.511.198.991.177,1.502-.01.188-.031.375-.042.563-.073-.115-.146-.229-.24-.334-.104.302-.031.688-.282.928-.115-.156-.167-.417-.386-.438-.323-.052-.626.104-.845.334-.282.302-.73.323-1.116.355.302-.313.563-.667.803-1.032.209.063.355-.125.511-.229.156-.136.365-.177.532-.282.146-.229.261-.49.323-.761-.052-.177-.136-.344-.177-.521-.094.021-.177.042-.271.063-.042-.031-.125-.094-.156-.125.24-.918.334-1.888.334-2.847h0Z"/>
  <path class="cls-39" d="M16.978,20.434c.136-.063.136.115.031.146-.094.052-.209.146-.323.104-.01-.146.188-.198.292-.25Z"/>
  <path class="cls-57" d="M29.2,20.935c.136-.094.282-.167.428-.24-.104,1.137-.49,2.346-1.46,3.035-.688.511-1.585.271-2.378.323-.01-.031-.031-.104-.031-.136.271-.104.553-.282.855-.219.334.042.667.052.991.01-.125-.083-.261-.146-.375-.24-.063-.115-.042-.25-.104-.355-.115-.136-.261-.261-.386-.396.24-.209.386-.49.584-.73.365-.302.876-.25,1.283-.448.24-.177.365-.438.594-.605Z"/>
  <path class="cls-31" d="M18.574,21.394c.083-.156.188-.302.292-.448-.031.292-.177.542-.344.772l-.073-.094c.042-.073.083-.146.125-.229Z"/>
  <path class="cls-10" d="M19.335,21.175c.73-.24,1.481.021,2.19.24v.292c-.73-.198-1.502-.219-2.19-.532Z"/>
  <path class="cls-26" d="M21.682,21.759c0-.146,0-.292.042-.438.282.334.699.553,1.137.594.657-.052,1.283-.49,1.961-.271-.897.709-2.148.459-3.139.115Z"/>
  <path class="cls-52" d="M19.492,21.926l.125.125c.031.448.302.813.511,1.199.167.313.459.542.751.74.209.063.428.052.636.063-.647.042-1.293-.042-1.94.031-.052.198-.083.396-.073.594-.115-.073-.229-.146-.344-.209-.094-.396-.219-.793-.302-1.189.063-.209.167-.407.25-.605.083,0,.167-.01.24-.01.042-.25.094-.49.146-.74Z"/>
  <path class="cls-29" d="M19.627,22.051c.334.229.584.563.928.793.094.083.188.177.271.261.198.156.459.209.699.282v.657c-.209-.021-.428-.01-.636-.063-.292-.198-.574-.428-.751-.74-.209-.375-.48-.751-.511-1.189Z"/>
  <path class="cls-40" d="M20.545,22.843c.323-.167.626-.375.97-.532,0,.188,0,.375.01.563-.24.042-.521.021-.699.229-.094-.083-.177-.177-.282-.261h0Z"/>
  <path class="cls-11" d="M20.826,23.104c.167-.209.459-.188.699-.229v.511c-.25-.063-.501-.115-.699-.282Z"/>
  <path class="cls-32" d="M34.049,22.896c.042.031.125.094.156.125.094-.021.177-.042.271-.063.042.177.125.344.177.521-.063.271-.167.532-.323.761-.177.104-.375.146-.532.282-.156.104-.302.292-.511.229.344-.584.584-1.21.761-1.856h0Z"/>
  <path class="cls-53" d="M18.292,23.636c.063.115.136.219.209.334.188.751.459,1.533,1.001,2.096.01.407-.01.813.01,1.22,0,.146.073.344.25.334.511.021,1.022,0,1.533,0-.198.261-.052.574-.052.866.01.344.188.647.24.991-.146.365-.386.678-.574,1.022-.188.031-.386-.052-.574.01-.104.146-.167.365-.375.407-.98-.605-1.898-1.314-2.69-2.159.355-.709.647-1.481.574-2.284-.052-.334.198-.594.25-.907-.01-.188-.146-.334-.229-.49.313-.428.417-.939.428-1.439h0Z"/>
  <path class="cls-16" d="M18.501,23.97c.261.146.375.448.574.667.021-.042.052-.136.073-.177.115.073.229.146.344.209.01.459.01.928,0,1.387-.532-.553-.793-1.335-.991-2.086Z"/>
  <path class="cls-48" d="M35.123,24.595c.083.104.167.209.24.334.042.542.167,1.074.177,1.627.01.74.021,1.47.063,2.211-.824.866-1.773,1.616-2.805,2.211-.396-.282-.845-.063-1.21.156.063-.136.167-.24.282-.334.219-.188.302-.48.532-.657.24-.209.553-.334.74-.605.188-.407.605-.626.845-.991.229-.334.615-.636.574-1.085-.021-.386.063-.761.104-1.137.01-.271.052-.553.167-.803.261-.24.198-.615.292-.928h0Z"/>
  <path class="cls-21" d="M33.611,25.43c.219-.229.521-.386.845-.334.219.021.282.282.386.438-.115.25-.156.532-.167.803-.042.375-.125.751-.104,1.137.031.448-.344.751-.574,1.085-.25.365-.657.584-.845.991h-.396c.334-.511.542-1.085.803-1.627.063-.094.031-.188,0-.282-.063-.156.021-.323.01-.48-.031-.167-.094-.323-.156-.48-.282-.052-.563-.125-.855-.104-.355.063-.605.365-.928.511-.156.063-.334.083-.469.177-.282.24-.355.667-.688.876-.323.219-.605.49-.918.74-.177.167-.438.042-.657.083-.188.094-.323.271-.501.386-.229.083-.511.042-.699.219-.313.271-.782.198-1.116.438-.375.188-.553.615-.907.834-.271.167-.49.396-.699.626-.063-.073-.115-.146-.177-.219-.302.177-.542.459-.897.532-.125-.146-.25-.334-.469-.344.031-.073.073-.146.104-.219-.073-.094-.156-.188-.292-.177-.334-.042-.667.031-.991.01-.229-.115-.417-.302-.553-.521.25-.302.375-.688.584-1.012.125-.177.334-.031.49,0,.063-.156.136-.302.198-.448.094.01.177.021.271.031.219-.198.344-.459.428-.73.146-.042.292-.083.428-.125,0-.24.104-.448.282-.605,1.21.01,2.409,0,3.619,0,1.387.031,2.774-.417,3.879-1.262.229-.177.438-.375.636-.584.365-.052.803-.063,1.095-.365h0Z"/>
  <path class="cls-25" d="M31.62,27.077c.323-.146.574-.438.928-.511.292-.021.574.052.855.104.052.156.125.313.156.48.01.156-.073.323-.01.48.031.094.063.188,0,.282-.261.542-.469,1.116-.803,1.627h.396c-.188.271-.501.386-.74.605-.229.177-.313.469-.532.657-.115.094-.209.198-.282.334-.469.313-1.032.459-1.533.709,0-.094-.01-.188-.01-.282-.365.083-.73.156-1.085.25-.302.083-.49.365-.761.511-.219.083-.469.094-.626.282-1.658.136-3.347-.031-4.933-.521.177-.052.355-.115.532-.188.021-.198.136-.355.271-.49.219.01.344.188.469.344.355-.073.594-.355.897-.532.063.073.115.146.177.219.219-.229.428-.469.699-.626.365-.209.532-.636.907-.834.334-.24.803-.167,1.116-.438.198-.177.469-.136.699-.219.177-.115.313-.292.501-.386.219-.031.48.083.657-.083.302-.25.594-.511.918-.74.334-.198.396-.626.688-.876.125-.073.292-.083.448-.156h0Z"/>
  <path class="cls-44" d="M21.306,27.619h.334c.261.302.594.647,1.022.647.334-.031.167-.438.125-.647h1.564c-.177.156-.282.365-.282.605-.146.042-.292.083-.428.125-.083.271-.209.542-.428.73-.094-.01-.177-.021-.271-.031-.063.146-.136.302-.198.448-.156-.042-.365-.177-.49,0-.209.323-.334.709-.584,1.012-.042-.094-.094-.188-.136-.282-.209.094-.417.177-.636.261.188-.344.428-.657.574-1.022-.052-.334-.229-.636-.24-.991.021-.282-.125-.594.073-.855Z"/>
  <path class="cls-16" d="M21.64,27.619h1.147c.042.209.209.615-.125.647-.428,0-.761-.344-1.022-.647Z"/>
  <path class="cls-36" d="M20.92,30.498c.209-.083.428-.167.636-.261.042.094.083.188.136.282.136.219.323.396.553.521.334.021.667-.042.991-.01.136-.021.219.073.292.177-.031.073-.063.146-.104.219-.136.136-.24.292-.271.49l-.532.188c-.918-.302-1.815-.709-2.649-1.189.209-.042.271-.25.375-.407.177-.063.386.01.574-.01Z"/>
  <path class="cls-17" d="M31.578,31.134c.355-.229.813-.438,1.21-.156-1.585.928-3.389,1.512-5.225,1.637.156-.188.407-.209.626-.282.271-.146.459-.428.761-.511.355-.104.72-.177,1.085-.25,0,.094.01.188.01.282.501-.271,1.064-.407,1.533-.72h0Z"/>
  <g id="pbTPyd">
    <g>
      <path class="cls-1" d="M124.991,21.748v-7.041h1.911v10.691c-.55,0-1.123.057-1.676-.026-.243-.036-.484-.325-.657-.552-1.534-2.017-3.053-4.047-4.577-6.071-.109-.145-.232-.28-.461-.554v7.144h-1.965v-10.672c.552,0,1.079-.055,1.584.024.249.039.51.287.678.508,1.589,2.08,3.159,4.174,4.735,6.264.08.106.164.209.247.314.06-.009.121-.018.181-.027Z"/>
      <path class="cls-1" d="M44.877,25.349v-10.628c.236-.022.449-.063.66-.06,1.598.03,3.208-.049,4.789.132,2.116.243,3.661,1.435,4.277,3.507.62,2.086.297,4.045-1.355,5.633-.846.814-1.88,1.326-3.022,1.39-1.753.097-3.515.026-5.349.026ZM46.935,16.448v7.12c.879,0,1.701.008,2.523-.002,1.787-.021,3.124-1.292,3.316-3.141.19-1.826-.95-3.527-2.674-3.806-1.018-.164-2.069-.12-3.166-.172Z"/>
      <path class="cls-1" d="M66.924,20.043c-.088,2.293-1.121,4.004-3.245,4.926-2.159.938-4.26.726-6.149-.719-2.933-2.244-2.702-6.742.418-8.711,2.749-1.734,6.505-.962,8.172,1.68.547.867.793,1.741.804,2.824ZM64.782,20c.088-1.753-1.402-3.514-3.585-3.53-2.02-.015-3.609,1.623-3.588,3.637.02,1.939,1.652,3.54,3.613,3.543,2.02.003,3.579-1.595,3.561-3.65Z"/>
      <path class="cls-1" d="M105.332,14.576c2.534.06,4.747,1.622,5.421,3.865.939,3.127-.986,6.325-4.211,6.924-2.451.455-4.564-.199-6.045-2.266-2.232-3.114-.494-7.44,3.287-8.3.506-.115,1.031-.15,1.547-.223ZM105.25,23.641c1.899.08,3.579-1.546,3.635-3.518.055-1.936-1.531-3.634-3.502-3.647-2.29-.015-3.675,1.724-3.726,3.428-.061,2.037,1.483,3.647,3.593,3.736Z"/>
      <path class="cls-1" d="M79.849,25.347v-10.638h7.777v1.755h-5.671v2.599h5.068v1.83h-5.063v2.683h5.878v1.772h-7.989Z"/>
      <path class="cls-1" d="M75.652,22.942v-2.811h1.716c.024.158.074.338.075.518.006.992-.011,1.985.006,2.977.006.344-.106.579-.401.745-1.713.961-3.502,1.45-5.465.906-2.487-.69-4.049-2.68-4.06-5.178-.011-2.507,1.525-4.505,4.003-5.222,1.923-.556,3.701-.19,5.38.825.141.085.268.194.393.302.06.052.1.127.167.217-.355.454-.711.907-1.002,1.278-.894-.345-1.704-.775-2.567-.968-1.8-.402-3.75.853-4.166,2.566-.463,1.911.512,3.739,2.352,4.344,1.223.402,2.385.174,3.567-.499Z"/>
      <path class="cls-1" d="M97.747,22.357c.396.438.762.843,1.124,1.244-1.997,2.287-5.724,2.6-8.097.396-2.247-2.087-2.277-5.708-.048-7.814,2.636-2.49,6.549-1.707,8.123.218-.361.455-.729.919-1.095,1.38-2.363-1.689-4.208-1.725-5.653-.15-1.189,1.295-1.213,3.346-.055,4.681,1.398,1.612,3.308,1.645,5.702.045Z"/>
      <path class="cls-1" d="M114.821,25.366h-1.96v-10.663h1.96v10.663Z"/>
    </g>
  </g>
</svg>