<?xml version="1.0" encoding="UTF-8"?><svg id="Layer_1" xmlns="http://www.w3.org/2000/svg" viewBox="0 0 140 40"><defs><style>.cls-1{fill:#0090ff;}.cls-2{fill:#fefefe;}.cls-3{fill:#333;fill-rule:evenodd;}</style></defs><path class="cls-1" d="m53.606,22.069c-1.121,7.672-8.276,13.017-15.948,11.896-7.672-1.121-13.017-8.362-11.896-16.034,1.121-7.672,8.276-13.017,15.948-11.896,7.672,1.207,13.017,8.362,11.896,16.034"/><path class="cls-2" d="m46.02,11.552c-2.845-1.81-4.914,2.155-4.914,2.241-.517.948-.948,2.5-1.207,3.621l-3.707-.517-.172,1.034,3.621.517c-.086.517-.172.862-.172.862l-.172,1.121h0v.086l-3.621-.517-.172,1.034,3.621.517c-.948,4.741-1.638,6.207-2.328,6.983-.172.172-1.121.862-1.638-.345-.345-.862-1.034-.69-1.034-.69-.172,0-1.034.517.345,1.466,2.845,1.81,4.914-2.155,4.914-2.241.517-.948,1.207-3.621,1.466-4.828l3.707.517.172-1.034-3.707-.517c.086-.517.172-.862.172-.862l.172-1.121h0v-.086l3.621.517.172-1.034-3.621-.517c.948-4.741,1.379-5,2.069-5.862.172-.172,1.121-.862,1.638.345.345.862,1.034.69,1.034.69.259.086,1.121-.517-.259-1.379"/><path class="cls-3" d="m66.106,19.224h-5.172v-4.224h5.345l.086-1.293h-6.896v12.5h1.466v-5.776h5.172v-1.207Zm3.362-5.517h-1.379v1.638h1.379v-1.638Zm0,3.276h-1.379v9.224h1.379v-9.224Zm3.793-3.362l-1.379.172v8.534c0,3.017.086,4.138,2.328,4.138.345,0,.603-.086.948-.086l-.086-1.207c-.431,0-.517.086-.776.086-.948,0-1.034-.603-1.034-2.586v-9.052h0Zm6.896,12.759c-2.586,0-4.224-1.897-4.224-4.828,0-2.759,1.638-4.741,4.052-4.828,2.241,0,3.707,1.724,3.707,4.397v.603h-6.293c0,2.069,1.207,3.362,2.845,3.362,1.034,0,2.069-.345,2.931-.948l.431,1.034c-.862.776-1.983,1.207-3.448,1.207h0Zm-2.759-5.517h4.914c0-1.983-.948-2.931-2.328-2.931s-2.414,1.207-2.586,2.931Zm14.483,4.741c-.603.603-1.552.862-2.5.862-2.845,0-4.397-2.241-4.397-4.828s1.638-4.828,4.397-4.828c1.034,0,1.983.345,2.5.776l-.345,1.034c-.603-.431-1.379-.603-2.155-.603-1.638,0-2.931,1.552-2.931,3.707s1.207,3.621,3.103,3.621c.776,0,1.466-.259,2.069-.69l.259.948h0Zm8.19-3.965c0-1.983-.69-3.707-2.759-3.707-1.983,0-2.845,1.81-2.845,3.707s.948,3.621,2.931,3.621,2.672-1.724,2.672-3.621Zm1.466,0c0,2.5-1.466,4.828-4.224,4.828s-4.31-2.155-4.31-4.741,1.552-4.828,4.397-4.828c2.672-.086,4.138,2.069,4.138,4.741Zm3.362-7.931h-1.379v1.638h1.379v-1.638Zm0,3.276h-1.379v9.224h1.379v-9.224Zm6.638-.172c-1.293,0-2.586.603-3.276,1.552l-.086-1.379h-1.207v9.224h1.379v-6.293c.259-.862,1.293-1.897,2.845-1.897,1.724,0,1.81,1.207,1.81,3.621v4.569h1.379v-5.517c.086-2.586-.776-3.879-2.845-3.879Z"/></svg>