<?xml version="1.0" encoding="UTF-8"?><svg id="Layer_1" xmlns="http://www.w3.org/2000/svg" viewBox="0 0 140 40"><defs><style>.cls-1{fill:#e62058;}</style></defs><g id="Group_1303"><path id="Path_2898" class="cls-1" d="m49.542,16.676h-13.222c-3.631-.015-6.604,2.871-6.699,6.502,0,.095.073.175.175.175h13.222c3.631.015,6.604-2.878,6.699-6.509,0-.095-.08-.175-.175-.175h0v.007Z"/><path id="Path_2899" class="cls-1" d="m56.241,6.639h-19.921c-3.631-.015-6.604,2.878-6.692,6.509,0,.095.073.175.168.175h19.929c3.631.015,6.604-2.878,6.699-6.509,0-.095-.08-.175-.175-.175h-.007Z"/><circle id="Ellipse_9" class="cls-1" cx="32.974" cy="30.008" r="3.353"/><rect id="Rectangle_1591" class="cls-1" x="70.683" y="10.715" width="3.251" height="18.146"/><path id="Path_2900" class="cls-1" d="m110.38,22.696c0-3.375-2.374-6.202-5.727-6.202-3.601,0-5.903,2.951-5.903,6.326-.131,3.346,2.469,6.166,5.815,6.304h.533c1.892.022,3.704-.767,4.975-2.177l-1.848-1.848c-.782.862-1.885,1.366-3.046,1.403-1.68.058-3.112-1.205-3.273-2.878h8.401c.051-.307.073-.614.073-.928Zm-8.328-1.446c.241-1.242,1.337-2.133,2.601-2.126,1.22,0,2.25.913,2.403,2.126h-5.004Z"/><path id="Path_2901" class="cls-1" d="m85.308,17.889l-.234-.19c-1.001-.811-2.257-1.242-3.543-1.22-3.338,0-5.954,2.783-5.954,6.334-.007,1.563.541,3.075,1.556,4.259,1.162,1.308,2.827,2.06,4.58,2.053,1.235.015,2.433-.416,3.368-1.22l.234-.197v1.162h2.922v-12.134h-2.922v1.154h-.007Zm-3.375,8.664c-2.002-.051-3.58-1.709-3.536-3.711-.044-2.002,1.534-3.66,3.536-3.711,2.002.051,3.58,1.709,3.536,3.711.044,2.002-1.534,3.66-3.536,3.711h0Z"/><path id="Path_2902" class="cls-1" d="m96.704,16.479c-1.286-.015-2.542.416-3.543,1.22l-.234.19v-1.154h-2.922v12.134h2.915v-6.326c-.007-.979.402-1.914,1.132-2.564.621-.548,1.417-.847,2.25-.847.548,0,1.088.131,1.571.387l.964-2.63c-.679-.27-1.403-.409-2.14-.409h.007Z"/><path id="Path_2903" class="cls-1" d="m65.657,14.134h0c.511-.548,1.235-.825,1.98-.774.3,0,.592.037.884.095l.46-2.571c-.592-.139-1.198-.205-1.812-.197-1.395-.037-2.747.475-3.769,1.417-.891.869-1.293,2.082-1.293,3.945v.65h-2.235v2.535h2.235v9.606h3.046v-9.606h3.463v-2.535h-3.463v-.526c-.088-.723.088-1.454.497-2.06l.007.022Z"/></g></svg>