<?xml version="1.0" encoding="UTF-8"?><svg id="Layer_1" xmlns="http://www.w3.org/2000/svg" viewBox="0 0 140 40"><defs><style>.cls-1{fill:#04795b;}</style></defs><path class="cls-1" d="m45.126,25.179c1.704,0,3.376-.573,4.383-1.347v-4.941h-4.616v2.137h2.137v1.301c-.635.341-1.224.48-1.905.48-1.874,0-2.974-1.456-2.974-3.237,0-2.045,1.301-3.237,2.865-3.237,1.177,0,2.044.511,2.633,1.084l1.828-1.549c-1.131-1.301-2.865-1.967-4.461-1.967-3.516,0-5.576,2.478-5.576,5.669,0,3.578,2.509,5.607,5.684,5.607Zm5.983-.124h2.416v-3.81c0-1.177.558-1.75,1.394-1.75.79,0,1.208.356,1.208,1.611v3.95h2.416v-4.538c0-2.401-1.146-3.175-2.71-3.175-.883,0-1.688.341-2.277,1.022h-.031v-.883h-2.416v7.574Zm12.747.139c2.385,0,4.089-1.595,4.089-3.919,0-2.339-1.704-3.934-4.089-3.934-2.447,0-4.104,1.626-4.104,3.934,0,2.292,1.657,3.919,4.104,3.919Zm0-2.137c-.96,0-1.657-.774-1.657-1.781,0-1.038.682-1.781,1.657-1.781.945,0,1.642.728,1.642,1.781,0,1.038-.728,1.781-1.642,1.781Zm7.882,2.137c2.075,0,3.082-1.022,3.082-2.432,0-1.487-.914-1.921-2.586-2.494-.759-.263-1.038-.434-1.038-.666,0-.294.326-.418.604-.418.511,0,1.161.263,1.688.79l1.146-1.688c-.883-.651-1.72-.945-2.865-.945-1.58,0-2.835.883-2.835,2.416,0,1.456,1.115,2.076,2.386,2.463.944.294,1.177.449,1.177.697,0,.279-.248.449-.728.449-.697,0-1.348-.279-1.983-.852l-1.131,1.564c.836.743,1.889,1.115,3.082,1.115Zm5.613-8.658c.837,0,1.456-.604,1.456-1.394,0-.759-.619-1.363-1.456-1.363s-1.44.62-1.44,1.363c0,.79.604,1.394,1.44,1.394Zm-1.208,8.519h2.416v-7.574h-2.416v7.574Zm6.666.139c2.076,0,3.082-1.022,3.082-2.432,0-1.487-.913-1.921-2.586-2.494-.759-.263-1.038-.434-1.038-.666,0-.294.325-.418.604-.418.511,0,1.162.263,1.688.79l1.146-1.688c-.883-.651-1.719-.945-2.865-.945-1.58,0-2.834.883-2.834,2.416,0,1.456,1.115,2.076,2.385,2.463.945.294,1.177.449,1.177.697,0,.279-.248.449-.728.449-.697,0-1.348-.279-1.983-.852l-1.131,1.564c.837.743,1.89,1.115,3.082,1.115Zm13.516,0c1.951,0,3.485-.929,4.43-2.091l-1.89-1.626c-.635.759-1.518,1.239-2.54,1.239-1.797,0-2.959-1.378-2.959-3.144,0-2.014,1.348-3.191,2.943-3.191,1.069,0,1.951.573,2.54,1.27l1.89-1.626c-1.208-1.471-2.881-2.122-4.43-2.122-3.625,0-5.669,2.525-5.669,5.669,0,3.655,2.525,5.622,5.685,5.622Zm5.62-.139h2.417v-3.826c0-1.177.557-1.735,1.409-1.735s1.27.372,1.27,1.595v3.965h2.417v-4.569c0-2.385-1.162-3.144-2.726-3.144-.929,0-1.75.341-2.339,1.007l-.031-.015v-4.678h-2.417v11.4Zm12.266.139c.913,0,1.595-.31,2.091-.945l.031.016v.79h2.308v-7.574h-2.432v.79l-.031.015c-.527-.62-1.285-.945-2.091-.945-1.951,0-3.454,1.611-3.454,3.934,0,2.339,1.502,3.919,3.578,3.919Zm.511-2.137c-.96,0-1.626-.712-1.626-1.781,0-1.084.697-1.797,1.626-1.797.898,0,1.595.759,1.595,1.797,0,1.084-.728,1.781-1.595,1.781Zm6.826-6.521c.836,0,1.456-.604,1.456-1.394,0-.759-.62-1.363-1.456-1.363s-1.44.62-1.44,1.363c0,.79.604,1.394,1.44,1.394Zm-1.208,8.519h2.416v-7.574h-2.416v7.574Zm4.172,0h2.416v-3.81c0-1.177.558-1.75,1.394-1.75.79,0,1.208.356,1.208,1.611v3.95h2.416v-4.538c0-2.401-1.146-3.175-2.711-3.175-.883,0-1.688.341-2.277,1.022h-.031v-.883h-2.416v7.574Z"/><path class="cls-1" d="m15.818,21.822c.788,0,1.515-.262,2.101-.717l-4.807-4.805c-.454.575-.717,1.302-.717,2.1-.01,1.888,1.525,3.422,3.424,3.422Z"/><path class="cls-1" d="m30.119,18.39c0-.787-.263-1.514-.717-2.1l-4.807,4.805c.576.454,1.303.717,2.101.717,1.889.01,3.424-1.524,3.424-3.422Z"/><path class="cls-1" d="m32.542,13.171l-2.131,2.13c.707.848,1.131,1.918,1.131,3.109,0,2.675-2.171,4.846-4.848,4.846-1.182,0-2.262-.424-3.11-1.131l-2.333,2.332-2.333-2.332c-.848.707-1.919,1.131-3.11,1.131-2.676,0-4.848-2.17-4.848-4.846,0-1.181.424-2.261,1.131-3.109l-1.091-1.09-1.04-1.04c-1.212,1.999-1.909,4.331-1.909,6.835,0,7.289,5.908,13.184,13.189,13.184s13.189-5.906,13.189-13.184c.02-2.514-.677-4.846-1.888-6.835Z"/><path class="cls-1" d="m30.795,10.899c-2.393-2.514-5.787-4.089-9.543-4.089s-7.14,1.575-9.544,4.089c-.323.343-.636.707-.929,1.08l10.463,10.459,10.462-10.469c-.263-.363-.576-.737-.909-1.07Zm-9.543-2.372c3.09,0,5.958,1.191,8.109,3.362l-8.109,8.106-8.109-8.106c2.161-2.17,5.019-3.362,8.109-3.362Z"/></svg>