<?xml version="1.0" encoding="UTF-8"?><svg id="Layer_1" xmlns="http://www.w3.org/2000/svg" viewBox="0 0 140 40"><defs><style>.cls-1{fill:#fff;}</style></defs><g id="Layer_1-2"><g id="_2285360550768"><g><path d="m31.477,4.117c-8.771,0-15.883,7.112-15.883,15.883s7.112,15.883,15.883,15.883,15.879-7.112,15.879-15.883-7.112-15.883-15.879-15.883h0Zm0,0h0Z"/><path class="cls-1" d="m37.932,26.951h-2.015v-4.287h-8.879v4.287h-2.015v-13.902h2.015v4.183h8.879v-4.183h2.015v13.902Zm-10.799-5.889h8.879v-2.216h-8.879v2.216Z"/></g><path d="m66.546,26.603v-5.711h-7.957v5.711h-1.767v-12.954h1.767v5.602h7.952v-5.602h1.772v12.954h-1.767Zm9.393-9.232c1.41,0,2.529.47,3.356,1.415s1.241,2.111,1.241,3.513h-7.5c.026.596.209,1.153.548,1.667.34.518.779.879,1.315,1.084.353.157.753.235,1.206.235.535,0,1.066-.104,1.589-.318s.888-.527,1.093-.94h1.641c-.096.548-.379,1.036-.84,1.467-.461.431-.979.762-1.55.992-.522.218-1.167.326-1.933.326-1.362,0-2.494-.448-3.391-1.349s-1.349-2.024-1.349-3.373.431-2.477,1.293-3.373c.862-.892,1.959-1.345,3.282-1.345Zm0,1.423c-.705,0-1.306.183-1.798.548s-.823.888-.992,1.567h5.545c-.205-.67-.548-1.188-1.023-1.558-.474-.37-1.049-.557-1.732-.557Zm14.338,7.809v-1.55c-.035.061-.139.213-.309.457-.34.427-.779.753-1.315.975-.535.226-1.088.335-1.658.335-1.336,0-2.416-.453-3.23-1.358-.814-.905-1.223-2.028-1.223-3.365,0-1.362.409-2.49,1.232-3.382s1.893-1.341,3.221-1.341c.57,0,1.123.104,1.658.309.535.209.966.518,1.297.931.17.218.279.379.326.474v-5.911h1.658v13.428h-1.658v-.004Zm.039-4.505c0-.923-.279-1.689-.831-2.289-.553-.601-1.28-.901-2.181-.901-.923,0-1.663.305-2.216.914-.553.609-.831,1.367-.831,2.281,0,.923.283,1.689.849,2.289.566.601,1.297.901,2.198.901.914,0,1.641-.309,2.189-.923.548-.614.823-1.371.823-2.272h0Zm8.958-4.727c1.41,0,2.529.47,3.356,1.415s1.241,2.111,1.241,3.513h-7.5c.026.596.209,1.153.548,1.667.34.518.779.879,1.315,1.084.353.157.753.235,1.206.235.535,0,1.066-.104,1.589-.318s.888-.527,1.093-.94h1.641c-.096.548-.379,1.036-.84,1.467-.461.431-.979.762-1.55.992-.522.218-1.167.326-1.933.326-1.362,0-2.494-.448-3.391-1.349-.901-.901-1.349-2.024-1.349-3.373s.431-2.477,1.297-3.373c.857-.892,1.95-1.345,3.278-1.345h0Zm0,1.423c-.705,0-1.306.183-1.798.548s-.823.888-.992,1.567h5.545c-.205-.67-.548-1.188-1.023-1.558-.474-.37-1.053-.557-1.732-.557Zm8.919,2.72v5.088h-1.658v-9.01h1.658v1.658c.048-.148.152-.326.309-.548.257-.414.649-.714,1.175-.901.531-.187,1.079-.283,1.65-.283h2.263v1.658h-2.298c-.997,0-1.763.161-2.298.483-.531.326-.801.94-.801,1.854h0Zm14.56,5.088v-1.55c-.292.57-.727,1.01-1.306,1.315-.579.305-1.206.457-1.889.457-1.328,0-2.39-.457-3.191-1.367-.801-.914-1.206-2.033-1.206-3.356,0-1.336.409-2.459,1.223-3.365.814-.905,1.872-1.358,3.173-1.358,1.254,0,2.216.414,2.881,1.241.17.244.274.4.309.474v-1.497h1.658v9.01l-1.654-.004h0Zm.035-4.505c0-.914-.266-1.671-.801-2.281-.535-.609-1.241-.914-2.115-.914-.901,0-1.624.309-2.172.923-.548.614-.823,1.371-.823,2.272,0,.962.274,1.715.823,2.263.548.622,1.271.931,2.172.931.875,0,1.58-.309,2.115-.931.535-.622.801-1.375.801-2.263h0Z"/></g></g></svg>