<?xml version="1.0" encoding="utf-8"?>
<!-- Generator: Adobe Illustrator 27.7.0, SVG Export Plug-In . SVG Version: 6.00 Build 0)  -->
<svg version="1.1" id="Layer_1" xmlns="http://www.w3.org/2000/svg" xmlns:xlink="http://www.w3.org/1999/xlink" x="0px" y="0px"
	 viewBox="0 0 140 40" style="enable-background:new 0 0 140 40;" xml:space="preserve">
<style type="text/css">
	.st0{fill-rule:evenodd;clip-rule:evenodd;}
</style>
<g id="SUPPLY">
	<g id="Immutable-_-Desktop-_-Home">
		<g id="Module-_-Site-Nav-_Immutable_">
			<g id="Group-17">
				<polygon id="Fill-1" class="st0" points="42.6,25.3 44.6,25.3 44.6,13.5 42.6,13.5 				"/>
				<g id="Group-16">
					<path id="Fill-2" class="st0" d="M56.9,16.8c-1.1,0-2.2,0.5-2.8,1.5c-0.5-1-1.4-1.5-2.6-1.5c-1,0-2,0.5-2.5,1.4v-1.2h-2.2v8.5
						H49v-4.7c0-1.2,0.8-2.1,1.8-2.1h0.1c0.9,0,1.3,0.6,1.3,1.7v5.1h2.2v-4.7c0-1.2,0.8-2.1,1.8-2.1h0.1c0.9,0,1.3,0.6,1.3,1.7v5.1
						H60v-5.4c0-1-0.2-1.8-0.7-2.4C58.8,17.1,58,16.8,56.9,16.8"/>
					<path id="Fill-4" class="st0" d="M71.7,16.8c-1.1,0-2.2,0.5-2.8,1.5c-0.5-1-1.4-1.5-2.6-1.5c-1,0-2,0.5-2.5,1.4v-1.2h-2.2v8.5
						h2.2v-4.7c0-1.2,0.8-2.1,1.8-2.1h0.1c0.9,0,1.3,0.6,1.3,1.7v5.1h2.2v-4.7c0-1.2,0.8-2.1,1.8-2.1h0.1c0.9,0,1.3,0.6,1.3,1.7v5.1
						h2.2v-5.4c0-1-0.2-1.8-0.7-2.4C73.5,17.1,72.7,16.8,71.7,16.8"/>
					<path id="Fill-6" class="st0" d="M88.5,22.6v-3.9h1.9v-1.8h-1.9v-2.8h-2.2v2.8h-4.7v4.7c0,1.2-0.8,2.2-1.8,2.2h-0.1
						c-0.8,0-1.3-0.6-1.3-1.7v-5.2h-2.2v5.5c0,1,0.2,1.8,0.7,2.4c0.5,0.6,1.2,0.9,2.2,0.9c1.1,0,2-0.5,2.5-1.4v1.3h2.2v-6.7h2.5v4.5
						c0,1.4,0.8,2.2,2.2,2.2h2.2v-1.9h-1.2C88.6,23.6,88.5,23.4,88.5,22.6"/>
					<path id="Fill-8" class="st0" d="M96.4,22c0,1.1-0.9,1.9-1.9,1.9h-0.1c-0.6,0-1.1-0.3-1.1-0.9c0-0.3,0.1-0.6,0.4-0.7
						c0.2-0.2,0.5-0.3,0.9-0.3l1.8-0.2L96.4,22L96.4,22z M98.5,19.8c0-2-1.4-3.1-3.6-3.1c-2.1,0-3.5,1.2-3.7,2.8h2.2
						c0.1-0.5,0.6-1,1.4-1H95c0.8,0,1.4,0.6,1.4,1.4v0.2l-2.1,0.2c-0.9,0.1-1.7,0.3-2.2,0.8s-0.9,1.1-0.9,2c0,1.5,1.3,2.5,2.8,2.5
						c1.1,0,2-0.5,2.5-1.2c0,0.5,0.1,0.8,0.1,1h2.1c-0.1-0.4-0.1-1-0.1-1.9L98.5,19.8L98.5,19.8z"/>
					<path id="Fill-10" class="st0" d="M104.3,23.8h-0.1c-1,0-2-1.1-1.9-2.6c0-1.6,0.9-2.7,1.9-2.6h0.1c1.1,0,1.9,1,1.9,2.6
						S105.5,23.8,104.3,23.8 M104.7,16.8c-1.1,0-2.1,0.6-2.5,1.3v-4.5h-2.2v12h2.2v-1.1c0.4,0.6,1.3,1.3,2.5,1.3
						c2.4,0,3.8-2.1,3.8-4.4C108.5,18.9,107.1,16.7,104.7,16.8"/>
					<g>
						<polygon id="Fill-12" points="109.6,25.5 111.8,25.5 111.8,13.5 109.6,13.5 						"/>
					</g>
					<g>
						<path id="Fill-14" d="M115.1,20.2c0.1-1,0.8-1.6,1.8-1.6h0.1c0.9,0,1.7,0.6,1.8,1.6H115.1z M117,16.8c-2.5,0-4.1,1.9-4.1,4.4
							c0,2.7,1.9,4.5,4.1,4.4c2.1,0,3.4-1.2,3.9-2.9h-2.2c-0.2,0.6-0.7,1.1-1.5,1.1H117c-0.9,0-1.8-0.8-1.9-1.9h5.8
							c0-0.4,0-0.6,0-0.8C120.9,18.6,119.5,16.7,117,16.8C117,16.8,117,16.8,117,16.8z"/>
					</g>
				</g>
			</g>
		</g>
	</g>
</g>
<g id="_5f8Tuj.tif">
	<path d="M94.4,26.2L94.4,26.2h0.2H94.4z"/>
</g>
<path d="M20.5,33.2c-3.4,0-6.5-1.3-9.1-3.8c-2.4-2.3-3.9-5.2-4.3-8.5c-0.5-4.1,0.8-7.7,3.5-10.8c2.5-2.9,5.8-4.3,9.6-4.6
	c8.4-0.2,13.7,6,14.4,12.1c0.5,4.2-0.6,7.8-3.4,10.9C28.5,31.7,25,33.2,20.5,33.2L20.5,33.2z M29,26.9h0.2c-0.1-0.1-0.2-0.2-0.2-0.3
	c-0.5-0.5-1-1.1-1.5-1.6c-0.6-0.6-1.1-1.3-1.7-2c-0.5-0.6-1.1-1.2-1.6-1.9c-0.1-0.1-0.2-0.1-0.3,0c-0.1,0.1-0.2,0.2-0.3,0.3
	c-0.3,0.3-0.3,0.5,0,0.8c0.2,0.2,0.3,0.4,0.5,0.6c0.5,0.6,1,1.2,1.5,1.8c0.5,0.6,1.1,1.3,1.6,1.9c0.2,0.2,0.4,0.4,0.7,0.4
	C28.3,26.8,28.7,26.8,29,26.9C29,26.8,29,26.9,29,26.9L29,26.9z M12.8,13.5c0.4,0.4,0.7,0.9,1.1,1.3c0.6,0.7,1.2,1.3,1.7,2
	c0.5,0.6,1,1.1,1.5,1.7c0.4,0.4,0.7,0.8,1.1,1.3c0.2,0.3,0.2,0.5,0,0.8c-0.2,0.3-0.5,0.6-0.8,0.9c-0.6,0.7-1.2,1.4-1.8,2.1
	c-0.4,0.5-0.8,0.9-1.2,1.4c-0.4,0.4-0.8,0.9-1.1,1.3c-0.2,0.2-0.3,0.4-0.5,0.6c0.1,0,0.1,0,0.1,0c0.5,0,1,0,1.5,0
	c0.1,0,0.3-0.1,0.3-0.2c0.5-0.6,1-1.1,1.5-1.7c0.4-0.4,0.7-0.8,1.1-1.2c0.6-0.7,1.2-1.4,1.8-2.1c0.3-0.4,0.6-0.7,0.9-1.1
	c0.3-0.4,0.2-0.7,0-0.9c-0.5-0.6-1.1-1.2-1.6-1.8c-0.6-0.7-1.3-1.5-1.9-2.2c-0.6-0.7-1.2-1.4-1.8-2c0,0-0.1-0.1-0.2-0.1
	C14,13.5,13.4,13.5,12.8,13.5L12.8,13.5z M29.2,13.5c-0.6,0-1.1,0-1.6,0c-0.1,0-0.2,0.1-0.3,0.1c-0.4,0.4-0.7,0.8-1.1,1.2
	c-0.6,0.7-1.1,1.3-1.7,2c-0.7,0.8-1.4,1.6-2.1,2.4c-0.3,0.3-0.5,0.6-0.8,0.9c-0.4,0.4-0.7,0.8-1.1,1.2c-0.3,0.3-0.4,0.6-0.1,0.9
	c0.5,0.6,1,1.2,1.5,1.8c0.7,0.9,1.5,1.7,2.2,2.6c0.1,0.1,0.1,0.2,0.2,0.2c0.3,0,0.6,0,0.9,0c0.2,0,0.4,0,0.6,0c0.1,0,0.1,0,0.2,0
	c0,0,0-0.1-0.1-0.1c-0.2-0.2-0.4-0.4-0.6-0.6c-0.6-0.7-1.1-1.3-1.7-2c-0.5-0.6-1.1-1.3-1.6-1.9c-0.2-0.3-0.2-0.5,0-0.7
	c0.6-0.7,1.3-1.5,1.9-2.2c0.6-0.7,1.2-1.3,1.7-2c0.6-0.6,1.1-1.3,1.7-1.9c0.4-0.5,0.9-1,1.3-1.4C29,13.8,29.1,13.7,29.2,13.5
	L29.2,13.5z M21.1,19.4c0.2-0.3,0.4-0.5,0.6-0.8c0.1-0.2,0.1-0.4-0.1-0.5c-0.4-0.5-0.9-0.9-1.3-1.4c-0.9-1-1.7-2.1-2.6-3.1
	c0,0-0.1-0.1-0.1-0.1c-0.5,0-1.1,0-1.6,0C17.7,15.5,19.4,17.4,21.1,19.4L21.1,19.4z M26.1,13.5C26.1,13.5,26.1,13.5,26.1,13.5
	c-0.6-0.1-1.1-0.1-1.6,0c-0.1,0-0.2,0-0.2,0.1c-0.5,0.5-0.9,1-1.3,1.6c-0.3,0.4-0.6,0.7-0.9,1.1c-0.2,0.3-0.2,0.5,0,0.7
	c0.1,0.2,0.3,0.3,0.4,0.5c0.1,0.2,0.2,0.1,0.3,0c0.5-0.6,1-1.1,1.4-1.7c0.5-0.6,1.1-1.2,1.6-1.8C25.9,13.8,26,13.7,26.1,13.5
	L26.1,13.5z M16,26.8c0.5,0,1,0,1.5,0c0.2,0,0.3,0,0.4-0.2c0.3-0.3,0.5-0.6,0.8-0.9c0.5-0.6,0.9-1.1,1.4-1.7c0.2-0.2,0.2-0.4,0-0.6
	c-0.2-0.2-0.4-0.5-0.6-0.7C18.3,24.1,17.2,25.4,16,26.8L16,26.8z"/>
<path d="M121.9,25.7c0.3-0.4,0.5-0.8,0.8-1.2c1-1.5,2.1-3.1,3.1-4.6c0.2-0.3,0.2-0.6,0-0.9c-1.1-1.6-2.2-3.2-3.3-4.8
	c-0.1-0.2-0.2-0.4-0.4-0.6c0.4,0,1,0,1.7,0h1c0,0,1.8,2.7,2.4,3.7c0.1,0.1,0.1,0.2,0.2,0.3c0.5-0.7,1-1.4,1.4-2.1
	c0.4-0.6,0.8-1.1,1.1-1.7c0-0.1,0.1-0.1,0.2-0.1c0.8,0,1.6,0,2.5,0c-0.7,1-1.4,2-2,3c-0.6,0.8-1.2,1.7-1.8,2.5
	c-0.2,0.2-0.1,0.4,0,0.6c1.3,2,2.6,4,4,6c0,0,0,0.1,0,0.1h-2.7c-0.2-0.3-0.4-0.6-0.6-0.9c-0.7-1-1.4-2.1-2.1-3.1
	c-0.2-0.3-0.2-0.3-0.4,0c-0.3,0.4-0.5,0.8-0.8,1.2c-0.6,0.9-1.3,1.9-1.9,2.8C123.6,25.7,122.8,25.7,121.9,25.7L121.9,25.7z"/>
</svg>
