<?xml version="1.0" encoding="UTF-8"?>
<svg id="Layer_1" data-name="Layer 1" xmlns="http://www.w3.org/2000/svg" viewBox="0 0 140 40">
  <defs>
    <style>
      .cls-1 {
        fill: #ff232f;
      }
    </style>
  </defs>
  <polygon class="cls-1" points="82.528 14.171 85.836 14.171 80.077 28.482 76.258 28.482 70.499 14.171 73.806 14.171 78.155 25.033 82.528 14.171"/>
  <rect class="cls-1" x="40.811" y="11.211" width="3.011" height="17.273"/>
  <polygon class="cls-1" points="52.067 28.487 45.462 19.848 52.067 11.214 55.847 11.214 49.334 19.848 55.847 28.487 52.067 28.487"/>
  <path class="cls-1" d="m63.061,13.792c-3.298,0-5.784,1.824-5.964,4.534l-.019.316h2.958l.049-.233c.272-1.274,1.313-1.975,2.924-1.975,1.751,0,2.753.88,2.753,2.418v.885l-3.707.209c-3.337.195-5.356,1.829-5.356,4.368,0,2.675,2.009,4.475,4.962,4.475,1.761,0,3.045-.482,4.091-1.552v1.313h3.001v-9.923c-.005-2.938-2.272-4.835-5.691-4.835Zm2.7,8.274v.89c-.195,1.941-1.537,3.162-3.6,3.264-.793.039-1.479-.175-1.931-.603-.355-.336-.54-.783-.54-1.294,0-1.138.973-1.858,2.671-1.965l3.4-.292Z"/>
  <path class="cls-1" d="m93.498,13.792c-3.298,0-5.784,1.824-5.964,4.534l-.019.316h2.958l.049-.233c.272-1.274,1.313-1.975,2.924-1.975,1.751,0,2.753.88,2.753,2.418v.885l-3.707.209c-3.337.195-5.356,1.829-5.356,4.368,0,2.675,2.009,4.475,4.962,4.475,1.761,0,3.045-.482,4.091-1.552v1.313h3.001v-9.923c-.005-2.938-2.272-4.835-5.691-4.835Zm2.7,8.274v.89c-.195,1.941-1.537,3.162-3.6,3.264-.793.039-1.479-.175-1.931-.603-.355-.336-.54-.783-.54-1.294,0-1.138.973-1.858,2.671-1.965l3.4-.292Z"/>
</svg>