<?xml version="1.0" encoding="UTF-8"?>
<svg id="Layer_1" data-name="Layer 1" xmlns="http://www.w3.org/2000/svg" viewBox="0 0 140 40">
  <defs>
    <style>
      .cls-1 {
        fill: #231f20;
      }
    </style>
  </defs>
  <g id="Layer_1-2" data-name="Layer 1-2">
    <g>
      <g>
        <g>
          <path class="cls-1" d="m56.34,28.065h-2.389v-11.626h2.389v11.626Z"/>
          <path class="cls-1" d="m64.973,16.211c1.319,0,2.396.462,3.231,1.387.834.925,1.252,2.101,1.252,3.527v6.939h-2.389v-6.575c0-.895-.288-1.635-.865-2.219s-1.289-.876-2.138-.876c-.956,0-1.737.292-2.343.876-.607.584-.91,1.324-.91,2.219v6.575h-2.389v-11.625h2.389v3.003c.318-1.001.846-1.79,1.582-2.366.735-.577,1.596-.865,2.583-.865h-.001Z"/>
          <path class="cls-1" d="m76.904,16.211c1.865,0,3.382.668,4.55,2.002,1.168,1.336,1.646,2.95,1.433,4.847h-9.624c.167.941.599,1.703,1.297,2.287s1.539.876,2.525.876c.758,0,1.437-.186,2.036-.557.599-.371,1.065-.876,1.399-1.513l2.002.888c-.515.986-1.252,1.774-2.207,2.366-.955.592-2.055.888-3.3.888-1.744,0-3.208-.577-4.391-1.728s-1.775-2.586-1.775-4.3.58-3.151,1.74-4.312c1.16-1.16,2.597-1.74,4.312-1.74h.001Zm0,2.071c-.88,0-1.642.269-2.287.808-.645.538-1.074,1.24-1.285,2.104h7.145c-.197-.865-.619-1.566-1.262-2.104-.645-.538-1.415-.808-2.31-.808h0Z"/>
          <path class="cls-1" d="m89.493,16.211c1.396,0,2.533.364,3.413,1.092s1.32,1.775,1.32,3.14v7.623h-2.389v-3.094c-.713,2.215-2.146,3.322-4.3,3.322-1.002,0-1.835-.299-2.503-.898-.668-.599-1.001-1.384-1.001-2.354,0-1.138.401-1.992,1.206-2.56.804-.568,1.828-.921,3.071-1.058l2.252-.228c.849-.076,1.274-.455,1.274-1.138,0-.561-.216-1.009-.649-1.342-.432-.334-.997-.501-1.695-.501s-1.316.183-1.809.547-.807.895-.944,1.593l-2.366-.569c.213-1.092.781-1.96,1.707-2.605.925-.644,2.062-.967,3.413-.967h0Zm-1.183,10.147c.986,0,1.82-.33,2.502-.99s1.023-1.429,1.023-2.31v-.637c-.181.304-.622.492-1.32.568l-2.207.273c-.577.077-1.035.246-1.377.512s-.512.626-.512,1.081.171.819.512,1.092c.341.273.8.41,1.377.41h.001Z"/>
        </g>
        <path class="cls-1" d="m52.306,28.065h-11.035v-11.626h2.525v9.374h8.51v2.252Z"/>
      </g>
      <circle class="cls-1" cx="96.477" cy="13.959" r="2.252"/>
    </g>
  </g>
</svg>