<?xml version="1.0" encoding="UTF-8"?><svg id="Layer_1" xmlns="http://www.w3.org/2000/svg" viewBox="0 0 140 40"><defs><style>.cls-1{fill:#345d9d;}</style></defs><path class="cls-1" d="m37.871,7.398c-6.962,0-12.602,5.644-12.602,12.602s5.644,12.602,12.602,12.602,12.602-5.644,12.602-12.602c-.012-6.958-5.64-12.602-12.602-12.602m.189,13.009l-1.305,4.432h7.002c.246,0,.407.23.346.463l-.604,2.095c-.056.205-.246.346-.463.346h-10.708l1.809-6.12-1.994.624.435-1.446,2.01-.62,2.546-8.597c.056-.201.246-.346.463-.346h2.707c.246,0,.407.23.346.463l-2.159,7.26,1.998-.62-.435,1.462-1.994.604Z"/><path class="cls-1" d="m57.753,11.221h-.782c-.145,0-.246.089-.274.23l-2.026,16.046c-.016.161.028.234.189.234h.782c.161,0,.246-.073.274-.23l2.039-16.046c.044-.161-.04-.234-.201-.234"/><path class="cls-1" d="m61.85,15.85h-.782c-.145,0-.246.073-.274.23l-1.45,11.434c-.012.161.073.23.218.23h.782c.145,0,.246-.073.274-.23l1.434-11.417c.012-.157-.044-.246-.201-.246"/><path class="cls-1" d="m96.086,15.661c-1.084,0-2.026.302-2.82.927-.798.62-1.317,1.434-1.579,2.445-.218.826-.407,1.982-.492,2.764-.117,1.056-.218,1.926-.218,2.764.016,1.027.346,1.837.971,2.462.637.608,1.507.927,2.607.927,1.072,0,2.01-.302,2.808-.927.798-.608,1.317-1.434,1.579-2.462.173-.681.346-1.591.492-2.764.145-1.217.218-2.143.218-2.78,0-1.011-.318-1.825-.955-2.429-.657-.62-1.527-.927-2.611-.927m2.2,5.024c-.073.58-.117.955-.129,1.116-.145,1.188-.274,2.026-.391,2.534-.173.753-.548,1.362-1.116,1.825s-1.229.681-1.966.681c-.753,0-1.346-.23-1.793-.681-.447-.447-.665-1.043-.665-1.781,0-.391.044-.882.117-1.462s.117-.955.129-1.116c.145-1.128.274-1.966.391-2.534.173-.753.548-1.362,1.116-1.825.564-.463,1.229-.681,1.966-.681.753,0,1.346.23,1.793.665.447.447.665,1.043.665,1.781-.004.419-.044.898-.117,1.479"/><path class="cls-1" d="m104.103,15.85h-.765c-.145,0-.246.089-.274.23l-1.462,11.434c-.016.161.068.23.214.23h.782c.145,0,.246-.073.274-.23l1.434-11.417c.016-.157-.044-.246-.201-.246"/><path class="cls-1" d="m113.969,16.531c-.536-.564-1.289-.838-2.272-.838-.637,0-1.217.117-1.752.363-.536.246-.983.608-1.362,1.1-.073.056-.101.044-.101-.044l.117-1.011c.016-.145-.044-.23-.189-.23h-.778c-.145,0-.246.089-.274.23l-1.434,11.417c-.016.145.028.23.189.23h.782c.145,0,.246-.089.262-.23l1.039-8.194c.173-.765.536-1.39,1.072-1.837.536-.447,1.172-.681,1.926-.681.693,0,1.245.218,1.648.653s.608,1.011.608,1.752c0,.218-.016.391-.028.52l-.999,7.783c0,.073,0,.117.028.161.044.044.101.073.189.073h.782c.145,0,.246-.073.262-.23l.999-7.973c.028-.318.044-.548.044-.709.04-.987-.222-1.757-.757-2.304"/><path class="cls-1" d="m62.353,11.233c-.463-.246-1.056-.073-1.289.407-.246.463-.056,1.056.407,1.301s1.043.056,1.289-.407c.246-.475.073-1.056-.407-1.301"/><path class="cls-1" d="m104.667,11.233c-.463-.246-1.056-.073-1.289.407-.246.463-.056,1.056.407,1.301s1.056.056,1.301-.407c.23-.475.044-1.056-.419-1.301"/><path class="cls-1" d="m85.897,15.661c-1.084,0-2.026.318-2.82.927-.798.62-1.317,1.434-1.579,2.445-.218.826-.419,2.127-.492,2.764-.101.927-.218,1.926-.218,2.764.016,1.027.346,1.837.971,2.462.637.608,1.507.927,2.607.927,1.072,0,2.01-.302,2.808-.927.798-.608,1.317-1.434,1.579-2.462.016-.089.044-.173.056-.262.016-.073-.044-.129-.101-.129h-.971c-.056,0-.129.028-.145.117,0,.016-.016.044-.016.044-.173.753-.548,1.362-1.116,1.825-.564.463-1.229.681-1.966.681-.753,0-1.346-.23-1.793-.681-.447-.447-.665-1.043-.665-1.781,0-.391.044-.882.117-1.462.056-.492.117-.955.129-1.116.145-1.128.274-1.966.391-2.534.173-.753.548-1.362,1.116-1.825.564-.463,1.229-.681,1.966-.681s1.346.218,1.793.665.665,1.043.665,1.781v.016c0,.101.089.189.189.189h.91c.073,0,.145-.056.145-.145v-.274c0-1.011-.318-1.825-.955-2.429-.653-.592-1.507-.898-2.607-.898"/><path class="cls-1" d="m78.041,16.588c-.637-.608-1.507-.927-2.59-.927s-2.026.302-2.82.927c-.798.62-1.317,1.434-1.579,2.445-.218.826-.318,1.563-.492,2.764-.161,1.188-.218,1.926-.218,2.764.016,1.027.346,1.837.971,2.462.637.608,1.507.927,2.607.927,1.072,0,2.01-.302,2.808-.927.798-.608,1.317-1.434,1.579-2.462.016-.089.044-.173.056-.262.016-.073-.028-.129-.101-.129h-.971c-.056,0-.129.028-.145.117,0,.016-.016.044-.016.044-.173.753-.548,1.362-1.116,1.825-.564.463-1.229.681-1.966.681-.753,0-1.346-.23-1.793-.681-.447-.447-.665-1.043-.665-1.781,0-.346.028-.782.089-1.273l7.026-2.188c.145-.044.201-.117.23-.29.044-.363.073-.983.073-1.62-.012-.91-.33-1.809-.967-2.417m-.274,3.287c0,.073-.044.129-.117.145l-5.834,1.805v-.028c.145-1.128.274-1.966.391-2.534.173-.753.548-1.362,1.116-1.825.564-.463,1.229-.681,1.966-.681.753,0,1.346.23,1.793.665.713.745.725,1.495.685,2.453"/><path class="cls-1" d="m67.663,26.486c.145-.073.302.028.274.189l-.101.782c-.016.101-.089.189-.173.23-.693.262-1.664.375-2.445.028-.898-.407-1.128-1.289-.999-2.389l1.027-8.38.145-1.201.346-2.663c.016-.161.117-.23.274-.23h.753c.173,0,.218.101.189.23l-.447,3.791h2.445c.145,0,.201.089.201.23l-.073.548c-.016.089-.028.129-.073.189-.044.044-.129.056-.189.056h-2.429l-.854,6.873c-.089.737-.189,1.402.189,1.765.491.415,1.446.181,1.938-.048"/></svg>