<?xml version="1.0" encoding="UTF-8"?>
<svg id="Layer_1" data-name="Layer 1" xmlns="http://www.w3.org/2000/svg" viewBox="0 0 140 40">
  <defs>
    <style>
      .cls-1 {
        stroke-width: 0px;
      }
    </style>
  </defs>
  <path class="cls-1" d="M56.09,15.558h-3.734v8.886h1.926v-6.961h.554l3.075,6.961h2.105l-3.926-8.886Z"/>
  <path class="cls-1" d="M89.699,24.444h1.926v-8.886h-1.926v8.886Z"/>
  <path class="cls-1" d="M63.942,15.558l-3.926,8.886h2.105l3.075-6.961h.554v6.961h1.926v-8.886h-3.734Z"/>
  <path class="cls-1" d="M76.287,15.558h-3.523l-3.926,8.886h2.105l1.279-2.895h4.606l1.279,2.895h2.105l-3.926-8.886ZM73.073,19.623l.945-2.14h1.014l.945,2.14h-2.904Z"/>
  <path class="cls-1" d="M85.773,15.558h-4.447v8.886h1.926v-6.961h1.267l3.075,6.961h2.105l-3.926-8.886Z"/>
  <path class="cls-1" d="M92.694,15.558v1.926h4.493v6.961h1.926v-6.961h4.493v-1.926h-10.912Z"/>
  <path class="cls-1" d="M106.601,15.558h-1.926v8.886h8.38v-1.926h-6.454v-6.961Z"/>
  <path class="cls-1" d="M123.218,17.483v-1.926h-9.093v8.886h9.093v-1.926h-7.168v-1.683h6.213v-1.926h-6.213v-1.426h7.168Z"/>
  <path class="cls-1" d="M22.579,15.793l-4.272-2.175c-.334.656-.619,1.345-.845,2.046l4.561,1.475c.149-.461.336-.914.556-1.345h0Z"/>
  <path class="cls-1" d="M26.208,11.96l2.366,4.077c.346-.2.715-.354,1.1-.458l-1.224-4.552c.312-.084.628-.153.947-.203l-.752-4.734c-.728.116-1.451.29-2.15.518l1.463,4.484c-.465.152-.919.341-1.355.564l-2.151-4.198c-.654.335-1.287.725-1.881,1.159l2.826,3.872c.26-.19.532-.366.811-.528h0Z"/>
  <path class="cls-1" d="M38.904,15.337l-4.075,2.368c.201.345.355.715.459,1.099l4.551-1.227c.084.312.153.628.204.946l4.734-.754c-.116-.727-.291-1.451-.519-2.15l-4.483,1.466c-.152-.465-.341-.918-.565-1.355l4.196-2.153c-.335-.653-.725-1.286-1.159-1.88l-3.871,2.828c.19.26.366.532.528.811h0Z"/>
  <path class="cls-1" d="M37.242,7.438c-.657-.334-1.345-.618-2.046-.844l-1.472,4.562c.461.149.914.336,1.346.555l2.172-4.273h0Z"/>
  <path class="cls-1" d="M35.54,11.876l-2.393,4.153c.347.2.666.444.95.727l6.712-6.735c-.521-.519-1.086-1.001-1.681-1.432l-2.768,3.818c-.264-.191-.537-.369-.819-.532h0Z"/>
  <path class="cls-1" d="M22.746,15.322l4.152,2.396c.2-.346.445-.666.729-.951l-6.732-6.714c-.519.521-1.001,1.086-1.433,1.68l3.816,2.77c-.191.263-.369.537-.532.819Z"/>
  <path class="cls-1" d="M32.32,10.743l.724-4.66c-.716-.111-1.448-.168-2.177-.168h-.011v9.508h.011c.401,0,.797.051,1.179.153l1.229-4.633c-.315-.083-.633-.149-.955-.2Z"/>
  <path class="cls-1" d="M26.443,18.819l-4.633-1.233c-.084.315-.15.633-.2.955l-4.66-.726c-.112.718-.169,1.453-.169,2.185h9.508c0-.402.052-.799.153-1.181h0Z"/>
  <path class="cls-1" d="M39.154,24.208l4.272,2.175c.334-.657.619-1.345.845-2.046l-4.561-1.475c-.149.461-.336.914-.556,1.345h0Z"/>
  <path class="cls-1" d="M35.526,28.04l-2.366-4.077c-.346.2-.715.354-1.1.458l1.225,4.552c-.312.084-.628.153-.947.203l.752,4.734c.728-.116,1.451-.29,2.15-.518l-1.463-4.484c.466-.152.919-.341,1.355-.564l2.151,4.198c.654-.335,1.287-.725,1.881-1.159l-2.826-3.872c-.26.19-.532.366-.811.528Z"/>
  <path class="cls-1" d="M22.83,24.663l4.076-2.368c-.201-.345-.355-.715-.459-1.099l-4.552,1.227c-.084-.312-.153-.628-.204-.946l-4.734.754c.116.727.291,1.451.519,2.15l4.483-1.466c.152.465.341.918.564,1.355l-4.196,2.153c.335.653.725,1.286,1.159,1.88l3.871-2.828c-.19-.26-.366-.532-.528-.811h0Z"/>
  <path class="cls-1" d="M24.491,32.563c.657.334,1.345.618,2.046.844l1.472-4.562c-.461-.149-.914-.336-1.346-.555l-2.172,4.273h0Z"/>
  <path class="cls-1" d="M26.193,28.125l2.393-4.153c-.347-.2-.666-.444-.95-.727l-6.712,6.735c.521.519,1.086,1.001,1.681,1.432l2.768-3.818c.264.191.537.369.819.532h0Z"/>
  <path class="cls-1" d="M38.988,24.678l-4.152-2.396c-.2.346-.445.666-.728.951l6.731,6.715c.519-.521,1.001-1.086,1.433-1.68l-3.816-2.77c.191-.264.369-.537.532-.819h0Z"/>
  <path class="cls-1" d="M29.688,24.424l-1.23,4.633c.315.083.633.149.955.2l-.724,4.66c.716.111,1.448.168,2.177.168h.011v-9.508h-.011c-.401,0-.797-.051-1.179-.153h0Z"/>
  <path class="cls-1" d="M35.444,20.001c0,.402-.052.799-.153,1.181l4.632,1.233c.084-.315.15-.633.2-.955l4.66.727c.112-.718.169-1.453.169-2.185h-9.508Z"/>
</svg>