<?xml version="1.0" encoding="UTF-8"?>
<svg id="Layer_1" data-name="Layer 1" xmlns="http://www.w3.org/2000/svg" xmlns:xlink="http://www.w3.org/1999/xlink" viewBox="0 0 140 40">
  <defs>
    <style>
      .cls-1 {
        fill: url(#linear-gradient);
        fill-rule: evenodd;
      }

      .cls-1, .cls-2 {
        stroke-width: 0px;
      }

      .cls-2 {
        fill: #151522;
      }
    </style>
    <linearGradient id="linear-gradient" x1="11.05" y1="1096.186" x2="42.891" y2="1096.768" gradientTransform="translate(0 1116.477) scale(1 -1)" gradientUnits="userSpaceOnUse">
      <stop offset="0" stop-color="#29ccb9"/>
      <stop offset=".49" stop-color="#0091ff"/>
      <stop offset="1" stop-color="#ff66b7"/>
    </linearGradient>
  </defs>
  <path class="cls-1" d="M18.602,31.216c-3.413-2.55-5.627-6.626-5.627-11.216,0-7.726,6.269-13.995,13.995-13.995,6.379,0,13.345,3.812,15.028,9.652-1.883-6.524-7.896-11.296-15.028-11.296-8.636,0-15.64,7.004-15.64,15.64s7.004,15.64,15.64,15.64,15.64-7.004,15.64-15.64v-.825h-.973c-.102,0-.246-.004-.433-.013-.37-.013-.88-.038-1.454-.089-1.173-.102-2.512-.302-3.421-.667-1.466-.586-2.295-1.36-3.238-2.27l-.055-.051c-.948-.91-2.01-1.934-3.859-2.801-1.819-.854-3.829-.718-5.304-.412-.748.153-1.394.357-1.849.523-.23.081-.412.157-.54.208-.744.314-1.466.684-2.193,1.028,0,0,1.432.391,2.138.612.026.009.064.021.119.038.106.034.259.089.442.166.374.153.863.378,1.347.693.765.489,1.398,1.109,1.658,1.866-1.619.213-3.141.926-4.28,1.594-.688.404-1.262.812-1.666,1.113-.2.153-.361.281-.472.37-.093.077-1.555,1.364-1.555,1.364,0,0,1.887.2,2.818.387.62.123,1.453.327,2.329.629.875.306,1.759.705,2.495,1.22.735.514,1.275,1.105,1.538,1.785.773,1.98.013,3.906-1.513,4.989-1.509,1.071-3.799,1.326-6.09-.246l.004.004ZM23.94,33.664c.616-.2,1.19-.493,1.708-.859,2.074-1.475,3.166-4.178,2.091-6.932-.425-1.084-1.233-1.908-2.129-2.537-.901-.629-1.934-1.088-2.894-1.424-.629-.221-1.241-.391-1.772-.518.191-.123.391-.251.608-.378,1.267-.744,2.865-1.428,4.394-1.428,2.308,0,4.025.71,5.665,1.466.149.068.298.14.451.208,1.466.689,3.005,1.411,4.794,1.411s3.086-.489,4.016-.999c-.829,6.936-6.732,12.316-13.893,12.316-1.041,0-2.057-.115-3.03-.327h-.009ZM39.087,20.667c-.616.208-1.364.361-2.236.361-1.402,0-2.609-.561-4.139-1.275-.136-.064-.272-.127-.412-.191-1.534-.71-3.306-1.462-5.614-1.598-.31-1.526-1.466-2.571-2.461-3.209-.11-.072-.221-.14-.331-.204.098-.021.2-.047.306-.068,1.334-.276,2.924-.344,4.271.293,1.598.752,2.503,1.619,3.442,2.52l.034.03c.965.926,1.989,1.9,3.77,2.614.99.395,2.274.608,3.37.727Z"/>
  <g>
    <path class="cls-2" d="M52.733,16.63V7.391h1.768l1.53,3.71,1.53-3.71h1.768v9.239h-1.385v-7.102l-1.925,4.577-1.925-4.577v7.102h-1.36Z"/>
    <path class="cls-2" d="M61.429,16.63l2.903-9.239h1.874l2.903,9.239h-1.611l-.671-2.231h-3.179l-.659,2.231h-1.56ZM64,13.171h2.482l-1.241-4.105-1.241,4.105Z"/>
    <path class="cls-2" d="M71.378,16.63V7.391h1.598l3.34,6.464-.026-6.464h1.347v9.239h-1.466l-3.472-6.677.026,6.677h-1.347Z"/>
    <path class="cls-2" d="M82.95,16.63v-7.892h-2.864v-1.347h7.31v1.347h-2.864v7.892h-1.585.004Z"/>
    <path class="cls-2" d="M89.142,16.63l2.903-9.239h1.874l2.903,9.239h-1.611l-.672-2.231h-3.179l-.659,2.231h-1.56ZM91.714,13.171h2.482l-1.241-4.105-1.241,4.105Z"/>
    <path class="cls-2" d="M52.903,32.465v-9.239h1.598l3.34,6.464-.026-6.464h1.347v9.239h-1.466l-3.472-6.677.026,6.677h-1.347Z"/>
    <path class="cls-2" d="M62.457,32.465v-9.239h6.043v1.347h-4.462v2.575h2.89v1.318h-2.89v2.652h4.513v1.347h-6.099.004Z"/>
    <path class="cls-2" d="M73.715,32.465v-7.892h-2.864v-1.347h7.31v1.347h-2.864v7.892h-1.585.004Z"/>
    <path class="cls-2" d="M81.093,32.465l-1.084-9.239h1.398l.582,6.099,1.186-6.099h1.186l1.186,6.043.582-6.043h1.347l-1.071,9.239h-1.424l-1.228-6.519-1.241,6.519h-1.424.004Z"/>
    <path class="cls-2" d="M92.98,32.61c-.65,0-1.25-.187-1.793-.553-.544-.37-.982-.909-1.305-1.615-.327-.71-.489-1.572-.489-2.592s.161-1.887.489-2.592c.327-.71.761-1.245,1.305-1.615.544-.37,1.143-.552,1.793-.552s1.245.187,1.789.552c.54.37.977.91,1.305,1.615.331.71.493,1.572.493,2.592s-.166,1.887-.493,2.592c-.331.71-.765,1.245-1.305,1.615-.54.37-1.139.553-1.789.553ZM92.98,31.186c.37,0,.705-.123,1.011-.378.302-.251.544-.625.718-1.122.174-.497.264-1.109.264-1.84s-.089-1.343-.264-1.836c-.174-.493-.416-.867-.718-1.122-.302-.255-.642-.382-1.011-.382s-.706.127-1.011.382c-.302.255-.544.629-.718,1.122-.174.493-.264,1.105-.264,1.836s.089,1.343.264,1.84c.174.497.417.871.718,1.122s.642.378,1.011.378Z"/>
    <path class="cls-2" d="M99.342,32.465v-9.239h3.141c.616,0,1.156.115,1.615.348.463.234.82.557,1.084.977.259.417.391.905.391,1.458,0,.608-.157,1.13-.476,1.568-.319.442-.748.761-1.292.965l2.019,3.918h-1.704l-1.836-3.693h-1.36v3.693h-1.585l.004.004ZM100.928,27.506h1.424c.493,0,.884-.136,1.181-.404.293-.268.442-.621.442-1.062s-.149-.807-.442-1.075c-.293-.268-.688-.404-1.181-.404h-1.424v2.945Z"/>
    <path class="cls-2" d="M108.433,32.465v-9.239h1.585v4.131l3.311-4.131h1.806l-3.723,4.475,3.893,4.764h-1.994l-3.298-4.224v4.224h-1.585.004Z"/>
  </g>
</svg>