<?xml version="1.0" encoding="UTF-8"?><svg id="Layer_1" xmlns="http://www.w3.org/2000/svg" viewBox="0 0 140 40"><defs><style>.cls-1{fill:#f2b705;}.cls-2{fill:#53cbc8;}</style></defs><g id="logo"><path id="Path_199" class="cls-1" d="m56.109,20.69c-.404-.008-.803.1-1.148.312-.329.204-.601.487-.794.823-.202.355-.325.748-.361,1.155-.043.447.01.899.155,1.324.063.188.136.372.221.551.093.2.212.388.353.557.145.175.322.321.52.431.22.121.467.182.718.177.404.005.8-.113,1.136-.338.329-.216.601-.507.794-.849.201-.364.321-.767.353-1.181.038-.453-.017-.909-.162-1.34-.061-.187-.133-.371-.214-.551-.086-.191-.199-.367-.337-.524-.143-.161-.314-.294-.507-.391-.225-.109-.473-.163-.723-.157l-.005.002Zm-.044-2.336c.393.005.784.05,1.167.133.438.091.861.243,1.257.451.418.218.797.502,1.123.842.349.367.609.81.759,1.294.093.296.155.6.186.908.037.355.043.712.017,1.068.114.1.247.176.39.226.132.044.269.066.408.066.207-.003.409-.058.59-.159.213-.116.412-.256.594-.417.201-.176.387-.367.559-.571.177-.212.344-.425.495-.637s.286-.414.403-.604.214-.353.29-.485c.049-.062.126-.095.205-.088.155.012.3.08.407.192.155.147.268.333.328.538.076.258.092.529.046.794-.071.353-.239.679-.485.942-.146.23-.312.495-.499.794-.187.3-.399.584-.634.849-.23.26-.494.488-.786.676-.285.185-.618.282-.957.279-.247-.001-.493-.037-.731-.106-.277-.084-.544-.2-.794-.345-.163.482-.395.938-.69,1.353-.293.409-.656.764-1.072,1.048-.448.304-.94.535-1.46.685-.6.171-1.221.254-1.844.246-.319-.009-.636-.059-.944-.147-.398-.108-.778-.27-1.131-.483-.398-.239-.757-.537-1.066-.883-.342-.383-.597-.834-.75-1.324-.127-.414-.206-.842-.237-1.274-.041-.511-.026-1.025.045-1.533.075-.537.214-1.062.413-1.566.203-.515.5-.988.877-1.393.405-.429.896-.768,1.441-.995.66-.267,1.367-.396,2.079-.378"/><path id="Path_200" class="cls-1" d="m35.402,27.025c-.067-.749-.14-1.615-.218-2.599-.078-.984-.156-2.014-.234-3.089-.079-1.075-.156-2.157-.232-3.245-.076-1.088-.141-2.106-.195-3.055-.288.888-.58,1.78-.877,2.677s-.576,1.748-.839,2.554c-.265.805-.511,1.534-.737,2.187-.226.652-.409,1.179-.548,1.58-.147.269-.298.526-.451.77-.139.226-.296.44-.47.64-.143.17-.311.319-.496.441-.157.105-.341.162-.53.163-.214.008-.427-.047-.611-.156-.165-.106-.277-.277-.307-.47-.008-.043-.014-.088-.017-.124-.003-.042,0-.084.009-.124-.294-1.236-.575-2.483-.844-3.741-.268-1.258-.522-2.496-.761-3.714l-.168-.862c-.056-.288-.106-.57-.152-.849-.196.784-.416,1.598-.661,2.442-.245.844-.51,1.677-.794,2.5-.284.824-.587,1.616-.909,2.377-.297.71-.633,1.403-1.007,2.075-.309.563-.671,1.095-1.081,1.589-.306.387-.693.701-1.135.92-.288.131-.586.238-.891.321-.228.061-.463.094-.699.098-.259.015-.516-.051-.735-.19-.163-.106-.278-.273-.319-.463-.039-.236.012-.478.142-.679.156-.25.389-.443.664-.548.37-.157.74-.503,1.11-1.038.418-.619.782-1.272,1.09-1.952.353-.765.697-1.618,1.03-2.56s.647-1.895.939-2.86c.294-.966.566-1.912.813-2.839s.463-1.765.647-2.513c.185-.749.336-1.373.452-1.874s.188-.812.217-.933c.049-.24.192-.452.395-.588.188-.12.407-.183.63-.183.261-.018.517.075.706.255.16.167.275.472.359.907.177.549.336,1.064.477,1.547s.279.979.413,1.488c.133.509.263,1.058.391,1.646.128.588.266,1.265.414,2.03.107.549.214,1.154.321,1.815.107.661.239,1.401.398,2.22.676-1.897,1.276-3.57,1.799-5.02s.988-2.663,1.395-3.642c.3-.768.66-1.51,1.076-2.222.312-.5.59-.751.833-.75h.088c.026,0,.051-.002.077-.006.026-.005.052-.007.078-.007.208,0,.399.131.572.392.191.312.32.657.38,1.018.048.427.099.957.153,1.589s.109,1.33.165,2.095c.059.762.118,1.565.177,2.409s.118,1.682.177,2.513c.059.832.118,1.639.177,2.423.059.783.12,1.493.185,2.128.005.116.019.232.041.346l.069.36c.044.226.093.454.146.685.053.231.102.459.146.686.051.261.089.526.115.794.028.242.002.487-.076.718-.084.223-.245.408-.454.522-.312.154-.658.224-1.006.203-.232.002-.455-.095-.613-.265-.178-.18-.312-.5-.402-.962Z"/><path id="Path_201" class="cls-1" d="m63.563,19.988c.028-.315.162-.61.381-.838.178-.175.417-.274.667-.276.225.008.442.088.618.23.22.169.377.406.449.674.036.12.06.242.073.366.015.14.01.281-.012.419.142-.284.337-.54.573-.753.284-.269.6-.502.941-.694.364-.208.748-.377,1.148-.505.39-.128.798-.194,1.208-.196.433-.005.859.111,1.23.334.399.264.682.669.794,1.133.096.319.15.649.16.983.01.341-.008.683-.052,1.022-.044.337-.108.672-.192,1.002-.082.328-.168.636-.259.924-.091.288-.174.552-.248.794-.076.24-.132.441-.169.596-.068.153-.074.327-.017.485.022.071.064.135.121.184.063.054.145.082.228.079.066,0,.132-.008.198-.02.091-.023.173-.07.238-.137.421-.184.825-.403,1.208-.656.391-.256.768-.533,1.128-.832.333-.276.65-.571.949-.883.244-.25.471-.515.682-.794.044-.056.1-.101.164-.132.056-.025.116-.038.177-.039.148.002.288.063.389.171.119.12.207.269.253.431.083.295.093.605.027.904-.075.351-.248.674-.5.93-.375.357-.719.685-1.032.982-.311.296-.639.574-.982.832-.358.268-.736.509-1.131.721-.481.251-.984.46-1.502.622-.182.065-.368.117-.557.157-.16.033-.324.051-.487.052-.404.016-.799-.122-1.105-.387-.309-.295-.531-.668-.642-1.081-.019-.061-.035-.121-.048-.177s-.027-.121-.039-.19c-.067-.292-.088-.592-.062-.891.026-.335.073-.667.142-.996.07-.341.152-.679.245-1.015.093-.336.176-.655.249-.956.074-.301.13-.57.169-.806.04-.19.036-.387-.011-.576-.038-.129-.111-.244-.21-.334-.1-.092-.231-.141-.367-.138-.511-.012-1.008.166-1.396.498-.4.348-.737.762-.996,1.225-.279.491-.514,1.006-.702,1.539-.192.541-.359,1.026-.501,1.454-.084.303-.145.612-.183.924-.037.308-.09.615-.16.917-.053.253-.155.493-.3.706-.15.196-.388.302-.634.282-.289.003-.569-.1-.788-.289-.224-.183-.387-.429-.471-.706-.052-.236-.066-.479-.041-.72.018-.332.053-.716.106-1.153.053-.437.121-.906.201-1.413s.162-.999.245-1.493.164-.959.244-1.395.146-.794.188-1.103Z"/><path id="Path_202" class="cls-1" d="m86.422,16.608c-.062-.2-.089-.409-.082-.618.004-.203.054-.402.147-.583.095-.178.236-.327.41-.431.219-.123.468-.182.72-.17.492,0,.866.098,1.122.293.247.185.428.445.518.741.053.178.077.364.072.55,0,.192-.04.382-.117.557-.079.174-.206.322-.366.425-.203.123-.438.182-.674.171-.529,0-.925-.085-1.186-.256-.256-.159-.453-.398-.561-.679Zm-.502,2.948c.046-.209.166-.395.337-.524.156-.105.341-.16.53-.157.337.005.664.117.932.321.287.197.498.486.6.818.016.079.029.157.041.236.011.079.007.159-.011.236-.05.228-.088.419-.117.576s-.054.304-.077.441-.043.265-.063.4-.043.288-.072.471c-.035.219-.077.457-.126.714-.049.257-.088.522-.121.794-.031.263-.048.529-.049.794-.003.244.03.487.099.72.039.191.152.358.314.466.163.08.343.118.524.111.241,0,.479-.054.698-.157.235-.109.456-.245.659-.406.218-.171.42-.362.603-.57.185-.207.36-.424.523-.649.158-.219.302-.428.431-.629.114-.173.219-.352.314-.537.093-.151.256-.245.434-.249.169.007.329.082.441.209.147.15.254.335.311.538.062.208.079.427.05.642-.032.236-.13.458-.282.642-.294.454-.603.888-.927,1.303-.311.401-.662.77-1.047,1.101-.358.308-.758.566-1.187.765-.424.194-.885.293-1.351.29-.64.015-1.267-.176-1.79-.544-.506-.362-.876-.927-1.111-1.696-.119-.382-.185-.779-.194-1.18-.008-.374.01-.748.053-1.119.042-.363.097-.712.164-1.048.065-.318.111-.64.139-.963.008-.113.028-.288.063-.523s.073-.477.118-.721c.043-.288.092-.594.147-.917"/><path id="Path_203" class="cls-1" d="m103.051,25.005c-.451.472-.976.868-1.553,1.172-.618.299-1.299.445-1.985.426-.267-.002-.532-.051-.783-.145-.373-.145-.736-.315-1.086-.51-.256.654-.652,1.244-1.16,1.729-.436.39-1.004.601-1.589.59-.309-.002-.614-.058-.904-.164-.313-.113-.605-.279-.863-.491-.284-.233-.533-.507-.738-.812-.233-.346-.412-.726-.53-1.127-.166-.554-.282-1.121-.346-1.696-.071-.607-.113-1.199-.128-1.775-.015-.576-.018-1.109-.01-1.598.007-.489.014-.878.019-1.166.027-.306.171-.59.402-.794.194-.156.435-.242.684-.243.12.002.239.022.353.059.127.039.249.094.362.163.113.069.215.153.305.249.084.09.148.197.186.314.028.08.036.165.025.249,0,.42-.012.876-.035,1.369s-.035.989-.036,1.487c0,.498.019.985.057,1.46.033.442.113.879.239,1.304.027.083.06.164.099.242.048.101.099.197.152.289.049.085.109.164.177.236.042.054.103.089.17.098.256-.02.488-.161.623-.38.234-.324.425-.676.571-1.048.201-.339.358-.702.467-1.081.124-.415.231-.841.323-1.277.092-.437.177-.867.256-1.291.078-.423.167-.802.265-1.139.076-.286.192-.559.345-.812.101-.186.294-.303.505-.307.319-.012.627.114.845.347.219.237.38.522.471.832.107.325.153.667.136,1.009-.025.322-.084.64-.176.949-.096.328-.216.69-.362,1.087s-.293.871-.441,1.421c.194.185.453.284.721.276.308,0,.615-.04.913-.118.302-.078.595-.19.873-.334.284-.148.552-.324.802-.524.257-.206.496-.431.718-.674.091-.074.203-.116.32-.118.17.007.329.083.442.21.146.15.252.335.309.537.073.249.084.512.031.766-.06.293-.214.557-.439.754Z"/><path id="Path_204" class="cls-1" d="m106.016,20.211c-.039-.008-.078-.013-.118-.013h-.115c-.294-.007-.584.061-.845.196-.237.129-.446.305-.613.518-.172.219-.307.465-.402.727-.097.264-.179.533-.245.806-.06.252-.103.508-.129.766-.022.244-.034.45-.035.618.262-.166.516-.345.76-.537.257-.201.498-.393.722-.577.224-.183.418-.349.581-.498.162-.148.278-.249.347-.301.25-.174.45-.411.579-.688.077-.175.094-.371.046-.557-.036-.125-.111-.236-.215-.314-.091-.074-.199-.125-.315-.149l-.006.003Zm-.088-1.808c.623-.026,1.236.159,1.741.524.468.37.807.879.965,1.454.112.372.136.765.071,1.148-.089.453-.294.875-.594,1.225-.419.493-.909.921-1.453,1.27-.787.511-1.62.948-2.488,1.303.122.256.324.466.576.596.292.151.617.225.945.216.406-.002.81-.062,1.2-.177.408-.117.806-.268,1.188-.452.381-.183.747-.382,1.097-.596s.665-.417.942-.609.506-.358.689-.498c.118-.096.243-.185.372-.265.051-.046.114-.077.182-.088.056-.008.112-.012.169-.012.097-.001.192.023.276.072.081.047.157.105.224.17.063.062.117.133.16.21.033.061.061.124.083.19.027.092.047.186.061.282.012.129-.015.26-.078.373-.1.123-.206.241-.318.353-.184.192-.427.42-.729.682-.345.295-.705.573-1.078.832-.432.302-.887.572-1.359.806-.506.251-1.035.454-1.578.608-.564.162-1.148.244-1.735.243-.499.002-.992-.1-1.448-.301-.459-.202-.882-.476-1.255-.811-.384-.345-.717-.742-.99-1.18-.277-.436-.494-.907-.645-1.401-.118-.401-.173-.818-.162-1.236.008-.46.079-.916.211-1.356.138-.467.338-.914.594-1.329.543-.898,1.376-1.584,2.361-1.944.577-.209,1.187-.312,1.8-.303"/><path id="Path_205" class="cls-1" d="m85.177,21.92c.228.19.358.472.353.769-.005.194-.051.384-.136.559-.242.493-.774.905-1.212,1.236-.486.327-1.058.502-1.644.501-.397.01-.783-.133-1.077-.4-.299-.277-.461-.671-.441-1.078.001-.273.016-.546.045-.818.024-.146.04-.294.046-.441.007-.087-.022-.174-.079-.24-.051-.052-.12-.08-.192-.079-.212,0-.5.223-.863.669-.425.547-.79,1.139-1.087,1.766-.366.743-.662,1.518-.883,2.317-.167.639-.356,1.065-.567,1.277s-.559.319-1.043.32c-.534.027-1.024-.294-1.213-.794-.234-.529-.352-1.383-.353-2.56-.009-1.68.275-3.349.839-4.932.111-.355.35-.657.669-.848.404-.201.853-.294,1.304-.27.217-.015.434.019.635.101.129.081.199.228.182.379,0,.214-.114.693-.341,1.438-.151.529-.272.995-.362,1.398-.104.488-.18.981-.227,1.478.417-1.01.982-1.953,1.677-2.796.503-.622,1.118-1.143,1.814-1.537.492-.28,1.045-.437,1.61-.46.366-.024.728.094,1.009.33.25.259.378.612.353.971-.038.486-.121.967-.25,1.437h.205c.329.001.996.104,1.231.311Z"/><path id="Path_206" class="cls-1" d="m121.165,21.907c.227.19.357.472.354.769-.006.194-.052.384-.137.559-.242.493-.774.906-1.213,1.236-.484.328-1.055.504-1.64.505-.397.01-.783-.133-1.077-.4-.299-.277-.461-.671-.442-1.078.001-.273.017-.547.046-.818.023-.146.038-.293.045-.441.007-.087-.022-.173-.08-.239-.05-.052-.12-.081-.192-.08-.212,0-.499.223-.862.669-.426.547-.79,1.139-1.087,1.766-.366.742-.662,1.518-.883,2.315-.166.639-.355,1.065-.567,1.278-.212.213-.56.319-1.043.319-.534.026-1.023-.294-1.213-.794-.234-.529-.352-1.383-.353-2.56-.008-1.68.276-3.349.839-4.932.112-.355.35-.656.668-.848.404-.201.854-.292,1.304-.265.216-.015.434.019.635.1.128.081.199.229.181.38,0,.212-.113.691-.34,1.437-.151.529-.272.995-.362,1.398-.105.488-.181.981-.227,1.478.417-1.01.982-1.953,1.678-2.796.503-.621,1.118-1.142,1.813-1.536.492-.28,1.045-.438,1.611-.459.366-.025.728.093,1.009.329.25.259.378.612.353.971-.038.486-.121.967-.249,1.437h.203c.325-.008.994.095,1.228.301Z"/><g id="symbol"><path id="Path_207" class="cls-1" d="m44.563,18.354c-2.589,0-4.688,2.099-4.688,4.688h0c0,.296.028.592.083.883l.606-.414c1.065-.73,2.792-.73,3.856,0l.635.435.345.237c.96.657,2.514.657,3.473,0l.283-.193c.52-2.538-1.116-5.017-3.654-5.537-.308-.063-.622-.095-.937-.095l-.002-.002Z"/><path id="Path_208" class="cls-2" d="m47.197,25.858c-.67.011-1.328-.177-1.89-.54l-.979-.671c-1.087-.666-2.455-.666-3.542,0l-.633.433c-.125.086-.296.054-.382-.072-.086-.125-.054-.296.072-.382l.633-.433c1.274-.793,2.889-.793,4.163,0l.979.671c.969.593,2.189.593,3.158,0l.372-.254c.125-.086.296-.054.382.072.086.125.054.296-.072.382h0l-.372.254c-.562.363-1.22.551-1.89.54Z"/><path id="Path_209" class="cls-2" d="m42.537,27.827v-2.648c-.002-.056,0-.112.007-.167.017-.151.145-.265.297-.265.147.004.268.118.28.265.011.092.014.185.01.277v5.281c.006.171-.128.315-.3.321-.001,0-.003,0-.004,0-.168-.009-.296-.153-.286-.32,0-.005,0-.011.001-.016v-1.76l-.005-.968Z"/><path id="Path_210" class="cls-2" d="m41.98,26.494v1.316c0,.224-.121.374-.29.369-.185-.019-.32-.184-.301-.369v-.002s0-2.632,0-2.632c0-.231.134-.386.309-.377s.279.148.28.379c.003.439.002.878.002,1.316Z"/><path id="Path_211" class="cls-2" d="m43.69,26.492v-.925c0-.215.114-.353.283-.353.175.008.311.157.303.333,0,.004,0,.008,0,.013.006.63.006,1.259,0,1.889.022.166-.095.317-.261.339-.013.002-.026.003-.039.003-.174-.002-.285-.133-.287-.353v-.945h.002Z"/><path id="Path_212" class="cls-2" d="m40.242,26.685v-.925c0-.214.114-.353.283-.353.175.008.311.157.303.333,0,.004,0,.008,0,.013.006.63.006,1.259,0,1.889.021.166-.096.318-.262.339-.013.002-.025.002-.038.002-.173-.002-.285-.133-.287-.353v-.945h.002Z"/><path id="Path_213" class="cls-2" d="m45.127,25.897h0c.16,0,.29.13.29.291v.503c0,.16-.13.29-.29.29h0c-.16,0-.291-.13-.291-.29v-.503c0-.161.13-.291.291-.291h0Z"/><path id="Path_214" class="cls-2" d="m46.278,26.338h0c.16,0,.29.13.29.291v2.822c0,.16-.13.29-.29.29h0c-.16,0-.29-.13-.29-.29h0v-2.823c0-.16.13-.291.29-.291h0Z"/><path id="Path_215" class="cls-2" d="m47.422,26.447h0c.16,0,.291.13.291.29v2.399c0,.16-.13.29-.291.29h0c-.16,0-.29-.13-.29-.29h0v-2.399c0-.16.13-.29.29-.29Z"/><path id="Path_216" class="cls-2" d="m48.58,26.174h0c.16,0,.29.13.29.29v1.035c0,.16-.13.29-.29.29h0c-.16,0-.29-.13-.29-.29v-1.035c0-.16.13-.29.29-.29Z"/></g></g></svg>