<?xml version="1.0" encoding="UTF-8"?><svg id="Layer_1" xmlns="http://www.w3.org/2000/svg" viewBox="0 0 140 40"><path d="m68.317,12.784v14.453c0,.109-.083.218-.218.218h-1.514c-.689,0-1.348-.358-1.736-.938l-6.827-10.544.218,5.257v6.029c0,.109-.083.218-.218.218h-1.981c-.109,0-.218-.083-.218-.218v-14.475c0-.109.083-.218.218-.218h1.488c.689,0,1.348.358,1.736.938l6.827,10.518-.218-5.257v-5.981c0-.109.083-.218.218-.218h1.981c.161,0,.244.083.244.218h0Z"/><path d="m88.634,27.43h-2.094c-.14,0-.249-.14-.192-.275l5.562-14.397c.057-.109.166-.192.275-.192h2.644c.14,0,.249.083.275.192l5.588,14.397c.057.14-.052.275-.192.275h-2.094c-.083,0-.166-.057-.192-.14l-4.485-11.836c-.057-.166-.332-.166-.384,0l-4.489,11.836c-.057.087-.14.14-.222.14h0Z"/><path d="m115.285,27.102l-4.184-5.34c2.365-.441,3.743-2.037,3.743-4.489,0-2.81-1.815-4.707-5.065-4.707h-5.837c-.166,0-.301.14-.301.301,0,1.099.881,1.981,1.981,1.981h3.935c1.954,0,2.892.99,2.892,2.452s-.907,2.452-2.892,2.452h-5.562c-.166,0-.301.14-.301.301v7.159c0,.109.083.218.218.218h1.981c.109,0,.218-.083.218-.218v-5.314h2.286l3.634,4.733c.384.524.99.798,1.653.798h1.514c.113,0,.196-.192.087-.327h0Z"/><path d="m82.36,12.566h-9.223c-.166,0-.275.109-.275.275,0,1.099.907,2.011,2.011,2.011h7.486c.109,0,.218-.083.218-.218v-1.876c-.026-.109-.109-.192-.218-.192Zm0,12.582h-6.884c-.109,0-.218-.083-.218-.218v-3.721c0-.109.083-.218.218-.218h6.361c.109,0,.218-.083.218-.218v-1.876c0-.109-.083-.218-.218-.218h-8.673c-.166,0-.301.14-.301.301v8.123c0,.166.14.301.301.301h9.196c.109,0,.218-.083.218-.218v-1.872c-.026-.083-.109-.166-.218-.166h0Z"/><path d="m41.064,8.875l-5.174,7.683c-.358.524.332,1.156.825.715l5.091-4.432c.14-.109.332-.026.332.166v13.847c0,.192-.249.275-.358.14l-15.417-18.445c-.493-.606-1.208-.938-2.007-.938h-.55c-1.431,0-2.613,1.182-2.613,2.644v19.492c0,1.457,1.182,2.644,2.644,2.644.907,0,1.762-.467,2.255-1.265l5.174-7.683c.358-.524-.332-1.156-.825-.715l-5.091,4.406c-.144.105-.336.022-.336-.17v-13.821c0-.192.249-.275.358-.14l15.417,18.445c.497.606,1.239.938,2.011.938h.55c1.457,0,2.644-1.182,2.644-2.644V10.254c-.031-1.461-1.213-2.644-2.67-2.644-.912,0-1.762.467-2.26,1.265Z"/></svg>