<?xml version="1.0" encoding="UTF-8"?><svg id="Layer_1" xmlns="http://www.w3.org/2000/svg" viewBox="0 0 140 40"><defs><style>.cls-1{fill:#242424;}.cls-2{fill:#8349e4;}</style></defs><path class="cls-2" d="m26.795,16.865c0-.627-.034-1.254.009-1.873.077-1.048-.404-1.71-1.306-2.182-.885-.455-1.735-.971-2.603-1.46-.756-.421-1.469-.472-2.251.026-.936.593-1.924,1.108-2.904,1.632-.687.369-.997.945-.997,1.701,0,1.082.009,2.173,0,3.256-.009.816.335,1.426,1.039,1.83,1.039.593,2.07,1.194,3.127,1.761.576.309,1.194.369,1.795.026,1.366-.782,2.74-1.572,4.106-2.354,1.271-.722,2.551-1.435,3.831-2.165,1.022-.584,2.036-1.186,3.067-1.77.627-.352,1.254-.387,1.907-.017,2.027,1.151,4.063,2.294,6.099,3.428.696.387.936,1.005.945,1.735.017,2.182.009,4.364,0,6.546,0,.79-.387,1.366-1.082,1.752-1.452.808-2.904,1.624-4.355,2.44-.412.232-.833.438-1.22.696-.936.619-1.804.447-2.706-.103-1.478-.885-2.99-1.701-4.493-2.551-.412-.232-.825-.447-1.22-.696-.533-.344-.73-.893-.747-1.495-.017-.687,0-1.366-.009-2.053,0-.129.009-.232.146-.318.842-.472,1.675-.971,2.517-1.452.258-.146.206.094.206.215.009.67.017,1.34,0,2.01-.026.722.326,1.237.902,1.581,1.065.627,2.139,1.246,3.23,1.821.533.283,1.117.326,1.675.009,1.151-.661,2.302-1.306,3.436-1.984.515-.309.756-.799.765-1.392.009-1.228.026-2.457,0-3.685-.017-.876-.61-1.357-1.323-1.744-.911-.498-1.813-1.022-2.715-1.521-.696-.387-1.375-.335-2.07.069-2.07,1.194-4.158,2.362-6.237,3.539-1.469.833-2.955,1.649-4.416,2.508-.842.498-1.598.387-2.405-.077-1.46-.85-2.947-1.667-4.416-2.5-.481-.275-.988-.507-1.452-.816-.472-.318-.739-.79-.739-1.375,0-2.328-.009-4.656,0-6.976,0-.679.352-1.177.945-1.512,1.993-1.117,3.986-2.251,5.988-3.368.567-.318,1.168-.387,1.761-.06,1.34.747,2.672,1.512,4.012,2.277.679.387,1.357.782,2.036,1.16.567.318.902.79.928,1.435.026.756.017,1.512.026,2.268,0,.137-.034.249-.155.326-.859.481-1.71.962-2.569,1.443-.026.026-.06.009-.112.009Z"/><path class="cls-1" d="m98.295,16.084q.232-.687.928-.687c.584,0,1.177.017,1.761-.009.361-.017.481.06.481.464-.026,2.268-.009,4.544-.009,6.812,0,.644-.017,1.297.009,1.941.06,1.838-.79,3.204-2.328,4.089-2.088,1.203-4.27,1.289-6.486.309-.601-.266-1.125-.644-1.632-1.057-.172-.137-.206-.215-.043-.395.498-.541.979-1.1,1.452-1.675.163-.198.241-.172.412-.017.842.739,1.813,1.143,2.955,1.1.627-.026,1.203-.215,1.718-.55.404-.258.67-.653.756-1.143.077-.455.06-.919.06-1.383,0-.077,0-.146-.06-.189-.086-.052-.12.034-.163.086-1.426,1.478-3.187,1.684-4.991,1.048-1.924-.67-3.024-2.165-3.264-4.192-.318-2.706,1.452-5.154,4.124-5.61,1.529-.275,3.032-.034,4.321,1.057Zm.026,3.874c-.077-.344.12-.79-.103-1.22-.507-.962-1.392-1.246-2.371-1.332-1.143-.112-2.354.653-2.68,1.641-.335,1.005-.189,1.924.533,2.723.79.868,1.761,1.065,2.869.765,1.289-.361,1.761-.979,1.752-2.285,0-.077,0-.146,0-.292Z"/><path class="cls-1" d="m51.785,24.047c0,1.692-.009,3.307.009,4.914,0,.344-.086.43-.43.421-.79-.026-1.572-.017-2.362,0-.232,0-.318-.052-.318-.301.009-4.553.009-9.106,0-13.651,0-.266.103-.301.326-.301.67.009,1.349.017,2.019,0,.258-.009.352.086.404.318.052.249.12.49.198.808,1.177-.893,2.466-1.417,3.926-1.366,1.503.06,2.74.687,3.599,1.941,1.306,1.899,1.314,4.983-.301,6.735-.911.979-2.113,1.4-3.419,1.538-1.314.129-2.526-.18-3.651-1.057Zm.06-3.883c.06.378-.12.85.103,1.271.481.928,1.306,1.289,2.311,1.263,1.014-.026,1.864-.447,2.345-1.357.472-.902.352-1.804-.146-2.706-.558-1.022-1.95-1.34-3.067-.997-1.125.352-1.546.936-1.546,2.113v.412Z"/><path class="cls-1" d="m108.793,25.069c-1.684-.043-3.084-.455-4.192-1.581-.799-.808-1.186-1.804-1.289-2.938-.146-1.649.301-3.067,1.521-4.218.799-.756,1.787-1.168,2.843-1.349,1.752-.301,3.402-.017,4.811,1.125,1.314,1.074,1.856,2.517,1.761,4.184-.146,2.603-1.959,4.424-4.656,4.716-.309.034-.627.052-.799.06Zm2.259-5.086c0-.103.009-.198,0-.301-.103-.876-.455-1.632-1.289-2.01-.842-.378-1.692-.318-2.448.275-.928.722-1.16,2.113-.636,3.282.567,1.254,1.778,1.624,2.972,1.186.876-.318,1.435-1.271,1.4-2.431Z"/><path class="cls-1" d="m67.085,14.941c1.735.026,3.505.79,4.501,2.723,1.521,2.947.026,6.761-3.771,7.354-1.813.283-3.505.009-4.983-1.16-.876-.696-1.34-1.624-1.555-2.697-.404-2.027.223-4.132,2.053-5.275,1.031-.636,2.156-.954,3.754-.945Zm1.907,5.06c0-.112.009-.232,0-.344-.12-1.727-1.856-2.766-3.385-2.002-1.039.515-1.306,1.469-1.28,2.526.043,1.744,1.563,2.826,3.17,2.285.936-.309,1.495-1.246,1.495-2.466Z"/><path class="cls-1" d="m119.136,16.779c.301-.275.49-.593.765-.833,1.323-1.125,3.307-1.366,4.819-.507.868.49,1.323,1.289,1.332,2.277.017,2.268,0,4.536.017,6.804,0,.283-.094.326-.344.318-.816-.017-1.632-.017-2.448,0-.301.009-.378-.086-.378-.378.017-1.795.009-3.591.009-5.395,0-.601-.077-1.177-.739-1.443-.696-.275-1.366-.155-1.899.344-.816.765-1.065,1.778-1.074,2.852-.009,1.228-.009,2.457,0,3.677,0,.249-.052.344-.326.335-.816-.017-1.632-.017-2.448,0-.241,0-.318-.06-.318-.309.009-2.938.009-5.885,0-8.823,0-.241.06-.326.309-.318.73.017,1.46.017,2.191,0,.241-.009.335.086.361.309.043.352.103.696.172,1.091Z"/><path class="cls-1" d="m84.413,20.929c.335-.713.653-1.375.954-2.045.498-1.091.988-2.182,1.478-3.282.069-.163.163-.223.352-.215.73.017,1.46.017,2.191,0,.309-.009.318.094.206.344-.876,1.933-1.744,3.866-2.603,5.807-.971,2.173-1.924,4.347-2.895,6.52-.017.043-.034.077-.052.12-.232.387-.249.988-.61,1.186-.361.189-.893.052-1.349.06h-1.606c.223-.472.421-.893.619-1.323.524-1.125,1.031-2.259,1.563-3.385.103-.223.103-.404-.009-.627-1.254-2.5-2.491-5.008-3.737-7.517-.155-.301-.275-.619-.43-.919-.103-.189-.06-.249.155-.249,1.005.009,2.002.009,3.007,0,.18,0,.283.06.361.232.687,1.546,1.383,3.093,2.079,4.639.086.189.198.378.326.653Z"/><path class="cls-1" d="m77.128,16.307c0,2.697-.009,5.386.009,8.084,0,.395-.112.472-.472.455-.73-.026-1.46-.026-2.191,0-.352.017-.447-.077-.447-.438.009-4.69.009-9.381.009-14.071,0-.73.017-1.452-.009-2.182-.017-.335.103-.404.412-.395.756.026,1.521.026,2.277,0,.335-.009.43.069.43.421-.026,2.706-.017,5.421-.017,8.127Z"/></svg>