<?xml version="1.0" encoding="UTF-8"?><svg id="Layer_1" xmlns="http://www.w3.org/2000/svg" xmlns:xlink="http://www.w3.org/1999/xlink" viewBox="0 0 140 40"><defs><style>.cls-1{fill:url(#linear-gradient);}.cls-2{fill:#22143d;}</style><linearGradient id="linear-gradient" x1="5.772" y1="459.772" x2="20.042" y2="451.686" gradientTransform="translate(0 475.729) scale(1 -1)" gradientUnits="userSpaceOnUse"><stop offset="0" stop-color="#a128c5"/><stop offset="1" stop-color="#7c3fe3"/></linearGradient></defs><path class="cls-2" d="m29.357,27.176v-3.876c.413.529,1.164.825,2.034.825,2.221,0,3.72-1.603,3.72-4.046s-1.378-4.046-3.536-4.046c-.995,0-1.761.374-2.22.981v-.862h-2.126v11.019l2.127.005Zm1.771-4.918c-1.149,0-1.898-.872-1.898-2.178s.749-2.194,1.898-2.194c1.117,0,1.883.862,1.883,2.194s-.761,2.178-1.883,2.178Z"/><path class="cls-2" d="m40.139,24.186c2.457,0,4.213-1.726,4.213-4.077s-1.755-4.077-4.213-4.077-4.212,1.724-4.212,4.077,1.755,4.077,4.212,4.077Zm0-1.882c-1.188,0-1.997-.894-1.997-2.195s.811-2.21,1.997-2.21,1.998.892,1.998,2.21-.807,2.195-1.998,2.195Z"/><path class="cls-2" d="m47.613,23.914v-11.143h-1.902v11.143h1.902Z"/><path class="cls-2" d="m54.309,16.305l-1.667,4.99-1.683-4.99h-2.26l2.905,7.676-1.175,3.195h2.11l1.134-3.161,2.907-7.707-2.272-.003Z"/><path class="cls-2" d="m62.518,16.935c-.444-.544-1.227-.902-2.201-.902-2.328,0-3.736,1.602-3.736,4.044s1.403,4.044,3.768,4.044c.934,0,1.773-.344,2.184-.918v1.033c0,.73-.491,1.243-1.155,1.243h-3.674v1.696h4.022c1.804,0,3.007-1.073,3.007-2.707v-8.311h-2.216v.778Zm-1.82,5.318c-1.173,0-1.948-.861-1.948-2.177s.775-2.192,1.948-2.192,1.962.861,1.962,2.192-.775,2.177-1.962,2.177Z"/><path class="cls-2" d="m70.17,24.186c2.378,0,4.077-1.726,4.077-4.077s-1.699-4.077-4.077-4.077-4.077,1.724-4.077,4.077,1.699,4.077,4.077,4.077Zm0-1.882c-1.152,0-1.933-.894-1.933-2.195s.781-2.21,1.933-2.21,1.933.892,1.933,2.21-.783,2.195-1.933,2.195Z"/><path class="cls-2" d="m77.548,23.914v-4.249c0-1.001.68-1.723,1.645-1.723.918,0,1.535.682,1.535,1.616v4.357h2.215v-4.834c0-1.786-1.171-3.048-2.979-3.048-1.092,0-1.977.447-2.42,1.193v-1.07h-2.211v7.759h2.215Z"/><path class="cls-2" d="m88.079,22.743l5.148-5.974h-4.917v-1.172h6.452v1.172l-5.116,5.974h5.347v1.172h-6.914v-1.172Z"/><path class="cls-2" d="m96.744,23.914v-11.733h1.337v6.931l3.911-3.515h1.749l-3.564,3.251,3.894,5.066h-1.667l-3.234-4.158-1.089.99v3.168h-1.337Z"/><path class="cls-2" d="m105.48,12.363h7.228v1.271h-5.825v3.68h4.736v1.271h-4.736v4.059h6.007v1.271h-7.409v-11.551Z"/><path class="cls-2" d="m113.721,12.363h1.452l3.63,9.918,3.664-9.918h1.436l-4.373,11.551h-1.436l-4.373-11.551Z"/><path class="cls-2" d="m125.238,12.363h1.832l3.812,9.654,3.795-9.654h1.832v11.551h-1.37v-9.208l-3.647,9.208h-1.238l-3.647-9.208v9.208h-1.37v-11.551Z"/><path class="cls-1" d="m12.525,14.202c-.179.109-.328.261-.431.443-.103.182-.158.388-.159.597l.035,3.174-.014,2.135.035,3.174c-.001.21-.056.415-.159.597-.103.182-.251.335-.431.444l-2.162,1.283c-.176.104-.376.161-.581.165-.205.004-.408-.044-.588-.141l-2.142-1.214c-.181-.1-.331-.247-.433-.427-.102-.179-.153-.383-.147-.589l.002-2.466c.001-.21.056-.415.159-.597.103-.182.252-.335.431-.444l2.114-1.269c.176-.104.376-.161.581-.165.205-.004.407.044.588.141l1.388.786-.016-2.153-1.388-.786c-.178-.104-.382-.157-.589-.152-.206.004-.407.065-.581.177l-3.951,2.331c-.179.109-.327.261-.431.444-.103.182-.158.388-.159.597l-.004,4.65c-.006.206.045.41.147.589.102.179.252.327.433.427l4.013,2.274c.178.104.382.157.589.152.206-.004.407-.065.581-.177l3.986-2.392c.179-.109.327-.261.431-.444.103-.182.158-.388.159-.597l-.005-3.157-.016-2.153-.004-3.157c.001-.21.056-.415.159-.597.103-.182.252-.335.431-.443l2.114-1.269c.176-.104.376-.161.581-.165.205-.004.407.044.588.141l2.142,1.214c.181.1.331.247.433.427.102.179.153.383.147.589l.028,2.483c-.001.21-.056.415-.159.597-.103.182-.252.335-.431.444l-2.114,1.269c-.176.104-.376.161-.581.165-.205.004-.407-.044-.588-.141l-1.388-.786.016,2.153,1.388.786c.178.104.382.157.589.152.206-.004.407-.065.581-.177l3.986-2.392c.179-.109.327-.261.431-.444s.158-.388.159-.597l.004-4.649c-.001-.205-.055-.406-.157-.584-.102-.178-.247-.327-.423-.432l-4.013-2.274c-.178-.104-.382-.157-.589-.152-.206.004-.407.065-.581.177l-4.034,2.406Z"/></svg>