<?xml version="1.0" encoding="UTF-8"?><svg id="Layer_1" xmlns="http://www.w3.org/2000/svg" xmlns:xlink="http://www.w3.org/1999/xlink" viewBox="0 0 140 40"><defs><style>.cls-1{fill:url(#linear-gradient);}.cls-2{fill:#161616;}.cls-3{fill:url(#linear-gradient-2);}</style><linearGradient id="linear-gradient" x1="24.808" y1="23.831" x2="32.129" y2="7.388" gradientUnits="userSpaceOnUse"><stop offset="0" stop-color="#e518e6"/><stop offset=".625" stop-color="#7062f3"/><stop offset="1" stop-color="#00a9ff"/></linearGradient><linearGradient id="linear-gradient-2" x1="19.07" y1="30.584" x2="36.01" y2="16.369" gradientUnits="userSpaceOnUse"><stop offset="0" stop-color="#fa031a"/><stop offset=".495" stop-color="#e518e6"/><stop offset="1" stop-color="#00a9ff"/></linearGradient></defs><g><path class="cls-1" d="m14.981,19.342c.584-.023,4.612.003,6.041-.01.479-.004.8.164,1.025.591.241.458.526.892.838,1.414.369-1.558,1.755-6.822,2.045-8.012.096-.326.23-.646.279-.979.075-.513.344-.657.838-.647.527.011.666.404.688.737.045.687,1.14,8.821,1.261,9.681.102.723.213,1.444.32,2.166.17-.308,1.804-7.299,2.349-7.889.556-.104.951.074,1.148.631.04.113.135.207.204.31-.011.061.022.088.074.101.325.578.656,1.153.972,1.735.085.156.201.169.35.167.646-.008,1.292-.011,1.938-.016,1.287.004,2.574.019,3.86.009.679-.005,1.028-.625.651-1.182-.273-.403-.483-.836-.729-1.251-.732-1.231-1.451-2.469-2.167-3.709-.863-1.495-1.717-2.996-2.575-4.494-.285-.497-.73-.704-1.285-.703-4.019.001-8.038.005-12.058.006-.651,0-1.138.257-1.439.851-.175.347-5.611,9.596-5.466,9.946.152.366.414.564.838.547Z"/><path class="cls-3" d="m39.95,21.109c-.112-.255-.361-.428-.673-.429-.33-.001-4.501-.011-6.257,0-.445.003-.731-.147-.935-.548-.241-.475-.536-.922-.852-1.457-.238.868-.444,1.621-.65,2.375-.176.726-1.247,4.815-1.46,5.817-.084.308-.179.614-.249.925-.096.419-.361.52-.764.525-.43.005-.616-.263-.673-.576-.138-.761-1.585-11.208-1.735-12.01-.148.609-1.312,5.03-1.874,7.197-.097.373-.406.662-.789.704-.339.037-.479-.168-.818-.762-.099-.174-.912-1.698-1.307-2.146l-.083-.038c-.665,0-1.33,0-1.994,0-1.248-.005-2.497-.012-3.745-.014-.309,0-.668-.058-.823.295-.152.345-.133.696.088,1.043.219.344,2.454,4.137,3.014,5.225.656,1.277,1.424,2.497,2.149,3.738.275.471.546,1.019,1.17,1.024,2.858.022,5.717.003,8.575,0h0c1.332.006,2.664.017,3.995.014.497,0,.871-.242,1.119-.67.233-.403.456-.812.683-1.218.997-1.628,1.926-3.294,2.856-4.961.194-.313.407-.616.577-.941.422-.808.978-1.541,1.324-2.391.283-.194.233-.492.134-.718Z"/></g><g id="cnzb8e"><g><path class="cls-2" d="m93.457,27.805c.622.438,1.164.82,1.704,1.2-1.099,1.756-3.98,2.569-6.518,1.861-2.578-.719-4.325-2.989-4.383-5.697-.066-3.058,1.442-5.323,4.13-6.201,2.466-.806,5.471-.142,6.596,1.489-.503.4-1.008.802-1.506,1.198-.046,0-.09.013-.105-.002-1.131-1.204-2.524-1.422-4.019-.943-1.546.496-2.399,1.659-2.691,3.229-.187,1.004-.087,1.997.314,2.942,1.094,2.577,4.478,3.163,6.396,1.112.042-.044.052-.118.082-.188Z"/><path class="cls-2" d="m44.592,18.854c1.889.078,3.769.029,5.613.266,1.818.234,2.718,1.489,2.704,3.291-.013,1.764-1.025,2.953-2.875,3.304-.651.123-1.323.145-1.987.186-.439.027-.88.005-1.362.005v4.87h-2.093v-11.923Zm1.927,5.333c.974-.087,1.929-.098,2.85-.276.879-.17,1.249-.765,1.226-1.621-.02-.747-.428-1.295-1.272-1.431-.913-.147-1.85-.148-2.805-.215v3.544Z"/><path class="cls-2" d="m104.024,30.785h-1.933c0-.184.002-.368,0-.551-.022-1.525-.014-3.051-.081-4.573-.033-.749-.454-1.244-1.001-1.355-.746-.151-1.452-.008-1.84.67-.271.473-.435,1.064-.461,1.61-.063,1.379-.021,2.763-.021,4.183h-1.983v-12.152h1.968v5.271c.489-.702,1.031-1.115,1.726-1.287,1.772-.437,3.433.551,3.589,2.368.165,1.918.037,3.861.037,5.816Z"/><path class="cls-2" d="m82.719,27.431h-6.079c.096.854.53,1.424,1.259,1.722,1.218.499,2.298.259,3.182-.777.437.348.857.683,1.308,1.042-.43.657-1.018,1.096-1.73,1.344-1.264.44-2.529.415-3.757-.143-1.682-.765-2.551-2.527-2.249-4.516.281-1.853,1.628-3.241,3.392-3.52,3.151-.498,5.012,1.744,4.675,4.848Zm-5.872-1.483h4.044c.069-1.061-.619-1.836-1.679-1.917-1.232-.094-2.269.728-2.365,1.917Z"/><path class="cls-2" d="m112.901,30.783h-1.809v-.963c-1.172,1.334-2.559,1.438-4.03.905-.914-.331-1.467-1.013-1.537-2.038-.073-1.077.411-1.859,1.365-2.222.846-.322,1.767-.46,2.665-.626.477-.088.975-.063,1.457-.088.086-.732-.165-1.192-.816-1.453-1.004-.403-1.928-.172-2.794.405-.13.087-.251.187-.4.298-.339-.397-.667-.78-1.019-1.192.561-.575,1.239-.893,1.973-1.101.822-.232,1.659-.263,2.499-.106,1.35.254,2.326,1.122,2.417,2.51.123,1.875.031,3.764.031,5.671Zm-1.864-3.628c-.992,0-1.958-.061-2.859.389-.437.218-.696.551-.629,1.062.066.502.429.744.871.817,1.837.303,2.739-.729,2.617-2.268Z"/><path class="cls-2" d="m120.375,22.794v.981c.209-.187.361-.32.51-.456.924-.842,1.997-1.027,3.145-.613,1.136.41,1.734,1.336,1.786,2.483.084,1.851.023,3.708.023,5.59h-1.992c0-1.383.004-2.745-.003-4.107-.002-.364-.009-.732-.065-1.091-.122-.787-.533-1.26-1.132-1.361-.743-.125-1.502.171-1.816.845-.214.458-.329.996-.349,1.503-.049,1.221-.016,2.446-.016,3.669,0,.172,0,.343,0,.541h-2.006v-7.986h1.916Z"/><path class="cls-2" d="m59.719,22.779h1.992v7.988h-1.866v-1.103c-.077.007-.122-.001-.133.014-.821,1.195-2.006,1.641-3.35,1.258-1.174-.335-1.994-1.38-2.031-2.76-.047-1.778-.011-3.558-.011-5.377h2.005c0,.152,0,.32,0,.488,0,1.287-.003,2.575.003,3.862.001.269.021.54.063.806.123.786.519,1.271,1.111,1.385.742.143,1.532-.17,1.853-.862.212-.459.331-.997.348-1.505.046-1.38.016-2.762.016-4.194Z"/><path class="cls-2" d="m73.513,23.764c-.427.378-.83.736-1.177,1.044-.518-.257-.982-.577-1.494-.71-.367-.095-.808.026-1.199.12-.324.078-.527.366-.442.692.064.242.242.541.451.638.455.212.963.306,1.447.459.362.115.734.213,1.074.376.741.355,1.271.887,1.329,1.769.066.998-.243,1.816-1.117,2.363-1.571.983-4.376.576-5.506-.821.421-.397.845-.796,1.286-1.212.611.675,1.331,1.063,2.238.975.246-.024.509-.088.72-.21.572-.332.548-1.148-.055-1.42-.459-.207-.961-.316-1.444-.469-.332-.105-.677-.182-.994-.321-1.417-.621-1.789-2.302-.785-3.489,1.237-1.462,4.472-1.358,5.667.216Z"/><path class="cls-2" d="m63.601,18.966h1.952v11.81h-1.952v-11.81Z"/><path class="cls-2" d="m114.72,22.782c.099-.009.175-.021.251-.021.554-.002,1.109,0,1.7,0v8.016h-1.951v-7.994Z"/><path class="cls-2" d="m116.991,20.042c-.009.684-.592,1.209-1.324,1.193-.697-.015-1.26-.561-1.259-1.221,0-.675.603-1.235,1.31-1.217.742.018,1.282.547,1.272,1.245Z"/></g></g></svg>