<?xml version="1.0" encoding="UTF-8"?>
<svg id="Layer_1" data-name="Layer 1" xmlns="http://www.w3.org/2000/svg" xmlns:xlink="http://www.w3.org/1999/xlink" viewBox="0 0 140 40">
  <defs>
    <style>
      .cls-1 {
        fill: url(#linear-gradient);
      }

      .cls-1, .cls-2, .cls-3 {
        stroke-width: 0px;
      }

      .cls-2 {
        fill: #004de5;
        fill-rule: evenodd;
      }

      .cls-3 {
        fill: #212121;
      }
    </style>
    <linearGradient id="linear-gradient" x1="37.11" y1="1263.41" x2="37.11" y2="1247.542" gradientTransform="translate(0 1275.476) scale(1 -1)" gradientUnits="userSpaceOnUse">
      <stop offset="0" stop-color="#fff"/>
      <stop offset=".458" stop-color="#fff"/>
      <stop offset="1" stop-color="#fff"/>
    </linearGradient>
  </defs>
  <path class="cls-3" d="M60.087,27.617v-3.81h2.824l2.559,3.81h3.298l-2.976-4.396c.872-.391,1.545-.954,2.018-1.69.474-.736.711-1.612.711-2.628s-.234-1.895-.701-2.637c-.467-.742-1.134-1.315-1.999-1.719-.866-.404-1.886-.606-3.061-.606h-5.742v13.675h3.07ZM62.73,21.385h-2.523v-4.847h2.523c.93,0,1.638.209,2.122.626.484.417.726,1.016.726,1.798,0,.768-.242,1.364-.726,1.788-.484.424-1.192.636-2.122.636ZM75.743,27.79c1.078,0,2.043-.233,2.893-.699.85-.466,1.516-1.112,1.998-1.939.482-.827.723-1.765.723-2.815s-.241-1.988-.723-2.815c-.482-.827-1.148-1.473-1.998-1.939-.85-.466-1.814-.699-2.893-.699s-2.046.233-2.902.699c-.856.466-1.526,1.112-2.008,1.939-.482.827-.723,1.765-.723,2.815s.241,1.988.723,2.815c.482.827,1.151,1.473,2.008,1.939.856.466,1.824.699,2.902.699ZM75.743,25.366c-.757,0-1.381-.267-1.873-.8-.492-.533-.738-1.247-.738-2.143s.246-1.61.738-2.143c.492-.533,1.116-.8,1.873-.8s1.378.267,1.864.8c.486.533.729,1.247.729,2.143s-.243,1.61-.729,2.143c-.486.533-1.107.8-1.864.8ZM86.155,27.617v-5.229c0-.944.221-1.654.662-2.133.442-.478,1.034-.718,1.779-.718.669,0,1.179.206,1.533.619.353.413.53,1.039.53,1.877v5.582h2.952v-6.054c0-1.546-.388-2.713-1.164-3.499-.776-.786-1.795-1.179-3.056-1.179-.694,0-1.331.121-1.911.364-.58.242-1.066.586-1.457,1.032v-1.238h-2.819v10.575h2.952ZM97.807,15.672c.546,0,.99-.169,1.332-.507.343-.338.514-.766.514-1.283,0-.478-.171-.875-.514-1.194-.343-.318-.787-.478-1.332-.478s-.99.166-1.332.497c-.343.332-.514.743-.514,1.234s.171.902.514,1.234c.343.332.787.497,1.332.497ZM99.318,27.617v-10.559h-3.021v10.559h3.021ZM104.956,27.617v-5.229c0-.944.221-1.654.662-2.133.442-.478,1.034-.718,1.779-.718.669,0,1.18.206,1.533.619.353.413.53,1.039.53,1.877v5.582h2.952v-6.054c0-1.546-.388-2.713-1.164-3.499-.776-.786-1.795-1.179-3.056-1.179-.694,0-1.331.121-1.911.364-.58.242-1.066.586-1.457,1.032v-1.238h-2.819v10.575h2.952Z"/>
  <path class="cls-2" d="M27.589,8.722v16.447c0,.307.07.61.203.887.134.277.328.52.569.712l7.784,6.224c.274.218.614.337.965.337s.691-.119.965-.337l7.784-6.224c.241-.192.435-.435.569-.712.134-.277.203-.58.203-.887V8.722c0-.544-.217-1.065-.603-1.45-.386-.385-.91-.601-1.456-.601h-14.925c-.546,0-1.07.216-1.456.601-.386.385-.603.906-.603,1.45Z"/>
  <path class="cls-1" d="M42.66,17.443v-3.585c0-.475-.187-.931-.52-1.267-.333-.336-.785-.525-1.256-.525h-7.551c-.471,0-.923.189-1.256.525-.333.336-.52.792-.52,1.267v10.401c0,.268.06.534.175.776.115.242.283.455.491.622l2.749,2.227c.033.027.072.044.114.048.042.005.084-.002.122-.02.038-.018.07-.047.092-.083.022-.036.034-.077.034-.12v-7.354c0-.059.023-.116.065-.158.042-.042.098-.066.157-.066h1.999c.353,0,.692.142.942.394.25.252.39.594.39.95v6.234c0,.042.012.084.034.119.022.036.054.064.092.083.038.018.08.025.121.021.042-.005.081-.021.114-.048l2.749-2.227c.208-.168.375-.38.491-.622.115-.242.175-.507.175-.776v-3.232c0-.475-.187-.931-.52-1.267-.333-.336-.785-.525-1.256-.525.471,0,.922-.19,1.254-.526.332-.336.519-.791.519-1.266ZM37.552,18.339h-1.999c-.059,0-.115-.024-.157-.066-.042-.042-.065-.099-.065-.158v-4.033c0-.059.023-.116.065-.158.042-.042.098-.066.157-.066h3.109c.059,0,.115.024.157.066.042.042.065.099.065.158v2.912c0,.357-.14.698-.39.951-.25.252-.589.394-.942.394Z"/>
</svg>