<?xml version="1.0" encoding="UTF-8"?>
<svg id="Layer_1" data-name="Layer 1" xmlns="http://www.w3.org/2000/svg" viewBox="0 0 140 40">
  <defs>
    <style>
      .cls-1, .cls-2, .cls-3 {
        fill-rule: evenodd;
      }

      .cls-1, .cls-2, .cls-3, .cls-4 {
        stroke-width: 0px;
      }

      .cls-1, .cls-4 {
        fill: #0c0c4f;
      }

      .cls-2 {
        fill: #fafafa;
      }

      .cls-3 {
        fill: #ec796b;
      }
    </style>
  </defs>
  <path class="cls-1" d="M13.416,20c0,7.151,5.797,12.949,12.949,12.949s12.949-5.797,12.949-12.949-5.798-12.949-12.949-12.949-12.949,5.797-12.949,12.949Z"/>
  <path class="cls-2" d="M20.653,16.949l.32-.988c.065-.201.223-.357.425-.419l.992-.305c.137-.042.138-.236.002-.28l-.988-.32c-.2-.065-.357-.223-.419-.425l-.305-.992c-.042-.137-.236-.138-.28-.002l-.32.988c-.065.2-.223.357-.425.419l-.992.305c-.137.042-.139.236-.002.28l.988.32c.2.065.357.224.419.425l.305.992c.042.137.236.139.28.002Z"/>
  <path class="cls-3" d="M36.338,16.375c-.409-.457-1.048-.715-1.668-.821-.626-.101-1.282-.092-1.899.018-1.25.211-2.385.729-3.376,1.367-.514.313-.953.676-1.407,1.045-.219.187-.419.386-.626.582l-.568.565c-.617.645-1.225,1.233-1.814,1.72-.591.485-1.143.853-1.688,1.11-.544.258-1.126.41-1.885.435-.752.027-1.642-.109-2.594-.333-.957-.223-1.962-.541-3.085-.815.392,1.087.982,2.048,1.74,2.926.767.863,1.724,1.65,2.953,2.167,1.212.529,2.735.719,4.159.432,1.428-.275,2.681-.936,3.693-1.7,1.015-.772,1.837-1.651,2.529-2.565.191-.253.292-.394.431-.591l.382-.566c.266-.35.508-.749.771-1.096.516-.727,1.024-1.453,1.615-2.122.297-.339.611-.664.981-.976.185-.152.384-.301.605-.435.224-.145.461-.258.753-.346Z"/>
  <path class="cls-2" d="M36.338,16.375c-.439-1.109-1.257-2.043-2.353-2.731-1.09-.681-2.604-1.029-4.104-.733-.741.143-1.459.419-2.089.787-.627.366-1.189.807-1.676,1.279-.243.237-.463.485-.682.733l-.568.724-.877,1.165c-1.118,1.499-2.322,3.256-4.297,3.777-1.939.511-2.781.058-3.964-.129.216.559.485,1.101.848,1.579.357.487.778.945,1.302,1.337.265.188.544.374.855.532.309.152.642.286.998.387.707.194,1.504.262,2.275.158.772-.103,1.509-.347,2.154-.672.649-.322,1.215-.713,1.72-1.127,1.004-.834,1.785-1.755,2.445-2.686.332-.466.633-.94.912-1.415l.328-.565c.1-.165.202-.331.305-.486.415-.622.822-1.12,1.315-1.494.487-.384,1.164-.667,2.07-.733.902-.067,1.943.056,3.086.314Z"/>
  <path class="cls-3" d="M31.459,25.589c0,.814.661,1.475,1.475,1.475s1.474-.661,1.474-1.475-.66-1.475-1.474-1.475-1.475.661-1.475,1.475Z"/>
  <path class="cls-4" d="M126.584,16.379v-1.49c0-.059-.048-.107-.107-.107h-8.487c-.059,0-.107.048-.107.107v1.49h3.449v9.636h1.802v-9.636h3.449Z"/>
  <path class="cls-4" d="M109.013,14.783c-.059,0-.107.048-.107.107v11.019c0,.059.048.107.107.107h7.142c.059,0,.107-.048.107-.107v-1.474h-5.554v-3.53h4.589v-1.549h-4.589v-2.992h5.158v-1.474c0-.059-.048-.107-.107-.107h-6.746Z"/>
  <path class="cls-4" d="M104.871,25.95l.039.065h1.384c.059,0,.107-.048.107-.107v-11.019c0-.059-.048-.107-.107-.107h-1.664v7.779c-.289-.46-.624-.966-1.006-1.518-.486-.719-1.01-1.448-1.57-2.188-.549-.75-1.11-1.474-1.68-2.172-.561-.709-1.09-1.328-1.589-1.859l-.039-.042h-1.303c-.059,0-.107.048-.107.107v11.019c0,.059.048.107.107.107h1.664v-8.334c.228.269.47.566.726.893.347.442.705.915,1.073,1.42h0s0,.001,0,.001c.368.494.736,1.01,1.105,1.546h0s0,.001,0,.001c.379.537.742,1.068,1.089,1.595h0s0,.001,0,.001c.347.515.668,1.015.962,1.498h0s0,.002,0,.002c.305.484.574.921.805,1.31Z"/>
  <path class="cls-4" d="M95.16,15.007l.041-.045c.063-.069.014-.179-.079-.179h-1.973l-.04.046c-.262.304-.587.661-.977,1.071h0c-.379.4-.785.822-1.217,1.264-.432.442-.869.885-1.312,1.327-.354.346-.684.664-.991.955v-4.665h-1.695c-.059,0-.107.048-.107.107v11.019c0,.059.048.107.107.107h1.695v-5.096c.372.244.753.529,1.141.856h0s0,0,0,0c.471.387.931.811,1.382,1.272h0s.001.002.001.002c.46.45.895.926,1.303,1.429h0s0,.001,0,.001c.408.492.769.983,1.082,1.474l.039.062h1.923c.082,0,.134-.089.093-.16l-.023-.04c-.289-.502-.651-1.03-1.086-1.582-.424-.552-.88-1.092-1.368-1.622-.488-.53-.986-1.029-1.495-1.495-.461-.423-.902-.786-1.322-1.089.357-.349.736-.723,1.136-1.123.443-.443.887-.892,1.33-1.346.454-.465.887-.913,1.299-1.346h0s0-.001,0-.001c.412-.443.781-.844,1.108-1.203Z"/>
  <path class="cls-1" d="M76.58,14.699c-.059,0-.107.048-.107.107v11.11c0,.059.048.107.107.107h1.527v-4.085h2.231c.251.3.496.615.734.943h0s0,.002,0,.002c.39.512.751,1.046,1.082,1.602h0s0,.001,0,.001c.3.492.562.978.785,1.458l.036.077h1.807c.078,0,.129-.08.097-.15-.208-.455-.433-.901-.683-1.336-.34-.607-.713-1.208-1.119-1.803-.232-.34-.469-.67-.711-.991.674-.206,1.207-.579,1.593-1.12h0c.463-.655.693-1.425.693-2.304,0-.604-.105-1.157-.318-1.657-.213-.507-.535-.927-.962-1.259-.425-.333-.948-.546-1.565-.641-.144-.027-.292-.042-.445-.048-.149-.01-.28-.016-.391-.016-.468,0-.937,0-1.406,0h0c-.997,0-1.993,0-2.99,0ZM82.992,18.318c0,.292-.049.579-.146.862-.095.272-.248.51-.458.716-.2.195-.463.333-.796.411-.106.024-.219.041-.342.051h0s0,0,0,0c-.12.01-.226.015-.319.015h-2.822v-4.109h2.822c.093,0,.199.005.319.015h.003s.003,0,.003,0c.119.005.229.021.331.049h.003s.003.002.003.002c.332.072.595.21.794.409h0s0,.001,0,.001c.21.206.363.446.458.723h0s0,0,0,0c.097.278.146.562.146.854Z"/>
  <path class="cls-1" d="M72.464,24.533h0s0,0,0,0c.159.455.328.92.507,1.396l.033.087h1.808c.074,0,.126-.074.1-.144-.395-1.085-.793-2.169-1.2-3.249-.369-.992-.734-1.932-1.093-2.819-.348-.887-.697-1.732-1.046-2.535-.35-.816-.718-1.624-1.101-2.425-.018-.037-.055-.061-.096-.061h-1.442c-.041,0-.079.024-.096.061-.384.801-.752,1.609-1.101,2.425-.349.803-.702,1.648-1.061,2.534h0s0,.001,0,.001c-.348.887-.707,1.826-1.077,2.818-.407,1.081-.805,2.164-1.2,3.249-.025.07.026.144.1.144h1.731s.034,0,.034,0l.04-.043c.417-.448.884-.888,1.4-1.319h0s0,0,0,0c.518-.442,1.058-.852,1.62-1.23h.001s.001-.002.001-.002c.554-.391,1.111-.742,1.672-1.053h0s0,0,0,0c.202-.115.401-.222.596-.321l.378,1.081h0c.168.475.332.944.49,1.407ZM70.519,19.204h0s0,.002,0,.002c.152.385.305.777.457,1.176-.011.005-.023.01-.035.016-.536.244-1.112.56-1.728.946-.59.37-1.175.772-1.755,1.205l.246-.702c.325-.912.65-1.793.975-2.642.299-.766.61-1.502.934-2.21.314.707.616,1.443.905,2.209Z"/>
  <path class="cls-4" d="M64.839,16.379v-1.49c0-.059-.048-.107-.107-.107h-8.487c-.059,0-.107.048-.107.107v1.49h3.449v9.529c0,.059.048.107.107.107h1.588c.059,0,.107-.048.107-.107v-9.529h3.449Z"/>
  <path class="cls-4" d="M48.351,25.879h0c-.654-.279-1.197-.677-1.628-1.194h0s0-.001,0-.001c-.427-.524-.704-1.141-.832-1.85-.006-.035.002-.072.022-.101s.053-.049.088-.055l1.438-.227c.068-.011.133.032.15.099.175.679.534,1.206,1.08,1.588.553.379,1.206.57,1.963.57.491,0,.93-.076,1.319-.225.393-.154.698-.371.921-.647.219-.271.33-.593.33-.971,0-.235-.042-.427-.119-.581,0-.001-.001-.003-.002-.004-.075-.164-.18-.302-.315-.414-.001-.001-.003-.002-.004-.003-.136-.121-.292-.224-.468-.307-.181-.085-.369-.156-.565-.211h-.002s-2.868-.852-2.868-.852c-.319-.096-.628-.215-.926-.359h0s0,0,0,0c-.303-.151-.574-.338-.813-.561h0s0-.001,0-.001c-.242-.231-.434-.506-.576-.823h0c-.145-.329-.215-.71-.215-1.141,0-.691.178-1.287.542-1.782h0c.365-.495.856-.872,1.47-1.13.613-.258,1.301-.383,2.061-.378.77.005,1.463.144,2.076.418.618.269,1.13.657,1.535,1.164.411.508.685,1.114.824,1.816.007.035,0,.072-.021.102-.02.03-.052.05-.087.056l-1.477.258c-.035.006-.071-.002-.1-.022-.029-.021-.049-.052-.055-.087-.075-.438-.24-.809-.495-1.117v-.002c-.253-.316-.569-.558-.951-.727h-.001c-.383-.175-.804-.265-1.267-.27h0c-.443-.005-.839.065-1.19.209-.352.144-.627.342-.829.593h0c-.199.242-.298.519-.298.838,0,.316.09.56.261.745.184.194.41.35.681.468.287.118.565.215.836.291h0s2.14.617,2.14.617c.249.069.534.164.854.285.335.124.658.299.969.524.32.226.583.528.789.903.212.38.314.852.314,1.409,0,.56-.113,1.063-.343,1.506-.223.44-.536.81-.938,1.109h0c-.399.292-.862.512-1.385.662-.524.155-1.083.232-1.678.232-.812,0-1.549-.138-2.208-.417Z"/>
</svg>