<?xml version="1.0" encoding="UTF-8"?><svg id="Layer_1" xmlns="http://www.w3.org/2000/svg" viewBox="0 0 140 40"><defs><style>.cls-1{fill:#0d61ff;}</style></defs><path class="cls-1" d="m69.693,12.958h-4.582v12.399h-1.125v-12.399h-4.57v-.951h10.277v.951Zm4.234,12.596c-.847,0-1.612-.209-2.285-.626s-1.218-.998-1.589-1.74c-.383-.742-.568-1.577-.568-2.494v-.394c0-.951.186-1.809.557-2.575s.882-1.369,1.543-1.798,1.38-.661,2.146-.661c1.206,0,2.157.406,2.865,1.229s1.055,1.949,1.055,3.375v.615h-7.087v.209c0,1.125.325,2.065.963,2.807.65.754,1.461,1.125,2.436,1.125.592,0,1.102-.104,1.554-.325.452-.209.858-.557,1.229-1.032l.684.522c-.789,1.171-1.96,1.763-3.503,1.763h0Zm-.197-9.36c-.824,0-1.519.302-2.088.905s-.905,1.415-1.032,2.436h5.95v-.116c-.035-.951-.302-1.728-.812-2.331s-1.183-.893-2.018-.893h0Zm7.168,8.247h6.449v.928h-7.806v-.812l6.02-8.166h-5.834v-.951h7.214v.824l-6.043,8.177Zm8.026-4.187c0-.951.186-1.809.557-2.575.371-.766.893-1.357,1.566-1.786s1.438-.638,2.297-.638c1.322,0,2.389.464,3.213,1.392s1.229,2.157,1.229,3.688v.232c0,.963-.186,1.821-.557,2.587s-.893,1.357-1.566,1.775-1.438.626-2.297.626c-1.311,0-2.389-.464-3.213-1.392s-1.229-2.157-1.229-3.688v-.22Zm1.102.302c0,1.183.313,2.157.916,2.923.615.766,1.415,1.137,2.413,1.137.986,0,1.798-.383,2.413-1.137.615-.766.916-1.763.916-3.016v-.209c0-.754-.139-1.45-.418-2.088-.278-.626-.673-1.113-1.183-1.461s-1.09-.522-1.74-.522c-.974,0-1.775.383-2.401,1.148-.615.766-.928,1.775-.928,3.016l.012.209Zm15.972,2.285c0-.545-.22-.986-.661-1.311s-1.09-.592-1.983-.777-1.566-.406-2.053-.638c-.487-.244-.847-.534-1.079-.882s-.36-.766-.36-1.264c0-.789.325-1.427.986-1.937.65-.51,1.496-.766,2.517-.766,1.102,0,1.995.278,2.668.824s1.009,1.264,1.009,2.146h-1.102c0-.58-.244-1.067-.731-1.45s-1.102-.58-1.844-.58c-.719,0-1.299.162-1.74.476-.441.325-.661.742-.661,1.253,0,.499.186.882.545,1.148s1.032.522,1.995.754,1.682.464,2.169.719c.476.255.835.568,1.067.928s.348.8.348,1.311c0,.835-.336,1.508-1.009,2.007s-1.554.754-2.645.754c-1.16,0-2.099-.278-2.807-.835-.719-.557-1.079-1.264-1.079-2.123h1.102c.046.638.313,1.137.812,1.496s1.16.534,1.983.534c.766,0,1.38-.174,1.856-.499.464-.348.696-.777.696-1.287h0Zm-54.689,3.271c-.267-4.721-6.205-6.867-6.774-7.087-.023-.012-.023-.035-.012-.058l6.124-6.147v-.661c0-.104-.093-.197-.197-.197h-11.286v-4.814l-4.164.87v.626h.232s1.021,0,1.021,1.021v2.285h-3.224c-.058,0-.116.058-.116.116v1.45h3.352v7.876c0,2.471,1.589,4.187,4.373,3.955.592-.046,1.137-.278,1.601-.58.209-.139.336-.36.336-.615v-.777c-.905.603-1.67.568-1.67.568-1.763,0-1.728-2.239-1.728-2.239v-8.189h8.119l-5.846,5.892c-.012.777-.023,1.38-.023,1.392,0,.023.012.035.035.035,5.359.905,6.809,4.373,6.809,5.382,0,0,.58,4.906-4.326,5.243,0,0-3.213.139-3.781-1.148-.023-.046,0-.093.046-.116.534-.244.893-.719.893-1.357,0-.951-.58-1.728-1.798-1.728-.986,0-1.798.777-1.798,1.728,0,0-.464,4.129,6.426,4.013,7.864-.139,7.377-6.739,7.377-6.739Z"/></svg>