<?xml version="1.0" encoding="UTF-8"?>
<svg id="Layer_1" data-name="Layer 1" xmlns="http://www.w3.org/2000/svg" xmlns:xlink="http://www.w3.org/1999/xlink" viewBox="0 0 140 40">
  <defs>
    <style>
      .cls-1 {
        clip-path: url(#clippath);
      }

      .cls-2 {
        fill: none;
      }

      .cls-2, .cls-3, .cls-4, .cls-5 {
        stroke-width: 0px;
      }

      .cls-3 {
        fill: #000;
      }

      .cls-4 {
        fill: #0098ea;
      }

      .cls-5 {
        fill: #fff;
      }
    </style>
    <clipPath id="clippath">
      <rect class="cls-2" x="36.285" y="6.154" width="67.431" height="25.688"/>
    </clipPath>
  </defs>
  <g class="cls-1">
    <g>
      <path class="cls-4" d="M49.204,31.842c7.094,0,12.844-5.75,12.844-12.844s-5.75-12.844-12.844-12.844-12.844,5.75-12.844,12.844,5.75,12.844,12.844,12.844Z"/>
      <path class="cls-5" d="M53.59,13.323h-8.771c-1.613,0-2.635,1.74-1.824,3.146l5.413,9.383c.353.613,1.239.613,1.592,0l5.414-9.383c.81-1.404-.212-3.146-1.824-3.146h-.001ZM48.404,23.038l-1.179-2.282-2.845-5.088c-.188-.326.044-.743.437-.743h3.585v8.113h.001ZM54.026,15.667l-2.844,5.09-1.179,2.281v-8.113h3.585c.393,0,.625.417.437.743Z"/>
      <path class="cls-3" d="M70.145,26.093h2.877v-10.033h3.978v-2.733h-10.832v2.733h3.978v10.033Z"/>
      <path class="cls-3" d="M83.913,26.309c3.632,0,6.599-2.967,6.599-6.599s-2.967-6.599-6.599-6.599c-3.65,0-6.599,2.967-6.599,6.599s2.949,6.599,6.599,6.599ZM83.913,23.54c-2.086,0-3.722-1.762-3.722-3.83s1.636-3.83,3.722-3.83c2.067,0,3.704,1.762,3.704,3.83s-1.636,3.83-3.704,3.83Z"/>
      <path class="cls-3" d="M103.64,26.093v-12.766h-2.877v7.875l-6.203-7.875h-2.463v12.766h2.859v-7.893l6.221,7.893h2.463Z"/>
    </g>
  </g>
</svg>