<?xml version="1.0" encoding="UTF-8"?><svg id="Layer_1" xmlns="http://www.w3.org/2000/svg" xmlns:xlink="http://www.w3.org/1999/xlink" viewBox="0 0 140 40"><defs><style>.cls-1{fill:url(#linear-gradient);}.cls-2{fill:url(#linear-gradient-8);}.cls-3{fill:url(#linear-gradient-9);}.cls-4{fill:url(#linear-gradient-3);}.cls-5{fill:url(#linear-gradient-4);}.cls-6{fill:url(#linear-gradient-2);}.cls-7{fill:url(#linear-gradient-6);}.cls-8{fill:url(#linear-gradient-7);}.cls-9{fill:url(#linear-gradient-5);}.cls-10{fill:url(#linear-gradient-10);}.cls-11{fill:url(#linear-gradient-11);}</style><linearGradient id="linear-gradient" x1="43.482" y1="-91.951" x2="154.236" y2="-89.602" gradientTransform="translate(0 110.89)" gradientUnits="userSpaceOnUse"><stop offset="0" stop-color="#05707e"/><stop offset=".52" stop-color="#2b9297"/><stop offset="1" stop-color="#4dbbba"/></linearGradient><linearGradient id="linear-gradient-2" x1="43.484" y1="-92.112" x2="154.24" y2="-89.762" xlink:href="#linear-gradient"/><linearGradient id="linear-gradient-3" x1="43.486" y1="-92.215" x2="154.242" y2="-89.866" xlink:href="#linear-gradient"/><linearGradient id="linear-gradient-4" x1="43.49" y1="-92.371" x2="154.246" y2="-90.02" xlink:href="#linear-gradient"/><linearGradient id="linear-gradient-5" x1="43.494" y1="-92.525" x2="154.248" y2="-90.176" xlink:href="#linear-gradient"/><linearGradient id="linear-gradient-6" x1="43.498" y1="-92.735" x2="154.252" y2="-90.387" xlink:href="#linear-gradient"/><linearGradient id="linear-gradient-7" x1="43.51" y1="-93.349" x2="154.267" y2="-90.998" xlink:href="#linear-gradient"/><linearGradient id="linear-gradient-8" x1="37.51" y1="-78.951" x2="25" y2="-100.028" xlink:href="#linear-gradient"/><linearGradient id="linear-gradient-9" x1="23.257" y1="-104.457" x2="41.088" y2="-98.065" xlink:href="#linear-gradient"/><linearGradient id="linear-gradient-10" x1="37.5" y1="-95.776" x2="41.459" y2="-95.776" xlink:href="#linear-gradient"/><linearGradient id="linear-gradient-11" x1="39.43" y1="-93.576" x2="39.523" y2="-79.14" xlink:href="#linear-gradient"/></defs><g id="Layer_2"><g id="Layer_1-2"><g id="Layer_2-2"><g id="Layer_1-2-2"><path class="cls-1" d="m59.541,23.771h5.972v1.761h-9.059l6.109-10.675h-5.109v-1.765h8.197l-6.109,10.679Z"/><path class="cls-6" d="m69.577,13.092v12.44h-1.876v-12.44h1.876Z"/><path class="cls-4" d="m74.444,13.092v10.675h3.66v1.765h-5.543v-12.44h1.882Z"/><path class="cls-5" d="m81.767,13.092v10.675h3.658v1.765h-5.543v-12.44h1.884Z"/><path class="cls-9" d="m89.079,13.092v12.44h-1.876v-12.44h1.876Z"/><path class="cls-7" d="m104.734,25.762h-2.361l-.977-1c-1.033.665-2.237,1.012-3.465,1-1.622.013-3.19-.582-4.395-1.667-1.371-1.18-2.138-2.914-2.088-4.722-.043-1.774.676-3.482,1.975-4.691,2.422-2.342,6.233-2.445,8.778-.236,1.505,1.278,2.258,2.946,2.258,5.005,0,1.612-.593,3.044-1.78,4.295l2.055,2.016Zm-5.165-5.157l1.804,1.798c.795-.825,1.225-1.934,1.193-3.079.028-1.249-.452-2.456-1.33-3.344-.863-.894-2.061-1.385-3.303-1.355-1.238-.037-2.433.456-3.285,1.355-.865.896-1.297,2.032-1.297,3.408,0,1.345.446,2.444,1.338,3.297.843.846,1.988,1.322,3.182,1.322.77.011,1.529-.181,2.201-.556l-2.925-2.831,2.422-.014Z"/><path class="cls-8" d="m114.124,22.514h-5.321l-1.386,3.018h-2.022l6.158-13.224,5.939,13.224h-2.053l-1.316-3.018Zm-.766-1.765l-1.848-4.231-1.934,4.231h3.781Z"/><polygon class="cls-2" points="37.5 17.916 27.215 22.976 37.5 27.854 37.5 31.787 22.516 24.682 22.508 20.81 32.934 15.684 22.516 10.745 22.516 6.812 37.5 13.917 37.5 17.916"/><polygon class="cls-3" points="22.516 6.812 26.476 5.209 41.459 12.312 37.5 13.917 22.516 6.812"/><polygon class="cls-10" points="37.5 17.916 41.459 16.311 41.459 12.312 37.5 13.917 37.5 17.916"/><polygon class="cls-11" points="37.5 27.854 37.5 19.991 41.459 18.17 41.459 30.182 37.5 31.787 37.5 27.854"/></g></g></g></g></svg>