<?xml version="1.0" encoding="UTF-8"?><svg id="Layer_1" xmlns="http://www.w3.org/2000/svg" viewBox="0 0 140 40"><defs><style>.cls-1{fill:#4e529a;}.cls-1,.cls-2{fill-rule:evenodd;}.cls-2{fill:#8c8dfc;}</style></defs><path class="cls-1" d="m52.311,20.002l-11.17-11.158v8.172l-11.09,8.182,11.09.008v5.955l11.17-11.158Z"/><path class="cls-2" d="m12.936,19.998l11.17,11.158v-8.085l11.009-8.187-11.009-.008v-6.036l-11.17,11.158Z"/><path d="m69.505,26.573h-8.57v-2.461l4.906-5.469h-4.78v-2.419h8.359v2.335l-5.054,5.574h5.138v2.44Z"/><path d="m81.201,16.224l-4.148,4.354,4.232,5.995h-3.432l-2.737-3.954-1.158,1.22v2.734h-2.801v-15.229h2.801v8.729l3.58-3.849h3.664Z"/><path d="m93.382,15.214l-2.611.799c-.098-.533-.365-1.017-.8-1.451s-1.074-.652-1.916-.652c-.687,0-1.249.189-1.684.568-.435.365-.652.806-.652,1.325,0,.912.54,1.472,1.621,1.683l2.084.4c1.319.252,2.344.778,3.074,1.578s1.095,1.739,1.095,2.819c0,1.234-.492,2.314-1.474,3.239-.969.912-2.274,1.367-3.917,1.367-.94,0-1.79-.14-2.548-.421-.758-.28-1.369-.652-1.832-1.115-.463-.477-.828-.975-1.095-1.493-.253-.533-.407-1.08-.463-1.641l2.695-.715c.07.799.379,1.465.926,1.998.561.533,1.341.799,2.338.799.758,0,1.348-.168,1.769-.505.435-.337.652-.778.652-1.325,0-.435-.161-.806-.484-1.115-.308-.323-.751-.54-1.326-.652l-2.085-.421c-1.207-.252-2.162-.75-2.863-1.493-.702-.743-1.053-1.669-1.053-2.776,0-1.318.505-2.426,1.516-3.323,1.025-.897,2.253-1.346,3.685-1.346.857,0,1.622.119,2.295.358.673.238,1.215.561,1.621.968.407.393.723.799.948,1.22.225.421.386.862.484,1.325Z"/><path d="m98.31,30.653h-2.969l2.442-5.385-4.401-9.045h3.138l2.759,6.058,2.548-6.058h2.99l-6.506,14.43Z"/><path d="m108.682,20.62v5.953h-2.801v-10.349h2.717v1.283c.295-.505.716-.89,1.263-1.157.548-.266,1.123-.4,1.727-.4,1.221,0,2.148.386,2.78,1.157.646.757.969,1.739.969,2.945v6.521h-2.801v-6.037c0-.617-.161-1.115-.484-1.493-.309-.379-.786-.568-1.432-.568-.589,0-1.06.203-1.41.61-.351.407-.527.918-.527,1.535Z"/><path d="m122.2,18.495c-.744,0-1.369.259-1.873.778-.505.519-.759,1.227-.759,2.124s.253,1.613.759,2.145c.519.519,1.151.778,1.895.778.66,0,1.186-.168,1.58-.505.393-.351.66-.764.8-1.241l2.463.82c-.252.954-.8,1.774-1.642,2.461-.842.687-1.909,1.031-3.201,1.031-1.544,0-2.842-.519-3.895-1.556-1.039-1.052-1.558-2.363-1.558-3.933,0-1.585.512-2.896,1.537-3.933,1.039-1.038,2.317-1.557,3.832-1.557,1.32,0,2.401.344,3.243,1.031.842.673,1.383,1.493,1.621,2.461l-2.506.841c-.337-1.164-1.102-1.746-2.295-1.746Z"/></svg>