<?xml version="1.0" encoding="UTF-8"?>
<svg id="Layer_1" data-name="Layer 1" xmlns="http://www.w3.org/2000/svg" viewBox="0 0 140 40">
  <defs>
    <style>
      .cls-1 {
        fill: #ff0036;
      }
    </style>
  </defs>
  <g id="zZ0AKK.tif">
    <g>
      <path class="cls-1" d="m43.175,32.761c0-.074-.011-.147-.011-.221v-15.955c0-.252-.032-.221.231-.221h1.862c.084,0,.147.011.158.105.042.294.147.578.2.873.032.158.074.305.105.463,0,.011.011.021.021.032.063.011.084-.053.095-.084.063-.179.189-.305.294-.452.126-.168.305-.305.452-.452.158-.147.347-.231.515-.347.137-.095.316-.137.484-.189.421-.137.852-.189,1.294-.168.242.011.484.011.715.053.358.053.715.126,1.052.263.526.21.926.568,1.146,1.083.116.273.189.557.252.852.105.578.116,1.157.116,1.735.011,1.146,0,2.293,0,3.45,0,.557-.011,1.104-.126,1.651-.126.547-.294,1.073-.631,1.536-.294.4-.684.684-1.157.862-.642.252-1.315.294-1.988.242-.4-.032-.799-.137-1.157-.337-.137-.074-.284-.147-.421-.242-.21-.137-.347-.337-.484-.536-.042-.053-.011-.137-.095-.189v6.195c-.978,0-1.956,0-2.924,0Zm6.121-10.749s.011,0,0,0c.011-.452.011-.894.011-1.346,0-.316.011-.631-.032-.947-.053-.4-.358-.81-.747-.926-.231-.074-.473-.126-.726-.137-.294-.021-.578,0-.862.126-.442.189-.631.568-.81.978,0,.21-.042.421-.042.642v2.998c0,.053.021.105,0,.147-.074.137.084.263.021.389.084.158.105.326.189.484.284.536.673.894,1.304.905.273,0,.536,0,.799-.095.578-.2.873-.6.894-1.231.021-.652,0-1.325,0-1.988Z"/>
      <path d="m107.774,16.364c.074-.042.042-.126.042-.189v-2.913c0-.231-.032-.2.2-.2h2.535c.084-.011.137.011.116.105v2.998c0,.063-.032.137.032.189.021,0,.032.011.053.011h1.946c.032,0,.063-.011.095-.011.042.042.032.105.032.158v1.693q0,.147-.147.147h-1.841c-.179,0-.158-.011-.158.158v6.006c0,.305.147.515.379.684.042.032.095.011.137.032.179.042.347.021.526-.011.053,0,.105-.011.158-.011.042,0,.095.011.137-.021.316-.074.621-.168.915-.305.074-.032.158-.063.231-.095.105-.042.116-.032.147.074.084.316.168.631.263.936.063.242.137.484.2.726.021.074,0,.158.053.221v.074c-.147-.021-.252.063-.368.126-.252.147-.515.252-.789.358-.158.063-.305.147-.473.21-.326.116-.652.21-.999.231-.379.032-.747,0-1.125-.011-.21-.011-.421-.063-.631-.116-.137-.032-.284-.063-.41-.126-.494-.242-.841-.61-1.01-1.146-.116-.337-.147-.684-.179-1.041-.021-.21-.011-.431-.011-.642v-6.121c0-.242.032-.221-.21-.221h-1.42c-.126,0-.137,0-.137-.126v-1.746c0-.042-.011-.084.032-.126.557.063,1.125.063,1.683.042Z"/>
      <path class="cls-1" d="m26.178,27.66c.042-.305.158-.578.21-.862.053-.263.189-.494.179-.768.084-.116.116-.263.126-.389.032-.252.189-.463.168-.726.147-.242.158-.515.231-.778.074-.294.189-.568.221-.873.011-.105.095-.221.105-.347.032-.263.168-.494.189-.757,0-.084.053-.179.084-.273.053-.231.147-.452.189-.673.042-.242.189-.463.168-.726.147-.273.179-.589.263-.883.137-.484.263-.957.389-1.441.126-.484.273-.957.379-1.441.053-.263.179-.515.2-.789,0-.084.084-.179.095-.273.032-.284.179-.547.2-.841.011-.105.084-.21.105-.326.042-.2.137-.389.158-.589.032-.252.189-.473.168-.736.084-.105.105-.231.126-.358.032-.263.179-.484.179-.757,0-.116.042-.137.168-.137h3.26c.116,0,.147.063.168.137.074.263.126.515.2.778.074.263.147.526.21.789.147.61.326,1.21.473,1.82.074.316.147.642.242.947.231.841.442,1.704.673,2.545.21.799.41,1.599.61,2.398.231.873.463,1.746.694,2.619.221.831.421,1.672.642,2.503.095.358.168.726.284,1.073.011.032.011.074.021.105-.032.042-.074.032-.105.032h-2.661q-.158,0-.2-.168c-.095-.421-.158-.841-.284-1.252-.053-.189-.116-.379-.158-.568-.053-.263-.095-.526-.168-.789-.074-.242-.147-.484-.21-.736-.011-.063.021-.126-.021-.168-.063-.053-.147-.021-.21-.021h-3.786c-.105-.011-.137.032-.158.126-.242.968-.484,1.935-.726,2.913-.042.179-.095.358-.126.526-.021.095-.063.116-.147.116h-2.714c-.042.021-.063.021-.105.021Zm5.932-12.684h-.032c-.484,2.23-.968,4.449-1.451,6.689h2.924c-.484-2.24-.968-4.47-1.441-6.689Z"/>
      <path class="cls-1" d="m56.006,17.437c.084-.032.116-.084.158-.126.252-.263.536-.494.841-.705.231-.147.473-.242.736-.326.473-.158.957-.189,1.441-.147.242.021.484.032.715.084.41.105.81.221,1.146.494.358.294.589.652.736,1.094.242.694.284,1.409.294,2.135.011,2.514,0,5.027,0,7.541v.095c0,.063-.021.105-.095.095h-2.661c-.074.011-.095-.032-.095-.095v-7.499c0-.273-.042-.536-.116-.789-.095-.316-.379-.536-.705-.557-.063,0-.116-.042-.168-.042-.578-.084-1.062.084-1.472.494-.263.263-.452.568-.6.905-.042.105-.074.221-.095.326-.032.158-.063.326-.063.494.011,2.177,0,4.365,0,6.542,0,.242.021.221-.21.221h-2.556c-.074,0-.105-.032-.095-.095V11.327c0-.263-.032-.231.242-.231h2.524c.063,0,.095.021.095.084v6.058c0,.053,0,.116,0,.2Z"/>
      <path d="m78.409,12.073c.421.074.841.189,1.231.368.273.126.526.294.768.494.326.273.578.6.747.978.168.368.273.757.326,1.157.042.284.042.557.042.841v2.335c0,.168.011.337-.021.494-.032.147.011.316-.095.442-.042.431-.252.799-.473,1.157-.242.379-.589.663-.978.905-.316.2-.652.326-.999.421-.284.084-.578.147-.873.189-.726.084-1.451.032-2.177.042h-.189c-.084-.011-.126.021-.116.116v5.459c0,.221.021.2-.2.2h-2.524c-.221,0-.2.032-.2-.189v-15.251c0-.074-.042-.158.042-.221.063,0,.126.011.179.011h4.722c.105,0,.21.011.305.011.042.021.074.021.116.011.074.032.147.011.221.021.053.011.095.011.147.011Zm-.568,7.247c.095-.032.189-.053.273-.084.231-.095.431-.231.494-.505.042-.158.074-.316.074-.484v-2.356c0-.252-.021-.494-.116-.736-.095-.242-.252-.421-.494-.505-.147-.053-.305-.095-.473-.105-.631-.032-1.262-.011-1.893-.011h-.021c-.053,0-.074.021-.074.074v4.586c0,.063-.021.126.032.179.515,0,1.041.011,1.557.011.116,0,.231.011.347-.011.074-.032.147-.011.221-.021.021-.011.053-.011.074-.032Z"/>
      <path d="m102.831,16.123c.2.021.4.053.6.116.116.042.242.021.368.084.263.126.557.179.789.368.252.2.463.431.621.715.126.231.231.484.305.747.095.389.2.778.221,1.188.011.242.021.494.021.736v7.373c0,.273,0,.231-.231.231h-2.619c-.053,0-.084-.021-.084-.074v-7.089c0-.2.011-.41-.042-.61-.053-.252-.105-.505-.21-.736-.126-.273-.368-.41-.663-.484-.263-.063-.526-.042-.778.011-.063.011-.126.053-.179.084-.273.137-.515.316-.694.568-.105.147-.2.294-.305.442s-.137.326-.189.494c-.095.273-.084.557-.084.841v6.342c0,.242.032.221-.21.221h-2.44c-.2,0-.2.032-.2-.2v-10.886c0-.074-.021-.147.021-.21.032,0,.074.011.105.011h2.324c.032,0,.074-.011.105-.011.074.179.084.368.126.557.032.137.074.273.074.421,0,.042.032.063.063.084.042.021.074-.021.084-.053.126-.242.347-.4.526-.589.158-.179.379-.284.589-.389.221-.116.452-.158.684-.221.032,0,.063.011.084-.021.053-.011.105-.011.158-.021.053,0,.095.011.137-.021.263-.021.536-.011.799,0,.063-.011.095-.011.126-.021Z"/>
      <path d="m85.981,16.144c.368-.032.736-.032,1.104,0,.242.021.494.053.736.116.095.021.2.074.305.105.263.063.526.137.778.263.389.2.757.431,1.062.747.358.368.621.789.789,1.283.158.442.231.894.231,1.357,0,1.294.011,2.587,0,3.892,0,.294.021.6-.084.883.063.105-.053.179-.053.284,0,.095-.032.189-.074.284-.189.452-.421.873-.757,1.241-.316.337-.673.589-1.083.799-.21.105-.442.189-.673.263-.557.179-1.125.231-1.704.231-.179,0-.347-.032-.526,0-.063.011-.158-.042-.242-.053-.358-.042-.726-.074-1.062-.189-.179-.063-.368-.147-.547-.231-.252-.126-.484-.284-.705-.452-.147-.105-.316-.21-.421-.337-.147-.179-.305-.358-.421-.557-.137-.231-.263-.473-.347-.726-.137-.389-.21-.778-.221-1.188-.011-.389,0-.789,0-1.178v-3.134c0-.284.063-.557.116-.831.053-.231.137-.442.231-.652.084-.189.221-.368.347-.547.326-.473.768-.831,1.262-1.104.231-.126.473-.263.757-.284.032,0,.063-.032.095-.042.305-.084.61-.158.926-.189.074-.032.126-.021.179-.053Zm-.063,9.14c.042.032.084.021.126.021.053,0,.116.011.168.011.231.032.452.042.684,0,.179-.032.358-.063.526-.126.231-.084.442-.221.536-.452.116-.263.189-.547.179-.841-.011-1.294,0-2.587,0-3.881,0-.263-.032-.515-.116-.768-.074-.21-.21-.358-.431-.431-.631-.221-1.273-.231-1.893-.021-.473.158-.757.547-.768,1.041-.011.947-.011,1.904-.011,2.85,0,.568-.042,1.146.032,1.714.032.221.116.421.263.589.189.2.431.273.705.294Z"/>
      <path class="cls-1" d="m68.817,26.156c-.105.063-.158.168-.231.263-.273.326-.568.621-.915.873-.231.168-.473.305-.736.41-.231.095-.484.116-.736.126-.326.011-.652-.032-.978-.053-.189-.011-.368-.074-.557-.137-.463-.158-.862-.41-1.167-.799-.221-.284-.358-.6-.452-.947-.105-.4-.147-.81-.147-1.22v-2.798c0-.168,0-.179.168-.21.484-.095.968-.2,1.451-.294.421-.095.852-.179,1.273-.273.463-.095.926-.189,1.378-.284.379-.074.757-.147,1.136-.242.095-.021.126-.063.126-.158-.011-.326.021-.652-.042-.978-.021-.147-.063-.284-.137-.421-.084-.158-.2-.263-.379-.326-.379-.126-.757-.21-1.157-.126-.673.126-1.304.389-1.904.705-.179.095-.358.2-.515.316s-.158.116-.252-.074c-.21-.41-.421-.831-.621-1.241-.063-.126-.126-.242-.189-.368-.084-.168-.074-.189.074-.294.242-.179.505-.326.757-.484.494-.305,1.041-.505,1.588-.694.757-.252,1.536-.379,2.335-.273.294.032.589.095.883.168.389.095.736.231,1.062.452.305.2.568.452.736.778.126.252.273.494.337.778.116.505.2,1.01.2,1.525v7.699c.011.105-.042.126-.126.126h-1.904c-.074,0-.105-.021-.116-.095-.032-.147-.032-.294-.063-.431-.074-.294-.084-.6-.147-.905.011-.042.011-.063-.032-.095Zm-.442-3.681c-.063.011-.095.011-.126.011-.789.179-1.567.368-2.356.536-.095.021-.126.063-.126.158v1.378c0,.137.011.263.063.389.084.231.252.379.505.421.347.063.694.084,1.031-.021.642-.2,1.01-.705,1.01-1.367v-.473c0-.337,0-.673,0-1.031Z"/>
      <path class="cls-1" d="m41.545,19.467v7.962c0,.263.032.231-.242.231h-2.503c-.074,0-.105-.021-.105-.095V11.526c0-.252-.032-.221.21-.221h2.535c.095-.011.116.032.105.116v8.046Z"/>
      <path d="m95.111,16.364c.053.053.032.116.032.179v11.033c0,.063-.021.095-.084.084h-2.693c-.042,0-.063-.032-.063-.074v-11.033c0-.063-.021-.137.032-.2.042,0,.084.011.126.011h2.556c.021.011.053.011.095,0Z"/>
      <path d="m95.09,12c.053.011.042.053.042.084v2.724c0,.074-.021.105-.105.105h-2.598q-.137,0-.137-.126v-2.693c0-.042-.011-.084.042-.105.463,0,.915.011,1.378.011h1.378Z"/>
      <path class="cls-1" d="m77.631,12h-4.722c-.063,0-.126-.011-.179-.011.053,0,.105-.011.168-.011h4.502c.074.011.158,0,.231.021Z"/>
      <path class="cls-1" d="m95.09,12c-.463,0-.915.011-1.378.011s-.915,0-1.378-.011c.021,0,.053-.011.074-.011h2.619c.021,0,.042,0,.063.011Z"/>
      <path class="cls-1" d="m95.111,16.364c-.032,0-.074.011-.105.011h-2.556c-.042,0-.084-.011-.126-.011.505,0,1.02-.011,1.525-.011.41.011.841.011,1.262.011Z"/>
      <path class="cls-1" d="m99.402,16.364c-.032,0-.074.011-.105.011h-2.324c-.032,0-.074-.011-.105-.011.831-.011,1.683-.011,2.535,0Z"/>
      <path class="cls-1" d="m112.791,16.364c-.032,0-.063.011-.095.011h-1.946c-.021,0-.032-.011-.053-.011.463,0,.926-.011,1.388-.011.242.011.473.011.705.011Z"/>
      <path class="cls-1" d="m107.774,16.364c-.568.021-1.136.021-1.693,0,.568-.011,1.136-.011,1.693,0Z"/>
      <path class="cls-1" d="m111.708,25.252c-.179.032-.347.042-.526.011.179-.011.347-.011.526-.011Z"/>
      <path class="cls-1" d="m85.981,16.144c-.053.021-.116.021-.168.021.053-.021.116-.032.168-.021Z"/>
      <path class="cls-1" d="m101.937,16.112c-.042.032-.095.021-.137.021.032-.032.084-.032.137-.021Z"/>
      <path class="cls-1" d="m78.409,12.073c-.042.011-.084,0-.126-.021.042-.011.084-.011.126.021Z"/>
      <path class="cls-1" d="m112.002,25.21c-.042.032-.084.032-.137.021.042-.011.084-.021.137-.021Z"/>
      <path class="cls-1" d="m78.062,12.021c-.042.011-.084.011-.116-.011.042,0,.074-.011.116.011Z"/>
      <path class="cls-1" d="m101.632,16.144c-.021.032-.053.021-.084.021.021-.021.053-.021.084-.021Z"/>
      <path class="cls-1" d="m102.831,16.123c-.032.011-.074.011-.105-.011.042-.011.074-.011.105.011Z"/>
      <path class="cls-1" d="m75.643,19.372c.137-.021.284-.011.421-.011h1.483c-.116.021-.231.011-.347.011h-1.557Z"/>
      <path class="cls-1" d="m77.767,19.33c.021-.021.042-.021.074-.021-.021.032-.053.032-.074.021Z"/>
      <path class="cls-1" d="m86.213,25.315h.684c-.231.042-.452.042-.684,0Z"/>
      <path class="cls-1" d="m85.918,25.283c.042,0,.084,0,.126.021-.053.011-.095.011-.126-.021Z"/>
    </g>
  </g>
</svg>