<?xml version="1.0" encoding="UTF-8"?><svg id="Layer_1" xmlns="http://www.w3.org/2000/svg" viewBox="0 0 140 40"><defs><style>.cls-1{fill:#f0b90b;}</style></defs><g id="g18"><path id="path16" class="cls-1" d="m23.074,18.806l-2.345,2.343-2.343-2.343,2.343-2.343,2.345,2.343Zm5.686-5.69l4.016,4.018,2.343-2.343-6.359-6.359-6.359,6.359,2.343,2.343,4.016-4.018Zm8.033,3.347l-2.343,2.343,2.343,2.343,2.341-2.343-2.341-2.343Zm-8.033,8.033l-4.016-4.016-2.343,2.341,6.359,6.359,6.359-6.359-2.343-2.341-4.016,4.016Zm0-3.347l2.343-2.343-2.343-2.343-2.343,2.343,2.343,2.343Zm24.731.225v-.032c0-1.528-.811-2.293-2.13-2.795.811-.456,1.496-1.172,1.496-2.455v-.032c0-1.788-1.431-2.943-3.756-2.943h-5.279v11.38h5.412c2.568,0,4.261-1.04,4.261-3.122h-.004Zm-3.122-4.865c0,.845-.699,1.204-1.804,1.204h-2.305v-2.402h2.471c1.056,0,1.642.422,1.642,1.17l-.004.028Zm.634,4.553c0,.845-.667,1.235-1.774,1.235h-2.97v-2.499h2.893c1.285,0,1.855.472,1.855,1.237l-.004.028Zm7.748,3.434v-11.38h-2.512v11.38h2.512Zm13.458,0v-11.38h-2.479v7.008l-5.331-7.008h-2.309v11.38h2.471v-7.235l5.51,7.235h2.139Zm13.867,0l-4.885-11.461h-2.309l-4.875,11.461h2.552l1.044-2.552h4.812l1.04,2.552h2.621Zm-4.551-4.764h-3.033l1.512-3.689,1.52,3.689Zm16.484,4.764v-11.38h-2.479v7.008l-5.333-7.008h-2.307v11.38h2.469v-7.235l5.512,7.235h2.139Zm12.923-1.837l-1.591-1.61c-.894.811-1.691,1.332-2.992,1.332-1.95,0-3.3-1.622-3.3-3.576v-.032c0-1.95,1.382-3.543,3.3-3.543,1.137,0,2.027.487,2.911,1.283l1.587-1.837c-1.056-1.04-2.339-1.755-4.486-1.755-3.495,0-5.933,2.649-5.933,5.879v.032c0,3.268,2.487,5.852,5.836,5.852,2.191.006,3.491-.774,4.66-2.025h.008Zm10.683,1.837v-2.23h-6.187v-2.394h5.366v-2.23h-5.366v-2.299h6.098v-2.23h-8.585v11.38l8.674.002Z"/></g></svg>