<?xml version="1.0" encoding="UTF-8"?><svg id="Layer_1" xmlns="http://www.w3.org/2000/svg" viewBox="0 0 140 40"><defs><style>.cls-1,.cls-2{fill:#f0b90b;}.cls-2{fill-rule:evenodd;}</style></defs><path class="cls-1" d="m11.899,20l-2.262,2.26-2.26-2.26,2.26-2.26,2.262,2.26Zm5.485-5.489l3.874,3.876,2.26-2.26-6.134-6.134-6.134,6.134,2.26,2.26,3.874-3.876Zm7.749,3.228l-2.26,2.26,2.26,2.26,2.258-2.26-2.258-2.26Zm-7.749,7.749l-3.874-3.874-2.26,2.258,6.134,6.134,6.134-6.134-2.26-2.258-3.874,3.874Zm0-3.228l2.26-2.26-2.26-2.26-2.26,2.26,2.26,2.26Zm23.856.217v-.031c0-1.474-.782-2.212-2.053-2.696.782-.44,1.443-1.13,1.443-2.368v-.031c0-1.725-1.38-2.839-3.623-2.839h-5.094v10.978h5.221c2.478,0,4.108-1.003,4.108-3.011h-.002Zm-3.009-4.693c0,.815-.675,1.161-1.742,1.161h-2.223v-2.317h2.384c1.019,0,1.584.407,1.584,1.128l-.002.027Zm.61,4.392c0,.815-.641,1.191-1.709,1.191h-2.867v-2.411h2.79c1.24,0,1.787.456,1.787,1.193l-.002.027Zm7.474,3.312v-10.978h-2.423v10.978h2.423Zm12.982,0v-10.978h-2.391v6.76l-5.145-6.76h-2.225v10.978h2.384v-6.979l5.315,6.979h2.063Zm13.377,0l-4.713-11.056h-2.227l-4.705,11.056h2.462l1.009-2.462h4.64l1.005,2.462h2.528Zm-4.392-4.595h-2.923l1.459-3.559,1.465,3.559Zm15.903,4.595v-10.978h-2.391v6.76l-5.145-6.76h-2.227v10.978h2.384v-6.979l5.317,6.979h2.063Zm12.466-1.772l-1.537-1.553c-.863.782-1.631,1.285-2.884,1.285-1.881,0-3.184-1.564-3.184-3.449v-.031c0-1.881,1.334-3.418,3.184-3.418,1.097,0,1.955.469,2.806,1.238l1.533-1.772c-1.019-1.003-2.259-1.693-4.328-1.693-3.371,0-5.723,2.556-5.723,5.671v.031c0,3.152,2.399,5.645,5.629,5.645,2.112.006,3.367-.747,4.495-1.953h.008Zm10.303,1.772v-2.151h-5.965v-2.309h5.176v-2.151h-5.176v-2.217h5.88v-2.151h-8.279v10.978l8.364.002Z"/><path class="cls-2" d="m109.831,25.491v-1.648h1.445v1.648h-1.445Z"/><path class="cls-2" d="m122.54,20.8c0,3.201-1.836,4.863-4.581,4.863s-4.574-1.662-4.574-4.769v-6.386h1.24v6.308c0,2.368,1.253,3.702,3.357,3.702,2.024,0,3.311-1.222,3.311-3.623v-6.386h1.24l.007,6.292Z"/><path class="cls-2" d="m129.045,19.401c2.448.534,3.578,1.429,3.578,3.129,0,1.899-1.564,3.129-3.75,3.129-1.743,0-3.17-.587-4.498-1.76l.778-.915c1.145,1.036,2.243,1.553,3.766,1.553,1.474-.004,2.452-.77,2.452-1.885,0-1.036-.549-1.617-2.857-2.104-2.527-.549-3.688-1.369-3.688-3.185,0-1.76,1.524-3.011,3.61-3.011,1.408-.041,2.783.44,3.86,1.349l-.729.956c-1.02-.831-2.039-1.193-3.169-1.193-1.428,0-2.347.782-2.347,1.789.012,1.052.577,1.625,2.994,2.149Z"/></svg>