<?xml version="1.0" encoding="UTF-8"?><svg id="Layer_1" xmlns="http://www.w3.org/2000/svg" viewBox="0 0 140 40"><defs><style>.cls-1{fill:#709b30;}.cls-1,.cls-2,.cls-3{fill-rule:evenodd;}.cls-2{fill:#97c554;}.cls-3{fill:#01131d;}</style></defs><g id="Page-1"><g id="logo"><g id="logo-w-bg"><g id="logo-2"><path id="Path-1-Copy-7" class="cls-2" d="m110.931,24.368c.567.601,3.684,3.481,8.576.138,3.537-2.755,3.449-8.727,3.109-10.53-.118.262-4.227,9.26-11.685,10.392Zm11.684-10.394c-.043-.018-4.594-.638-9.093,2.259-2.794,1.799-3.163,4.433-3.035,6.188,6.54-.732,11.98-8.241,12.128-8.447Z"/><path id="Path-1-Copy-6" class="cls-1" d="m122.616,13.974c-.043-.018-4.594-.638-9.093,2.259-2.794,1.799-3.163,4.433-3.035,6.188,6.54-.732,11.98-8.241,12.128-8.447Z"/><path id="BITFINEX-Copy-2" class="cls-3" d="m24.524,24.016h-5.094v-2.713h5.094c1.274,0,1.924.609,1.924,1.398,0,.761-.637,1.315-1.924,1.315h0Zm-.166-4.167h-4.928v-2.284h4.928c1.343,0,1.869.471,1.869,1.121,0,.595-.609,1.163-1.869,1.163h0Zm1.301.692c2.146-.069,2.921-1.135,2.921-2.298,0-1.274-1.011-2.326-3.475-2.326h-7.877v9.718h8.112c2.021,0,3.53-.844,3.53-2.658,0-1.287-.844-2.381-3.212-2.436h0Zm5.811-4.624v9.718h2.201v-9.718h-2.201Zm11.127,1.841h4.845v-1.841h-11.892v1.841h4.845v7.877h2.201v-7.877Zm6.725-1.841v9.718h2.201v-3.793h5.164v-1.592h-5.164v-2.658h8.389v-1.675h-10.59Zm12.373,0v9.718h2.201v-9.718h-2.201Zm7.362,2.367l7.296,7.351h2.492v-9.718h-2.173v7.005l-7.005-7.005h-2.796v9.718h2.187v-7.351Zm12.761-2.367v9.718h10.77v-1.634h-8.569v-2.672h5.136v-1.509h-5.136v-2.229h8.569v-1.675h-10.77Zm25.511,0h-2.907l-3.71,3.419-3.682-3.419h-2.949l5.177,4.79-5.371,4.928h2.907l3.89-3.585,3.876,3.585h2.963l-5.385-4.942,5.191-4.776Z"/></g></g></g></g></svg>