<?xml version="1.0" encoding="UTF-8"?><svg id="Layer_1" xmlns="http://www.w3.org/2000/svg" viewBox="0 0 140 40"><defs><style>.cls-1{fill:#1ea2b4;}</style></defs><path class="cls-1" d="m108.535,15.664c.087,0,.173,0,.26.087.087.087.087.173.087.26v1.908c0,.087,0,.173-.087.26s-.173.087-.26.087h-1.648v7.632c0,.087,0,.173-.087.26-.087.087-.173.087-.26.087h-2.515c-.087,0-.173,0-.26-.087-.087-.087-.087-.173-.087-.26v-7.719h-1.648c-.087,0-.173,0-.26-.087-.087-.087-.087-.173-.087-.26v-1.908c0-.087,0-.173.087-.26h1.908v-2.689c0-.087,0-.173.087-.26s.173-.087.26-.087h2.515c.087,0,.173,0,.26.087.087.087.087.173.087.26v2.689h1.648Z"/><path class="cls-1" d="m101.336,20.781c0,.434-.087.781-.173,1.041-.087.173-.26.26-.607.26h-6.244c.173.607.434,1.041.867,1.301.434.26,1.041.434,1.735.434.347,0,.694,0,.954-.087.347-.087.694-.26,1.041-.52.087-.087.173-.087.26-.087s.173,0,.26.087l1.127,1.041q.087.087.087.173c0,.087,0,.173-.087.26-.52.52-1.041.867-1.735,1.214-.607.26-1.301.434-2.081.434-1.041,0-1.995-.26-2.862-.694-.781-.52-1.474-1.127-1.908-1.995-.434-.781-.694-1.735-.694-2.689s.26-1.908.694-2.689c.434-.781,1.127-1.474,1.908-1.908.781-.52,1.648-.694,2.689-.694.954,0,1.821.26,2.515.694.781.434,1.301,1.127,1.735,1.908.347.694.52,1.561.52,2.515Zm-4.857-2.515c-.52,0-1.041.173-1.388.434-.434.26-.607.694-.781,1.301h4.25c-.087-.607-.347-1.041-.694-1.301-.434-.26-.867-.434-1.388-.434Z"/><path class="cls-1" d="m89.888,15.837c.087,0,.173,0,.26.087.087.087.087.173.087.26v9.974c0,1.041-.26,1.908-.867,2.515-.52.694-1.214,1.127-2.081,1.388-.867.173-1.648.347-2.602.347-.867,0-1.735-.087-2.515-.347s-1.474-.607-1.995-.954c-.087-.087-.087-.173-.087-.26v-.173l.781-1.474c.087-.087.173-.173.26-.173h.173c.434.26.954.52,1.474.607.52.087,1.041.173,1.735.173s1.388-.173,1.908-.434c.607-.26.867-.781.867-1.474v-.954c-.781.954-1.821,1.388-3.035,1.388-.954,0-1.821-.26-2.515-.694-.781-.52-1.388-1.127-1.821-1.995-.434-.781-.607-1.735-.607-2.689s.173-1.821.607-2.689c.52-.867,1.041-1.474,1.821-1.995.781-.52,1.561-.694,2.515-.694,1.127,0,2.081.434,2.949,1.388l.087-.867c0-.173.173-.347.347-.347h2.255v.087Zm-5.204,7.545c.607,0,1.214-.26,1.648-.781.434-.52.694-1.041.694-1.735s-.26-1.214-.694-1.735-.954-.781-1.648-.781-1.214.26-1.648.694-.694,1.041-.694,1.735.173,1.301.607,1.735c.52.607,1.041.867,1.735.867Z"/><path class="cls-1" d="m78.267,15.664c.087,0,.173,0,.26.087s.087.173.087.26v1.908c0,.087,0,.173-.087.26s-.173.087-.26.087h-1.648v7.632c0,.087,0,.173-.087.26-.087.087-.173.087-.26.087h-2.515c-.087,0-.173,0-.26-.087v-7.979h-1.735c-.087,0-.173,0-.26-.087s-.087-.173-.087-.26v-1.908c0-.087,0-.173.087-.26h1.995v-2.689c0-.087,0-.173.087-.26s.173-.087.26-.087h2.515c.087,0,.173,0,.26.087s.087.173.087.26v2.689h1.561Z"/><path class="cls-1" d="m68.727,14.796c-.434,0-.867-.173-1.214-.52-.26-.347-.434-.694-.434-1.214s.173-.867.52-1.214c.26-.347.694-.52,1.127-.52s.867.173,1.214.52c.347.347.52.781.52,1.214s-.173.867-.52,1.214c-.347.347-.694.52-1.214.52Zm-1.561,1.127c0-.087,0-.173.087-.26h2.775c.087,0,.173,0,.26.087s.087.173.087.26v9.887c0,.087,0,.173-.087.26-.087.087-.173.087-.26.087h-2.515c-.087,0-.173,0-.26-.087s-.087-.173-.087-.26v-9.974Z"/><path class="cls-1" d="m63.176,18.265c.781.173,1.474.607,1.995,1.301.607.694.867,1.474.867,2.342,0,1.388-.434,2.515-1.388,3.209-.867.694-2.255,1.041-4.076,1.041h-5.117c-.087,0-.173,0-.26-.087-.087-.087-.087-.173-.087-.26v-14.137c0-.087,0-.173.087-.26,0,0,.087-.087.173-.087h5.117c.954,0,1.735.173,2.342.52.694.347,1.214.781,1.474,1.388.347.607.52,1.214.52,1.995,0,.694-.173,1.388-.52,1.908-.26.52-.694.954-1.127,1.127Zm-1.301-2.602c0-.867-.52-1.388-1.648-1.388h-1.908v2.862h1.908c.52,0,.954-.087,1.214-.347.26-.26.434-.694.434-1.127Zm-1.214,7.632c.607,0,1.127-.173,1.561-.434.347-.26.607-.781.607-1.301,0-.607-.173-1.041-.607-1.301-.347-.26-.867-.434-1.561-.434h-2.342v3.469h2.342Z"/><path class="cls-1" d="m37.158,10.026c.26-.26.607-.434.954-.434h2.515c.347,0,.52.347.26.607l-4.944,5.377h2.775l2.775,2.949h-5.551l5.551,5.984h-3.382c-.347,0-.781-.173-1.041-.434l-5.637-6.071c-.434-.52-.434-1.388.087-1.908l5.637-6.071Z"/><path class="cls-1" d="m44.876,29.974c-.26.26-.607.434-1.041.434h-2.515c-.347,0-.52-.347-.26-.607l5.03-5.377h-2.775l-2.775-2.949h5.551l-5.551-5.984h3.382c.347,0,.781.173,1.041.434l5.637,6.071c.52.52.52,1.388,0,1.908l-5.724,6.071Z"/></svg>