<?xml version="1.0" encoding="UTF-8"?><svg id="Layer_1" xmlns="http://www.w3.org/2000/svg" xmlns:xlink="http://www.w3.org/1999/xlink" viewBox="0 0 140 40"><defs><style>.cls-1{fill:url(#linear-gradient);}.cls-2{fill:#ec7000;}.cls-3{fill:#d62817;}.cls-4{fill:#433f3f;}</style><linearGradient id="linear-gradient" x1="51.206" y1="-1119.102" x2="48.676" y2="-1115.024" gradientTransform="translate(-12.24 -1098.743) scale(1 -1)" gradientUnits="userSpaceOnUse"><stop offset="0" stop-color="#d62616" stop-opacity="0"/><stop offset="1" stop-color="#d62616"/></linearGradient></defs><path class="cls-4" d="m62.568,17.058h-1.569l-2.762,9.66h3.06l2.334-8.156c.13-.35.078-.752-.143-1.063-.207-.285-.558-.454-.921-.441h0Z"/><path class="cls-4" d="m64.707,14.893c-.272.869-1.063,1.478-1.971,1.53-.622.026-1.141-.441-1.167-1.063-.013-.156.013-.324.078-.467.272-.869,1.063-1.478,1.971-1.53.376-.026.739.156.973.467.104.156.182.337.195.519.013.182-.013.363-.078.545Z"/><path class="cls-4" d="m77.22,16.54c-.609,0-1.206.117-1.764.337-.272.117-.519.272-.765.441l.7-2.464c.117-.35.078-.752-.143-1.05-.104-.143-.246-.259-.402-.337s-.337-.117-.519-.104h-1.504l-3.812,13.356h2.982l1.465-5.135c.156-.674.493-1.284.973-1.776.363-.376.869-.596,1.387-.584.415-.039.817.195.985.584.182.584.156,1.206-.052,1.776l-1.452,5.122h3.021l1.439-5.018c.441-1.206.428-2.529-.039-3.709-.467-.947-1.452-1.504-2.503-1.439h0Z"/><path class="cls-4" d="m104.412,16.514c-1.413-.026-2.801.376-3.981,1.154-.519-.778-1.4-1.206-2.334-1.141-.609,0-1.206.117-1.764.337-.324.143-.635.337-.921.558-.078-.545-.571-.934-1.115-.895h-1.491l-2.905,10.179h2.982l1.478-5.148c.156-.674.493-1.284.973-1.776.182-.182.389-.337.635-.441.233-.104.493-.156.752-.143.207-.026.415.026.584.13s.311.272.389.454c.182.584.156,1.206-.052,1.776l-1.465,5.148h3.021l1.478-5.148c.156-.661.493-1.284.973-1.776.363-.376.869-.596,1.387-.584.428-.039.817.195.985.584.182.584.156,1.206-.052,1.776l-1.478,5.148h3.021l1.439-5.044c.441-1.206.428-2.529-.039-3.709-.454-.947-1.452-1.517-2.503-1.439h0Z"/><path class="cls-4" d="m80.618,22.323l1.66-5.809h3.021l-1.66,5.809c-.493,1.712,1.115,1.712,1.115,1.712,1.024-.013,1.906-.713,2.165-1.712l1.66-5.809h2.982l-1.66,5.809c-.739,2.645-3.177,4.448-5.913,4.383,0,0-4.707.311-3.371-4.383Z"/><path class="cls-4" d="m117.223,21.675c.441-1.206.428-2.529-.039-3.709-.467-.947-1.452-1.504-2.49-1.426-.609-.013-1.206.104-1.764.337-.272.117-.519.259-.765.441l.7-2.451c.117-.35.078-.739-.143-1.05-.104-.143-.246-.259-.415-.337-.156-.078-.337-.117-.519-.104h-1.491l-2.529,8.869c-1.387,4.85,3.514,4.487,3.514,4.487,0,0,4.474.078,5.939-5.057Zm-2.995-.104c-.169.7-.506,1.349-.998,1.88-.182.195-.389.337-.635.441-.233.104-.493.156-.752.143-.428.052-.843-.195-1.011-.596-.169-.622-.117-1.284.117-1.88.156-.674.493-1.284.973-1.776.363-.376.869-.596,1.387-.584.415-.039.817.195.985.584.169.596.156,1.219-.065,1.789h0Z"/><path class="cls-4" d="m69.168,14.854c.065-.169.078-.363.052-.545s-.091-.363-.195-.519c-.207-.285-.545-.454-.895-.441h-1.556l-3.216,11.281c-.441,1.556.324,1.945,1.05,2.01.519.039,1.128.065,1.725.065.389,0,.765-.013,1.076-.026l.311-.013.687-2.412h-1.349c-.363,0-.324-.13-.298-.259l1.387-4.876h.376c.428-.013.83-.156,1.167-.415.363-.259.622-.648.752-1.076l.233-.804h-1.867l.558-1.971Z"/><path class="cls-4" d="m58.613,21.675c.441-1.206.428-2.529-.039-3.709-.467-.934-1.452-1.504-2.49-1.426-.609-.013-1.206.104-1.764.337-.272.117-.519.259-.765.441l.7-2.451c.117-.35.078-.739-.143-1.05-.104-.143-.246-.259-.402-.337s-.337-.117-.519-.104h-1.504l-2.529,8.869c-1.387,4.85,3.514,4.487,3.514,4.487,0,0,4.461.078,5.939-5.057Zm-2.995-.104c-.169.7-.506,1.349-.998,1.88-.363.376-.869.596-1.387.584-.428.052-.843-.195-1.024-.596-.169-.622-.117-1.284.117-1.88.156-.674.493-1.284.973-1.776.363-.376.869-.596,1.387-.584.415-.039.817.195.985.584.182.596.169,1.219-.052,1.789h0Z"/><path class="cls-3" d="m22.629,17.318c-.467,1.076.039,2.334,1.115,2.788.298.13.622.182.96.169h.752l2.14-7.482h-3.657l-1.31,4.525Z"/><path class="cls-2" d="m42.832,15.684c-.985-1.971-2.71-2.918-5.148-2.918h-4.538l-2.127,7.521h3.229c.519-.078,1.024.195,1.232.674.233.726.207,1.517-.065,2.243-.207.882-.635,1.699-1.245,2.373-.454.48-1.076.752-1.738.739-.545.065-1.063-.246-1.271-.752-.207-.778-.156-1.608.143-2.36l3.955-13.952c.259-.739.156-1.543-.285-2.191-.441-.609-1.167-.947-1.919-.908h-4.396l-5.213,18.374c-2.853,10.049,7.249,9.31,7.249,9.31,0,0,9.194.207,12.228-10.451.882-3.138.856-5.731-.091-7.702Z"/><path class="cls-1" d="m42.923,23.347c.895-3.112.869-5.693-.091-7.651-.985-1.958-2.71-2.892-5.148-2.892h-3.423l-2.127,7.482h2.101c.519-.078,1.024.195,1.232.661.233.726.207,1.504-.065,2.217"/></svg>