<?xml version="1.0" encoding="UTF-8"?><svg id="Layer_1" xmlns="http://www.w3.org/2000/svg" viewBox="0 0 140 40"><defs><style>.cls-1{fill:none;}.cls-2{fill:#1c1e1d;}</style></defs><g id="_编组"><path id="Fill-77" class="cls-2" d="m37.652,10.63c-1.48-1.221-3.506-1.825-6.093-1.825h-6.438v.905h6.323c2.199,0,4.182.445,5.403,1.509s2.127,2.615,2.127,4.541c0,1.868-.805,3.233-2.055,4.282s-3.521,1.509-5.777,1.509h-7.257v.905h7.315c2.716,0,4.843-.589,6.38-1.768,1.523-1.178,2.299-2.845,2.299-4.987,0-2.184-.747-3.866-2.227-5.073"/><path id="Fill-79" class="cls-2" d="m37.106,11.924c-.92-.704-1.969-1.265-4.958-1.265h-4.972v.877s2.227-.029,4.857,0c2.544.029,3.478.316,4.34.948,1.092.805,1.782,1.811,1.782,3.205,0,1.351-.69,2.299-1.796,3.118-1.121.833-2.845.833-3.55.862h-3.693v.877s1.696.029,2.759,0c2.414-.057,3.851-.201,5.188-1.193,1.25-.934,1.911-2.156,1.911-3.708,0-2.041-1.035-3.061-1.868-3.722"/><path id="Fill-80" class="cls-2" d="m36.661,13.088c-.69-.431-1.293-.719-4.153-.719h-3.578v.575h3.478c2.529,0,3.478.445,3.779.632.575.345,1.322.92,1.322,2.069,0,.733-.431,1.667-1.078,2.026-.589.331-1.667.632-3.55.632h-11.669v.575h11.698c2.285,0,3.061-.259,3.866-.704s1.351-1.365,1.351-2.529c0-1.322-.733-2.098-1.466-2.558"/></g><path id="Fill-81" class="cls-2" d="m38.931,19.454c-1.48-1.221-3.506-1.825-6.093-1.825h-4.311v.905h4.182c2.199,0,4.182.46,5.403,1.509s2.141,2.615,2.141,4.541c0,1.868-.79,3.233-2.055,4.282s-3.521,1.509-5.777,1.509h-7.257v.905h7.315c2.716,0,4.843-.589,6.38-1.768s2.299-2.845,2.299-4.987c-.014-2.17-.747-3.851-2.227-5.073"/><path id="Fill-82" class="cls-2" d="m38.385,20.747c-.92-.69-1.969-1.265-4.958-1.265h-6.754v.877s4.009-.029,6.639,0c2.544.029,3.478.316,4.34.948,1.092.805,1.782,1.811,1.782,3.205,0,1.351-.69,2.299-1.796,3.118-1.121.833-2.845.833-3.55.862h-3.693v.877s1.71.029,2.759,0c2.414-.057,3.851-.201,5.188-1.193,1.25-.934,1.911-2.156,1.911-3.708,0-2.026-1.02-3.061-1.868-3.722"/><polygon id="Fill-83" class="cls-2" points="28.11 23.736 34.447 23.736 34.447 23.248 28.11 23.248 28.11 23.736"/><polygon id="Fill-84" class="cls-2" points="30.726 25.446 34.404 25.446 34.404 25.03 30.726 25.03 30.726 25.446"/><polygon id="Fill-85" class="cls-2" points="25.164 23.736 27.032 23.736 27.032 23.248 25.164 23.248 25.164 23.736"/><polygon id="Fill-86" class="cls-2" points="23.986 25.475 29.691 25.475 29.691 24.987 23.986 24.987 23.986 25.475"/><polygon id="Fill-87" class="cls-2" points="25.394 12.901 27.622 12.901 27.622 12.499 25.394 12.499 25.394 12.901"/><polygon id="Fill-88" class="cls-2" points="23.856 16.177 28.929 16.177 28.929 15.718 23.856 15.718 23.856 16.177"/><polygon id="Fill-89" class="cls-2" points="23.986 29.312 29.346 29.312 29.346 28.737 23.986 28.737 23.986 29.312"/><polygon id="Fill-90" class="cls-2" points="22.664 31.223 24 31.223 24 30.375 22.664 30.375 22.664 31.223"/><polygon id="Fill-91" class="cls-2" points="25.998 14.74 34.419 14.74 34.419 14.281 25.998 14.281 25.998 14.74"/><polygon id="Fill-92" class="cls-2" points="30.208 16.177 34.261 16.177 34.261 15.718 30.208 15.718 30.208 16.177"/><path id="Fill-93" class="cls-2" d="m37.939,21.997c-.69-.417-1.293-.704-4.153-.704h-4.541v.56h4.455c2.529,0,3.492.431,3.779.604.56.331,1.322.877,1.322,1.997,0,.719-.431,1.609-1.078,1.954-.589.316-1.667.604-3.55.604h-11.683v.56h11.698c2.285,0,3.061-.244,3.866-.675s1.336-1.308,1.336-2.443c.014-1.25-.719-1.997-1.451-2.457"/><path id="Fill-94" class="cls-2" d="m49.924,20.747v5.13h2.802c1.207,0,2.156-.23,2.817-.69.647-.417,1.02-1.135,1.006-1.911,0-1.681-1.423-2.529-4.254-2.529h-2.371Zm0-6.107v4.599h2.112c1.135,0,2.012-.216,2.659-.661.632-.402,1.006-1.121.977-1.868,0-1.38-1.121-2.084-3.377-2.084l-2.371.014Zm-2.069,12.747v-14.255h5.015c1.523,0,2.73.302,3.621.905s1.336,1.394,1.336,2.357c.014.776-.273,1.538-.805,2.112-.546.604-1.279,1.02-2.227,1.279v.043c1.193.115,2.141.474,2.845,1.092.704.589,1.092,1.466,1.063,2.385,0,1.221-.546,2.199-1.624,2.96-1.078.762-2.443,1.135-4.096,1.135h-5.13v-.014Z"/><path id="Fill-95" class="cls-2" d="m61.004,27.386h2.012v-10.174h-2.012v10.174Zm1.02-12.775c-.331.014-.661-.101-.92-.302-.244-.172-.388-.46-.374-.747,0-.302.144-.589.374-.762.259-.201.589-.316.92-.302.345-.014.675.101.934.302.417.302.503.877.216,1.293-.057.086-.129.158-.216.216-.259.216-.589.316-.934.302h0Z"/><path id="Fill-96" class="cls-2" d="m71.911,27.286c-.474.216-1.107.316-1.883.316-2.199,0-3.305-.992-3.305-2.989v-6.021h-2.156v-1.394h2.156v-2.486l2.012-.532v3.018h3.162v1.394h-3.162v5.734c0,.675.144,1.164.431,1.466s.762.431,1.423.431c.46.014.92-.101,1.308-.345l.014,1.408"/><path id="Fill-97" class="cls-2" d="m90.205,27.386h-1.883v-8.795c.014-.848.057-1.71.158-2.558h-.043c-.115.431-.287.862-.489,1.265l-5.533,10.074h-.934l-5.518-10.002c-.216-.431-.374-.877-.489-1.351h-.043c.072.848.101,1.71.086,2.572v8.78h-1.825v-13.106h2.515l4.972,9.14c.287.503.546,1.035.747,1.581h.072c.331-.719.589-1.25.776-1.609l5.073-9.111h2.371v13.12"/><path id="Fill-98" class="cls-2" d="m100.437,22.227l-3.032.345c-.934.101-1.638.287-2.112.56s-.719.747-.719,1.423c0,.489.244.948.661,1.221.431.316,1.02.474,1.753.474,1.006,0,1.825-.287,2.472-.848.632-.532.992-1.322.977-2.156v-1.02Zm2.012,5.159h-2.012v-1.595h-.043c-.877,1.221-2.17,1.825-3.866,1.825-1.25,0-2.227-.273-2.946-.805-.69-.489-1.078-1.293-1.063-2.141,0-1.897,1.38-3.003,4.153-3.32l3.765-.431c0-1.724-.862-2.587-2.587-2.587-1.466-.014-2.888.417-4.096,1.25v-1.667c1.236-.632,2.659-.948,4.268-.948,2.96,0,4.426,1.265,4.426,3.794v6.625h0Z"/><path id="Fill-99" class="cls-2" d="m111.789,18.85c-.359-.216-.862-.331-1.523-.331-.833-.014-1.624.345-2.156.992-.575.661-.862,1.552-.862,2.687v5.188h-2.012v-10.174h2.012v2.098h.043c.259-.675.719-1.265,1.322-1.681.575-.402,1.265-.604,1.983-.604.402-.014.819.029,1.207.144l-.014,1.681"/><path id="Fill-100" class="cls-2" d="m118.802,27.286c-.474.216-1.107.316-1.883.316-2.199,0-3.305-.992-3.305-2.989v-6.021h-2.156v-1.394h2.156v-2.486l2.012-.532v3.018h3.162v1.394h-3.162v5.734c0,.675.144,1.164.431,1.466s.762.431,1.423.431c.46.014.92-.101,1.308-.345l.014,1.408"/><rect class="cls-1" x="18.482" y="5.055" width="103.036" height="29.891"/></svg>