<?xml version="1.0" encoding="UTF-8"?><svg id="Layer_1" xmlns="http://www.w3.org/2000/svg" viewBox="0 0 140 40"><path d="m47.274,24.21c0-.224-.179-.392-.403-.381-.358.022-.885.034-1.232.034-2.116,0-3.83-1.724-3.83-3.852v-9.182c0-.078-.056-.134-.134-.134h-5.185c-.045,0-.09.034-.09.09v9.227c.011,5.129,4.143,9.294,9.249,9.294.515,0,1.019-.045,1.512-.123.067-.011.112-.067.112-.134v-4.837Zm-1.612-13.516c-.515,0-1.03.045-1.523.134-.067.011-.112.067-.112.134v4.849c0,.213.179.414.392.392s1.232-.034,1.232-.034c2.116,0,3.83,1.724,3.83,3.852h.011v8.376c0,.034.034.056.067.045,3.169-1.478,5.364-4.703,5.364-8.443-.011-5.14-4.154-9.305-9.261-9.305Zm53.335,5.364c-3.415,0-4.916,2.318-4.916,5.465,0,3.091,1.803,4.949,4.614,4.949,3.415,0,4.905-2.284,4.905-5.386-.011-3.113-1.769-5.028-4.602-5.028Zm1.142,7.76c-.381.258-.795.403-1.377.403-1.142,0-1.836-.985-1.836-2.755,0-.985.202-1.859.526-2.318.381-.291.817-.437,1.377-.437,1.221,0,1.814,1.008,1.814,2.464,0,1.086-.179,2.06-.504,2.643Zm-10.705-3.527c-1.489-.258-1.836-.437-1.836-.896,0-.224.078-.414.179-.549.381-.123.963-.202,1.556-.202,1.176,0,2.228.179,3.102.459v-2.374c-.672-.347-1.78-.672-3.326-.672-2.609,0-4.244,1.243-4.244,3.359,0,2.027,1.198,2.643,3.393,3.046,1.612.314,1.96.47,1.96.963,0,.224-.056.381-.146.493-.403.146-.963.235-1.78.235-1.086,0-2.374-.235-3.158-.515v2.318c.817.325,2.105.493,3.247.493,2.777,0,4.58-.873,4.58-3.124.011-1.904-1.165-2.598-3.527-3.035Zm-21.086-.47c.929-.549,1.724-1.445,1.724-2.721,0-2.172-1.668-3.326-5.151-3.326h-5.005v12.508h5.823c3.102,0,4.681-1.187,4.681-3.539-.011-1.579-.918-2.452-2.072-2.923Zm-5.397-3.65c.493-.022,1.086-.034,1.78-.034,1.601,0,2.307.47,2.307,1.512,0,.582-.213,1.008-.761,1.389-.414.09-.907.146-1.489.146-.694,0-1.344-.022-1.836-.034v-2.979h0Zm3.886,7.917c-.403.112-1.075.146-1.635.146-.929,0-1.702-.022-2.251-.034v-2.9h2.161c1.556,0,2.217.459,2.217,1.501,0,.504-.179.929-.493,1.288Zm5.599,2.195h2.945v-10.044h-2.945v10.044Zm8.365-12.53l-2.811.224v9.473c0,1.859.851,2.99,3.001,2.99.907,0,1.635-.168,2.251-.437v-2.318c-.605.224-1.131.325-1.691.325-.493,0-.739-.269-.739-.728v-4.714h2.374v-2.34h-2.385v-2.475Zm-5.42.773v-2.497l-2.945.224v2.284h2.945v-.011Z"/></svg>