<?xml version="1.0" encoding="UTF-8"?><svg id="Layer_1" xmlns="http://www.w3.org/2000/svg" viewBox="0 0 140 40"><defs><style>.cls-1{fill:#0171ef;}.cls-2{fill:#0371ee;}.cls-3{fill:#f5fbfd;}.cls-4{fill:#223442;}.cls-5{fill:#2f67a7;}</style></defs><path class="cls-1" d="m120.992,22.427c.051.097.034.201.034.303,0,3.017,0,6.033,0,9.05,0,.073-.011.146-.017.219H50.191v-9.534c.206-.059.383-.034.559-.034,16.919-.001,33.837,0,50.756-.001,6.496,0,12.992-.002,19.487-.003Zm-22.539,2.143c-.143.043-.098.164-.098.258-.003,1.59-.002,3.179,0,4.769,0,.096-.04.212.09.267.064.079.154.075.243.075,1.165,0,2.331-.001,3.496-.005.04,0,.08-.027.136-.046.021-.317.055-.632-.033-.992h-2.644v-4.353c-.426.015-.808-.024-1.189.027Zm-21.098,5.298c.034.028.067.056.101.084.038.112.135.094.219.094,1.087,0,2.174,0,3.261,0,.085,0,.181.018.218-.095.172-.332.078-.669.053-1.054h-2.658v-4.33h-1.185c-.138.048-.095.167-.095.261-.002,1.589-.002,3.179,0,4.768,0,.097-.037.211.086.272Zm9.923.001c.065.079.156.071.244.071,1.018,0,2.036.005,3.053-.004.204-.002.414-.033.611-.087.54-.148.919-.604.97-1.138.073-.765-.118-1.167-.702-1.477-.07-.037-.188-.017-.181-.148.662-.366.738-1.141.586-1.655-.158-.536-.643-.869-1.342-.876-1.076-.011-2.153.006-3.229.011-.139.047-.096.166-.097.261-.002,1.59-.002,3.181,0,4.771,0,.097-.036.212.088.271Zm-10.731-3.035h-2.603c-.042.319-.04.608-.004.909.51.123,1.031-.03,1.515.088.168.54-.14.926-.64,1.127-.174.07-.376.108-.563.101-.87-.034-1.268-.282-1.403-1.095-.077-.466-.061-.944-.002-1.414.077-.611.405-.965,1.012-1.063.705-.113,1.272.023,1.594.906.356.003.719.053,1.112-.038-.091-.734-.347-1.326-1.048-1.64-.657-.294-1.344-.32-2.037-.189-1.057.199-1.695.829-1.847,1.871-.087.597-.075,1.203.039,1.806.217,1.142.958,1.628,1.875,1.772.732.115,1.402-.001,1.999-.452.08.134.024.293.164.395h.835c0-1.032,0-2.044,0-3.085Zm7.437-2.359c-.162,0-.325-.012-.486.002-1.121.098-1.853.672-2.095,1.706-.177.754-.162,1.522.048,2.274.238.856.823,1.329,1.682,1.489.618.115,1.229.092,1.839-.066.664-.171,1.113-.574,1.348-1.215.314-.858.315-1.741.109-2.613-.198-.836-.767-1.329-1.611-1.505-.276-.058-.552-.092-.833-.073Zm13.964,5.43c-.666-1.822-1.31-3.584-1.954-5.344h-1.512c-.688,1.779-1.373,3.554-2.072,5.362.446.019.825.041,1.198-.011.226-.399.264-.861.522-1.215h2.122c.218.407.268.862.516,1.231.383.01.747.036,1.179-.024Z"/><path class="cls-2" d="m18.99,31.998c-.005-.133-.014-.265-.014-.398,0-5.405,0-10.809,0-16.214,0-.144-.03-.293.042-.458h17.118v6.956h3.867v-10.803h-10.846v1.877h-3.146v-5.031h17.13v17.119h-17.158v-6.96h-3.821v10.824h10.814v-1.862h3.124c.017.028.045.052.045.077.01,1.624.03,3.247-.009,4.871-5.715,0-11.43.001-17.145.002Zm10.173-10.11h3.793v-3.795h-3.793v3.795Z"/><path class="cls-4" d="m58.244,13.168c.095.053.145.086.199.109,1.202.533,1.683,1.365,1.592,2.864-.123,2.023-1.622,2.782-3.181,2.817-1.593.036-3.187.01-4.781.01-.677,0-1.355,0-2.064,0V7.938c.086-.082.21-.04.322-.04,1.977-.003,3.955,0,5.932-.003.431,0,.852.058,1.266.171,1.509.412,2.099,1.527,1.989,2.972-.034.442-.141.871-.363,1.265-.209.372-.509.645-.912.865Zm-5.664,3.585c1.235,0,2.427.004,3.618-.005.173-.001.351-.048.516-.104.198-.068.357-.195.457-.392.4-.787-.07-1.642-.949-1.715-.088-.007-.176-.01-.265-.01-1.03,0-2.061-.002-3.091,0-.097,0-.209-.034-.286.074,0,.699,0,1.402,0,2.151Zm.004-4.357c1.113,0,2.199.013,3.285-.007.359-.006.633-.207.789-.551.416-.915-.07-1.726-1.064-1.741-.927-.014-1.855-.004-2.783-.004-.071,0-.147-.01-.227.062v2.241Z"/><path class="cls-4" d="m88.483,7.896h2.105c1.343,0,2.685.004,4.028-.002.371-.002.739.029,1.098.112,1.113.259,1.801.967,2.069,2.066.195.799.177,1.609-.01,2.412-.198.847-.689,1.45-1.549,1.787.841,1.559,1.668,3.094,2.519,4.671h-2.979c-.682-1.356-1.376-2.735-2.079-4.132h-2.59v4.13h-2.612c0-3.657,0-7.323,0-11.044Zm2.621,4.684c1.133,0,2.234.001,3.335-.002.086,0,.172-.036.258-.054.331-.068.502-.282.551-.606.049-.323.041-.645.008-.969-.035-.346-.22-.56-.544-.678-.214-.078-.433-.081-.653-.082-.795-.002-1.59-.001-2.385-.001h-.571c0,.812,0,1.575,0,2.392Z"/><path class="cls-4" d="m108.978,18.96h-8.532V7.923h8.467v2.267h-5.846v2.043h5.622v2.355h-5.626v2.056h5.915c0,.792,0,1.536,0,2.316Z"/><path class="cls-4" d="m121.027,18.958h-3.097c-.781-1.158-1.562-2.317-2.388-3.541-.838,1.202-1.65,2.367-2.465,3.537h-3.037c1.36-1.875,2.697-3.717,4.05-5.582-1.263-1.811-2.516-3.608-3.799-5.448h3.123c2.417,3.698,5.035,7.311,7.613,11.034Z"/><path class="cls-4" d="m72.654,18.955h-2.708v-8.76h-3.481v-2.272h9.671v2.254h-3.482c0,2.94,0,5.838,0,8.778Z"/><path class="cls-4" d="m77.117,10.191v-2.266h9.698v2.256h-3.496v8.756h-2.691v-8.746c-1.184,0-2.328,0-3.511,0Z"/><path class="cls-4" d="m64.775,18.958h-2.628V7.927h2.628v11.031Z"/><path class="cls-5" d="m120.992,22.427c-6.496.001-12.992.003-19.487.003-16.919,0-33.837,0-50.756.001-.175,0-.353-.025-.559.034v9.534h70.819c-.008.074-.06.09-.122.091-.148.001-.295.002-.443.002-23.282,0-46.564,0-69.845-.001-.176,0-.354.025-.555-.034v-9.644c.163-.095.343-.051.514-.051,10.275-.002,20.551-.002,30.826-.002,13.036,0,26.072,0,39.108.003.166,0,.348-.064.5.063Z"/><path class="cls-2" d="m121.006,11.29h-1.903v-1.466h-1.465v-1.902h3.368v3.369Z"/><path class="cls-5" d="m18.99,31.998c5.715,0,11.43-.001,17.145-.002-.088.191-.258.09-.385.092-.856.01-1.711.005-2.567.005-4.588,0-9.176.001-13.763-.006-.141,0-.321.098-.43-.089Z"/><path class="cls-3" d="m87.288,24.566c1.076-.005,2.153-.022,3.229-.011.7.007,1.184.34,1.342.876.152.514.076,1.289-.586,1.655-.006.131.111.111.181.148.584.311.775.712.702,1.477-.051.533-.429.99-.97,1.138-.197.054-.407.085-.611.087-1.018.009-2.036.004-3.053.004-.088,0-.179.008-.244-.071.003-1.768.006-3.535.009-5.303Zm1.174,3.161v1.248c.64,0,1.255.017,1.869-.006.423-.016.595-.22.595-.606,0-.418-.179-.619-.618-.632-.602-.017-1.204-.004-1.846-.004Zm.024-2.246c-.08.258-.048.466-.046.669.003.201-.045.41.051.634.546,0,1.091.012,1.634-.004.349-.011.548-.243.574-.608.022-.305-.168-.594-.474-.648-.582-.103-1.168-.037-1.739-.043Z"/><path class="cls-3" d="m76.548,26.834v3.085h-.835c-.14-.102-.084-.261-.164-.395-.597.45-1.268.567-1.999.452-.917-.144-1.658-.631-1.875-1.772-.115-.603-.126-1.209-.039-1.806.152-1.042.789-1.672,1.847-1.871.692-.131,1.379-.105,2.037.189.701.314.956.906,1.048,1.64-.393.091-.756.041-1.112.038-.321-.883-.888-1.019-1.594-.906-.607.098-.935.452-1.012,1.063-.06.47-.076.948.002,1.414.135.813.533,1.062,1.403,1.095.187.007.389-.031.563-.101.5-.202.808-.587.64-1.127-.484-.119-1.005.035-1.515-.088-.036-.301-.038-.59.004-.909.864,0,1.713,0,2.603,0Z"/><path class="cls-3" d="m83.984,24.475c.281-.019.557.015.833.073.844.176,1.414.67,1.611,1.505.206.871.205,1.754-.109,2.613-.234.641-.683,1.044-1.348,1.215-.61.157-1.221.18-1.839.066-.86-.16-1.444-.633-1.682-1.489-.209-.752-.225-1.52-.048-2.274.242-1.034.974-1.608,2.095-1.706.161-.014.324-.002.486-.002Zm1.368,2.704c-.009-.219-.024-.509-.087-.801-.111-.513-.44-.786-.92-.898-.288-.067-.586-.063-.877.007-.438.105-.729.373-.846.812-.162.61-.181,1.227-.009,1.834.139.49.453.807.993.875.239.03.468.025.701-.013.483-.079.793-.352.935-.822.09-.3.108-.608.109-.994Z"/><path class="cls-3" d="m97.948,29.905c-.432.06-.796.034-1.179.024-.247-.369-.297-.824-.516-1.231h-2.122c-.258.354-.297.815-.522,1.215-.373.053-.752.03-1.198.011.699-1.809,1.385-3.583,2.072-5.362h1.512c.644,1.76,1.288,3.522,1.954,5.344Zm-2.047-2.253c-.231-.667-.446-1.289-.686-1.981-.253.702-.477,1.322-.715,1.981h1.401Z"/><path class="cls-3" d="m77.365,24.567h1.185v4.33h2.658c.025.385.118.722-.053,1.054-1.233,0-2.466,0-3.698.001-.034-.028-.067-.056-.101-.084.003-1.767.006-3.534.01-5.302Z"/><path class="cls-3" d="m98.454,24.571c.382-.051.763-.012,1.189-.027v4.353h2.644c.088.36.054.675.033.992-.055.02-.095.046-.136.046-1.165.003-2.331.004-3.496.005-.088,0-.179.004-.243-.075.003-1.765.005-3.529.008-5.294Z"/><path class="cls-5" d="m98.454,24.571c-.003,1.765-.005,3.529-.008,5.294-.13-.055-.09-.172-.09-.267-.002-1.59-.002-3.179,0-4.769,0-.093-.046-.214.098-.257Z"/><path class="cls-5" d="m87.288,24.566c-.003,1.768-.006,3.535-.009,5.303-.124-.06-.087-.174-.088-.271-.002-1.59-.002-3.181,0-4.771,0-.094-.042-.214.096-.261Z"/><path class="cls-5" d="m77.365,24.567c-.003,1.767-.006,3.534-.01,5.302-.123-.06-.086-.175-.086-.272-.002-1.589-.002-3.179,0-4.768,0-.094-.043-.213.095-.261Z"/><path class="cls-5" d="m77.457,29.952c1.233,0,2.466,0,3.698-.001-.037.114-.133.095-.218.095-1.087,0-2.174,0-3.261,0-.085,0-.181.018-.219-.094Z"/><path class="cls-2" d="m88.462,27.727c.641,0,1.244-.013,1.846.004.439.012.617.214.618.632,0,.387-.172.591-.595.606-.614.023-1.229.006-1.869.006v-1.248Z"/><path class="cls-2" d="m88.486,25.481c.571.006,1.157-.06,1.739.043.307.054.496.343.474.648-.026.365-.225.597-.574.608-.543.017-1.088.004-1.634.004-.096-.224-.049-.432-.051-.634-.003-.204-.034-.412.046-.669Z"/><path class="cls-2" d="m85.352,27.179c-.001.386-.019.693-.109.994-.141.47-.452.743-.935.822-.233.038-.462.043-.701.013-.54-.068-.855-.385-.993-.875-.172-.607-.153-1.224.009-1.834.117-.439.407-.707.846-.812.291-.07.588-.074.877-.007.48.112.809.385.92.898.063.292.079.582.087.801Z"/><path class="cls-2" d="m95.901,27.651h-1.401c.238-.659.461-1.279.715-1.981.24.692.455,1.315.686,1.981Z"/></svg>