<?xml version="1.0" encoding="UTF-8"?><svg id="Layer_1" xmlns="http://www.w3.org/2000/svg" viewBox="0 0 140 40"><path d="m34.982,17.04c-2.045-1.663-4.199-2.435-6.938-2.825-2.462-.351-3.95-.842-6.115-2.355l-1.3,1.964c1.935,1.452,3.752,2.174,6.203,2.605,1.737.301,3.097.32,4.903,1.292-.357.471-.685,1.152-.873,1.613-.903-.541-2.233-.951-4.011-.972v2.335c.864.039,1.638.14,2.68.601,1.27.561,2.164,1.392,2.164,1.392,1.012-3.596,3.286-5.65,3.286-5.65Zm10.68-.561c2.64-.38,4.536-1.202,6.472-2.655l-1.3-1.964c-2.164,1.513-3.653,2.004-6.115,2.355-2.739.39-4.992,1.222-7.037,2.885-3.176,2.535-4.666,6.252-4.666,9.998v1.173h6.501v-1.173c-.03-3.445,2.551-5.119,2.551-5.119.923-.631,2.303-1.333,3.852-1.272v-2.334c-1.737-.02-3.533.541-5.231,1.723-1.866,1.402-3.037,3.506-3.345,5.83h-1.916c1.052-8.475,8.765-9.236,10.234-9.447Zm20.805,3.176c1.359-.791,2.045-1.943,2.045-3.446,0-1.142-.476-2.184-1.34-2.915-.913-.771-2.194-1.182-3.702-1.182h-5.985v16.259h6.352c1.688,0,3.107-.441,4.09-1.292.982-.842,1.508-2.023,1.508-3.436,0-2.133-1.528-3.556-2.967-3.987h0Zm-6.74-5.55h3.941c1.767,0,2.71.852,2.71,2.455s-.933,2.455-2.71,2.455h-3.941v-4.909Zm4.705,12.172h-4.705v-5.28h4.705c1.816,0,2.868.962,2.868,2.635,0,1.683-1.052,2.645-2.868,2.645Zm14.958-1.743c-.963,1.423-2.184,2.204-3.414,2.204-1.489,0-2.313-.841-2.313-2.364v-7.644h-2.074v8.014c0,1.172.337,2.144.982,2.805.655.681,1.638,1.042,2.829,1.042,1.737,0,3.226-.902,3.99-1.703v1.483h2.065v-11.631h-2.065v7.794Zm4.814,3.837h2.025V11.41h-2.025v16.961Zm18.978-6.912c-1.935-.521-2.988-.972-2.988-1.854,0-.621.606-1.292,1.925-1.292,1.3,0,2.134.681,2.292,1.873v.02h2.045v-.03c-.198-2.345-1.786-3.687-4.337-3.687-1.092,0-2.094.331-2.819.932-.704.581-1.092,1.373-1.092,2.214,0,1.753,1.013,2.754,3.395,3.356,2.223.571,3.285,1.032,3.285,2.064,0,.781-.714,1.623-2.292,1.623-1.618,0-2.501-.611-2.839-1.973v-.02h-1.955v.03c.228,2.424,2.004,3.867,4.754,3.867,1.27,0,2.362-.371,3.166-1.082.774-.682,1.191-1.643,1.191-2.695,0-1.653-1.082-2.624-3.732-3.345h0Zm12.248-4.949c-1.717,0-3.305.842-4.129,1.703v-6.792h-2.065v16.951h2.065v-7.934c.884-1.252,2.283-2.064,3.553-2.064,1.539,0,2.452.881,2.452,2.364v7.634h2.065v-8.014c0-2.374-1.509-3.847-3.941-3.847h0Zm-20.586-4.308c-.774,0-1.4.631-1.4,1.412s.625,1.413,1.4,1.413,1.4-.631,1.4-1.413c.01-.781-.625-1.412-1.4-1.412Zm-5.866,16.169h2.025V11.41h-2.025v16.961Zm4.834,0h2.065v-11.631h-2.065v11.631Z"/></svg>