<?xml version="1.0" encoding="UTF-8"?><svg id="Layer_1" xmlns="http://www.w3.org/2000/svg" viewBox="0 0 140 40"><defs><style>.cls-1{fill:#f7a600;}</style></defs><path class="cls-1" d="m83.582,25.766V9.359h3.298v16.407h-3.298Z"/><path d="m45.148,30.64h-7.07V14.233h6.786c3.298,0,5.219,1.797,5.219,4.609,0,1.82-1.234,2.996-2.088,3.388,1.02.461,2.325,1.497,2.325,3.688,0,3.064-2.158,4.723-5.172,4.723Zm-.545-13.549h-3.227v3.779h3.227c1.4,0,2.183-.761,2.183-1.89s-.783-1.889-2.183-1.889Zm.213,6.66h-3.44v4.033h3.44c1.495,0,2.206-.921,2.206-2.028s-.712-2.004-2.206-2.004Z"/><path d="m60.378,23.911v6.729h-3.275v-6.729l-5.077-9.678h3.582l3.156,6.613,3.108-6.613h3.582l-5.076,9.678Z"/><path d="m74.804,30.64h-7.07V14.233h6.786c3.298,0,5.219,1.797,5.219,4.609,0,1.82-1.234,2.996-2.088,3.388,1.02.461,2.325,1.497,2.325,3.688,0,3.064-2.158,4.723-5.172,4.723Zm-.545-13.549h-3.227v3.779h3.227c1.4,0,2.183-.761,2.183-1.89s-.783-1.889-2.183-1.889Zm.213,6.66h-3.44v4.033h3.44c1.495,0,2.206-.921,2.206-2.028s-.711-2.004-2.206-2.004Z"/><path d="m97.509,17.091v13.55h-3.298v-13.55h-4.413v-2.858h12.124v2.858h-4.413Z"/></svg>