<?xml version="1.0" encoding="UTF-8"?><svg id="Layer_1" xmlns="http://www.w3.org/2000/svg" viewBox="0 0 140 40"><defs><style>.cls-1{fill:#0052ff;}</style></defs><path class="cls-1" d="m42.4,16.349c-3.363,0-5.99,2.553-5.99,5.97s2.561,5.948,5.99,5.948,6.035-2.575,6.035-5.97c0-3.374-2.561-5.948-6.035-5.948Zm.023,9.455c-1.915,0-3.318-1.487-3.318-3.485,0-2.02,1.381-3.506,3.295-3.506,1.938,0,3.34,1.509,3.34,3.506s-1.402,3.485-3.317,3.485Zm6.746-6.858h1.67v9.1h2.672v-11.475h-4.342v2.375Zm-19.484-.134c1.403,0,2.517.865,2.939,2.153h2.828c-.513-2.752-2.784-4.616-5.745-4.616-3.363,0-5.99,2.553-5.99,5.971s2.561,5.948,5.99,5.948c2.895,0,5.21-1.865,5.723-4.639h-2.806c-.401,1.287-1.514,2.175-2.917,2.175-1.938,0-3.295-1.487-3.295-3.485,0-2.02,1.337-3.507,3.274-3.507Zm70.253,2.397l-1.959-.288c-.935-.133-1.603-.444-1.603-1.176,0-.799.869-1.198,2.049-1.198,1.291,0,2.116.555,2.294,1.465h2.583c-.29-2.308-2.071-3.662-4.81-3.662-2.828,0-4.699,1.443-4.699,3.485,0,1.953,1.225,3.085,3.696,3.44l1.959.288c.958.133,1.492.511,1.492,1.221,0,.91-.935,1.287-2.227,1.287-1.581,0-2.472-.644-2.606-1.62h-2.627c.245,2.242,2.004,3.817,5.21,3.817,2.917,0,4.854-1.332,4.854-3.618,0-2.042-1.402-3.107-3.607-3.44Zm-47.763-9.366c-.98,0-1.715.71-1.715,1.686s.734,1.686,1.715,1.686,1.715-.71,1.715-1.686-.735-1.686-1.715-1.686Zm39.213,8.656c0-2.485-1.514-4.15-4.721-4.15-3.028,0-4.721,1.532-5.055,3.884h2.65c.134-.91.846-1.665,2.36-1.665,1.359,0,2.027.599,2.027,1.332,0,.955-1.225,1.198-2.739,1.354-2.049.222-4.587.932-4.587,3.595,0,2.064,1.537,3.395,3.986,3.395,1.915,0,3.117-.799,3.719-2.064.089,1.132.935,1.865,2.116,1.865h1.559v-2.375h-1.314v-5.172h0Zm-2.627,2.885c0,1.532-1.336,2.664-2.962,2.664-1.002,0-1.849-.422-1.849-1.309,0-1.132,1.359-1.443,2.606-1.575,1.202-.111,1.87-.377,2.205-.888v1.109Zm-14.184-7.036c-1.492,0-2.739.622-3.63,1.665v-6.281h-2.672v16.313h2.627v-1.509c.891,1.087,2.16,1.731,3.674,1.731,3.206,0,5.634-2.53,5.634-5.948s-2.472-5.971-5.634-5.971Zm-.401,9.455c-1.915,0-3.318-1.487-3.318-3.485s1.425-3.506,3.34-3.506c1.938,0,3.295,1.487,3.295,3.506,0,1.997-1.402,3.485-3.317,3.485Zm-12.292-9.455c-1.737,0-2.873.71-3.541,1.709v-1.487h-2.65v11.474h2.672v-6.236c0-1.754,1.113-2.996,2.761-2.996,1.537,0,2.494,1.087,2.494,2.664v6.57h2.672v-6.769c0-2.886-1.491-4.928-4.408-4.928Zm54.399,5.594c0-3.285-2.405-5.593-5.634-5.593-3.429,0-5.946,2.575-5.946,5.97,0,3.574,2.695,5.948,5.99,5.948,2.784,0,4.966-1.643,5.522-3.973h-2.784c-.401,1.021-1.381,1.598-2.695,1.598-1.715,0-3.006-1.065-3.295-2.93h8.84v-1.021h0Zm-8.685-.888c.423-1.598,1.626-2.375,3.006-2.375,1.514,0,2.672.865,2.939,2.375h-5.946Z"/></svg>