<?xml version="1.0" encoding="UTF-8"?><svg id="Layer_1" xmlns="http://www.w3.org/2000/svg" viewBox="0 0 140 40"><defs><style>.cls-1{fill:#0052ff;}.cls-2{fill:#030303;}</style></defs><g><path class="cls-1" d="m56.855,21.092c-.511,2.709-2.889,4.758-5.746,4.758-3.231,0-5.85-2.619-5.85-5.85s2.619-5.85,5.85-5.85c2.858,0,5.235,2.05,5.746,4.758h5.903c-.55-5.95-5.555-10.608-11.649-10.608-6.462,0-11.699,5.238-11.699,11.699s5.238,11.699,11.699,11.699c6.093,0,11.098-4.658,11.649-10.608h-5.903Z"/><g><path d="m88.489,25.565c-.088.08-.17.081-.255.081-.634-.001-1.267-.014-1.901.005-.237.007-.403-.08-.562-.229-.591-.551-1.191-1.093-1.783-1.643-.556-.516-1.129-1.015-1.665-1.553-.331-.332-.695-.63-1.045-.943-.046-.041-.084-.112-.161-.073-.073.037-.047.113-.047.174,0,1.341-.004,2.683.004,4.024.001.185-.045.246-.238.24-.439-.014-.879-.009-1.319-.002-.146.003-.19-.048-.19-.191.003-3.592.004-7.184,0-10.776,0-.187.045-.253.249-.252,1.551.01,3.103.008,4.655.004.617-.001,1.218.099,1.789.319.657.253,1.177.681,1.542,1.3.444.754.488,1.574.377,2.395-.09.665-.383,1.275-.918,1.722-.289.241-.606.442-.967.576-.708.264-1.44.31-2.184.282-.058-.002-.116-.001-.174,0-.051.002-.107,0-.126.064-.015.053.02.083.054.114.17.157.339.316.511.47.388.346.765.706,1.159,1.044.404.347.807.697,1.198,1.057.545.502,1.126.963,1.644,1.495.102.105.226.187.353.292Zm-7.423-7.762c0,.542.003,1.084-.002,1.626-.002.177.056.251.248.25.918-.008,1.836-.006,2.755-.003.43.001.851-.045,1.246-.227.371-.171.655-.442.789-.828.175-.504.195-1.018.027-1.536-.144-.444-.423-.753-.846-.942-.385-.171-.791-.219-1.206-.219-.918-.001-1.836,0-2.755,0-.228,0-.255.024-.256.255-.001.541,0,1.083,0,1.625Z"/><path d="m68.536,20.065c0-1.754-.002-3.508.001-5.262,0-.428-.036-.365.357-.366,1.532-.004,3.064,0,4.596-.002.584,0,1.155.103,1.694.303.842.313,1.465.892,1.8,1.736.112.282.185.581.199.896.018.4.032.8-.043,1.191-.164.859-.619,1.545-1.363,2.008-.383.239-.816.377-1.265.484-.609.145-1.218.097-1.827.107-.666.011-1.332.002-1.998.003q-.393,0-.393.381c.001,1.303.002,2.605.007,3.907,0,.144-.062.196-.198.196-.453-.002-.905-.007-1.357.001-.171.003-.218-.055-.217-.225.006-1.786.004-3.572.004-5.358Zm1.761-2.285c0,.522,0,1.045,0,1.567,0,.256.034.292.289.292.815.001,1.63.001,2.444,0,.457,0,.913.002,1.353-.165.252-.095.469-.23.643-.431.295-.341.391-.75.414-1.19.015-.277-.054-.533-.128-.794-.097-.341-.32-.576-.605-.765-.397-.263-.851-.326-1.309-.332-.951-.013-1.901-.003-2.852-.006-.181,0-.255.073-.253.256.007.522.003,1.045.003,1.567Z"/></g></g><path class="cls-2" d="m95.547,14.277c2.951.034,5.111,2.559,5.041,5.893-.072,3.449-2.161,5.712-5.228,5.665-3.093-.048-5.002-2.293-4.975-5.853.026-3.463,2.088-5.741,5.162-5.705Zm-3.565,5.622c.086.707.094,1.307.241,1.871.413,1.595,1.761,2.655,3.265,2.637,1.603-.019,2.976-1.176,3.226-2.901.139-.963.136-1.979-.004-2.942-.224-1.53-1.482-2.639-2.917-2.778-1.609-.156-2.914.675-3.468,2.3-.208.609-.246,1.275-.342,1.812Z"/></svg>