<?xml version="1.0" encoding="UTF-8"?><svg id="Layer_1" xmlns="http://www.w3.org/2000/svg" viewBox="0 0 140 40"><defs><style>.cls-1{fill:#0052ff;}.cls-2{fill:#030303;}</style></defs><path class="cls-1" d="m26.596,21.092c-.511,2.709-2.889,4.758-5.746,4.758-3.231,0-5.85-2.619-5.85-5.85s2.619-5.85,5.85-5.85c2.858,0,5.235,2.05,5.746,4.758h5.903c-.55-5.95-5.555-10.608-11.649-10.608-6.462,0-11.699,5.238-11.699,11.699s5.238,11.699,11.699,11.699c6.093,0,11.098-4.658,11.649-10.608h-5.903Z"/><g><path class="cls-2" d="m101.355,14.494c1.713,0,3.281-.038,4.846.009,2.19.066,3.402,1.237,3.423,3.217.021,1.941-.975,2.916-3.229,3.162-.258.028-.517.051-1.192.117,1.688,1.54,3.153,2.878,4.881,4.455-.942.054-1.545.089-2.171.125-1.608-1.457-3.191-2.89-5.036-4.561v4.341c-.536.08-.953.142-1.523.226v-11.091Zm1.476,5.094c1.399,0,2.515.077,3.614-.023.958-.087,1.511-.699,1.541-1.723.029-.996-.382-1.737-1.379-1.833-1.205-.117-2.429-.028-3.776-.028v3.607Z"/><path class="cls-2" d="m54.702,14.194c2.951.034,5.111,2.559,5.041,5.893-.072,3.449-2.161,5.712-5.228,5.665-3.093-.048-5.002-2.293-4.975-5.853.026-3.463,2.088-5.741,5.162-5.705Zm-3.565,5.622c.086.707.094,1.307.241,1.871.413,1.595,1.761,2.655,3.265,2.637,1.603-.019,2.976-1.176,3.226-2.901.139-.963.136-1.979-.004-2.942-.224-1.53-1.482-2.639-2.917-2.778-1.609-.156-2.914.675-3.468,2.3-.208.609-.246,1.275-.342,1.812Z"/><path class="cls-2" d="m91.202,14.555h7.273v1.323h-5.601v3.236h5.187v1.32h-5.174v3.595h5.574c.056.548.094.912.145,1.409h-7.404c0-3.544,0-7.108,0-10.883Z"/><path class="cls-2" d="m46.312,22.231c.463.046.89.089,1.331.133-.66,2.949-3.721,4.272-6.509,2.919-1.999-.97-3.189-3.646-2.78-6.249.436-2.773,1.858-4.372,4.245-4.773,2.417-.406,4.411.852,5.09,3.286-.454.044-.892.086-1.293.124-.474-.541-.831-1.112-1.333-1.489-1.189-.891-3.101-.584-4.111.573-1.273,1.458-1.256,4.992.03,6.471,1.27,1.46,3.41,1.479,4.659.024.25-.291.428-.644.672-1.02Z"/><path class="cls-2" d="m119.484,22.231c.463.046.89.089,1.331.133-.66,2.949-3.721,4.272-6.509,2.919-1.999-.97-3.189-3.646-2.78-6.249.436-2.773,1.858-4.372,4.245-4.773,2.417-.406,4.411.852,5.09,3.286-.454.044-.892.086-1.293.124-.474-.541-.831-1.112-1.333-1.489-1.189-.891-3.101-.584-4.111.573-1.273,1.458-1.256,4.992.03,6.471,1.27,1.46,3.41,1.479,4.659.024.25-.291.428-.644.672-1.02Z"/><path class="cls-2" d="m123.446,14.555h7.273v1.323h-5.601v3.236h5.187v1.32h-5.174v3.595h5.574c.056.548.094.912.145,1.409h-7.404c0-3.544,0-7.108,0-10.883Z"/><path class="cls-2" d="m71.636,16.539c-.184.261-.248.55-.356.82-.128.32-.241.646-.36.969-.117.317-.235.635-.353.952-.116.312-.234.622-.349.934-.168.452-.334.904-.502,1.356-.153.411-.306.822-.46,1.233-.178.475-.368.946-.531,1.427-.127.373-.279.739-.421,1.107-.031.08-.101.087-.172.087-.322.001-.645.003-.967,0-.136,0-.212-.073-.259-.205-.167-.466-.347-.927-.519-1.391-.161-.435-.316-.873-.479-1.307-.165-.44-.34-.877-.507-1.316-.112-.294-.216-.59-.324-.884-.112-.305-.224-.611-.337-.916-.176-.476-.35-.953-.533-1.426-.149-.386-.311-.766-.428-1.163-.008-.027-.036-.062-.059-.066-.046-.008-.062.038-.067.075-.009.068-.015.138-.015.207,0,2.705,0,5.41.001,8.114,0,.239-.011.254-.257.255-.367.002-.733-.003-1.1.002-.163.002-.237-.044-.236-.227.005-3.461.004-6.923.004-10.384,0-.314.018-.331.331-.331.588,0,1.176,0,1.763,0,.344,0,.37.019.484.342.219.621.454,1.235.695,1.848.17.431.313.873.477,1.306.159.421.332.838.493,1.259.119.31.225.625.341.937.105.282.215.561.321.843.175.463.349.927.525,1.389.042.112.088.222.133.332.014.033.024.081.072.072.024-.005.051-.037.061-.063.094-.233.187-.466.276-.701.176-.462.353-.925.525-1.389.12-.323.228-.651.347-.974.108-.294.227-.583.337-.876.171-.458.337-.917.508-1.375.161-.428.328-.854.49-1.281.115-.305.221-.613.342-.916.084-.209.133-.431.249-.629.05-.085.107-.126.21-.126.683.004,1.365.004,2.048,0,.13,0,.186.057.191.179.002.057.003.113.003.17,0,3.455,0,6.91.003,10.365,0,.172-.049.236-.226.232-.385-.01-.771-.008-1.157,0-.159.003-.225-.043-.224-.214.005-2.768.004-5.536.004-8.303,0-.109.021-.223-.038-.348Z"/><path class="cls-2" d="m86.172,16.539c-.184.261-.248.55-.356.82-.128.32-.241.646-.36.969-.117.317-.235.635-.353.952-.116.312-.234.622-.349.934-.168.452-.334.904-.502,1.356-.153.411-.306.822-.46,1.233-.178.475-.368.946-.531,1.427-.127.373-.279.739-.421,1.107-.031.08-.101.087-.172.087-.322.001-.645.003-.967,0-.136,0-.212-.073-.259-.205-.167-.466-.347-.927-.519-1.391-.161-.435-.316-.873-.479-1.307-.165-.44-.34-.877-.507-1.316-.112-.294-.216-.59-.324-.884-.112-.305-.224-.611-.337-.916-.176-.476-.35-.953-.533-1.426-.149-.386-.311-.766-.428-1.163-.008-.027-.036-.062-.059-.066-.046-.008-.062.038-.067.075-.009.068-.015.138-.015.207,0,2.705,0,5.41.001,8.114,0,.239-.011.254-.257.255-.367.002-.733-.003-1.1.002-.163.002-.237-.044-.236-.227.005-3.461.004-6.923.004-10.384,0-.314.018-.331.331-.331.588,0,1.176,0,1.763,0,.344,0,.37.019.484.342.219.621.454,1.235.695,1.848.17.431.313.873.477,1.306.159.421.332.838.493,1.259.119.31.225.625.341.937.105.282.215.561.321.843.175.463.349.927.525,1.389.042.112.088.222.133.332.014.033.024.081.072.072.024-.005.051-.037.061-.063.094-.233.187-.466.276-.701.176-.462.353-.925.525-1.389.12-.323.228-.651.347-.974.108-.294.227-.583.337-.876.171-.458.337-.917.508-1.375.161-.428.328-.854.49-1.281.115-.305.221-.613.342-.916.084-.209.133-.431.249-.629.05-.085.107-.126.21-.126.683.004,1.365.004,2.048,0,.13,0,.186.057.191.179.002.057.003.113.003.17,0,3.455,0,6.91.003,10.365,0,.172-.049.236-.226.232-.385-.01-.771-.008-1.157,0-.159.003-.225-.043-.224-.214.005-2.768.004-5.536.004-8.303,0-.109.021-.223-.038-.348Z"/></g></svg>