<?xml version="1.0" encoding="UTF-8"?><svg id="Layer_1" xmlns="http://www.w3.org/2000/svg" viewBox="0 0 140 40"><defs><style>.cls-1{fill:#f60;}.cls-2{fill:#3d4e5a;}</style></defs><path class="cls-2" d="m45.134,35.522c-.153-.249-.301-.502-.443-.759l-.293-.536-.5.328c-1.497.979-3.218,1.497-4.984,1.497-5.19,0-9.414-4.407-9.414-9.821s4.223-9.822,9.414-9.822c1.766,0,3.487.517,4.984,1.497l.498.328.295-.536c.142-.258.291-.51.443-.76l.311-.503-.487-.317c-1.812-1.185-3.903-1.812-6.043-1.812-6.303,0-11.429,5.35-11.429,11.927s5.126,11.926,11.429,11.926c2.139,0,4.229-.627,6.043-1.813l.488-.317-.312-.505Z"/><path class="cls-1" d="m55.513,14.303c-6.3,0-11.426,5.35-11.426,11.927s5.126,11.926,11.426,11.926,11.431-5.352,11.431-11.926-5.126-11.927-11.431-11.927Zm0,21.748c-5.189,0-9.411-4.407-9.411-9.821s4.222-9.822,9.411-9.822,9.413,4.406,9.413,9.822-4.222,9.821-9.413,9.821Z"/><path class="cls-2" d="m56.729,6.849c.597-.284,1.288-.503,1.996-.673.546-1.825.604-3.803,1.31-4.304.407-.289-3.178,1.555-4.62,3.375-1.061,1.333-1.566,2.652-1.521,3.529.712-.71,1.669-1.373,2.835-1.927Z"/><path class="cls-1" d="m63.642,6.831c-.858,0-3.525.156-5.511.792-.325.105-.63.222-.912.353-1.119.534-2.009,1.179-2.613,1.822-.729.768-1.051,1.535-.868,2.111.201.636,1.042,1.125,2.188,1.125.776,0,1.694-.224,2.646-.774,2.511-1.452,3.938-5.191,5.299-5.4.118-.015.021-.029-.229-.029Z"/><path class="cls-1" d="m72.469,30.11c0-.894.273-1.594.821-2.1.546-.506,1.252-.759,2.116-.759.566,0,1.076.119,1.531.356.455.238.802.568,1.04.994.238.425.357.908.357,1.446,0,.546-.126,1.035-.376,1.467-.25.431-.608.757-1.067.979-.461.222-.956.332-1.49.332-.578,0-1.094-.122-1.548-.367-.454-.245-.799-.579-1.033-1.003-.234-.424-.352-.873-.352-1.346Zm.837.012c0,.649.198,1.161.596,1.535.398.374.896.56,1.496.56.612,0,1.114-.188,1.508-.566.395-.377.592-.911.592-1.605,0-.439-.085-.822-.253-1.148-.168-.327-.416-.581-.74-.761-.326-.18-.689-.27-1.094-.27-.575,0-1.069.173-1.483.519-.415.347-.621.927-.621,1.737Z"/><path class="cls-1" d="m80.036,32.735v-5.389h2.72c.547,0,.961.049,1.247.146.284.097.512.267.682.512.169.246.255.516.255.814,0,.383-.141.704-.423.966-.282.262-.717.429-1.306.5.216.09.379.179.49.267.237.191.462.43.673.717l1.067,1.467h-1.02l-.812-1.121c-.237-.324-.433-.572-.586-.743-.153-.172-.29-.292-.411-.36-.122-.068-.245-.116-.371-.143-.093-.018-.243-.026-.451-.026h-.941v2.393h-.812Zm.812-3.01h1.745c.371,0,.661-.034.87-.101.209-.067.368-.175.477-.323.109-.148.164-.309.164-.483,0-.255-.106-.464-.316-.629-.211-.164-.544-.246-.998-.246h-1.941v1.783Z"/><path class="cls-1" d="m86.173,32.735l2.355-5.389h.875l2.511,5.389h-.926l-.715-1.632h-2.565l-.673,1.632h-.862Zm1.77-2.213h2.08l-.641-1.492c-.194-.453-.339-.826-.435-1.117-.078.345-.188.689-.329,1.029l-.674,1.581Z"/><path class="cls-1" d="m93.196,32.735v-5.389h.833l3.223,4.231v-4.231h.778v5.389h-.833l-3.222-4.235v4.235h-.778Z"/><path class="cls-1" d="m102.055,30.644v-.627l2.328-.004v1.983c-.357.276-.725.485-1.105.625-.38.14-.77.209-1.17.209-.54,0-1.031-.113-1.472-.337-.441-.224-.774-.55-.999-.975-.225-.425-.337-.9-.337-1.425,0-.52.112-1.005.335-1.456.223-.45.545-.786.965-1.004.42-.218.904-.327,1.451-.327.397,0,.757.062,1.077.187.322.126.573.299.756.523.183.223.321.515.417.875l-.657.175c-.082-.273-.185-.486-.307-.642-.123-.156-.297-.28-.525-.375-.227-.092-.48-.139-.757-.139-.332,0-.619.049-.862.147-.243.098-.438.228-.587.388-.149.16-.264.337-.346.528-.141.331-.21.689-.21,1.075,0,.477.084.875.253,1.195.168.321.414.56.737.715.322.155.665.233,1.027.233.315,0,.622-.059.922-.178.3-.117.527-.243.682-.378v-.994h-1.616Z"/><path class="cls-1" d="m106.563,32.735v-5.389h4.435v.636h-3.623v1.65h3.393v.632h-3.393v1.834h3.765v.636h-4.576Z"/><path class="cls-2" d="m77.285,22.095l.848.185c-.178.598-.497,1.057-.959,1.371-.462.315-1.027.472-1.694.472-.69,0-1.252-.121-1.684-.363-.432-.243-.762-.593-.988-1.052-.225-.46-.338-.952-.338-1.479,0-.574.127-1.075.382-1.503.255-.428.618-.752,1.088-.974.472-.223.989-.332,1.554-.332.642,0,1.18.14,1.617.422.437.28.742.675.913,1.184l-.835.17c-.148-.401-.364-.694-.646-.877-.283-.183-.638-.274-1.066-.274-.493,0-.904.101-1.235.305-.33.203-.562.476-.696.818-.135.342-.202.695-.202,1.059,0,.469.08.879.239,1.228.159.349.405.611.74.785.335.173.698.259,1.089.259.475,0,.877-.118,1.207-.353.329-.236.552-.586.669-1.05Z"/><path class="cls-2" d="m79.853,24.029v-5.517h2.841c.571,0,1.006.05,1.303.149.297.099.535.274.712.524.178.252.267.528.267.833,0,.392-.148.721-.441.989-.294.269-.749.44-1.364.512.224.092.395.183.512.274.248.195.482.44.703.734l1.115,1.502h-1.067l-.848-1.147c-.247-.332-.452-.585-.611-.761-.161-.176-.304-.299-.431-.369-.126-.07-.255-.119-.387-.147-.096-.018-.254-.026-.472-.026h-.983v2.449h-.848Zm.848-3.081h1.823c.387,0,.69-.035.909-.104.219-.069.385-.179.499-.331.113-.152.17-.316.17-.495,0-.261-.11-.475-.33-.644-.221-.168-.568-.252-1.043-.252h-2.027v1.825h0Z"/><path class="cls-2" d="m88.611,24.029v-2.337l-2.47-3.18h1.032l1.263,1.663c.233.311.45.623.651.933.193-.288.425-.613.7-.975l1.242-1.621h.987l-2.556,3.18v2.337h-.848Z"/><path class="cls-2" d="m93.446,24.029v-5.517h2.417c.426,0,.751.017.975.053.315.045.578.131.791.258.213.126.384.304.513.532.13.228.195.479.195.752,0,.469-.174.866-.52,1.19-.346.326-.973.488-1.879.488h-1.644v2.243h-.848Zm.848-2.894h1.656c.548,0,.938-.088,1.168-.262.231-.177.346-.423.346-.742,0-.231-.068-.428-.203-.593-.135-.164-.314-.272-.535-.326-.143-.032-.407-.049-.791-.049h-1.639v1.972Z"/><path class="cls-2" d="m101.718,24.029v-4.865h-2.11v-.651h5.079v.651h-2.12v4.865h-.848Z"/><path class="cls-2" d="m106.404,21.248c0-.886.237-1.58.71-2.081.474-.502,1.085-.752,1.835-.752.49,0,.933.118,1.326.353.394.236.694.563.901.985.207.421.31.9.31,1.433,0,.542-.109,1.026-.326,1.454-.218.427-.526.75-.924.97-.399.22-.83.329-1.29.329-.5,0-.947-.121-1.341-.364-.395-.242-.693-.574-.896-.993-.203-.421-.305-.866-.305-1.333Zm.725.011c0,.644.172,1.151.516,1.521.344.37.777.555,1.296.555.529,0,.964-.186,1.307-.561.342-.373.513-.903.513-1.591,0-.435-.073-.815-.219-1.138-.146-.324-.36-.576-.641-.754-.282-.178-.598-.267-.948-.267-.498,0-.926.172-1.285.515-.359.344-.538.918-.538,1.721Z"/></svg>