<?xml version="1.0" encoding="UTF-8"?><svg id="Layer_1" xmlns="http://www.w3.org/2000/svg" viewBox="0 0 140 40"><defs><style>.cls-1{fill:#03316c;}.cls-2{fill:#002e73;}.cls-3{fill:#fff;}</style></defs><g id="layer1"><g id="g903"><path id="path817" class="cls-3" d="m16.722,7.857l-10.63,6.072v12.143l10.63,6.072,10.63-6.072v-12.143l-10.63-6.072Zm0,0l-10.63,6.072v12.143l10.63,6.072,10.63-6.072v-12.143l-10.63-6.072Z"/><path id="path819" class="cls-1" d="m20.919,27.4h-1.512l-1.811-1.644v-.843l1.875-1.771v-2.804l2.45-1.581,2.791,2.087-3.792,6.557Zm-6.263-4.427l.277-2.635-.916-2.361h5.411l-.895,2.361.256,2.635h-4.133Zm1.236,2.783l-1.811,1.665h-1.534l-3.813-6.578,2.812-2.066,2.471,1.56v2.804l1.875,1.771v.843Zm-3.366-12.649h8.372l1.001,4.216h-10.353l.98-4.216Zm4.197-5.249l-10.63,6.072v12.143l10.63,6.072,10.63-6.072v-12.143l-10.63-6.072Z"/><path id="path845" class="cls-2" d="m39.282,25.629c-2.812,0-4.878-2.171-4.878-4.849s2.088-4.912,4.9-4.912c1.789,0,2.897.654,3.771,1.602l-1.342,1.434c-.66-.696-1.363-1.16-2.45-1.16-1.576,0-2.727,1.349-2.727,2.994,0,1.687,1.172,3.036,2.833,3.036,1.023,0,1.768-.485,2.45-1.16l1.299,1.286c-.937.991-2.024,1.729-3.856,1.729"/><path id="path847" class="cls-2" d="m47.249,25.629h-2.173v-9.74h2.173v2.277c.596-1.391,1.683-2.361,3.345-2.277v2.277h-.128c-1.896,0-3.217,1.223-3.217,3.71v3.753Z"/><polygon id="polygon849" class="cls-2" points="61.948 15.847 57.155 28.243 54.96 28.243 56.004 25.629 51.893 15.847 54.215 15.847 57.005 23.078 59.69 15.847 61.948 15.847"/><path id="path851" class="cls-2" d="m68.338,17.723c-1.47,0-2.748,1.181-2.748,3.015s1.299,3.015,2.748,3.015c1.491,0,2.705-1.16,2.705-3.015s-1.236-3.015-2.705-3.015m.49,7.885c-1.555,0-2.535-.78-3.195-1.644v4.28h-2.173v-12.396h2.173v1.75c.703-.97,1.683-1.75,3.195-1.75,2.237,0,4.41,1.75,4.41,4.87s-2.152,4.891-4.41,4.891"/><path id="path853" class="cls-2" d="m77.988,17.892v4.596c0,.822.426,1.16,1.172,1.16h.852v1.918h-1.491c-1.576,0-2.705-.696-2.705-2.741v-4.933h-1.193v-1.834h1.193v-2.572h2.173v2.572h2.024v1.834h-2.024Z"/><path id="path855" class="cls-2" d="m86.85,17.723c-1.747,0-2.855,1.349-2.855,2.994,0,1.665,1.193,3.036,2.876,3.036,1.747,0,2.855-1.349,2.855-2.994.043-1.665-1.172-3.036-2.876-3.036m0,7.906c-2.876,0-5.006-2.171-5.006-4.849,0-2.699,2.152-4.912,5.049-4.912s5.027,2.171,5.027,4.87c0,2.656-2.13,4.891-5.07,4.891"/><path id="path857" class="cls-2" d="m112.648,17.723c-1.747,0-2.855,1.349-2.855,2.994,0,1.665,1.193,3.036,2.876,3.036,1.747,0,2.855-1.349,2.855-2.994.021-1.665-1.172-3.036-2.876-3.036m0,7.906c-2.876,0-5.006-2.171-5.006-4.849,0-2.699,2.152-4.912,5.049-4.912s5.027,2.171,5.027,4.87c0,2.656-2.152,4.891-5.07,4.891"/><path id="path859" class="cls-2" d="m130.585,15.847c2.066,0,3.323,1.286,3.323,3.584v6.177h-2.173v-5.524c0-1.497-.703-2.277-1.917-2.277-1.172,0-2.024.822-2.024,2.319v5.502h-2.173v-5.545c0-1.455-.724-2.277-1.917-2.277s-2.024.885-2.024,2.34v5.481h-2.173v-9.761h2.173v1.602c.618-.822,1.427-1.602,2.876-1.602,1.363,0,2.301.654,2.812,1.644.788-1.012,1.789-1.665,3.217-1.665"/><polygon id="polygon861" class="cls-2" points="93.816 23.542 94.754 23.015 94.881 23.015 95.84 23.542 95.904 23.647 95.904 24.744 95.84 24.849 94.881 25.376 94.754 25.376 93.816 24.849 93.752 24.744 93.752 23.647 93.816 23.542"/><path id="path863" class="cls-2" d="m102.487,25.608c-2.812-.063-4.836-2.277-4.793-4.954s2.173-4.87,5.006-4.807c1.789.042,2.897.717,3.749,1.687l-1.363,1.413c-.639-.696-1.342-1.202-2.428-1.223-1.576-.021-2.748,1.286-2.769,2.952-.043,1.687,1.108,3.057,2.769,3.078,1.023.021,1.789-.443,2.471-1.117l1.278,1.307c-.959.991-2.066,1.708-3.92,1.665"/></g></g></svg>