<?xml version="1.0" encoding="UTF-8"?><svg id="Layer_1" xmlns="http://www.w3.org/2000/svg" viewBox="0 0 140 40"><defs><style>.cls-1{fill:#15c8b1;}.cls-2{fill:#1b2431;}</style></defs><path class="cls-1" d="m41.838,10.998h-.792v-4.493h-4.509v4.493h-4.509v-4.493h-4.525v4.493h-4.509v4.493h4.509v9.002h-4.509v4.493h4.509v4.509h4.509v-4.493h4.509v4.493h4.509v-4.493h.792c4.978,0,9.034-4.024,9.034-9.002.016-4.962-4.024-9.002-9.018-9.002m0,13.511h-9.81v-9.002h9.826c2.489,0,4.509,2.02,4.509,4.493,0,2.489-2.036,4.509-4.525,4.509"/><path class="cls-2" d="m62.654,13.099h-5.414v13.479h5.414c3.733,0,6.578-2.925,6.578-6.739s-2.844-6.739-6.578-6.739Zm0,10.521h-2.327v-7.548h2.311c2.133,0,3.588,1.471,3.588,3.782s-1.455,3.766-3.572,3.766Z"/><path class="cls-2" d="m73.451,22.925h6.869c.081-.372.113-.743.113-1.164,0-2.909-2.085-5.091-4.913-5.091-3.055,0-5.139,2.214-5.139,5.091s2.053,5.091,5.35,5.091c1.842,0,3.265-.679,4.218-1.988l-2.311-1.325c-.388.42-1.067.727-1.859.727-1.067.016-1.956-.339-2.327-1.341Zm-.048-2.15c.275-.986,1.002-1.519,2.101-1.519.873,0,1.745.404,2.053,1.519h-4.154Z"/><path class="cls-2" d="m84.974,18.675v-1.713h-2.893v9.632h2.893v-4.364c0-1.907,1.697-2.392,2.893-2.198v-3.265c-1.212,0-2.505.614-2.893,1.907Z"/><path class="cls-2" d="m90.679,16.105c.954,0,1.745-.792,1.745-1.729s-.792-1.729-1.745-1.729-1.745.792-1.745,1.729.792,1.729,1.745,1.729Zm-1.455,10.489h2.893v-9.632h-2.893v9.632Z"/><path class="cls-2" d="m100.037,16.687c-1.293,0-2.246.436-2.877,1.18v-4.768h-2.893v13.479h2.893v-.905c.63.727,1.584,1.18,2.877,1.18,2.537,0,4.622-2.214,4.622-5.091-.016-2.861-2.101-5.075-4.622-5.075Zm-.582,7.434c-1.341,0-2.295-.905-2.295-2.343s.97-2.343,2.295-2.343c1.341,0,2.295.905,2.295,2.343,0,1.438-.97,2.343-2.295,2.343Z"/><path class="cls-2" d="m107.746,16.105c.954,0,1.745-.792,1.745-1.729s-.792-1.729-1.745-1.729-1.745.792-1.745,1.729c0,.937.792,1.729,1.745,1.729Zm-1.455,10.489h2.893v-9.632h-2.893v9.632Z"/><path class="cls-2" d="m116.991,19.725v-2.764h-1.988v-2.699l-2.893.873v1.826h-1.552v2.78h1.552v3.41c0,2.699,1.099,3.83,4.897,3.442v-2.634c-1.277.081-1.988,0-1.988-.824v-3.41h1.972Z"/></svg>