<?xml version="1.0" encoding="UTF-8"?>
<svg id="Layer_1" data-name="Layer 1" xmlns="http://www.w3.org/2000/svg" viewBox="0 0 140 40">
  <defs>
    <style>
      .cls-1 {
        fill: #0a1631;
      }
    </style>
  </defs>
  <path class="cls-1" d="m120.223,21.518l-1.518,2.143,1.821,2.571h3.054l-3.357-4.714Zm.304-7.768l-1.804,2.589,1.5,2.143,3.357-4.732h-3.054Zm-5.804,0h-3.071l4.446,6.339-4.321,6.161h3.071l4.232-6.161-4.357-6.339Zm-98.304,5.179v7.375h2.607v-4.732c0-.125.036-.232.143-.321.089-.089.196-.125.321-.125h3.643c.375,0,.661-.196.839-.607l.554-1.589h-8.107Zm0-5.196v2.268h9.071c.375,0,.661-.196.839-.571l.643-1.679h-10.554v-.018Zm19.893.911c-.286-.607-.732-.893-1.321-.893h-2.054l-5.179,12.571h2.714l3.911-10.018,3.839,10.018h2.821l-4.732-11.679Zm12.518,9.357v-9.375c0-.25-.089-.464-.268-.643s-.393-.268-.643-.268h-1.714v12.571h7.964c.357,0,.643-.196.821-.571l.679-1.732h-6.839v.018Zm20.5-.964c-.179,0-.357.054-.536.179-.786.589-1.661.875-2.625.875-1.179,0-2.143-.393-2.929-1.179s-1.161-1.75-1.161-2.875c0-1.179.393-2.143,1.161-2.929s1.732-1.161,2.857-1.161c1,0,1.893.304,2.696.929.179.125.357.179.536.179s.357-.054.518-.161l1.446-1c-.571-.696-1.321-1.25-2.25-1.696-.929-.429-1.911-.643-2.964-.643-1.232,0-2.357.286-3.375.857-1.018.571-1.821,1.339-2.429,2.321s-.893,2.071-.893,3.304c0,1.161.286,2.232.857,3.214.571.982,1.357,1.768,2.357,2.357,1,.589,2.161.893,3.482.893,1,0,1.946-.214,2.857-.625s1.679-.982,2.286-1.696l-1.393-.982c-.143-.107-.321-.161-.5-.161Zm36.643-9.304h-2.446v9.036c-1.25-1.821-4.107-5.982-5.446-7.946-.464-.679-1.214-1.071-2.036-1.071h-1.25v12.571h2.464v-8.393l4.804,7.286c.464.696,1.232,1.107,2.054,1.107h1.839v-12.589h.018Zm-29.661,2.929c-.571.982-.875,2.071-.875,3.25,0,1.268.304,2.393.929,3.375.607.982,1.429,1.732,2.446,2.286.696.375,1.429.625,2.196.75v-2.446c-.661-.179-1.25-.518-1.75-1.036-.768-.786-1.143-1.75-1.143-2.911,0-1.179.375-2.143,1.143-2.929.5-.518,1.089-.857,1.75-1.036v-2.446c-.839.125-1.607.393-2.304.804-1.018.571-1.804,1.357-2.393,2.339Zm11.518-.125c-.607-.964-1.429-1.732-2.429-2.286-.696-.375-1.429-.625-2.214-.75v2.446c.679.179,1.268.518,1.768,1.036.75.786,1.125,1.75,1.125,2.911s-.375,2.143-1.125,2.911c-.5.518-1.089.875-1.768,1.036v2.446c.839-.125,1.607-.393,2.304-.804,1-.589,1.804-1.375,2.375-2.357.571-.982.875-2.071.875-3.25,0-1.25-.304-2.357-.911-3.339Z"/>
</svg>