<?xml version="1.0" encoding="UTF-8"?><svg id="Layer_1" xmlns="http://www.w3.org/2000/svg" xmlns:xlink="http://www.w3.org/1999/xlink" viewBox="0 0 140 40"><defs><style>.cls-1{mask:url(#mask);}.cls-2{fill:#fff;}.cls-3{fill:#14e0a1;}.cls-3,.cls-4,.cls-5{fill-rule:evenodd;}.cls-4{fill:#0051d2;}</style><mask id="mask" x="25.373" y="9.796" width="89.254" height="20.409" maskUnits="userSpaceOnUse"><g id="mask0_6_154"><path class="cls-2" d="m25.373,30.204h89.254V9.796H25.373v20.409Z"/></g></mask></defs><path class="cls-5" d="m99.264,26.714h2.535v-9.74h-2.535v9.74Z"/><path class="cls-5" d="m99.264,15.861h2.535v-2.531h-2.535v2.531Z"/><path class="cls-5" d="m95.393,26.713h2.535v-2.531h-2.535v2.531Z"/><path class="cls-5" d="m77.465,25.392c.148.392.373.699.642.938.272.243.59.433.968.54.384.107.808.15,1.256.15.463,0,.877-.048,1.229-.143.328-.088.642-.212.933-.37v-1.789c-.465.201-.899.273-1.394.296-.523.024-.833-.125-1.091-.37-.269-.257-.413-.591-.413-1.153v-5.411h2.898v-2.22h-2.898v-2.531h-2.355v2.531h-1.412v2.22h1.412v5.81c0,.6.075,1.105.225,1.501Z"/><path class="cls-5" d="m62.188,19.155h-6.311v2.618h3.544c-.185.748-.551,1.418-1.075,1.954-.791.808-1.889,1.252-3.09,1.252-2.493,0-4.521-2.025-4.521-4.515s2.028-4.515,4.521-4.515c1.335,0,2.562.571,3.413,1.555l2.029-1.656c-1.345-1.575-3.342-2.517-5.443-2.517-3.938,0-7.142,3.2-7.142,7.133s3.204,7.133,7.142,7.133c1.912,0,3.674-.688,4.963-2.003,1.081-1.104,1.798-2.644,1.936-4.186.067-.753.073-1.5.034-2.252Z"/><path class="cls-5" d="m88.97,17.881c1.454,0,2.694.913,3.179,2.196h-6.358c.484-1.283,1.725-2.196,3.179-2.196Zm5.689,4.265c.043-.285.066-.576.066-.872,0-3.174-2.577-5.747-5.755-5.747s-5.754,2.573-5.754,5.747,2.577,5.746,5.754,5.746c2.18,0,4.077-1.211,5.054-2.995l-2.126-1.03c-.591,1-1.681,1.672-2.927,1.672-1.576,0-2.9-1.071-3.284-2.524h6.568s0,.003,0,.004h2.405Z"/><path class="cls-5" d="m68.788,24.667c-1.876,0-3.397-1.519-3.397-3.393s1.521-3.393,3.397-3.393,3.397,1.519,3.397,3.393-1.521,3.393-3.397,3.393Zm0-9.13c-3.177,0-5.753,2.573-5.753,5.746s2.576,5.746,5.753,5.746,5.753-2.573,5.753-5.746-2.576-5.746-5.753-5.746Z"/><g class="cls-1"><g><path class="cls-5" d="m72.185,26.714h2.355v-10.862h-2.355v10.862Z"/><path class="cls-5" d="m108.872,24.666c-1.877,0-3.397-1.519-3.397-3.393s1.521-3.393,3.397-3.393,3.397,1.519,3.397,3.393-1.521,3.393-3.397,3.393Zm0-9.139c-3.178,0-5.755,2.573-5.755,5.746s2.577,5.747,5.755,5.747,5.755-2.573,5.755-5.747-2.577-5.746-5.755-5.746Z"/><path class="cls-4" d="m35.59,25.612c-3.104,0-5.619-2.513-5.619-5.612s2.516-5.612,5.619-5.612v-4.592c-5.643,0-10.217,4.569-10.217,10.204s4.574,10.204,10.217,10.204,10.217-4.569,10.217-10.204h-4.598c0,3.1-2.516,5.612-5.619,5.612Z"/><path class="cls-3" d="m35.59,20h5.619v-5.612h-5.619v5.612Z"/></g></g></svg>