<?xml version="1.0" encoding="UTF-8"?><svg id="Layer_1" xmlns="http://www.w3.org/2000/svg" viewBox="0 0 140 40"><defs><style>.cls-1{fill:#005472;}.cls-2{fill:#00abe7;}.cls-3{fill:#0076a7;}.cls-4{fill:#00698d;}.cls-5{fill:#008dbe;}.cls-6{fill:#009de2;}.cls-7{fill:#8bdaff;}.cls-8{fill:#09a1cb;}.cls-9{fill:#34afe4;}.cls-10{fill:#42acdb;}.cls-11{fill:#57bae5;}.cls-12{fill:#7acdf2;}</style></defs><path class="cls-11" d="m103.006,12.742l-1.254,4.889-8.601,1.115,9.855-6.004Z"/><path class="cls-1" d="m105.334,32.462l2.137-8.879-2.772-1.146.635,10.025Z"/><path class="cls-9" d="m101.751,17.625l-2.256,4.646-6.319-3.51,8.575-1.136Z"/><path class="cls-3" d="m105.334,32.462l-.635-10.025-5.23-.181,5.865,10.206Z"/><path class="cls-6" d="m101.751,17.625l2.974,4.806-5.23-.176,2.256-4.631Z"/><g><path class="cls-12" d="m103.006,12.742l7.119.893-8.374,3.996,1.254-4.889Z"/><path class="cls-12" d="m117.91,10.517l-4.476,5.204.315-4.811,4.161-.392Z"/><path class="cls-12" d="m120.393,7.538l-2.483,2.979,1.941.237.542-3.216Z"/></g><path class="cls-2" d="m115.499,13.217l4.352-2.468-1.941-.237-2.411,2.705Z"/><path class="cls-3" d="m107.471,23.583l.212-5.973-2.984,4.827,2.772,1.146Z"/><path class="cls-5" d="m107.683,17.61l-2.984,4.827-2.948-4.806,5.932-.021Z"/><path class="cls-11" d="m110.125,13.635l-2.442,3.975-5.932.021,8.374-3.996Z"/><path class="cls-4" d="m107.683,17.61l-.212,5.973,5.462,5.586-5.25-11.559Z"/><path class="cls-8" d="m115.788,26.045l-2.886-7.15.031,10.278,2.855-3.128Z"/><path class="cls-8" d="m113.434,15.72l-.532,3.175-5.219-1.285,5.751-1.889Z"/><path class="cls-7" d="m116.077,20.026l-3.175-1.131.516-3.17,2.659,4.3Z"/><path class="cls-12" d="m117.239,25.849l-3.459-5.544h1.977l1.482,5.544Z"/><path class="cls-11" d="m110.775,12.452l2.659,3.268.315-4.811-2.974,1.544Z"/><path class="cls-5" d="m112.902,18.895l-5.219-1.285,5.25,11.559-.031-10.273Z"/><path class="cls-3" d="m115.788,26.045l1.151.645-3.996,2.478,2.845-3.123Z"/><path class="cls-11" d="m117.239,25.782l-4.336-6.887,2.886,7.155,1.451-.268Z"/><path class="cls-12" d="m110.775,12.452l-3.097,5.162,5.751-1.889-2.654-3.273Z"/><path d="m36.134,18.083l1.706.874,1.717-.874v9.849h-3.423v-9.849Zm-.263-3.329c.073-1.016.953-1.783,1.97-1.717.948-.149,1.838.499,1.987,1.447.149.948-.499,1.838-1.447,1.987-.179.028-.361.028-.539,0-1.009.079-1.891-.675-1.97-1.685h0v-.032Z"/><path d="m28.097,12.89v5.762h-4.761v-5.762h-3.729v15.042h3.729v-5.783h4.761v5.783h3.729v-15.042h-3.729Z"/><path d="m47.426,27.931h-3.444v-7.479h-1.338v-3.234h1.338v-3.602h3.444v3.602h1.338v3.234h-1.338v7.479Z"/><path class="cls-10" d="m55.989,24.476h3.044c1.19,0,1.559-.727,1.559-1.348s-.39-1.327-1.559-1.327h-3.044v2.675Zm0-5.804h2.781c.639.094,1.232-.348,1.327-.987v-.003c.005-.056.005-.113,0-.169,0-.4-.221-1.159-1.338-1.159h-2.77v2.317Zm2.37-5.783c4.54,0,5.267,2.697,5.267,4.066.074,1.342-.677,2.593-1.896,3.16,1.479.443,2.453,1.852,2.349,3.392,0,2.359-1.359,4.392-5.857,4.392h-5.962v-15.01h6.099Z"/><path class="cls-10" d="m73.696,27.931h-3.729v-11.587h-3.929v-3.455h11.587v3.423h-3.929v11.618Z"/><path class="cls-10" d="m93.151,15.27l-2.412,2.18c-.933-.821-2.138-1.264-3.381-1.243-2.198-.053-4.024,1.686-4.076,3.885v.013c-.011.105-.011.211,0,.316-.132,2.195,1.541,4.082,3.736,4.213h.34c1.239.033,2.445-.399,3.381-1.211l2.412,2.18c-1.507,1.589-3.602,2.488-5.793,2.486-4.224,0-7.647-3.424-7.647-7.647s3.423-7.646,7.647-7.647c2.19-.012,4.287.885,5.793,2.475Z"/></svg>