<?xml version="1.0" encoding="UTF-8"?><svg id="Layer_1" xmlns="http://www.w3.org/2000/svg" viewBox="0 0 140 40"><defs><style>.cls-1{fill:#1b2143;}.cls-2{fill:#2ca6e0;}</style></defs><path class="cls-1" d="m59.892,14.09v6.65h-6.607v-5.791c0-.476-.386-.862-.862-.862h-2.237v15.92c0,.476.386.862.862.862h2.237v-7.426h6.61v6.56c-.007.476.373.869.849.875h2.25v-15.93c0-.476-.386-.862-.862-.862h-2.24v.003Zm13.12,4.16v7.978c.007.726-.373,1.401-.999,1.774-1.751,1.012-3.565-.256-3.565-1.92v-6.97c0-.476-.386-.862-.862-.862h-2.237v8.118c.007,2.616,2.123,4.733,4.74,4.746h1.271c2.619-.007,4.743-2.13,4.75-4.75v-7.252c0-.476-.386-.862-.862-.862h-2.237Z"/><path class="cls-2" d="m106.852,30.879h2.237v-11.303c0-.476-.386-.862-.862-.862h-2.237v11.296c-.003.476.379.865.855.869h.007Z"/><circle class="cls-2" cx="107.54" cy="15.792" r="1.727"/><path class="cls-1" d="m84.106,18.244c-3.245,0-5.901,2.32-5.901,5.565v1.754c0,3.245,2.656,5.552,5.901,5.552s5.901-2.307,5.901-5.552v-1.754c.003-3.245-2.653-5.565-5.901-5.565Zm2.789,7.529c0,1.534-1.255,2.556-2.792,2.556s-2.789-1.022-2.789-2.556v-2.19c0-1.534,1.255-2.556,2.789-2.556s2.792,1.022,2.792,2.556v2.19Z"/><path class="cls-2" d="m98.002,18.244c-.972-.007-1.93.213-2.806.636v-3.914c0-.476-.386-.862-.862-.862h-2.237v11.46c0,3.245,2.656,5.552,5.901,5.552s5.901-2.307,5.901-5.552v-1.754c.003-3.245-2.646-5.565-5.898-5.565h0Zm2.792,7.529c0,1.534-1.255,2.556-2.792,2.556s-2.789-1.022-2.789-2.556v-2.19c0-1.534,1.255-2.556,2.789-2.556s2.792,1.022,2.792,2.556v2.19Z"/><path class="cls-1" d="m40.821,15.465c0-3.382-1.648-6.294-2.902-7.239,0,0-.097-.053-.087.083-.103,6.534-3.442,8.304-5.275,10.687-4.234,5.505-.3,11.539,3.714,12.654,2.237.626-.519-1.105-.875-4.756-.436-4.407,5.425-7.775,5.425-11.43h0Z"/><path class="cls-2" d="m42.744,17.692c-.027-.017-.063-.03-.087.013-.07.822-.909,2.579-1.974,4.197-3.611,5.478-1.554,8.121-.396,9.542.672.822,0,0,1.677-.842,2.074-1.258,3.418-3.435,3.618-5.851.33-3.894-2.007-6.347-2.839-7.059h0Z"/></svg>