<?xml version="1.0" encoding="UTF-8"?><svg id="Layer_1" xmlns="http://www.w3.org/2000/svg" viewBox="0 0 140 40"><defs><style>.cls-1{fill:#5741d9;}</style></defs><path id="_0da8ffff" class="cls-1" d="m30.504,12.378c1.684-.113,3.401.227,4.908.988,2.235,1.101,4.017,3.077,4.843,5.41.373,1.037.567,2.122.567,3.223v4.065c0,.162,0,.34-.032.502-.097.405-.389.777-.777.956-.275.13-.583.146-.858.097-.615-.113-1.101-.696-1.101-1.328v-3.79c.016-.356.016-.745-.178-1.053-.308-.583-1.085-.858-1.684-.615-.518.178-.891.713-.907,1.263v3.839c0,.243.016.486-.065.713-.13.454-.502.81-.956.939-.599.162-1.28-.097-1.571-.648-.211-.324-.194-.729-.178-1.101v-3.822c-.016-.648-.551-1.231-1.182-1.312-.421-.065-.858.081-1.166.373-.275.259-.421.632-.421,1.004v3.709c0,.308.032.632-.081.923-.178.534-.713.923-1.28.907-.583.032-1.15-.373-1.328-.907-.097-.275-.081-.551-.081-.842v-3.839c0-.632-.502-1.215-1.118-1.328-.567-.113-1.182.162-1.474.68-.113.211-.178.454-.178.696v4.163c0,.405-.178.81-.486,1.069-.47.405-1.231.437-1.717.065-.356-.243-.567-.664-.567-1.101v-4.211c0-1.587.405-3.175,1.166-4.584.615-1.15,1.474-2.17,2.494-2.98,1.506-1.263,3.434-2.008,5.41-2.122h0Z"/><path class="cls-1" d="m68.356,17.253h-2.106c.081-1.474.389-2.802,1.733-3.644,1.344-.826,2.818-1.02,4.357-.891.826.065,1.652.243,2.413.599,1.344.615,2.008,1.668,2.008,3.142v7.823c0,.956.194,1.134,1.15,1.037.097-.016.211-.032.308-.049.016.049.016.097.016.13v1.587c-.761.259-1.539.34-2.3.13-.567-.162-.923-.567-1.118-1.101-.097-.275-.162-.567-.243-.875-.081.097-.146.178-.227.259-1.668,1.684-3.644,2.397-5.977,1.798-1.652-.421-2.786-1.927-2.834-3.644-.016-.551.032-1.101.162-1.636.308-1.231,1.182-1.976,2.284-2.478.777-.356,1.62-.454,2.462-.567.988-.13,1.96-.243,2.948-.389.664-.097,1.004-.454,1.101-1.118.211-1.344-.389-2.235-1.684-2.559-.777-.194-1.571-.227-2.365-.081-1.166.211-1.814.875-2.041,2.025.016.162-.016.324-.049.502h0Zm6.203,2.591c-.972.518-1.911.648-2.867.794-.794.13-1.603.243-2.381.486-1.02.34-1.49,1.182-1.393,2.316.081.939.713,1.701,1.733,1.863,1.571.259,2.964-.178,4.065-1.344.324-.34.583-.826.648-1.28.146-.907.13-1.83.194-2.834Zm30.012,2.721c-.049.227-.081.421-.13.599-.907,2.77-2.753,3.952-4.989,4.211-3.871.421-6.09-2.106-6.657-4.794-.454-2.138-.389-4.26.551-6.268.891-1.895,2.316-3.142,4.438-3.515,2.543-.454,6.139.81,6.738,4.778.162,1.02.194,2.073.292,3.142h-9.848c.081,1.458.308,2.818,1.377,3.871.437.437,1.004.648,1.62.761,1.992.356,3.644-.599,4.292-2.527.065-.211.162-.275.373-.259.632,0,1.263,0,1.944,0h0Zm-9.524-3.725h7.369c-.081-.858-.227-1.652-.632-2.397-.389-.713-.956-1.231-1.733-1.49-2.543-.875-5.167,1.15-5.005,3.887Zm14.82,8.066h-2.235v-13.897h2.122v1.944c.162-.178.259-.292.356-.405,1.522-1.733,3.434-2.187,5.604-1.652,1.506.373,2.349,1.442,2.64,2.932.113.615.194,1.247.194,1.863.016,2.98.016,5.96.016,8.941,0,.081-.016.162-.016.259h-2.284v-.373c0-2.786.016-5.572-.016-8.357,0-.615-.097-1.247-.275-1.846-.292-.972-1.069-1.49-2.089-1.539-1.863-.065-3.337.923-3.79,2.575-.162.599-.211,1.231-.211,1.863-.016,2.446-.016,4.875-.016,7.288v.405h0Zm-29.462-13.897h2.154v5.896c.13-.13.211-.194.292-.275,1.765-1.798,3.531-3.612,5.296-5.41.146-.162.292-.227.518-.227.826.016,1.668,0,2.575,0-.13.13-.194.211-.275.292-1.555,1.555-3.094,3.126-4.665,4.665-.178.178-.178.292-.065.486,1.701,2.705,3.385,5.41,5.07,8.115.065.097.113.194.194.34-.113.016-.194.016-.292.016h-2.316c-.211,0-.308-.081-.421-.243-1.296-2.17-2.591-4.341-3.887-6.527-.065-.097-.113-.194-.194-.308-.599.599-1.182,1.166-1.765,1.765-.081.081-.097.227-.097.34v4.956h-1.247c-.292,0-.696.081-.858-.081-.146-.13-.065-.551-.065-.842v-12.585c.049-.081.049-.211.049-.373Zm-24.862-.016c-1.749,1.733-3.45,3.434-5.167,5.134,1.846,2.948,3.644,5.831,5.474,8.779-.146,0-.243.016-.34.016h-2.251c-.211,0-.34-.081-.454-.259-1.296-2.17-2.591-4.341-3.887-6.527-.049-.097-.113-.178-.194-.308-.324.34-.615.713-.972.972-.729.551-.939,1.231-.891,2.138.081,1.182.016,2.381.016,3.563v.389h-2.138v-13.881h2.138v5.798c.049.032.097.065.13.097.065-.097.097-.211.162-.292,1.749-1.798,3.515-3.579,5.264-5.393.162-.162.308-.243.551-.227.729.016,1.458,0,2.187,0,.113,0,.211,0,.373,0h0Zm4.276,2.316c1.085-1.587,2.235-2.915,4.373-2.527v2.381c-.567.032-1.134.016-1.668.13-1.312.275-2.332,1.474-2.543,2.932-.032.292-.065.583-.065.875v7.823h-2.203v-13.881h2.106v2.268h0Z"/></svg>