<?xml version="1.0" encoding="UTF-8"?><svg id="Layer_1" xmlns="http://www.w3.org/2000/svg" viewBox="0 0 140 40"><defs><style>.cls-1,.cls-2{fill:#23af91;}.cls-2{fill-rule:evenodd;}</style></defs><g id="_页面-1"><g id="_导航栏下拉最小宽度备份-4"><g id="_编组-27备份-2"><g id="kucoin-logo"><g id="KUCOIN-logo-3.0"><path id="_形状" class="cls-1" d="m97.018,20.002c0-.555,0-1.077-.018-1.559-.012-.455-.057-.908-.135-1.356-.072-.409-.2-.807-.38-1.182-.19-.386-.444-.738-.75-1.04-.435-.446-.953-.803-1.525-1.051-.618-.251-1.281-.375-1.948-.365-.67-.009-1.335.115-1.956.365-.575.245-1.096.6-1.534,1.046-.306.302-.559.653-.747,1.04-.178.375-.304.772-.374,1.182-.076.448-.119.902-.13,1.356-.012.482-.018,1.004-.015,1.559s0,1.073.015,1.558c.011.455.054.908.13,1.356.07.409.196.807.374,1.182.189.386.442.738.747,1.04.437.446.958.801,1.534,1.044.621.251,1.286.376,1.956.367.667.01,1.33-.115,1.948-.367.572-.245,1.09-.599,1.525-1.044.306-.303.56-.654.75-1.04.18-.375.308-.772.38-1.182.077-.447.121-.899.133-1.352.015-.485.022-1.004.018-1.558h.002Zm-2.515,0c0,.615-.009,1.127-.03,1.534-.012.334-.045.668-.1.998-.037.22-.105.434-.2.636-.077.163-.178.313-.299.446-.187.214-.42.385-.681.499-.294.126-.61.189-.929.188-.321.001-.639-.062-.934-.188-.267-.112-.506-.283-.699-.499-.122-.132-.223-.283-.299-.446-.092-.202-.156-.416-.19-.636-.053-.33-.087-.664-.1-.998-.018-.407-.027-.918-.027-1.534s.009-1.128.027-1.535c.013-.334.047-.668.1-.998.033-.22.097-.434.19-.636.077-.163.178-.313.299-.446.193-.216.432-.387.699-.499.295-.127.613-.191.934-.188.319-.003.636.061.929.188.261.114.493.285.681.499.121.133.222.284.299.446.095.202.162.416.2.636.055.33.088.664.1.998.022.406.03.919.03,1.535Z"/><path id="_路径" class="cls-1" d="m117.058,13.783c-.001-.121-.099-.219-.221-.221h-2.075c-.122,0-.22.099-.221.221v7.665l-5.06-7.823c-.034-.053-.064-.062-.139-.062h-1.924c-.121.002-.219.099-.221.221v12.437c.002.121.1.218.221.22h2.074c.121,0,.219-.099.22-.22v-7.685l5.061,7.841c.035.053.063.062.139.062h1.923c.121,0,.219-.098.221-.22l.002-12.436Z"/><path id="_路径-2" class="cls-1" d="m103.15,13.783c0-.122-.099-.22-.221-.221h-2.073c-.122,0-.22.099-.221.221v12.436c0,.122.099.22.221.221h2.073c.122,0,.22-.099.221-.221v-12.436Z"/><path id="_路径-3" class="cls-1" d="m78.336,20.002c0-.619.007-1.134.025-1.544.012-.334.046-.668.1-.998.192-1.108,1.04-1.761,2.123-1.761.707.006,1.347.267,1.756.862.185.278.32.586.399.91.006.034.037.058.072.055h2.44c.035,0,.048-.024.042-.058-.266-1.51-1.072-2.866-2.495-3.538-.699-.324-1.463-.486-2.234-.474-1.374,0-2.531.47-3.472,1.411-.537.523-.904,1.197-1.052,1.932-.144.724-.216,1.791-.218,3.202-.001,1.411.071,2.477.218,3.201.147.736.512,1.411,1.049,1.936.94.94,2.097,1.41,3.472,1.41.771.012,1.534-.15,2.234-.473,1.423-.672,2.229-2.028,2.495-3.538.006-.035-.007-.058-.042-.058h-2.441c-.035-.004-.066.02-.072.055-.079.324-.214.632-.399.909-.409.599-1.05.857-1.756.862-1.083,0-1.931-.653-2.123-1.76-.054-.33-.088-.664-.1-.998-.014-.412-.021-.928-.021-1.545Z"/><path id="_路径-4" class="cls-1" d="m52.563,13.783c0-.122-.099-.22-.221-.221h-2.073c-.122,0-.22.099-.221.221v12.437c.001.121.099.219.221.22h2.073c.121,0,.219-.098.221-.22v-3.651l1.664-1.989,3.417,5.793c.026.043.074.068.124.066h2.519c.116,0,.137-.072.079-.171l-4.474-7.585,4.105-4.924c.083-.1.048-.195-.082-.195h-2.753c-.034-.002-.066.013-.086.04l-4.512,5.411v-5.234Z"/><path id="_路径-5" class="cls-1" d="m67.665,24.306c-1.167,0-2.225-1.08-2.225-2.369v-8.154c0-.122-.099-.22-.221-.221h-2.073c-.122,0-.22.099-.221.221v8.122c0,2.839,2.124,4.644,4.739,4.644s4.739-1.804,4.739-4.644v-8.122c-.001-.121-.099-.219-.221-.221h-2.074c-.121.001-.219.099-.22.221v8.154c0,1.288-1.059,2.369-2.225,2.369Z"/><path id="_形状-2" class="cls-2" d="m29.213,20.002l6.435,6.436,4.062-4.062c.726-.654,1.838-.625,2.529.066.691.691.72,1.802.066,2.529l-5.36,5.361c-.72.708-1.875.708-2.595,0l-7.734-7.736v4.598c0,1.015-.823,1.837-1.837,1.837s-1.837-.823-1.837-1.837v-14.391c0-1.015.823-1.837,1.837-1.837s1.837.823,1.837,1.837v4.598l7.733-7.734c.72-.709,1.875-.709,2.595,0l5.364,5.36c.654.726.625,1.838-.066,2.529-.691.691-1.802.72-2.529.066l-4.062-4.062-6.438,6.441Zm6.438-1.839h0c-.744,0-1.415.447-1.7,1.135s-.128,1.479.398,2.005c.526.526,1.317.684,2.005.399.687-.285,1.136-.955,1.136-1.699,0-.488-.193-.956-.538-1.301-.345-.345-.812-.539-1.3-.539h0Z"/></g></g></g></g></g></svg>