<?xml version="1.0" encoding="UTF-8"?><svg id="Layer_1" xmlns="http://www.w3.org/2000/svg" viewBox="0 0 140 40"><defs><style>.cls-1{fill:#212631;}.cls-1,.cls-2{fill-rule:evenodd;}.cls-2{fill:#ffd634;}</style></defs><g><path class="cls-1" d="m35.808,27.639c-.522,0-.783,0-.983-.102-.175-.09-.318-.233-.407-.409-.102-.2-.102-.462-.102-.986v-13.782h2.392c.522,0,.783,0,.983.102.175.09.318.233.407.409.102.2.102.462.102.986v9.448c0,.262,0,.393.051.493.044.088.116.159.204.204.1.051.23.051.491.051h5.574c.522,0,.783,0,.983.102.175.09.318.233.407.409.102.2.102.462.102.986v2.089h-10.204Z"/><path class="cls-1" d="m76.896,13.857c0-.524,0-.786.102-.986.089-.176.232-.319.407-.409.2-.102.461-.102.983-.102h1.373c.315,0,.472,0,.613.046.125.041.239.108.336.196.11.1.188.237.345.511l4.776,8.368v-7.624c0-.524,0-.786.102-.986.09-.176.232-.319.407-.409.2-.102.461-.102.983-.102h2.238v13.78c0,.524,0,.785-.102.985-.089.176-.232.319-.407.409-.199.102-.46.102-.982.103l-1.374.002c-.315,0-.473,0-.614-.046-.125-.041-.24-.107-.337-.196-.11-.1-.188-.237-.345-.512l-4.775-8.367v7.624c0,.524,0,.786-.102.986-.089.176-.232.319-.407.409-.2.102-.46.102-.983.102h-2.238v-13.782Z"/><path class="cls-1" d="m93.586,12.361h-2.238v13.778c0,.524,0,.786.102.986.09.176.232.319.407.409.2.102.461.102.983.102h2.238v-6.232h.611c.261,0,.392,0,.512.033.107.029.208.077.297.142.102.073.184.175.348.378l4.15,5.129c.164.203.247.305.348.378.09.065.191.113.298.142.121.033.251.033.512.033h3.529l-5.489-6.772c-.273-.337-.409-.505-.462-.692-.046-.165-.046-.34,0-.505.053-.187.189-.355.462-.692h0s5.369-6.617,5.369-6.617h-3.491c-.26,0-.39,0-.51.033-.106.029-.207.077-.297.141-.102.072-.184.173-.348.375l-4.059,4.981c-.164.202-.247.303-.348.375-.09.064-.19.112-.297.141-.12.033-.25.033-.51.033h-.628v-4.584c0-.524,0-.786-.102-.986-.09-.176-.232-.319-.407-.409-.2-.102-.461-.102-.983-.102h0Z"/></g><path class="cls-2" d="m47.781,27.284c-.102-.2-.102-.462-.102-.986v-12.597c0-.524,0-.786.102-.986.09-.176.232-.319.407-.409.2-.102.461-.102.983-.102h4.88c1.301,0,1.951,0,2.485.144,1.448.389,2.579,1.524,2.967,2.976.143.535.143,1.188.143,2.492h0c0,.85-.383,1.161-.71,1.426-.243.197-.455.369-.455.718,0,.344.247.516.533.715.395.275.865.602.865,1.506,0,1.302,0,1.954-.142,2.488-.388,1.454-1.519,2.589-2.968,2.978-.533.143-1.182.144-2.48.144l-5.116.002c-.522,0-.783,0-.983-.102-.176-.09-.318-.233-.408-.409h0Zm6.854-9.967c.293-.461.546-.86.546-1.371,0-1.033-.837-1.871-1.869-1.871s-1.869.877-1.869,1.871c0,.51.26.909.561,1.371.412.63.899,1.377.899,2.683s-.487,2.052-.899,2.683c-.301.461-.561.86-.561,1.37,0,1.033.837,1.871,1.869,1.871s1.869-.838,1.869-1.871c0-.51-.254-.909-.546-1.37-.401-.631-.875-1.377-.875-2.683s.474-2.053.875-2.683Z"/><path class="cls-1" d="m65.576,24.599l-.636,1.999c-.119.374-.178.561-.292.7-.1.122-.229.217-.376.276-.166.066-.362.066-.753.066h-2.813l4.516-14.311c.118-.375.177-.563.291-.702.1-.123.23-.218.376-.276.166-.067.362-.067.755-.067h3.099c.393,0,.589,0,.755.067.147.058.276.154.376.276.114.139.173.326.291.702l4.518,14.312h-2.815c-.392,0-.587,0-.753-.066-.146-.058-.276-.153-.376-.276-.113-.138-.173-.325-.292-.7l-.636-1.999h-5.234Zm.793-2.494h3.647l-1.824-5.73-1.823,5.73Z"/></svg>