<?xml version="1.0" encoding="UTF-8"?><svg id="Layer_1" xmlns="http://www.w3.org/2000/svg" viewBox="0 0 140 40"><defs><style>.cls-1{fill:#2c3149;}.cls-1,.cls-2{stroke-width:0px;}.cls-2{fill:#0157ff;}</style></defs><g id="_7kIn2c"><path class="cls-2" d="M45.352,16.83c0,2.338-.001,4.675.001,7.013,0,.374-.132.665-.487.818-.1.043-.219.059-.33.059-1.027.004-2.054.003-3.08.002-.731,0-1.22-.481-1.225-1.21-.005-.746,0-1.492-.002-2.238-.001-.72-.513-1.227-1.238-1.227-1.12,0-2.24,0-3.36,0-.487,0-.897-.167-1.13-.614-.091-.175-.144-.391-.146-.59-.013-1.152-.006-2.304-.007-3.456,0-.825-.504-1.33-1.333-1.333-.733-.003-1.467,0-2.2-.001-.569-.001-1.036-.411-1.108-.975-.023-.178-.037-.357-.037-.536-.004-.899-.004-1.798,0-2.697.001-.361.106-.675.464-.837.099-.045.218-.069.327-.069,4.701-.003,9.401-.003,14.102-.002.401,0,.702.252.771.644.017.098.02.199.02.298.001,2.318,0,4.635,0,6.953Z"/><path class="cls-2" d="M31.448,31.037c-2.354,0-4.707-.009-7.061.008-.456.003-.825-.312-.841-.814-.002-.047,0-.093,0-.14,0-4.542,0-9.084.003-13.626,0-.17.013-.353.075-.508.122-.305.375-.465.706-.466,1.36-.004,2.72-.009,4.08.001.717.005,1.18.492,1.18,1.207,0,2.411-.002,4.822.002,7.232,0,.455.116.871.506,1.161.21.155.445.229.708.229,2.407-.002,4.814-.002,7.221,0,.515,0,.956.16,1.182.657.091.199.133.436.136.657.013,1.172,0,2.344.009,3.516.004.512-.324.901-.884.896-2.34-.021-4.68-.009-7.021-.009Z"/><path class="cls-1" d="M83.969,31.086h-2.9v-6.418c-.063.037-.104.048-.124.074-.66.871-1.589,1.258-2.622,1.453-1.47.277-2.892.132-4.236-.547-1.197-.605-2.032-1.561-2.536-2.789-.801-1.95-.791-3.913.103-5.824.789-1.688,2.144-2.722,3.961-3.151,1.103-.26,2.194-.231,3.264.153.8.287,1.478.753,2.005,1.426.042.054.092.101.171.189.062-.591.119-1.129.177-1.682h2.737v17.116ZM77.309,23.494c1.951-.016,3.451-1.44,3.451-3.476,0-2.071-1.455-3.474-3.45-3.471-2.035.003-3.449,1.416-3.454,3.46-.004,2.001,1.468,3.487,3.453,3.487Z"/><path class="cls-1" d="M113.478,15.584v-6.65h2.977v17.072h-2.727c-.06-.546-.12-1.089-.18-1.632-.015-.006-.029-.011-.044-.017-.063.087-.126.175-.191.261-.608.807-1.422,1.301-2.399,1.501-1.662.34-3.253.109-4.717-.758-1.501-.889-2.326-2.26-2.642-3.949-.236-1.261-.185-2.515.187-3.747.505-1.673,1.546-2.866,3.179-3.529.956-.388,1.956-.54,2.974-.45,1.195.106,2.271.545,3.16,1.375.148.138.258.315.423.522ZM109.798,16.5c-.047,0-.093,0-.14,0-1.092.013-1.972.447-2.613,1.333-.353.489-.534,1.047-.599,1.647-.089.826.006,1.617.4,2.358,1.019,1.914,3.421,2.22,4.99,1.196.905-.591,1.397-1.461,1.509-2.533.073-.696.019-1.386-.3-2.023-.667-1.332-1.773-1.96-3.247-1.979Z"/><path class="cls-1" d="M94.461,13.964h2.904v12.041h-2.621c-.059-.519-.119-1.047-.184-1.62-.163.143-.296.257-.427.375-.744.671-1.576,1.185-2.58,1.353-1.39.232-2.711.061-3.884-.779-.748-.535-1.273-1.257-1.629-2.101-.364-.863-.533-1.767-.538-2.7-.013-2.151-.02-4.301-.029-6.452,0-.032.005-.065.009-.11h2.932c0,.085,0,.164,0,.242,0,2.078-.006,4.156.004,6.234.003.592.14,1.163.433,1.683.438.776,1.114,1.219,1.994,1.335,1.05.138,1.967-.141,2.699-.929.541-.582.859-1.283.873-2.069.037-2.077.032-4.154.043-6.231,0-.085,0-.17,0-.27Z"/><path class="cls-1" d="M54.582,8.929h3.146v.261c0,4.209.009,8.417-.009,12.626-.003.692.555,1.278,1.28,1.269,2.046-.026,4.093-.009,6.14-.009.079,0,.159,0,.254,0v2.929c-.046.005-.097.015-.148.015-2.567,0-5.134.002-7.7-.004-.716-.002-1.335-.279-1.875-.735-.759-.642-1.1-1.472-1.1-2.459.003-4.562.001-9.123.002-13.685,0-.065.006-.13.01-.207Z"/><path class="cls-1" d="M66.797,13.967h2.915v12.115h-2.915v-12.115Z"/><path class="cls-1" d="M101.962,26.087h-2.885v-12.116h2.885v12.116Z"/><path class="cls-1" d="M99.063,10.354c0-.233-.004-.466,0-.699.009-.425.325-.733.752-.735.42-.002.84.019,1.259-.006.422-.025.843.255.854.818.009.452.009.905,0,1.357-.009.399-.298.689-.699.698-.493.01-.986.011-1.478,0-.372-.008-.674-.322-.685-.696-.007-.246-.001-.492-.001-.738,0,0,0,0-.001,0Z"/><path class="cls-1" d="M69.653,10.401c0,.22-.018.441.004.658.036.349-.264.724-.68.729-.493.006-.986.01-1.479,0-.377-.008-.686-.308-.704-.707-.022-.478-.025-.959,0-1.436.022-.445.35-.724.792-.725.44,0,.879-.002,1.319,0,.427.002.744.317.747.741.002.246,0,.492,0,.739,0,0,0,0,.001,0Z"/></g></svg>