<?xml version="1.0" encoding="UTF-8"?><svg id="Layer_1" xmlns="http://www.w3.org/2000/svg" xmlns:xlink="http://www.w3.org/1999/xlink" viewBox="0 0 140 40"><defs><style>.cls-1{fill:url(#linear-gradient);}.cls-1,.cls-2,.cls-3,.cls-4{stroke-width:0px;}.cls-2{fill:url(#linear-gradient-2);}.cls-3{fill:#f0bb31;}.cls-4{fill:#050505;}</style><linearGradient id="linear-gradient" x1="103.872" y1="-326.581" x2="103.872" y2="-331.345" gradientTransform="translate(0 -318.474) scale(1 -1)" gradientUnits="userSpaceOnUse"><stop offset="0" stop-color="#e5aa12"/><stop offset="1" stop-color="#fff" stop-opacity="0"/></linearGradient><linearGradient id="linear-gradient-2" x1="108.798" y1="-322.658" x2="108.798" y2="-331.343" xlink:href="#linear-gradient"/></defs><path class="cls-3" d="M103.916,8.439c.074-.118.181-.211.307-.269.126-.058.267-.077.404-.056.137.021.265.082.369.175.103.093.177.214.212.348l.819,3.385c.023.102.023.209,0,.311-.024.102-.071.198-.137.28s-.15.147-.246.191c-.095.044-.2.066-.305.064h-2.933c-.125.004-.249-.027-.358-.088-.109-.061-.199-.151-.261-.26-.062-.109-.093-.232-.09-.357.003-.125.04-.247.106-.353l2.112-3.373Z"/><path class="cls-1" d="M103.916,8.439c.074-.118.181-.211.307-.269.126-.058.267-.077.404-.056.137.021.265.082.369.175.103.093.177.214.212.348l.819,3.385c.023.102.023.209,0,.311-.024.102-.071.198-.137.28s-.15.147-.246.191c-.095.044-.2.066-.305.064h-2.933c-.125.004-.249-.027-.358-.088-.109-.061-.199-.151-.261-.26-.062-.109-.093-.232-.09-.357.003-.125.04-.247.106-.353l2.112-3.373Z"/><path class="cls-3" d="M105.632,5.025c-.173-.747.857-1.168,1.291-.527l4.951,7.312c.068.105.106.226.11.351.004.125-.026.248-.088.357-.061.109-.151.199-.26.261-.109.062-.232.092-.357.089h-3.235c-.159.002-.314-.049-.44-.147-.126-.097-.215-.234-.254-.389l-1.718-7.308Z"/><path class="cls-2" d="M105.632,5.025c-.173-.747.857-1.168,1.291-.527l4.951,7.312c.068.105.106.226.11.351.004.125-.026.248-.088.357-.061.109-.151.199-.26.261-.109.062-.232.092-.357.089h-3.235c-.159.002-.314-.049-.44-.147-.126-.097-.215-.234-.254-.389l-1.718-7.308Z"/><path class="cls-4" d="M32.322,26.314h5.65v3.305h-9.956V10.622h4.306v15.692Z"/><path class="cls-4" d="M53.914,15.643v13.975h-4.341v-1.92c-.465.639-1.079,1.155-1.79,1.502-.768.376-1.613.567-2.468.555-.992.025-1.974-.212-2.846-.686-.826-.484-1.494-1.199-1.92-2.057-.475-.99-.71-2.077-.686-3.175v-8.167h4.286v7.591c-.051.792.21,1.572.727,2.174.254.262.561.467.9.602.339.135.703.196,1.068.179.369.019.738-.041,1.082-.176.344-.135.656-.341.914-.606.517-.602.778-1.382.727-2.174v-7.591l4.347-.027Z"/><path class="cls-4" d="M65.345,29.617l-2.695-3.881-2.27,3.881h-4.663l4.635-7.138-4.758-6.857h4.834l2.702,3.854,2.27-3.854h4.663l-4.718,7.056,4.8,6.939h-4.8Z"/><path class="cls-4" d="M78.229,29.816c-1.297.021-2.579-.28-3.73-.878-1.083-.575-1.983-1.442-2.599-2.503-.641-1.164-.962-2.477-.933-3.806-.027-1.325.305-2.633.96-3.785.613-1.075,1.522-1.951,2.62-2.523,1.151-.598,2.433-.899,3.73-.878,1.297-.021,2.579.28,3.73.878,1.097.572,2.006,1.448,2.619,2.523.658,1.151.99,2.46.96,3.785.025,1.334-.314,2.65-.98,3.806-.624,1.071-1.543,1.939-2.647,2.503-1.151.598-2.433.899-3.73.878ZM78.229,26.113c.387.003.771-.076,1.126-.232.355-.156.672-.385.932-.673.311-.35.549-.758.701-1.2.152-.443.214-.911.184-1.378.062-.938-.246-1.864-.857-2.578-.258-.29-.575-.52-.93-.677-.355-.156-.74-.234-1.127-.229-.387-.003-.771.076-1.126.232-.354.156-.672.385-.932.673-.602.719-.899,1.644-.83,2.578-.061.929.224,1.848.802,2.578.258.29.575.52.93.677.355.156.739.234,1.127.229Z"/><path class="cls-4" d="M92.183,17.974c.479-.742,1.128-1.361,1.893-1.803.759-.456,1.631-.694,2.516-.686v4.532h-1.179c-.863-.069-1.722.174-2.42.686-.542.453-.809,1.255-.809,2.407v6.487h-4.306v-13.975h4.306v2.352Z"/></svg>