<?xml version="1.0" encoding="UTF-8"?><svg id="Layer_1" xmlns="http://www.w3.org/2000/svg" xmlns:xlink="http://www.w3.org/1999/xlink" viewBox="0 0 140 40"><defs><style>.cls-1{fill:url(#linear-gradient);}.cls-2{fill:#326ad5;}.cls-3{fill:#3156aa;}.cls-4{fill:#151617;}.cls-5{fill:#1972e2;}</style><linearGradient id="linear-gradient" x1="9.371" y1="827.821" x2="20.922" y2="832.356" gradientTransform="translate(-.503 -810.114)" gradientUnits="userSpaceOnUse"><stop offset="0" stop-color="#264ca2" stop-opacity="0"/><stop offset="1" stop-color="#234588"/></linearGradient></defs><g id="Layer_1-2"><g id="_2500575993552"><path class="cls-3" d="m25.418,22.98l-5.087-8.822c-1.116-1.838-3.832-1.859-4.91.075l-5.335,9.173c-.997,1.681.237,3.794,2.231,3.794h10.698c2.01,0,3.519-2.166,2.404-4.22Z"/><path class="cls-5" d="m18.083,23.665l-.313-.55c-.291-.507-.938-1.606-.938-1.606l-4.306-7.47c-1.11-1.66-3.751-1.8-4.867.296l-5.007,8.661c-1.035,1.822.194,4.187,2.447,4.204h17.876c-2.759.022-3.643-1.407-4.893-3.535h0Z"/><path class="cls-1" d="m18.083,23.665l-.313-.55c-.291-.507-.938-1.606-.938-1.606l-2.808-4.872-3.961,6.79c-.997,1.681.237,3.794,2.231,3.794h10.676c-2.775-.022-3.638-1.428-4.888-3.557h0Z"/><path class="cls-2" d="m136.005,26.499c-.846,0-1.509-.183-2.016-.501-.528-.345-.803-.846-.803-1.536v-9.986h1.326c.48,0,.895.388.895.895v8.795c0,.022,0,.437.345.776.205.205.458.318.803.318h.253c.092,0,.183.092.183.183v1.078l-.986-.022Z"/><path class="cls-2" d="m107.378,26.499c-1.374,0-2.495-.366-3.341-1.099-.437-.366-.733-.781-.916-1.234-.183-.458-.275-1.121-.275-2.016,0-.868.092-1.557.275-2.016.162-.437.458-.825.895-1.191.846-.733,1.972-1.099,3.341-1.099s2.495.366,3.341,1.099c.437.366.733.776.895,1.191.183.48.275,1.148.275,2.016,0,.895-.092,1.557-.275,2.016s-.48.868-.916,1.234c-.803.733-1.924,1.099-3.298,1.099h0Zm0-7.394c-1.509,0-2.269,1.029-2.269,3.066,0,2.064.754,3.093,2.269,3.093s2.269-1.029,2.269-3.066c0-2.064-.781-3.093-2.269-3.093Z"/><path class="cls-2" d="m116.863,26.499c-1.191,0-2.29-.318-3.228-.938-.092-.092-.275-.205-.507-.345-.043-.022-.092-.092-.092-.162v-10.579h1.353c.48,0,.895.415.895.895v3.093l.415-.232c.48-.253,1.121-.366,1.946-.366,1.444,0,2.544.437,3.277,1.283.641.754.965,1.762.965,3.002s-.366,2.247-1.099,2.975c-.857.916-2.183,1.374-3.923,1.374Zm.226-7.394c-.507,0-1.078.183-1.719.571l-.092.049v4.969l.092.07c.501.318,1.099.48,1.719.48.825,0,1.466-.345,1.902-1.029.366-.55.571-1.261.571-2.064,0-2.016-.846-3.045-2.474-3.045Z"/><path class="cls-2" d="m127.167,26.478c-2.517,0-4.101-1.649-4.101-4.328,0-2.657,1.557-4.306,4.053-4.306.959,0,1.784.253,2.452.733l.135.092v-.663h1.762c.113,0,.183.092.183.183v8.132h-1.967v-.733l-.135.113c-.55.501-1.423.776-2.382.776Zm.458-7.168c-1.579,0-2.517,1.213-2.517,2.84s.938,2.883,2.517,2.883c.501,0,1.374-.049,2.064-.733l.022-.022v-4.166l-.022-.022c-.485-.555-1.196-.781-2.064-.781Z"/><path class="cls-4" d="m45.794,26.386v-11.932h9.916v.754c0,.598-.48,1.078-1.078,1.078h-6.365v3.207h6.365v1.832h-6.365v3.207h6.365c.593,0,1.078.48,1.078,1.078v.754l-9.916.022h0Z"/><path class="cls-4" d="m69.954,14.454h-2.334c-.437,0-.825.183-1.099.528l-2.819,3.552-2.819-3.525c-.275-.345-.663-.528-1.099-.528h-2.334l4.743,5.955-4.743,5.955h2.334c.437,0,.825-.183,1.099-.528l2.819-3.525,2.84,3.552c.275.318.663.528,1.099.528h2.334l-4.743-5.955,4.721-6.009h0Z"/><path class="cls-4" d="m38.028,25.125l3.25-5.68v6.914h2.474v-11.926h-1.536c-.48,0-.938.253-1.169.69l-3.891,7.098-3.891-7.103c-.232-.437-.69-.69-1.169-.69h-1.531v11.932h2.474v-6.914l3.25,5.68h1.741Z"/><path class="cls-4" d="m76.416,26.521c-3.433.043-6.23-2.657-6.252-6.09,0-1.881.571-3.438,1.649-4.511,1.078-1.056,2.635-1.628,4.489-1.628,2.177,0,3.891.754,5.131,2.22l-.776.663c-.48.41-1.191.437-1.719.049-.69-.528-1.557-.781-2.544-.781-2.425,0-3.869,1.466-3.869,3.94,0,2.495,1.487,4.031,3.869,4.031,1.008,0,1.854-.275,2.544-.776.507-.388,1.213-.366,1.719.049l.776.663c-1.24,1.439-2.889,2.172-5.017,2.172Z"/><path class="cls-2" d="m91.646,26.521c-3.848,0-6.23-2.334-6.23-6.09s2.382-6.09,6.181-6.09c1.832,0,3.368.528,4.559,1.606l-.571.641c-.253.275-.62.437-.986.437-.205,0-.415-.049-.593-.14-.711-.366-1.536-.55-2.404-.55-2.474,0-4.01,1.579-4.01,4.123,0,2.565,1.601,4.144,4.166,4.144,1.24,0,2.199-.232,2.91-.733l.043-.022v-2.452h-2.727v-.803c0-.593.48-1.078,1.078-1.078h3.368c.092,0,.183.092.183.183v5.292c-1.169,1.008-2.84,1.531-4.969,1.531Z"/><path class="cls-2" d="m101.034,26.499c-.846,0-1.514-.183-2.016-.501-.528-.345-.803-.846-.803-1.536v-9.986h1.326c.48,0,.895.388.895.895v8.795c0,.022,0,.437.345.776.205.205.458.318.803.318h.253c.092,0,.183.092.183.183v1.078l-.986-.022h0Z"/></g></g></svg>