<?xml version="1.0" encoding="UTF-8"?><svg id="Layer_1" xmlns="http://www.w3.org/2000/svg" viewBox="0 0 140 40"><defs><style>.cls-1{fill:#1a4199;}.cls-2{fill:#3ca9e5;}.cls-3{fill:#2853c3;}.cls-4{fill:#60beff;}</style></defs><path class="cls-2" d="m36.767,10.624l10.758,6.216v6.333l-16.454-9.499,5.282-3.05c.13-.078.285-.078.415,0"/><path class="cls-3" d="m47.524,10.495l-5.476,3.166,5.476,3.166v-6.333Z"/><path class="cls-1" d="m47.524,10.495l5.282,3.05c.13.078.208.221.208.363v12.419l-5.489-3.166v-12.665Z"/><path class="cls-3" d="m53.013,26.339l-5.282,3.05c-.13.078-.285.078-.428,0l-10.758-6.216v-6.346l16.467,9.512Z"/><path class="cls-4" d="m31.07,13.674v12.419c0,.156.078.298.208.363l5.282,3.05v-12.678l-5.489-3.153Z"/><path class="cls-2" d="m36.559,29.505l5.476-3.166-5.476-3.166v6.333Z"/><path class="cls-3" d="m84.755,20.019c-.247-2.881-2.634-5.1-5.528-5.126h-.26c-.662.026-1.324.169-1.934.441l-.13.052h-.065c-1.985.921-3.244,2.92-3.218,5.1v.104c.156,3.063,2.673,5.489,5.736,5.515h3.179c.169,0,.311-.143.311-.311h0v-1.765c0-.169-.143-.311-.311-.311h-3.322c-1.376-.052-2.569-.96-2.998-2.284h8.149c.208,0,.389-.182.376-.402h0v-1.064m-2.634-.558h-5.865c.285-.792.869-1.453,1.622-1.817l.117-.065c1.596-.636,3.426.143,4.062,1.739.026.052.039.104.052.156m-15.52-4.516c-1.051.039-2.076.389-2.933.999v-.636c0-.104-.091-.195-.195-.195h-2.063c-.104,0-.195.091-.195.195h0v10.615c0,.169.143.311.311.311h1.817c.169,0,.311-.143.311-.311h0v-5.385c0-1.739,1.414-3.153,3.166-3.153.104,0,.195,0,.298.013,1.635.195,2.868,1.583,2.855,3.244v5.282c0,.169.143.311.311.311h1.843c.169,0,.311-.143.311-.311h0v-5.372c-.013-3.101-2.517-5.593-5.619-5.593-.091-.026-.156-.026-.221-.013m28.873.052c-.052-.052-.156-.052-.208,0l-3.893,3.906-3.841-3.841c-.052-.052-.156-.052-.208,0l-1.57,1.57c-.052.052-.052.156,0,.208l3.841,3.841-3.932,3.893c-.052.052-.052.156,0,.208l1.531,1.531c.078.078.195.078.273,0l3.867-3.867,3.841,3.841c.052.052.156.052.208,0l1.57-1.57c.052-.052.052-.156,0-.208l-3.841-3.841,3.893-3.893c.052-.052.052-.156,0-.208,0-.013-1.531-1.57-1.531-1.57Zm7.786-.104c-3.166-.013-5.749,2.53-5.775,5.697-.013,3.166,2.53,5.749,5.697,5.775,3.166.013,5.749-2.53,5.775-5.697v-.039c0-3.153-2.543-5.71-5.697-5.736m0,9.058c-1.843.013-3.348-1.453-3.361-3.296-.013-1.843,1.453-3.348,3.296-3.361,1.843-.013,3.348,1.453,3.361,3.296.013,1.843-1.466,3.335-3.296,3.361"/></svg>