<?xml version="1.0" encoding="UTF-8"?><svg id="Layer_1" xmlns="http://www.w3.org/2000/svg" viewBox="0 0 140 40"><path d="m58.089,11.357h-16.517c-.102,0-.2.04-.272.113-.072.072-.113.17-.113.272v16.517c0,.102.04.2.113.272.072.072.17.113.272.113h16.517c.102,0,.2-.04.272-.113.072-.072.113-.17.113-.272V11.741c0-.102-.04-.2-.113-.272-.072-.072-.17-.113-.272-.113Zm-5.378,11.14c0,.102-.04.2-.113.272s-.17.113-.272.113h-4.994c-.102,0-.2-.041-.272-.113-.072-.072-.112-.17-.112-.272v-4.994c0-.102.04-.2.112-.272.072-.072.17-.113.272-.113h4.994c.102,0,.2.04.272.113.072.072.113.17.113.272v4.994Z"/><path d="m92.669,17.12h-4.994c-.212,0-.384.172-.384.384v4.994c0,.212.172.384.384.384h4.994c.212,0,.384-.172.384-.384v-4.994c0-.212-.172-.384-.384-.384Z"/><path d="m86.905,11.358h-4.994c-.212,0-.384.172-.384.384v4.994c0,.212.172.384.384.384h4.994c.212,0,.384-.172.384-.384v-4.994c0-.212-.172-.384-.384-.384Z"/><path d="m98.429,11.358h-4.994c-.212,0-.384.172-.384.384v4.994c0,.212.172.384.384.384h4.994c.212,0,.384-.172.384-.384v-4.994c0-.212-.172-.384-.384-.384Z"/><path d="m86.905,22.881h-4.994c-.212,0-.384.172-.384.384v4.994c0,.212.172.384.384.384h4.994c.212,0,.384-.172.384-.384v-4.994c0-.212-.172-.384-.384-.384Z"/><path d="m98.429,22.881h-4.994c-.212,0-.384.172-.384.384v4.994c0,.212.172.384.384.384h4.994c.212,0,.384-.172.384-.384v-4.994c0-.212-.172-.384-.384-.384Z"/><path d="m78.255,11.358h-4.994c-.212,0-.384.172-.384.384v4.994c0,.212.172.384.384.384h4.994c.212,0,.384-.172.384-.384v-4.994c0-.212-.172-.384-.384-.384Z"/><path d="m78.255,22.881h-4.994c-.212,0-.384.172-.384.384v4.994c0,.212.172.384.384.384h4.994c.212,0,.384-.172.384-.384v-4.994c0-.212-.172-.384-.384-.384Z"/><path d="m72.877,17.499c0-.102-.041-.2-.113-.272-.072-.072-.17-.113-.272-.113h-5.378v-5.373c0-.102-.041-.2-.113-.272s-.17-.113-.272-.113h-4.994c-.102,0-.2.04-.272.113-.072.072-.113.17-.113.272v16.509c0,.102.04.2.113.272.072.072.17.113.272.113h4.994c.102,0,.2-.04.272-.113.072-.072.113-.17.113-.272v-5.373h5.378c.102,0,.2-.041.272-.113.072-.072.113-.17.113-.272v-4.994Z"/></svg>