<?xml version="1.0" encoding="UTF-8"?>
<svg id="Layer_1" data-name="Layer 1" xmlns="http://www.w3.org/2000/svg" viewBox="0 0 140 40">
  <defs>
    <style>
      .cls-1 {
        fill: #032b38;
      }

      .cls-2 {
        fill: #231f20;
      }

      .cls-3 {
        fill: #154556;
      }

      .cls-4 {
        fill: #5fc4b4;
      }
    </style>
  </defs>
  <path class="cls-4" d="m44.131,20.769v15.203l-13.031-7.545v-15.032c-.245.121-.379.177-.503.248-1.965,1.129-3.922,2.261-5.87,3.394-2.19,1.274-4.38,2.553-6.568,3.838h-.102c0-3.816-.008-7.631-.025-11.445v-3.661l1.015.574,11.511,6.646c.177.148.392.243.621.273.143.236.397.31.621.437,2.391,1.386,4.786,2.77,7.186,4.151,1.706.971,3.428,1.942,5.147,2.92Z"/>
  <path class="cls-1" d="m18.041,20.859h.102c.23.341.621.425.956.621,2.904,1.694,5.827,3.351,8.724,5.057,1.058.621,2.187,1.139,3.155,1.914l-10.754,6.245-2.082,1.198c-.174-.053-.124-.177-.124-.27v-14.517c0-.078.016-.161.022-.248Z"/>
  <path class="cls-1" d="m44.131,20.769c-1.719-.977-3.441-1.948-5.156-2.932-2.397-1.378-4.792-2.761-7.186-4.151-.217-.127-.472-.202-.621-.437l12.866-7.446c.053.056.099.084.099.112.004,4.952.003,9.903-.003,14.855Z"/>
  <path class="cls-3" d="m30.979,28.46c-.977-.776-2.097-1.291-3.149-1.914-2.898-1.706-5.82-3.363-8.724-5.057-.326-.189-.726-.273-.956-.621,2.186-1.276,4.379-2.553,6.577-3.832,1.955-1.136,3.912-2.267,5.873-3.394.124-.071.258-.127.503-.248v15.032c-.034.029-.08.042-.124.034Z"/>
  <path class="cls-2" d="m52.579,16.553h3.757c2.085,0,3.013,1.499,3.013,3s-.931,2.985-3.013,2.985h-1.806v3.162h-1.952v-9.146Zm1.952,1.713v2.575h1.713c.757,0,1.154-.704,1.154-1.288s-.357-1.288-1.101-1.288h-1.765Z"/>
  <path class="cls-2" d="m65.632,16.447c2.591-.031,4.716,2.044,4.747,4.635.031,2.591-2.044,4.716-4.635,4.747-2.591.031-4.716-2.044-4.747-4.635,0-.016,0-.033,0-.049-.024-2.57,2.04-4.673,4.61-4.697.008,0,.017,0,.025,0Zm0,7.446c1.528.039,2.799-1.167,2.838-2.695.039-1.528-1.167-2.799-2.695-2.838s-2.799,1.167-2.838,2.695c0,.026,0,.051,0,.077-.029,1.502,1.165,2.744,2.668,2.773.01,0,.019,0,.029,0v-.012Z"/>
  <path class="cls-2" d="m72.693,16.553h1.952v7.446h3.413v1.7h-5.364v-9.146Z"/>
  <path class="cls-2" d="m84.163,16.447c2.591-.033,4.717,2.041,4.75,4.632.033,2.591-2.041,4.717-4.632,4.75-2.591.033-4.717-2.041-4.75-4.632,0-.017,0-.035,0-.052-.024-2.57,2.04-4.673,4.61-4.697.007,0,.015,0,.022,0Zm0,7.446c1.528.039,2.799-1.167,2.838-2.695.039-1.528-1.167-2.799-2.695-2.838s-2.799,1.167-2.838,2.695c0,.026,0,.051,0,.077-.027,1.504,1.17,2.746,2.674,2.773.007,0,.015,0,.022,0v-.012Z"/>
  <path class="cls-2" d="m98.091,25.699h-1.741l-3.186-5.535v5.535h-1.936v-9.146h1.778l3.134,5.47v-5.47h1.952v9.146Z"/>
  <path class="cls-2" d="m102.974,16.553v9.146h-1.924v-9.146h1.924Z"/>
  <path class="cls-2" d="m105.922,16.553h5.789v1.713h-3.835v2.082h3.373v1.688h-3.373v1.952h3.968v1.713h-5.895l-.028-9.146Z"/>
  <path class="cls-2" d="m118.813,20.825l3.174,4.874h-2.299l-2.029-3.32-2.026,3.32h-2.283l3.162-4.874-2.882-4.272h2.336l1.7,2.733,1.713-2.733h2.321l-2.885,4.272Z"/>
</svg>