<?xml version="1.0" encoding="UTF-8"?><svg id="Layer_1" xmlns="http://www.w3.org/2000/svg" viewBox="0 0 140 40"><defs><style>.cls-1{fill:#0052ff;}</style></defs><path class="cls-1" d="m47.227,21.146c-.537,2.844-3.032,4.995-6.032,4.995-3.392,0-6.141-2.749-6.141-6.141s2.749-6.141,6.141-6.141c3,0,5.496,2.152,6.032,4.995h6.196c-.578-6.246-5.832-11.136-12.229-11.136-6.784,0-12.282,5.499-12.282,12.282s5.499,12.282,12.282,12.282c6.397,0,11.651-4.89,12.229-11.136h-6.196Z"/><g><path d="m97.861,16.399c-.197.28-.266.591-.382.88-.138.343-.259.694-.387,1.041-.126.341-.252.682-.379,1.023-.125.335-.251.669-.375,1.003-.18.485-.359.971-.539,1.457-.164.442-.329.883-.494,1.325-.191.511-.395,1.016-.571,1.533-.137.401-.3.793-.452,1.189-.033.086-.109.094-.185.094-.346.001-.692.003-1.039,0-.146,0-.227-.078-.278-.22-.179-.5-.372-.995-.557-1.494-.173-.467-.339-.937-.514-1.404-.178-.473-.365-.942-.545-1.414-.12-.315-.232-.633-.349-.95-.12-.328-.24-.656-.362-.984-.19-.511-.376-1.023-.572-1.532-.16-.414-.334-.823-.459-1.25-.008-.028-.038-.067-.064-.071-.05-.008-.067.041-.072.08-.01.074-.016.148-.016.222,0,2.905,0,5.81.002,8.715,0,.257-.012.272-.276.274-.394.002-.788-.003-1.181.003-.175.003-.254-.048-.254-.244.005-3.718.004-7.435.004-11.153,0-.338.019-.356.356-.356.631,0,1.263,0,1.894,0,.369,0,.397.021.52.368.235.667.488,1.327.747,1.985.182.463.337.937.512,1.403.171.453.356.9.529,1.352.127.333.242.672.366,1.006.112.303.231.603.345.905.188.497.375.995.564,1.492.045.12.094.238.143.356.015.036.026.087.077.077.026-.005.055-.04.066-.068.101-.25.201-.501.297-.753.19-.497.379-.993.564-1.492.128-.347.245-.699.373-1.046.116-.315.244-.626.361-.941.184-.491.362-.985.546-1.477.173-.46.352-.917.526-1.376.124-.327.238-.659.368-.984.09-.225.143-.463.268-.675.053-.091.115-.135.226-.135.733.004,1.466.004,2.2,0,.139,0,.2.062.205.192.003.061.003.122.003.183,0,3.711,0,7.422.004,11.133,0,.185-.053.254-.243.249-.414-.01-.828-.009-1.242,0-.171.003-.241-.046-.241-.23.005-2.973.005-5.946.004-8.918,0-.118.023-.24-.04-.374Z"/><path d="m80.435,25.843c-.092.083-.179.085-.268.085-.665-.002-1.331-.015-1.995.005-.249.008-.423-.084-.59-.24-.621-.579-1.25-1.148-1.872-1.725-.583-.542-1.185-1.065-1.748-1.63-.347-.348-.73-.661-1.097-.99-.048-.043-.088-.118-.169-.076-.076.039-.049.119-.049.183,0,1.408-.004,2.816.004,4.224.001.194-.048.259-.249.252-.461-.015-.923-.01-1.384-.002-.153.003-.2-.051-.199-.2.003-3.771.004-7.542,0-11.312,0-.197.047-.266.262-.264,1.629.01,3.258.008,4.886.004.647-.001,1.279.104,1.878.335.689.265,1.236.715,1.619,1.365.467.791.512,1.653.396,2.515-.094.699-.402,1.338-.964,1.808-.303.253-.636.464-1.015.605-.744.277-1.512.326-2.292.297-.061-.002-.122-.001-.183,0-.054.002-.112,0-.132.067-.016.055.021.088.057.12.179.165.356.332.537.493.407.364.803.741,1.216,1.096.424.364.847.732,1.258,1.11.572.527,1.183,1.011,1.725,1.57.107.11.237.197.371.306Zm-7.792-8.148c0,.569.003,1.138-.002,1.707-.002.186.059.264.261.262.964-.009,1.928-.006,2.892-.003.451.001.893-.047,1.308-.238.39-.179.687-.464.828-.869.184-.529.205-1.068.028-1.612-.151-.466-.444-.791-.888-.988-.404-.18-.83-.23-1.266-.23-.964-.001-1.928,0-2.892,0-.24,0-.268.026-.268.268-.001.568,0,1.137,0,1.706Z"/><path d="m59.489,20.068c0-1.841-.002-3.683.002-5.524,0-.45-.038-.383.375-.384,1.608-.005,3.217,0,4.825-.003.613,0,1.213.108,1.779.318.884.328,1.538.936,1.889,1.822.117.296.195.61.209.941.019.42.034.84-.045,1.25-.173.902-.65,1.622-1.43,2.108-.402.251-.856.396-1.328.508-.639.152-1.278.102-1.918.113-.699.011-1.398.003-2.097.003q-.412,0-.412.4c.002,1.367.003,2.735.008,4.102,0,.151-.065.206-.207.205-.475-.002-.95-.007-1.425.002-.179.003-.229-.058-.228-.236.006-1.875.004-3.75.004-5.625Zm1.849-2.399c0,.548,0,1.097,0,1.645,0,.269.036.306.304.307.855.001,1.711.001,2.566,0,.48,0,.958.002,1.42-.173.264-.1.492-.242.675-.453.31-.358.411-.788.435-1.249.015-.291-.057-.56-.135-.833-.102-.358-.336-.605-.635-.803-.417-.276-.893-.342-1.374-.349-.998-.014-1.996-.003-2.994-.007-.19,0-.268.077-.265.268.007.548.003,1.097.003,1.645Z"/><path d="m82.453,20.067c0-1.848,0-3.696,0-5.545q0-.366.356-.365c.387,0,.774,0,1.161,0,.292,0,.31.02.31.335,0,3.656,0,7.312,0,10.967q0,.46-.473.461c-.366,0-.733-.008-1.099.003-.191.006-.259-.048-.259-.252.008-1.869.004-3.737.005-5.606Z"/><path d="m102.906,20.041v-5.504c0-.068.004-.136,0-.203-.007-.153.054-.213.217-.211.781.008,1.561.004,2.342.004,1.758,0,3.516,0,5.274,0,.338,0,.344.006.344.338,0,.366-.009.732.003,1.097.007.194-.085.25-.253.25-.271,0-.543,0-.815,0h-4.968c-.293,0-.294.002-.294.294v2.742c0,.252.004.257.265.257,1.744,0,3.489,0,5.233,0,.316,0,.336.022.334.331-.002.305-.002.609,0,.914.002.274-.025.304-.297.304-1.738,0-3.475,0-5.213,0q-.323,0-.323.323c0,1.009,0,2.018,0,3.026,0,.311.013.323.316.323,1.88,0,3.76,0,5.64,0,.366,0,.37.004.37.355,0,.352-.005.704.003,1.056.003.137-.039.203-.18.197-.061-.003-.122.004-.183.004-2.518,0-5.036,0-7.555,0q-.264,0-.264-.272c0-1.876,0-3.751,0-5.627Zm.048.02v5.546q0,.285.293.286h7.413c.034,0,.068-.001.102,0,.141.004.203-.038.192-.203-.02-.317-.015-.636-.007-.954.008-.305.015-.306-.287-.306h-5.621c-.308,0-.315-.004-.315-.32,0-1.07,0-2.14,0-3.21q0-.292.289-.292c1.745,0,3.489-.003,5.234.003.188,0,.251-.055.242-.244-.014-.311-.004-.623-.004-.934q0-.28-.279-.281c-1.738,0-3.475,0-5.213,0-.264,0-.268-.004-.268-.256,0-.962,0-1.923,0-2.884,0-.29.02-.308.313-.308,1.88,0,3.761,0,5.641,0,.251,0,.265-.014.266-.263.001-.305,0-.609,0-.914,0-.29-.006-.296-.295-.296h-7.413c-.279,0-.282.001-.282.284,0,1.849,0,3.698,0,5.546Z"/><path d="m102.953,20.061c0-1.849,0-3.697,0-5.546,0-.283.002-.284.282-.284h7.413c.289,0,.295.005.295.296,0,.305,0,.609,0,.914,0,.249-.015.263-.266.263h-5.641c-.293,0-.313.019-.313.308,0,.962,0,1.923,0,2.884,0,.252.004.256.268.256,1.738,0,3.475,0,5.213,0q.28,0,.279.281c0,.311-.01.623.004.934.009.189-.054.245-.242.244-1.745-.006-3.489-.004-5.234-.003q-.289,0-.289.292c0,1.07,0,2.14,0,3.21,0,.316.007.32.315.32,1.873,0,3.747,0,5.621,0,.302,0,.295,0,.287.306-.008.318-.013.637.007.954.011.165-.051.207-.192.203-.034-.001-.068,0-.102,0h-7.413q-.293,0-.293-.286c0-1.849,0-3.698,0-5.546Z"/></g></svg>