<?xml version="1.0" encoding="UTF-8"?><svg id="Layer_1" xmlns="http://www.w3.org/2000/svg" xmlns:xlink="http://www.w3.org/1999/xlink" viewBox="0 0 140 40"><defs><style>.cls-1{fill:url(#linear-gradient);}.cls-2{fill:#0f0f0f;}.cls-3{fill:rgba(255,255,255,.01);}.cls-4{opacity:.01;}</style><linearGradient id="linear-gradient" x1="41.432" y1="-1244.027" x2="12.341" y2="-1244.027" gradientTransform="translate(0 -1224.316) scale(1 -1)" gradientUnits="userSpaceOnUse"><stop offset="0" stop-color="#0575e6"/><stop offset="1" stop-color="#02f260"/></linearGradient></defs><path class="cls-1" d="m25.856,37.93h-.708c-.23,0-.31,0-.478-.053,1.409-2.551,3.37-4.754,5.74-6.446s5.088-2.83,7.954-3.331c.826-.135,1.66-.212,2.496-.231-.468,1.26-1.099,2.453-1.877,3.549-2.063.307-4.043,1.026-5.822,2.116-1.779,1.09-3.322,2.527-4.535,4.227-.779.118-1.567.175-2.355.169-.139.008-.277.008-.416,0Zm-13.774-11.605c-.387-1.975-.375-4.007.034-5.977.409-1.97,1.207-3.838,2.348-5.494.947,6.095,7.312,7.532,13.411,7.532h13.889c.009.171.009.343,0,.515-.046,1.432-.291,2.85-.726,4.214-3.533.114-6.975,1.158-9.978,3.027s-5.464,4.497-7.133,7.62c-2.895-.486-5.576-1.838-7.69-3.879-2.114-2.041-3.562-4.676-4.154-7.557Zm26.415,5.687c-2.276,2.904-5.507,4.904-9.118,5.643,2.239-2.942,5.482-4.951,9.109-5.643h.009ZM15.472,4.829c.63-1.249,1.468-2.38,2.479-3.345-.466,1.464-.434,3.042.09,4.487.524,1.445,1.51,2.675,2.805,3.498-2.456,1.362-4.624,3.192-6.382,5.385-1.195-3.096-.602-6.814,1.009-10.025Z"/><path class="cls-2" d="m52.615,35.819l-3.691-13.787v-.08c0-.124.08-.186.23-.186h1.992c.064-.004.127.014.178.051.052.037.089.091.105.153l2.31,9.289s0,.062.062.062c.016-.002.031-.009.042-.02.011-.011.018-.026.02-.042l2.204-9.289c.013-.06.046-.114.095-.151.049-.037.109-.056.171-.053h1.947c.063-.004.126.014.178.051.052.037.089.091.105.153l2.364,9.307c0,.044,0,.062.053.062s.053,0,.062-.062l2.275-9.307c.018-.061.055-.114.107-.151.051-.037.114-.056.177-.053h1.894c.186,0,.266.089.221.266l-3.541,13.787c-.015.063-.051.118-.104.155-.052.038-.116.055-.18.049h-1.877c-.065.006-.13-.011-.184-.048s-.092-.093-.109-.156l-2.372-9.759c-.005-.016-.013-.03-.023-.042-.011-.012-.024-.022-.039-.029,0,0-.044,0-.062.071l-2.275,9.759c-.013.06-.046.114-.095.151-.049.037-.109.056-.171.053h-1.77c-.066.009-.134-.007-.189-.045-.055-.038-.095-.094-.112-.159Z"/><path class="cls-2" d="m75.029,26.432c.338.352.599.77.768,1.228.169.458.242.946.214,1.434v6.681c.001.033-.004.066-.016.097-.012.031-.03.059-.054.082-.023.023-.051.042-.082.054-.031.012-.063.018-.096.016h-1.868c-.063,0-.124-.026-.168-.071-.026-.021-.046-.048-.059-.079-.012-.031-.017-.065-.012-.098v-6.21c.02-.552-.17-1.091-.531-1.508-.176-.197-.394-.351-.638-.452s-.507-.147-.77-.133c-.261-.01-.522.036-.764.133-.243.098-.462.246-.643.434-.371.412-.565.954-.54,1.508v6.21c.001.033-.004.066-.016.097-.012.031-.03.059-.054.082-.023.023-.051.042-.082.054-.031.012-.063.018-.096.016h-1.868c-.063,0-.124-.026-.168-.071-.026-.021-.046-.048-.059-.079-.012-.031-.017-.065-.012-.098v-13.743c-.004-.033,0-.067.012-.098.012-.031.033-.058.059-.079.045-.045.105-.071.168-.071h1.868c.033-.001.066.004.096.016.031.012.058.03.082.054.023.023.042.051.054.082.012.031.018.064.016.097v4.498c-.008.012-.012.026-.012.04,0,.014.004.028.012.04,0,0,.053,0,.062-.044.303-.381.695-.681,1.141-.875.446-.193.933-.274,1.417-.234.486-.029.972.043,1.429.211.457.168.874.428,1.226.765l-.018.018Z"/><path class="cls-2" d="m84.439,25.9c.604.267,1.124.693,1.505,1.233.354.523.539,1.142.531,1.774v6.858c.001.034-.006.067-.019.098-.014.031-.034.058-.06.079-.044.045-.105.071-.168.071h-1.832c-.033.001-.066-.004-.096-.016-.031-.012-.058-.03-.082-.054-.023-.023-.041-.051-.054-.082-.012-.031-.018-.064-.016-.096v-.719c-.014-.006-.029-.01-.044-.01s-.03.003-.044.01c-.373.381-.824.677-1.323.867-.498.19-1.031.269-1.563.233-.899.038-1.783-.235-2.505-.772-.335-.277-.599-.629-.77-1.029-.171-.4-.244-.835-.213-1.269-.025-.471.062-.941.254-1.372s.485-.809.852-1.103c.906-.646,2.006-.96,3.116-.887h2.178c.023.009.048.009.071,0,.009-.026.009-.054,0-.08v-.488c.013-.226-.022-.452-.103-.663s-.206-.402-.367-.561c-.391-.324-.893-.483-1.399-.444-.433-.017-.862.078-1.248.275-.148.078-.279.186-.382.317-.104.132-.179.284-.22.446,0,.169-.133.231-.283.204l-1.974-.248c-.065-.007-.126-.031-.177-.071-.014-.017-.022-.039-.022-.062s.008-.045.022-.062c.056-.418.204-.818.434-1.171.23-.353.535-.65.894-.87.873-.558,1.895-.837,2.93-.798.779-.015,1.552.139,2.266.452l-.089.009Zm-1.036,7.878c.218-.148.397-.348.521-.581.124-.234.188-.494.188-.758v-.958c.008-.026.008-.054,0-.08-.026-.009-.054-.009-.08,0h-1.735c-.591-.027-1.177.115-1.691.408-.198.12-.359.292-.468.496-.109.204-.161.434-.151.666-.009.195.029.389.113.566.083.176.209.329.365.446.358.248.787.373,1.222.355.613.019,1.214-.169,1.708-.532l.009-.027Z"/><path class="cls-2" d="m92.707,36.387c-.898.055-1.798-.057-2.656-.328-.606-.203-1.108-.637-1.399-1.207-.308-.728-.45-1.516-.416-2.307v-10.496c0-.063.026-.124.071-.169.049-.043.112-.069.177-.071h1.841c.033,0,.065.006.096.018.03.012.058.03.081.053.045.045.07.105.071.169l.018,10.487c-.026.26.004.523.088.771.084.248.22.475.399.666.481.332,1.066.477,1.646.408.177,0,.266.062.266.231v1.508c.003.033-.002.066-.013.097-.012.031-.03.059-.054.082-.024.023-.052.04-.084.051-.031.01-.065.014-.097.01l-.035.027Z"/><path class="cls-2" d="m102.771,30.762v.63c.004.034,0,.068-.011.1s-.028.062-.051.086c-.024.024-.054.041-.086.05-.032.009-.066.01-.1.003h-6.373c-.026-.009-.054-.009-.08,0-.008.026-.008.054,0,.08.016.304.079.603.186.887.168.482.494.892.925,1.163s.942.387,1.447.328c.433.011.861-.088,1.245-.289.384-.2.711-.495.95-.856.021-.035.051-.063.087-.083.035-.02.075-.031.116-.032.026-.001.053.004.078.015.025.011.046.027.063.047l1.266,1.038c.026.015.049.035.068.06.019.024.031.052.038.082.005.032.004.064-.006.095-.009.031-.025.059-.047.083-.423.604-1.002,1.082-1.673,1.384-.729.337-1.525.504-2.328.488-.935.027-1.858-.22-2.656-.71-.758-.439-1.354-1.111-1.7-1.916-.353-.977-.512-2.014-.469-3.052-.02-.648.064-1.295.248-1.916.256-.889.805-1.665,1.558-2.2.783-.583,1.734-.894,2.709-.887,2.656,0,4.17,1.393,4.515,4.196.053.373.079.75.079,1.127Zm-5.842-2.919c-.34.264-.586.631-.699,1.047-.096.286-.15.585-.159.887,0,.062,0,.098.08.098h4.125c.011.007.023.011.035.011.013,0,.026-.004.036-.011.006-.011.009-.023.009-.035,0-.013-.003-.025-.009-.036-.014-.261-.056-.52-.124-.772-.099-.454-.352-.859-.717-1.144-.394-.283-.87-.426-1.355-.408-.447-.018-.887.117-1.248.382l.027-.018Z"/><path class="cls-2" d="m115.439,23.788c-.264-.241-.436-.567-.486-.921-.049-.355.026-.715.213-1.02.187-.305.475-.534.813-.649.339-.115.706-.107,1.04.022.334.129.612.37.786.682.175.312.235.676.17,1.028-.064.352-.25.67-.524.9-.274.23-.62.356-.977.357-.19.008-.381-.024-.559-.092-.178-.069-.34-.173-.477-.307Zm-.115,12.163c-.045-.048-.07-.112-.071-.177v-9.937c0-.033.005-.065.018-.096.012-.031.03-.058.053-.082.048-.045.111-.07.177-.071h1.867c.063,0,.123.026.168.071.025.022.044.049.056.08.012.031.017.064.014.097v9.937c.002.032-.004.063-.016.092-.012.029-.031.055-.055.076-.045.045-.105.071-.168.071h-1.867c-.033.003-.065-.002-.095-.012-.031-.011-.058-.028-.082-.05Z"/><path class="cls-2" d="m127.203,26.432c.339.351.603.769.773,1.227.171.458.245.946.219,1.435v6.681c0,.033-.004.066-.017.097-.011.031-.03.059-.053.082-.024.023-.051.042-.082.054-.031.012-.063.018-.096.016h-1.868c-.033.001-.065-.004-.096-.016-.031-.012-.058-.03-.082-.054-.023-.023-.041-.051-.053-.082-.012-.031-.018-.064-.017-.097v-6.21c.028-.553-.162-1.095-.531-1.508-.175-.195-.391-.349-.634-.45-.242-.101-.503-.147-.764-.135-.272-.007-.542.046-.792.154s-.472.271-.652.476c-.37.412-.564.954-.54,1.508v6.21c0,.033-.006.065-.018.096-.012.03-.031.058-.054.082-.044.045-.105.071-.168.071h-1.877c-.063,0-.123-.026-.168-.071-.023-.023-.041-.051-.053-.082-.012-.031-.018-.063-.018-.096v-9.954c0-.033.005-.065.018-.096.012-.031.03-.058.053-.082.045-.045.105-.071.168-.071h1.877c.063,0,.123.026.168.071.023.023.041.051.054.082.011.03.018.063.018.096v.648c-.006.013-.009.026-.009.04s.003.027.009.04l.062-.044c.305-.385.701-.689,1.152-.882s.943-.272,1.433-.227c.484-.024.968.052,1.421.223.454.171.868.433,1.216.771Z"/><path class="cls-2" d="m113.411,21.837c-.023-.023-.051-.041-.081-.053-.03-.012-.063-.018-.095-.018h-5.736c-.822,0-1.61.327-2.191.909-.581.582-.907,1.372-.907,2.196v10.904c-.002.033.004.066.016.096.012.031.031.059.054.082.023.023.051.042.082.054.03.012.063.018.096.016h1.876c.063,0,.124-.026.168-.071.023-.023.041-.051.053-.082.012-.03.019-.063.018-.096v-5.82c0-.028.011-.055.032-.075.019-.02.047-.031.075-.031h4.647c.033,0,.065-.006.095-.018.031-.012.058-.03.082-.053.045-.045.07-.105.071-.169v-1.508c-.003-.066-.027-.128-.071-.177-.024-.023-.051-.041-.082-.053-.03-.012-.063-.018-.095-.018h-4.647c-.013.001-.027,0-.04-.005-.013-.004-.025-.011-.035-.021-.01-.009-.018-.02-.023-.033-.005-.012-.009-.026-.009-.039v-2.316c0-.435.173-.853.48-1.161.308-.308.724-.481,1.159-.481h4.842c.033.003.066-.002.097-.014.03-.012.058-.032.079-.057.045-.045.071-.105.071-.169v-1.553c-.002-.032-.01-.063-.023-.092-.014-.029-.034-.055-.057-.076Z"/><g class="cls-4"><rect class="cls-3" x="11.807" y="1.484" width="116.388" height="37.031"/></g></svg>