<?xml version="1.0" encoding="UTF-8"?><svg id="Layer_1" xmlns="http://www.w3.org/2000/svg" viewBox="0 0 140 40"><defs><style>.cls-1{fill:#c1a172;}</style></defs><path class="cls-1" d="m45.576,25.11c.104-.939.245-1.821.822-2.564.279-.36.655-.533,1.106-.538.558-.005,1.115-.001,1.673-.001.331,0,.323-.002.405-.318.671-2.577,2.278-4.285,4.838-5,3.68-1.029,7.423,1.181,8.363,4.886.119.468.163.96.188,1.444.032.612,0,1.227.013,1.84.004.205-.063.257-.261.257-3.067-.006-6.134-.004-9.201-.005h-.33c.059.104.086.166.126.218.712.942,1.653,1.458,2.838,1.482.927.019,1.854.008,2.781,0,.182-.002.241.05.239.236-.009.913-.008,1.826,0,2.739.001.176-.058.227-.229.226-.927-.006-1.854.001-2.781-.004-1.816-.011-3.365-.674-4.668-1.927-.804-.773-1.377-1.694-1.73-2.751-.056-.168-.136-.225-.312-.223-1.199.007-2.398.004-3.597.004h-.283Zm7.278-3.131h6.699c-.34-1.148-1.624-2.411-3.417-2.371-1.523.034-3.142,1.226-3.282,2.371h0Z"/><path class="cls-1" d="m81.925,16.217c2.183.028,3.935.685,5.349,2.126,1.047,1.067,1.649,2.367,1.85,3.849.264,1.943-.138,3.73-1.314,5.31-1.103,1.482-2.599,2.353-4.411,2.669-1.565.273-3.087.102-4.516-.611-2.172-1.083-3.425-2.859-3.79-5.247-.268-1.749.049-3.404,1.004-4.903,1.112-1.746,2.738-2.733,4.759-3.088.409-.072.829-.083,1.069-.105h0Zm-2.802,7.05c.017.531.078,1.063.291,1.563.465,1.09,1.243,1.791,2.465,1.878,1.062.075,1.917-.331,2.54-1.199.405-.564.594-1.203.643-1.892.073-1.021-.126-1.963-.756-2.795-1.116-1.472-3.385-1.439-4.449.041-.518.721-.71,1.529-.733,2.404h0Z"/><path class="cls-1" d="m40.206,19.632h-.264c-1.596,0-3.193.002-4.789,0-1.526-.003-2.8-1.013-3.152-2.498-.04-.168-.051-.343-.072-.515-.015-.122.034-.187.164-.177.035.003.07,0,.105,0,3.353,0,6.706-.002,10.059,0,1.51.001,2.789,1.022,3.133,2.492.024.102.043.204.058.308.038.253-.01.446-.233.634-2.041,1.72-4.069,3.456-6.1,5.187-.605.515-1.209,1.031-1.815,1.544-.053.045-.117.075-.177.112l.041.077c.091.007.182.019.273.019,2.572.001,5.144,0,7.717,0,.21,0,.315.102.315.305,0,.871-.005,1.743.004,2.614.002.202-.047.28-.267.28-3.395-.007-6.789.002-10.184-.008-1.632-.005-3.081-1.438-3.087-3.03,0-.1.06-.232.136-.297,2.653-2.27,5.311-4.534,7.969-6.798.068-.058.143-.107.215-.16l-.047-.088h0Z"/><path class="cls-1" d="m106.123,9.711c-1.516,2.818-3.004,5.585-4.51,8.383h6.361c-.041.088-.073.161-.11.232-.195.37-.402.734-.583,1.11-.088.182-.196.248-.4.247-1.924-.008-3.847,0-5.771-.01-.255-.001-.397.066-.518.303-.425.831-.883,1.645-1.32,2.47-.074.14-.156.204-.322.2-.493-.011-.987-.004-1.539-.004.53-.995,1.04-1.951,1.57-2.945-.12-.009-.187-.019-.253-.019-1.331,0-2.663.002-3.994-.004-.174,0-.262.066-.34.211-.459.853-.929,1.7-1.386,2.553-.085.158-.186.212-.362.207-.418-.012-.836-.004-1.255-.004-.067,0-.135-.006-.247-.011,1.519-2.782,3.02-5.533,4.549-8.333h-6.139c.023-.077.029-.122.049-.16.213-.4.434-.795.638-1.199.083-.164.185-.224.373-.224,1.896.008,3.792.001,5.688.009.203,0,.31-.064.403-.244.439-.855.895-1.702,1.337-2.556.08-.156.173-.223.355-.219.5.012,1.001.004,1.552.004-.548,1.007-1.077,1.98-1.628,2.991.119.008.191.017.263.018,1.303,0,2.607-.003,3.91.005.173,0,.262-.061.339-.209.454-.863.92-1.72,1.373-2.584.085-.162.183-.231.372-.225.493.014.987.005,1.543.005h0Zm-10.74,8.362h.317c1.282,0,2.563-.005,3.845.005.21.002.325-.065.424-.249.592-1.096,1.196-2.186,1.795-3.279.038-.069.061-.145.103-.246-.111-.008-.185-.018-.26-.018-1.295,0-2.591.002-3.886-.004-.176,0-.276.06-.361.214-.617,1.115-1.242,2.225-1.864,3.337-.033.059-.058.122-.113.24h0Z"/><path class="cls-1" d="m69.183,19.441c.032-.064.068-.126.096-.192.344-.806.75-1.574,1.394-2.187.98-.933,2.116-1.095,3.366-.656.128.045.208.111.207.27-.006,1.08-.003,2.16-.004,3.24,0,.047-.013.094-.024.17-.103-.031-.193-.056-.282-.086-.875-.297-1.765-.405-2.667-.149-.815.232-1.491.685-1.994,1.371-.087.119-.143.29-.144.437-.008,2.683-.006,5.365-.006,8.048,0,.204-.103.305-.31.306-1.219,0-2.439-.005-3.658.005-.213.002-.27-.061-.27-.272.006-4.348.006-8.696,0-13.044,0-.216.064-.269.272-.268,1.233.009,2.467.009,3.7,0,.211-.002.274.056.271.27-.012.836-.005,1.672-.005,2.508v.218l.058.011h0Z"/><path class="cls-1" d="m92.437,26.436c.096-.1.186-.205.288-.299.713-.656,1.876-.454,2.237.4.082.194.125.417.129.628.014.864.002,1.728.01,2.592.002.174-.065.215-.222.209-.278-.009-.558-.01-.836,0-.165.006-.218-.052-.216-.216.007-.704.004-1.407.002-2.111,0-.097-.007-.195-.025-.29-.053-.29-.202-.509-.499-.583-.32-.08-.614-.006-.839.241-.061.067-.083.189-.084.286-.006.815-.008,1.63,0,2.446.002.171-.048.236-.224.228-.278-.012-.557-.009-.836,0-.148.004-.212-.036-.212-.198.004-1.798.004-3.595.001-5.393,0-.123.028-.188.168-.205.31-.039.618-.095.926-.149.153-.027.175.053.175.178-.003.669-.001,1.338-.001,2.007v.219l.058.012h0Z"/><path class="cls-1" d="m105.355,26.471c.176-.161.294-.278.421-.385.595-.499,1.507-.433,1.993.144.186.22.292.479.295.766.008.927.003,1.854.009,2.781,0,.151-.064.191-.203.188-.279-.007-.558-.01-.836,0-.172.007-.214-.07-.212-.225.005-.641.004-1.282,0-1.924,0-.153-.01-.307-.028-.458-.035-.298-.256-.544-.53-.606-.305-.069-.722.073-.856.31-.044.079-.05.186-.051.281-.004.788-.008,1.575.002,2.363.002.201-.058.272-.261.26-.257-.016-.516-.012-.773-.001-.165.007-.222-.054-.219-.217.007-.425.002-.85.002-1.275,0-1.345.003-2.69-.003-4.036,0-.178.042-.268.234-.285.249-.021.496-.07.743-.106.181-.026.272.054.273.242,0,.572,0,1.143,0,1.715v.467h0Z"/><path class="cls-1" d="m98.186,27.766c.148-.588-.107-.973-.677-.969-.348.002-.695.107-1.041.172-.086.016-.168.057-.268.092-.145-.29-.283-.567-.429-.858.505-.237,1.009-.405,1.54-.425.378-.014.772.002,1.135.095.645.165.999.653,1.011,1.32.015.857.004,1.714.009,2.57.001.157-.062.208-.213.202-.223-.009-.446-.002-.669-.002-.219,0-.349-.115-.39-.345-.077.049-.142.091-.209.132-.546.336-1.119.37-1.696.111-.498-.224-.709-.659-.66-1.257.034-.415.353-.77.839-.908.486-.138.975-.135,1.463.002.084.024.169.046.254.068h0Zm-.647.573v-.016c-.118.009-.238.005-.352.029-.268.055-.418.215-.412.422.006.204.172.378.427.414.292.041.581.02.855-.109.112-.053.167-.122.17-.254.007-.424.004-.435-.417-.484-.089-.01-.18-.001-.27-.001h0Z"/><path class="cls-1" d="m103.413,26.225c-.165.229-.321.459-.494.675-.032.04-.148.05-.204.025-.353-.156-.71-.287-1.105-.266-.062.003-.126.005-.186.022-.156.043-.296.117-.293.304.003.179.145.246.293.278.36.077.724.139,1.083.218.148.033.294.086.434.147.859.376.772,1.352.376,1.807-.331.38-.766.56-1.249.599-.683.055-1.346-.05-1.961-.377-.048-.026-.091-.061-.165-.111.167-.253.323-.504.499-.742.026-.035.153-.027.215.002.407.191.819.355,1.282.31.096-.009.195-.024.283-.06.135-.056.264-.16.215-.314-.034-.106-.146-.228-.25-.262-.229-.076-.476-.094-.713-.15-.256-.06-.519-.111-.762-.209-.905-.364-.813-1.473-.344-1.914.26-.244.569-.38.912-.425.724-.093,1.415.021,2.059.377.023.013.04.035.075.066h0Z"/></svg>